<svg xmlns="http://www.w3.org/2000/svg" height="1152" preserveAspectRatio="none" style="display: block;" version="1.1" viewBox="0 0 1593 2048" width="896">
<path d="M 0 0 L 1593 0 L 1593 2048 L 0 2048 L 0 0 z" fill="rgb(255,255,255)" transform="translate(0,0)"></path>
<path d="M 733.342 800.231 C 760.635 799.023 788.607 800.058 816.027 799.677 C 832.984 800.351 851.36 798.254 868.07 800.674 C 882.801 802.807 887.668 815.554 888.253 828.329 C 889.128 847.401 887.744 868.799 888.73 887.247 C 891.329 935.856 872.797 932.731 834.5 932.283 L 752.653 932.61 C 742.597 940.963 729.418 957.181 719.221 967.207 C 719.115 960.641 720.562 937.236 717.95 933.219 C 715.394 933.185 715.263 933.295 712.745 932.45 C 712.648 932.203 712.551 931.957 712.454 931.71 C 711.21 900.727 712.306 869.421 711.885 838.374 C 711.628 819.402 712.299 806.876 733.342 800.231 z" fill="rgb(22,40,26)" transform="translate(0,0)"></path>
<path d="M 742.851 874.107 L 818.31 873.999 C 825.942 873.992 849.675 873.475 856.063 874.755 C 858.263 877.298 857.578 876.886 858.142 880.861 C 829.179 881.331 800.043 880.67 771.061 881.047 C 762.555 881.158 752.725 881.522 744.421 880.54 C 742.223 878.171 742.979 878.41 742.851 874.107 z" fill="rgb(255,255,255)" transform="translate(0,0)"></path>
<path d="M 743.033 844.832 C 763.464 843.96 787.289 844.973 808.058 844.609 C 819.649 844.407 845.161 843.837 855.888 845.009 C 858.196 846.844 857.447 846.677 857.96 850.741 C 845.861 850.761 747.096 852.126 743.587 849.541 L 743.033 844.832 z" fill="rgb(255,255,255)" transform="translate(0,0)"></path>
<path d="M 489.648 453.331 C 509.047 452.808 509.019 455.977 513.007 474.171 C 518.795 475.839 523.592 477.274 529.23 479.362 C 532.856 476.978 538.389 472.971 542.49 471.933 C 552.502 469.399 560.396 480.216 561.989 488.804 C 563.62 497.595 559.929 501.963 555.225 508.539 C 557.809 514.231 559.693 518.172 561.433 524.152 C 572.354 526.573 582.332 528.135 585.03 541.288 C 586.052 546.12 585.029 551.159 582.203 555.21 C 576.836 562.766 570.482 562.943 561.982 564.392 C 560.155 569.327 557.791 574.782 555.788 579.71 C 558.023 583.176 561.781 588.85 562.465 592.929 C 564.165 603.061 557.947 614.438 547.337 616.258 C 539.22 617.65 534.55 613.354 528.497 608.784 L 512.872 615.874 C 511.55 625.017 510.998 633.74 501.018 636.648 C 479.19 636.456 479.25 635.62 474.693 614.289 L 460.121 608.466 C 451.294 613.908 444.036 618.96 433.686 611.949 C 429.707 609.281 426.946 605.147 426.004 600.45 C 424.321 591.622 428.106 587.155 432.788 580.251 L 426.169 564.136 C 415.703 562.646 406.067 559.292 404.721 546.648 C 403.007 530.551 412.7 525.319 426.856 523.586 L 432.969 507.519 C 427.053 498.344 423.094 489.617 430.412 479.401 C 433.08 475.65 437.157 473.144 441.709 472.457 C 450.385 471.154 454.238 475.163 460.955 480.134 L 474.99 473.09 C 478.283 462.967 478.207 455.961 489.648 453.331 z" fill="rgb(22,40,26)" transform="translate(0,0)"></path>
<path d="M 490.425 505.622 C 512.09 503.215 531.671 518.655 534.382 540.284 C 537.094 561.912 521.931 581.709 500.342 584.724 C 486.105 586.712 471.899 580.881 463.165 569.463 C 454.431 558.045 452.521 542.809 458.166 529.588 C 463.811 516.368 476.137 507.21 490.425 505.622 z" fill="rgb(255,255,255)" transform="translate(0,0)"></path>
<path d="M 727.646 1478.28 C 770.826 1476.6 822.852 1477.85 866.633 1478.14 C 884.016 1487 880.114 1504.01 879.869 1521.02 C 866.767 1520.78 840.426 1516.9 835.973 1533.26 C 826.851 1566.76 859.465 1561.52 879.908 1561.6 L 880.081 1580.13 C 880.168 1586.22 879.982 1592.6 879.898 1598.72 C 877.459 1602.72 874.522 1606.62 870.362 1608.94 C 864.641 1612.13 750.038 1610.84 737.241 1610.11 C 732.238 1609.82 726.996 1609.1 722.22 1607.53 C 718.998 1606.47 716.564 1603.09 715.296 1600.06 C 712.535 1593.45 712.527 1495.76 715.739 1488.21 C 718.062 1482.74 722.534 1480.51 727.646 1478.28 z" fill="rgb(22,40,26)" transform="translate(0,0)"></path>
<path d="M 406.562 1807.16 C 411.034 1798.09 414.672 1793.61 425.481 1793.36 C 457.047 1792.64 488.694 1793.09 520.275 1792.97 C 532.909 1792.92 547.737 1791.85 559.55 1796.14 C 568.121 1807.31 564.504 1836.41 564.963 1848.81 C 565.628 1866.81 564.518 1877.67 564.522 1893.93 C 564.525 1906.23 557.176 1915.15 544.683 1914.7 C 503.82 1913.25 462.496 1914.72 421.581 1914.23 C 412.807 1914.12 410.805 1911.03 406.709 1904.12 C 404.887 1896.18 405.142 1816.25 406.562 1807.16 z" fill="rgb(22,40,26)" transform="translate(0,0)"></path>
<path d="M 407.74 1837.13 L 408.318 1834.15 L 410.079 1833.13 C 429.356 1833.1 554.364 1831.11 562.772 1834.13 L 561.412 1837.45 C 553.78 1838.54 522.525 1837.71 513.049 1837.68 L 407.74 1837.13 z" fill="rgb(255,255,255)" transform="translate(0,0)"></path>
<path d="M 406.709 1904.12 C 404.887 1896.18 405.142 1816.25 406.562 1807.16 C 406.882 1815.62 407.018 1824.09 406.971 1832.56 C 409.882 1832.3 420.852 1831.92 423.365 1832.14 C 438.686 1833.53 557.355 1829.76 562.326 1833.33 L 562.772 1834.13 C 554.364 1831.11 429.356 1833.1 410.079 1833.13 L 408.318 1834.15 L 407.74 1837.13 C 405.633 1842.9 407.457 1894.08 406.709 1904.12 z" fill="rgb(134,133,130)" transform="translate(0,0)"></path>
<path d="M 530.184 1865.95 C 553.256 1864.78 556.489 1893.19 535.997 1899.97 C 513.149 1898.99 511.056 1876.53 530.184 1865.95 z" fill="rgb(255,255,255)" transform="translate(0,0)"></path>
<path d="M 429.073 1803.74 C 433.539 1802.73 438.029 1805.33 439.374 1809.71 C 440.72 1814.08 438.466 1818.76 434.204 1820.43 C 431.144 1821.63 427.668 1821.02 425.204 1818.84 C 422.74 1816.67 421.703 1813.29 422.519 1810.11 C 423.335 1806.92 425.866 1804.46 429.073 1803.74 z" fill="rgb(255,255,255)" transform="translate(0,0)"></path>
<path d="M 449.478 1803.63 C 453.897 1802.23 458.637 1804.55 460.243 1808.9 C 461.849 1813.25 459.753 1818.09 455.483 1819.89 C 452.54 1821.14 449.15 1820.67 446.661 1818.66 C 444.172 1816.66 442.986 1813.45 443.575 1810.3 C 444.164 1807.16 446.432 1804.6 449.478 1803.63 z" fill="rgb(255,255,255)" transform="translate(0,0)"></path>
<path d="M 188.773 790.373 C 212.569 788.759 232.933 793.535 252.69 807.185 C 277.084 824.038 286.412 854.52 274.016 881.7 C 270.592 889.208 266.503 894.618 261.653 901.226 C 264.639 912.841 267.423 923.78 271.071 935.197 C 263.802 932.343 233.511 919.868 227.797 919.824 C 184.503 934.103 123.963 915.862 116.499 865.697 C 114.093 849.712 118.225 833.432 127.962 820.529 C 142.475 801.485 165.918 793.438 188.773 790.373 z" fill="rgb(22,40,26)" transform="translate(0,0)"></path>
<path d="M 1133.42 797.297 C 1137 797.084 1139.87 796.953 1143.45 797.405 C 1155.94 798.894 1167.28 805.422 1174.83 815.476 C 1183.43 826.936 1187.01 841.387 1184.78 855.535 C 1180.33 885.537 1123.93 933.373 1099.25 951.601 C 1089.9 944.6 1080.55 936.436 1071.71 928.809 C 1070.68 927.894 1069.67 926.968 1068.66 926.031 C 1041.26 900.409 993.544 848.832 1029.23 811.67 C 1037.51 803.058 1048.87 798.099 1060.82 797.89 C 1077.66 797.59 1088.11 806.426 1099.43 817.328 C 1111.02 807.081 1118.55 801.474 1133.42 797.297 z" fill="rgb(22,40,26)" transform="translate(0,0)"></path>
<path d="M 121.91 1814.98 C 125.452 1815.95 161.389 1815.62 167.569 1815.62 L 275.734 1815.76 L 275.929 1879.73 C 275.942 1894.1 278.603 1916.29 269.601 1927.33 C 263.595 1931.72 258.659 1932.87 251.217 1932.74 C 222.063 1932.2 192.872 1932.18 163.728 1932.72 C 149.617 1932.82 125.655 1936.18 122.635 1916.65 C 120.864 1905.21 121.756 1889.52 121.82 1877.87 L 121.91 1814.98 z" fill="rgb(22,40,26)" transform="translate(0,0)"></path>
<path d="M 152.929 1894.73 C 160.335 1894.56 167.743 1894.54 175.15 1894.67 L 175.119 1910.05 L 152.859 1910.06 L 152.929 1894.73 z" fill="rgb(255,255,255)" transform="translate(0,0)"></path>
<path d="M 152.934 1867.81 C 160.274 1867.75 167.616 1867.75 174.957 1867.81 L 174.958 1883.14 L 152.908 1883.12 L 152.934 1867.81 z" fill="rgb(255,255,255)" transform="translate(0,0)"></path>
<path d="M 226.797 1839.49 C 232.905 1839.43 239.014 1839.49 245.119 1839.65 C 245.224 1844.22 247.479 1854.9 242.25 1855.1 L 223.305 1855.11 C 223.28 1849.75 220.843 1839.81 226.797 1839.49 z" fill="rgb(255,255,255)" transform="translate(0,0)"></path>
<path d="M 223.263 1867.78 C 230.644 1867.71 238.025 1867.72 245.405 1867.81 C 245.401 1872.93 245.405 1877.82 245.201 1882.94 L 223.267 1883.01 C 223.211 1877.94 223.21 1872.86 223.263 1867.78 z" fill="rgb(255,255,255)" transform="translate(0,0)"></path>
<path d="M 153.294 1839.78 C 160.459 1839.57 167.627 1839.52 174.794 1839.64 C 174.831 1844.83 174.841 1850.03 174.826 1855.22 L 153.142 1855.19 C 153.112 1850.05 153.163 1844.91 153.294 1839.78 z" fill="rgb(255,255,255)" transform="translate(0,0)"></path>
<path d="M 187.768 1895.02 L 209.761 1895.03 L 209.743 1909.84 C 202.409 1909.92 195.075 1909.95 187.74 1909.92 C 187.7 1904.95 187.709 1899.98 187.768 1895.02 z" fill="rgb(255,255,255)" transform="translate(0,0)"></path>
<path d="M 223.159 1894.82 C 230.443 1894.66 237.729 1894.65 245.013 1894.8 L 244.998 1909.95 L 223.146 1909.91 C 223.112 1904.88 223.117 1899.85 223.159 1894.82 z" fill="rgb(255,255,255)" transform="translate(0,0)"></path>
<path d="M 188.153 1839.85 C 195.125 1839.67 202.099 1839.59 209.074 1839.63 L 209.134 1855.11 L 188.124 1855.1 L 188.153 1839.85 z" fill="rgb(255,255,255)" transform="translate(0,0)"></path>
<path d="M 188.106 1867.95 C 195.301 1867.84 202.498 1867.82 209.694 1867.87 L 209.623 1882.91 C 202.648 1883.11 195.136 1882.96 188.101 1882.96 L 188.106 1867.95 z" fill="rgb(255,255,255)" transform="translate(0,0)"></path>
<path d="M 1019.22 1499.38 C 1018.62 1489.83 1018.58 1477.9 1031.4 1476.9 C 1036.41 1476.51 1041.01 1476.14 1046.16 1476.13 C 1086.17 1476.07 1126.16 1476.31 1166.17 1476.25 C 1173.94 1476.23 1181.84 1478.3 1182.84 1487.32 C 1184.01 1515.13 1182.76 1543.29 1183.22 1571.16 C 1183.35 1579.21 1176.58 1585.09 1168.84 1584.99 C 1150.07 1585 1131.19 1584.86 1112.4 1584.9 L 1061.33 1584.99 C 1050.81 1585.02 1039.94 1585.52 1029.52 1584.15 C 1024.76 1583.52 1021.43 1579.64 1019.92 1575.29 C 1017.86 1567.75 1019.08 1510.26 1019.22 1499.38 z" fill="rgb(22,40,26)" transform="translate(0,0)"></path>
<path d="M 1022.33 1509.72 C 1036.81 1508.99 1175.62 1508.53 1178.85 1510.67 C 1180.64 1513.87 1180.42 1512.55 1180.39 1516.04 C 1176.22 1521.51 1164.4 1520.44 1158 1520.15 C 1113.54 1518.14 1067.11 1522.02 1022.84 1519.94 C 1023.34 1515.43 1023.04 1514.1 1022.33 1509.72 z" fill="rgb(255,255,255)" transform="translate(0,0)"></path>
<path d="M 1142.31 1539.06 C 1150.67 1536.05 1159.89 1540.37 1162.94 1548.71 C 1165.98 1557.06 1161.71 1566.3 1153.38 1569.39 C 1144.99 1572.49 1135.68 1568.19 1132.61 1559.79 C 1129.54 1551.38 1133.89 1542.09 1142.31 1539.06 z" fill="rgb(255,255,255)" transform="translate(0,0)"></path>
<path d="M 1068.42 181.465 C 1074.08 173.313 1062.26 143.034 1088.32 135.881 C 1118.12 127.703 1138.22 148.114 1130.83 179.619 L 1129.68 180.895 L 1128 179.941 C 1125.2 168.852 1128.46 147.011 1116.7 142.092 C 1083.46 128.198 1068.66 153.664 1074.62 181.957 C 1087.63 180.68 1112.61 181.373 1126.41 181.356 C 1126.21 186.895 1125.04 198.795 1128.67 202.695 C 1132.49 198.393 1131.39 187.559 1131.25 181.598 C 1140 181.472 1149.13 180.173 1156.17 186.438 C 1160.7 190.476 1171.83 284.489 1172.54 297.088 C 1172.79 301.481 1172.11 304.917 1168.92 308.172 C 1166.25 310.897 1162.5 311.539 1158.86 311.914 C 1144.24 313.421 1128.42 312.039 1113.62 311.942 C 1092.3 311.803 1070.99 312.442 1049.68 312.413 C 1043.57 312.405 1035.74 312.145 1031.36 307.307 C 1028.78 304.455 1028.23 300.815 1028.39 297.106 C 1029.12 280.763 1032.63 263.747 1034.82 247.499 C 1037.21 229.684 1038.22 209.705 1043.09 192.449 C 1043.96 189.369 1044.77 187.296 1047.29 185.182 C 1053.32 180.114 1061.14 181.036 1068.42 181.465 z" fill="rgb(22,40,26)" transform="translate(0,0)"></path>
<path d="M 1068.96 181.978 C 1070.68 182.022 1072.29 182.115 1074.01 182.216 C 1073.91 184.822 1074.16 202.586 1073.51 203.188 C 1066.55 209.638 1069.02 185.867 1068.96 181.978 z" fill="rgb(255,255,255)" transform="translate(0,0)"></path>
<path d="M 426.565 1468.2 C 438.045 1467.49 458.369 1468.36 470.381 1468.52 C 493.414 1468.78 516.449 1468.9 539.483 1468.88 C 544.584 1468.91 556.502 1467.88 559.656 1472.52 C 563.612 1478.33 558.655 1483.77 554.382 1487.77 C 549.956 1523.26 547.469 1562.19 543.762 1598.22 C 542.742 1601.41 541.336 1604.56 538.679 1606.74 C 536.155 1608.81 533.06 1609.68 529.881 1610.14 C 523.015 1611.14 514.977 1609.91 507.968 1609.94 C 491.325 1610.02 474.028 1611.26 457.449 1610.06 C 453.184 1609.75 447.789 1609.16 445.132 1605.4 C 435.919 1592.34 433.75 1492.4 429.052 1487 C 427.24 1484.92 423.877 1484.05 422.048 1481.58 C 420.908 1480.03 420.64 1477.68 420.938 1475.83 C 421.52 1472.22 423.733 1470.22 426.565 1468.2 z" fill="rgb(22,40,26)" transform="translate(0,0)"></path>
<path d="M 523.305 1494.34 C 525.588 1494.67 526.08 1494.89 528.209 1495.61 C 530.041 1500.02 523.488 1578.94 521.209 1585.9 C 518.725 1585.09 518.858 1585.07 516.785 1583.43 C 515.925 1577.23 521.577 1502.26 523.305 1494.34 z" fill="rgb(255,255,255)" transform="translate(0,0)"></path>
<path d="M 456.143 1494.59 C 457.91 1494.82 459.643 1495.12 461.401 1495.41 C 463.971 1498.98 468.633 1575.39 468.425 1585.1 C 465.538 1584.79 465.238 1584.97 462.727 1583.4 C 461.516 1578.29 460.344 1558.41 460.016 1551.93 C 459.095 1533.75 456.224 1512.45 456.143 1494.59 z" fill="rgb(255,255,255)" transform="translate(0,0)"></path>
<path d="M 491.545 1494.3 C 493.888 1494.95 493.761 1494.83 495.328 1496.68 C 496.147 1506.39 496.098 1580.58 493.912 1585.64 L 489.613 1583.52 C 489.483 1582.6 489.377 1581.67 489.293 1580.75 C 487.989 1566.69 489.456 1514.89 489.554 1496.64 C 490.218 1495.86 490.881 1495.08 491.545 1494.3 z" fill="rgb(255,255,255)" transform="translate(0,0)"></path>
<path d="M 1384.99 474.902 C 1378.08 454.387 1411.79 452.037 1407.24 474.936 C 1456.61 486.749 1442.1 530.785 1452.73 566.934 C 1456.77 580.678 1480.2 589.638 1465.74 604.324 C 1438.69 611.823 1372.19 602.173 1341.4 606.194 C 1335.53 606.961 1323.23 606.398 1321.31 598.615 C 1318.2 585.966 1329.02 581.209 1333.5 572.422 C 1353.71 532.798 1328.71 491.339 1384.99 474.902 z" fill="rgb(22,40,26)" transform="translate(0,0)"></path>
<path d="M 1393.01 464.346 C 1400.16 465.16 1406.18 471.933 1400.98 473.907 C 1390.11 473.859 1386.14 475.932 1393.01 464.346 z" fill="rgb(255,255,255)" transform="translate(0,0)"></path>
<path d="M 1138.7 1773.52 L 1151.9 1773.29 C 1160.37 1777.71 1162.54 1780.51 1166.87 1788.61 C 1166.7 1802.27 1165.16 1833.19 1163.46 1845.88 C 1145.84 1867.25 1119.88 1888.08 1100.88 1908.9 C 1083.74 1927.7 1076.89 1934.67 1058.58 1914.25 C 1046.59 1901.8 1033.26 1888.91 1022.66 1875.27 C 1010.06 1859.09 1024.9 1847.46 1036.01 1836.63 C 1050.5 1822.51 1065.48 1807.66 1079.82 1793.31 C 1086.24 1786.91 1093.63 1778.85 1101.19 1773.98 C 1110.79 1773.09 1128.82 1773.55 1138.7 1773.52 z" fill="rgb(22,40,26)" transform="translate(0,0)"></path>
<path d="M 1136.32 1792.71 C 1141.46 1792.65 1145.75 1796.63 1146.06 1801.77 C 1146.37 1806.9 1142.6 1811.38 1137.49 1811.94 C 1133.95 1812.33 1130.49 1810.74 1128.48 1807.8 C 1126.47 1804.87 1126.24 1801.06 1127.88 1797.91 C 1129.51 1794.75 1132.76 1792.75 1136.32 1792.71 z" fill="rgb(255,255,255)" transform="translate(0,0)"></path>
<path d="M 146.856 1114.96 L 247.957 1114.91 L 247.912 1272.53 C 240.536 1262.89 229.523 1250.97 221.338 1241.61 C 213.501 1232.54 205.582 1223.54 197.581 1214.62 C 180.729 1231.54 163.927 1253.22 146.907 1271.2 C 145.941 1220.17 146.847 1166.23 146.856 1114.96 z" fill="rgb(22,40,26)" transform="translate(0,0)"></path>
<path d="M 196.093 163.991 C 198.669 166.358 201.161 169.374 203.661 171.883 C 224.363 192.66 244.56 214.435 265.886 234.543 C 265.631 253.235 267.21 274.724 265.207 293.117 C 264.333 301.133 259.957 304.753 253.813 308.867 C 241.453 309.018 229.093 309.104 216.732 309.128 C 216.783 297.981 218.172 264.951 214.579 256.148 C 210.27 252.046 202.583 253.076 196.249 253.062 C 190.192 252.922 181.038 251.734 176.733 255.589 C 173.523 263.341 174.876 298.672 174.945 308.906 L 148.987 309.309 C 137.389 309.389 127.276 306.007 126.267 292.263 C 124.865 273.146 125.76 252.813 125.902 233.505 C 147.982 212.278 175.669 185.806 196.093 163.991 z" fill="rgb(22,40,26)" transform="translate(0,0)"></path>
<path d="M 185.502 556.448 L 197.921 556.164 C 220.07 555.713 236.01 552.627 255.608 570.496 C 270.281 582.224 283.904 623 272.29 638.084 C 267.241 644.642 220.275 642.177 210.5 642.118 L 159.071 642.214 C 143.457 642.233 117.725 646.811 117.161 625.12 C 116.51 600.147 127.501 573.308 150.303 561.079 C 158.828 556.508 175.938 556.705 185.502 556.448 z" fill="rgb(22,40,26)" transform="translate(0,0)"></path>
<path d="M 1360.72 210.731 C 1367.81 219.007 1373.47 223.93 1385.7 222.422 C 1393.97 221.403 1397.87 216.859 1402.57 210.608 C 1416.05 228.536 1431.4 227.325 1445.73 211.605 C 1451.35 219.802 1454.71 221.662 1463.85 223.445 L 1463.76 281.365 C 1463.77 286.134 1464.15 306.549 1463.33 310.244 L 1461.22 311.161 L 1332.68 311.248 L 1332.58 223.121 C 1346.65 223.014 1351.76 222.156 1360.72 210.731 z" fill="rgb(22,40,26)" transform="translate(0,0)"></path>
<path d="M 1356.96 231.948 C 1361.99 232.17 1399.97 232.826 1400.21 235.418 C 1400.91 243.026 1403.01 296.078 1398.65 299.338 L 1397.75 300.027 C 1390.58 300.151 1350.63 303.739 1352.12 294.011 C 1354.57 278.078 1346.92 243.29 1356.96 231.948 z" fill="rgb(255,255,255)" transform="translate(0,0)"></path>
<path d="M 1069.7 461.875 C 1103.51 457.327 1134.61 481.026 1139.19 514.827 C 1143.77 548.629 1120.1 579.75 1086.3 584.364 C 1052.46 588.985 1021.28 565.276 1016.7 531.428 C 1012.11 497.58 1035.85 466.429 1069.7 461.875 z" fill="rgb(22,40,26)" transform="translate(0,0)"></path>
<path d="M 1074.05 478.35 C 1098.69 476.233 1120.42 494.389 1122.72 519.011 C 1125.02 543.633 1107.03 565.501 1082.42 567.987 C 1057.56 570.498 1035.41 552.272 1033.08 527.388 C 1030.75 502.504 1049.15 480.489 1074.05 478.35 z" fill="rgb(255,255,255)" transform="translate(0,0)"></path>
<path d="M 1069.71 487.904 C 1071.31 487.949 1074.65 487.51 1075.79 489.053 C 1076.02 491.262 1068.85 492.438 1066.6 493.329 C 1056.69 497.241 1052.43 504.451 1048.57 513.731 C 1047.79 521.429 1043.34 515.918 1048.23 506.555 C 1054.17 495.169 1058.15 492.38 1069.71 487.904 z" fill="rgb(22,40,26)" transform="translate(0,0)"></path>
<path d="M 1338.73 1444.49 C 1339.95 1444.47 1342.68 1444.94 1344.02 1445.13 C 1349.86 1448.83 1350.28 1458.38 1354.19 1466.6 L 1354.82 1467.9 C 1390.89 1467.93 1427.18 1467.73 1463.27 1467.91 C 1467.36 1467.93 1474.4 1468.83 1477.24 1471.99 C 1477.93 1479.93 1462.13 1526.74 1458.1 1534.94 C 1451.24 1536.57 1434.77 1538.1 1427.02 1538.98 L 1368.88 1545.47 C 1364.67 1550.59 1359.09 1555.63 1362.54 1562.41 C 1368.29 1566.86 1380.86 1565.38 1388.5 1565.21 L 1431.09 1565.1 C 1439.33 1565 1460.65 1561.1 1460.39 1572.89 C 1455.45 1578.01 1423.81 1576.08 1415.09 1575.78 C 1400.76 1575.28 1380.39 1577.79 1366.65 1575.45 C 1340.59 1571.01 1347.77 1551.44 1361.35 1537.51 C 1356.52 1516.21 1346.28 1475.08 1338.53 1455.28 C 1330.84 1455.3 1317.27 1456.64 1312.27 1450.02 L 1313.32 1448.17 C 1321.25 1443.37 1329.55 1444.42 1338.73 1444.49 z" fill="rgb(22,40,26)" transform="translate(0,0)"></path>
<path d="M 792.788 129.107 C 809.809 128.472 812.662 135.62 813.198 151.333 C 820.469 150.999 841.483 148.133 837.906 163.378 C 835.359 174.236 820.985 167.041 814.445 170.491 C 813.27 173.505 813.735 178.574 813.806 182.007 C 822.505 181.746 836.103 180.391 839.762 190.842 C 836.974 202.197 822.907 200.631 813.911 200.276 C 814.015 236.431 815.678 273.724 816.215 310.089 L 802.75 310.173 L 778.122 310.154 C 779.615 273.804 779.868 236.733 781.109 200.224 C 770.598 200.426 760.286 202.875 756.404 190.599 C 758.583 181.627 772.726 181.779 780.302 181.433 C 781.069 180.099 781.76 174.878 781.28 173.467 C 778.282 164.648 757.243 176.779 757.647 161.01 C 757.973 148.299 773.431 150.927 781.866 151.129 L 782.038 139.002 C 785.701 133.646 787.508 132.244 792.788 129.107 z" fill="rgb(22,40,26)" transform="translate(0,0)"></path>
<path d="M 197.072 1442.9 C 222.174 1442.27 214.07 1491.43 214.012 1510.94 C 223.773 1510.86 268.39 1508.38 273.334 1515.22 C 295.6 1546.06 230.207 1538.22 213.644 1538.13 C 213.633 1551.36 214.341 1564.68 214.22 1577.89 C 214.098 1591.27 216.17 1602.36 201.714 1608.07 C 198.271 1607.29 195.102 1606.58 192.487 1604.05 C 184.361 1596.19 187.896 1551.56 187.925 1537.92 L 131.859 1537.89 C 124.101 1532.39 118.676 1523.04 125.944 1516.56 C 136.217 1507.39 175.788 1511.39 187.837 1511.61 C 188.077 1493.77 186.758 1474.38 188.184 1456.7 C 188.759 1449.58 191.736 1446.75 197.072 1442.9 z" fill="rgb(22,40,26)" transform="translate(0,0)"></path>
<path d="M 488.782 239.404 C 521.268 236.35 549.521 241.405 558.034 278.745 C 559.865 286.777 561.675 298.538 556.984 305.814 C 551.374 309.092 516.949 307.634 507.5 307.621 C 496.736 307.661 443.881 309.82 437.67 305.583 C 435.235 303.923 434.407 300.255 434.197 297.523 C 433.189 284.39 440.171 267.83 448.467 257.901 C 459.159 245.105 472.715 240.858 488.782 239.404 z" fill="rgb(22,40,26)" transform="translate(0,0)"></path>
<path d="M 1104.84 1133.03 C 1110.91 1133.13 1121.24 1135.75 1120.85 1143.3 C 1120.19 1156.28 1104.13 1167.89 1095.77 1177.02 C 1106.43 1177.25 1157.63 1174.41 1163.63 1179.7 C 1166.78 1182.47 1169.88 1187.66 1169.71 1191.96 C 1169.61 1194.5 1168.4 1196.67 1166.55 1198.36 C 1156.04 1207.98 1108.48 1203.65 1092.76 1203.42 C 1097.54 1208.69 1103.23 1214.31 1108.23 1219.48 C 1110.51 1221.81 1113.2 1224.41 1115.2 1226.86 C 1128.03 1242.3 1112.97 1260.93 1096.34 1245.66 C 1086.26 1236.41 1077.08 1225.56 1067.26 1215.95 C 1062.27 1211.05 1046.21 1196.55 1048.69 1189.48 C 1051.61 1181.16 1064.02 1172.25 1070.13 1165.94 C 1079.08 1157.76 1094.36 1137.58 1104.84 1133.03 z" fill="rgb(22,40,26)" transform="translate(0,0)"></path>
<path d="M 1398.78 1842.88 L 1462.15 1842.99 C 1461.99 1862.3 1462.47 1881.67 1462.32 1900.96 C 1462.25 1910.42 1463.88 1925.86 1459.01 1933.67 C 1450.61 1939 1411.32 1936.78 1398.88 1936.66 L 1398.78 1842.88 z" fill="rgb(22,40,26)" transform="translate(0,0)"></path>
<path d="M 1329.77 1842.84 L 1393.18 1842.93 L 1393.13 1936.7 C 1383.97 1936.43 1341.31 1938.48 1334.71 1933.82 C 1328.22 1929.24 1329.69 1904.41 1329.7 1894.74 L 1329.77 1842.84 z" fill="rgb(22,40,26)" transform="translate(0,0)"></path>
<path d="M 193.268 126.997 C 197.857 126.758 200.752 126.261 204.341 129.561 C 212.657 137.209 220.422 145.593 228.374 153.633 C 240.691 166.087 252.925 178.623 265.074 191.242 C 272.692 199.135 293.253 214.909 283.082 226.582 C 279.116 231.135 270.152 231.325 265.803 227.281 C 242.483 205.597 221.466 181.219 198.639 159.07 L 196.072 158.038 C 186.891 161.504 141.963 211.547 130.366 221.969 C 126.553 225.396 120.965 229.704 115.547 229.064 C 112.789 228.738 110.058 226.392 108.588 224.145 C 106.971 221.674 106.266 218.286 106.989 215.395 C 109.047 207.171 182.364 133.588 193.268 126.997 z" fill="rgb(22,40,26)" transform="translate(0,0)"></path>
<path d="M 231.11 1775.06 C 230.748 1767.99 229.585 1763.7 236.201 1759.44 C 244.178 1759.96 242.886 1769.46 242.679 1774.99 L 261.69 1775.14 C 278.583 1783.48 276.259 1794.26 275.54 1810.18 L 261.25 1810.27 L 121.77 1810.55 C 121.315 1784.66 121.793 1774.55 151.424 1774.99 C 151.226 1770.45 151.224 1765.72 151.158 1761.17 C 154.803 1761.03 157.845 1760.47 160.975 1762.08 C 163.191 1765.2 162.271 1770.78 162.113 1775.02 L 231.11 1775.06 z" fill="rgb(22,40,26)" transform="translate(0,0)"></path>
<path d="M 189.364 461.201 C 238.714 456.391 255.92 530.655 204.307 546.339 C 148.679 551.855 141.43 477.473 189.364 461.201 z" fill="rgb(22,40,26)" transform="translate(0,0)"></path>
<path d="M 570.867 806.906 L 571.784 808.376 C 558.759 834.458 544.459 860.328 530.62 886.045 C 519.29 907.1 507.228 931.696 495.082 951.983 C 493.494 946.746 491.375 940.976 489.581 935.747 L 470.143 880.489 C 504.433 858.812 537.116 828.28 570.867 806.906 z" fill="rgb(22,40,26)" transform="translate(0,0)"></path>
<path d="M 521.807 1138.55 C 525.808 1139.74 545.358 1161.7 550.027 1166.53 C 522.543 1194.16 495.445 1222.18 468.743 1250.58 C 467.184 1250.28 444.968 1225.55 441.505 1222.25 C 467.16 1194.1 496.838 1166.98 521.807 1138.55 z" fill="rgb(22,40,26)" transform="translate(0,0)"></path>
<path d="M 724.214 1186.4 C 728.571 1186.06 732.976 1186.09 737.347 1186.07 C 777.14 1185.86 816.878 1185.87 856.678 1185.94 C 867.631 1185.97 877.247 1185.84 875.501 1200.19 C 874.831 1205.7 874.328 1208.15 870.019 1211.89 C 823.619 1213.11 775.792 1211.07 729.283 1211.65 C 714.951 1211.83 716.135 1192.6 724.214 1186.4 z" fill="rgb(22,40,26)" transform="translate(0,0)"></path>
<path d="M 726.152 1232.28 C 772.677 1231.54 822.805 1231.62 869.436 1233.03 C 874.481 1233.18 880.241 1251.33 868.189 1257.88 C 832.293 1258.5 763.657 1258.27 724.732 1256.84 C 719.786 1256.66 713.218 1237.22 726.152 1232.28 z" fill="rgb(22,40,26)" transform="translate(0,0)"></path>
<path d="M 786.829 1772.41 C 814.122 1769.79 849.332 1780.66 869.402 1800.07 C 880.807 1806.88 868.5 1825.38 860.684 1820.59 C 841.746 1809 829.631 1801.02 806.974 1797.05 C 785.952 1795.88 766.114 1798.59 747.924 1810.19 C 741.991 1813.8 736.921 1818.63 730.074 1820.41 C 720.479 1822.91 713.328 1808.84 720.068 1802.19 C 738.652 1783.84 760.99 1774.83 786.829 1772.41 z" fill="rgb(22,40,26)" transform="translate(0,0)"></path>
<path d="M 724.491 1142.14 C 768.253 1140.12 814.292 1143.12 858.323 1141.71 C 861.829 1142.03 870.341 1141.26 872.594 1144.69 C 877.237 1151.75 875.075 1162.08 868.934 1167.09 C 824.827 1169.38 778.615 1166.38 734.35 1167.66 C 714.886 1168.22 714.557 1150.41 724.491 1142.14 z" fill="rgb(22,40,26)" transform="translate(0,0)"></path>
<path d="M 562.469 804.08 L 564.374 804.108 C 562.975 807.18 475.834 869.884 465.585 877.509 C 456.248 871.58 446.865 865.724 437.435 859.945 C 429.816 855.588 422.302 851.343 414.863 846.676 C 463.887 831.868 513.093 817.668 562.469 804.08 z" fill="rgb(22,40,26)" transform="translate(0,0)"></path>
<path d="M 487.235 163.217 C 495.257 162.545 497.91 162.476 505.45 165.194 C 529.969 174.033 532.155 211.861 512.789 226.716 C 509.718 229.072 506.448 229.935 502.908 231.312 C 456.151 237.738 450.609 177.305 487.235 163.217 z" fill="rgb(22,40,26)" transform="translate(0,0)"></path>
<path d="M 1425.17 816.768 C 1437.41 819.347 1447.61 837.714 1457.96 845.384 C 1485.73 865.658 1454.76 875.877 1442.83 892.115 C 1429.08 910.828 1407.93 900.525 1422.68 883.711 L 1432.36 873.188 C 1421.02 872.818 1389.3 876.262 1381.55 869.203 C 1379.91 867.711 1379.11 865.973 1379.04 863.755 C 1378.94 861 1380.11 858.36 1382 856.393 C 1387.88 850.305 1426.9 852.927 1437.44 852.947 C 1427.38 844.005 1406.25 827.753 1425.17 816.768 z" fill="rgb(22,40,26)" transform="translate(0,0)"></path>
<path d="M 555.397 175.082 C 594.773 173.365 601.39 224.721 567.69 236.746 C 524.558 240.029 523.839 185.313 555.397 175.082 z" fill="rgb(22,40,26)" transform="translate(0,0)"></path>
<path d="M 549.57 245.292 C 558.537 245.172 567.212 245.63 576.005 246.792 C 598.577 249.773 612.996 269.789 614.681 291.503 C 615.178 297.914 615.644 299.091 611.738 303.847 C 602.599 305.392 577.854 304.811 567.831 304.656 C 566.796 283.485 565.107 264.142 549.061 248.425 C 547.457 246.854 548.152 246.412 549.57 245.292 z" fill="rgb(22,40,26)" transform="translate(0,0)"></path>
<path d="M 1339.77 135.998 C 1348.12 135.339 1357.56 135.75 1366.02 135.905 C 1362.39 157.619 1361.63 183.062 1356.59 204.554 C 1355.04 211.171 1351.84 213.287 1346.31 216.12 C 1328.94 220.928 1317.69 208.995 1322.51 194.206 C 1326.9 180.714 1333.16 146.844 1339.77 135.998 z" fill="rgb(22,40,26)" transform="translate(0,0)"></path>
<path d="M 791.625 1819.41 C 808.309 1818.73 829.302 1824.09 841.963 1835.4 C 846.301 1839.28 852.627 1850.66 845.863 1854.7 C 835.156 1861.1 823.973 1851.55 814.552 1847.37 C 810.779 1845.69 806.556 1844.79 802.654 1843.86 C 788.134 1843.21 778.036 1843.92 766.005 1853.2 C 749.944 1865.59 737.954 1849.26 746.971 1837.99 C 755.951 1826.78 777.035 1820.5 791.625 1819.41 z" fill="rgb(22,40,26)" transform="translate(0,0)"></path>
<path d="M 1372.01 135.527 L 1399.69 135.68 C 1398.45 157.723 1400.81 184.212 1398.97 205.144 C 1395.96 209.909 1395.45 210.774 1391.12 214.572 C 1349.42 235.049 1369.19 153.545 1372.01 135.527 z" fill="rgb(22,40,26)" transform="translate(0,0)"></path>
<path d="M 1405.42 135.427 C 1414.02 135.196 1422.99 135.376 1431.62 135.422 C 1434.88 155.465 1440.62 184.621 1440.37 204.873 C 1440.34 207.299 1437.53 211.359 1436.05 213.514 C 1423.58 221.727 1407.34 217.5 1406.14 201.56 C 1404.52 180.01 1405.38 157.189 1405.42 135.427 z" fill="rgb(22,40,26)" transform="translate(0,0)"></path>
<path d="M 428.223 245.231 C 435.334 244.491 445.346 244.843 452.662 244.947 C 432.196 265.345 427.457 276.223 427.354 305.023 C 421.301 304.955 415.247 304.933 409.193 304.957 C 403.359 304.974 392.549 305.86 386.993 303.932 C 385.62 303.455 383.728 300.127 383.665 298.507 C 382.504 268.656 399.612 250.403 428.223 245.231 z" fill="rgb(22,40,26)" transform="translate(0,0)"></path>
<path d="M 1437.44 135.433 C 1444.68 135.175 1456.19 134.096 1462.54 136.821 C 1467.47 143.152 1478.76 188.602 1481.7 199.347 C 1483.02 204.195 1479.87 208.745 1477.16 212.591 C 1465.66 220.449 1451.27 218.471 1448.02 203.698 C 1443.17 181.628 1440.71 157.938 1437.44 135.433 z" fill="rgb(22,40,26)" transform="translate(0,0)"></path>
<path d="M 430.148 177.158 C 440.524 176.346 448.147 176.642 454.817 186.01 L 456.962 189.07 C 456.628 206.848 455.835 201.316 459.933 218.483 C 454.03 229.116 450.877 232.907 438.526 235.717 C 405.729 235.779 397.958 189.906 430.148 177.158 z" fill="rgb(22,40,26)" transform="translate(0,0)"></path>
<path d="M 1395.93 1792.36 C 1399.78 1788.03 1404.37 1782.99 1407.94 1778.55 C 1424.73 1757.65 1432.38 1753.97 1445.88 1779.92 C 1446.11 1788.55 1439.64 1792.42 1433.09 1796.59 C 1411.54 1797.62 1383.96 1797 1362.06 1796.76 C 1343.21 1786.27 1347.03 1772.81 1361.98 1760.92 C 1375.74 1760.99 1380.04 1775.1 1388.57 1783.88 C 1391.05 1786.44 1393.53 1789.66 1395.93 1792.36 z" fill="rgb(22,40,26)" transform="translate(0,0)"></path>
<path d="M 1398.75 1805.92 C 1420.38 1806.11 1443.75 1805.05 1465.02 1807.2 C 1473.28 1808.04 1471.22 1829.49 1468.31 1835.75 C 1463.04 1838.93 1409.08 1837.66 1398.74 1837.45 L 1398.75 1805.92 z" fill="rgb(22,40,26)" transform="translate(0,0)"></path>
<path d="M 1328.51 1806.21 C 1348.85 1805.26 1372.52 1805.97 1393.2 1805.89 C 1393.21 1811.35 1393.67 1830.7 1392.75 1836.61 C 1392.67 1837.13 1390.8 1837.32 1390.01 1837.31 L 1387.25 1837.3 C 1367.6 1837.29 1346.46 1837.5 1326.95 1836.89 C 1320.86 1836.7 1315.6 1813.94 1328.51 1806.21 z" fill="rgb(22,40,26)" transform="translate(0,0)"></path>
<path d="M 1361.45 873.86 C 1364.02 873.629 1368.06 873.97 1370.03 875.629 C 1381.51 885.282 1355.32 905.925 1348.42 913.242 C 1354.49 921.109 1393.53 953.22 1360.04 954.113 C 1348.87 945.115 1334.75 930.089 1325.56 918.924 C 1318.97 910.904 1330.51 903.12 1335.8 897.637 C 1343.94 889.189 1351.16 880.157 1361.45 873.86 z" fill="rgb(22,40,26)" transform="translate(0,0)"></path>
<path d="M 790.472 1864.84 C 803.954 1861.68 817.423 1870.13 820.455 1883.64 C 823.487 1897.15 814.919 1910.54 801.381 1913.45 C 788.017 1916.32 774.835 1907.89 771.842 1894.55 C 768.849 1881.21 777.162 1867.95 790.472 1864.84 z" fill="rgb(22,40,26)" transform="translate(0,0)"></path>
<path d="M 1132.85 561.671 C 1143.49 569.531 1161.33 596.369 1172.47 606.057 C 1173.53 606.984 1175.75 611.342 1175.72 612.961 C 1175.48 623.972 1170 627.006 1159.97 627.558 C 1151.12 621.841 1123.49 589.708 1115.02 580.041 C 1124.06 572.569 1125.59 570.745 1132.85 561.671 z" fill="rgb(22,40,26)" transform="translate(0,0)"></path>
<path d="M 762.454 1470.41 C 775.604 1466.38 846.745 1444.07 855.067 1448.49 C 858.595 1450.37 860.609 1454.1 861.659 1457.81 C 862.943 1462.35 863.165 1467.89 863.37 1472.61 C 858.859 1473.57 763.724 1473.61 757.801 1472.29 C 759.042 1470.67 759.872 1471.01 762.454 1470.41 z" fill="rgb(22,40,26)" transform="translate(0,0)"></path>
<path d="M 863.37 1472.61 C 858.859 1473.57 763.724 1473.61 757.801 1472.29 C 759.042 1470.67 759.872 1471.01 762.454 1470.41 L 762.989 1471.62 C 768.244 1472.55 780.748 1472.13 786.677 1472.09 L 836.765 1472.01 C 842.567 1472.01 858.08 1471.78 863.37 1472.61 z" fill="rgb(134,133,130)" transform="translate(0,0)"></path>
<path d="M 854.743 519.159 C 871.176 518.985 876.487 526.717 875.924 541.997 C 875.437 555.192 877.111 560.78 862.978 565.584 C 844.525 565.883 841.557 558.025 842.05 540.79 C 842.37 529.646 843.04 524.229 854.743 519.159 z" fill="rgb(22,40,26)" transform="translate(0,0)"></path>
<path d="M 794.092 519.058 C 811.181 519.153 815.412 526.83 814.819 542.244 C 814.294 555.867 815.289 558.732 802.252 565.554 C 784.665 565.498 780.431 559.302 780.964 543.087 C 781.397 529.904 779.922 524.655 794.092 519.058 z" fill="rgb(22,40,26)" transform="translate(0,0)"></path>
<path d="M 733.085 519.103 C 756.947 518.951 753.387 536.684 752.951 554.619 C 747.92 561.808 747.462 562.812 738.766 565.947 C 724.236 565.758 719.167 559.264 719.273 545.005 C 719.38 530.519 718.848 525.218 733.085 519.103 z" fill="rgb(22,40,26)" transform="translate(0,0)"></path>
<path d="M 850.423 1527.23 C 860.231 1526.85 870.132 1526.95 879.958 1526.92 C 879.978 1531.79 880.451 1549.03 879.506 1554.2 C 879.301 1555.31 873.267 1555.05 871.712 1555.07 C 866.886 1555.03 854.99 1555.62 851.002 1554.64 C 835.782 1550.87 838.372 1533.76 850.423 1527.23 z" fill="rgb(22,40,26)" transform="translate(0,0)"></path>
<path d="M 1373.74 612.438 C 1388.98 612.418 1404.21 612.506 1419.44 612.7 C 1417.15 621.546 1416.52 625.025 1411.84 633.146 C 1403.93 639.956 1393.41 640.943 1383.95 636.506 C 1378.02 633.724 1370.24 618.092 1373.74 612.438 z" fill="rgb(22,40,26)" transform="translate(0,0)"></path>
<path d="M 1367.15 1581.1 C 1389.23 1580.03 1396.1 1605.73 1376.59 1615.38 C 1362.5 1616.93 1354.24 1609.52 1356.09 1594.49 C 1356.85 1588.28 1362.35 1584.49 1367.15 1581.1 z" fill="rgb(22,40,26)" transform="translate(0,0)"></path>
<path d="M 438.195 1226.59 C 445.637 1232.75 458.55 1247.37 463.302 1255.83 C 456.66 1258.24 450.786 1260.36 444.219 1262.98 C 440.303 1264.76 436.125 1266.03 432.099 1267.5 C 428.071 1263.74 426.714 1262.19 423.28 1257.85 C 428.244 1246.74 433.004 1237.4 438.195 1226.59 z" fill="rgb(22,40,26)" transform="translate(0,0)"></path>
<path d="M 1433.08 1582.83 C 1441.82 1580.5 1450.8 1585.71 1453.1 1594.47 C 1455.4 1603.22 1450.16 1612.17 1441.4 1614.45 C 1432.68 1616.72 1423.77 1611.5 1421.48 1602.79 C 1419.19 1594.08 1424.37 1585.15 1433.08 1582.83 z" fill="rgb(22,40,26)" transform="translate(0,0)"></path>
<path d="M 472.117 1447.36 C 483.54 1447.18 517.257 1442.82 518.872 1456.48 C 519.627 1462.87 518.23 1462.4 513.134 1462.57 C 498.133 1462.56 482.962 1462.58 467.951 1462.64 C 467.29 1462.64 465.783 1462.55 465.369 1461.89 C 464.422 1460.4 464.811 1455.54 465.319 1454.15 C 466.784 1450.14 468.514 1449.08 472.117 1447.36 z" fill="rgb(22,40,26)" transform="translate(0,0)"></path>
<path d="M 1389.38 1228.78 C 1397.12 1226.81 1404.98 1231.5 1406.92 1239.24 C 1408.87 1246.98 1404.16 1254.83 1396.42 1256.76 C 1388.7 1258.69 1380.88 1254 1378.94 1246.28 C 1377 1238.57 1381.67 1230.73 1389.38 1228.78 z" fill="rgb(22,40,26)" transform="translate(0,0)"></path>
<path d="M 1388.93 1138.08 C 1409.03 1137.5 1413.14 1157.09 1396.76 1167.7 C 1378.48 1168.32 1371.07 1147.83 1388.93 1138.08 z" fill="rgb(22,40,26)" transform="translate(0,0)"></path>
<path d="M 1388.31 1184.02 C 1395.77 1181.53 1403.85 1185.54 1406.38 1193 C 1408.91 1200.45 1404.94 1208.55 1397.5 1211.11 C 1390 1213.7 1381.84 1209.69 1379.29 1202.19 C 1376.74 1194.68 1380.79 1186.53 1388.31 1184.02 z" fill="rgb(22,40,26)" transform="translate(0,0)"></path>
<path d="M 544.349 1119.08 C 570.458 1118.16 572.426 1150.52 563.212 1150.33 C 558.465 1145.96 551.381 1139.53 547.174 1134.79 C 537.193 1123.56 532.679 1125.91 544.349 1119.08 z" fill="rgb(22,40,26)" transform="translate(0,0)"></path>
<path d="M 793.284 571.127 C 795.038 571.318 800.965 571.411 800.918 572.978 C 800.549 585.493 802.684 614.325 800.15 625.204 C 793.947 624.904 793.089 624.182 793.15 617.009 C 793.281 601.737 792.903 586.387 793.284 571.127 z" fill="rgb(22,40,26)" transform="translate(0,0)"></path>
<path d="M 854.983 570.98 C 855.934 571.071 856.887 571.146 857.841 571.203 C 858.7 571.247 861.959 571.254 861.995 572.035 C 862.503 583.147 862.961 615.048 861.884 624.448 C 854.341 624.37 854.745 621.897 854.849 614.506 C 855.049 600.11 854.305 585.338 854.983 570.98 z" fill="rgb(22,40,26)" transform="translate(0,0)"></path>
<path d="M 732.878 571.685 C 734.417 571.834 739.405 571.923 739.518 572.904 C 740.601 582.369 740.649 617.24 739.784 624.513 C 731.549 625.014 732.799 622.772 732.755 614.316 C 732.681 600.115 732.81 585.889 732.878 571.685 z" fill="rgb(22,40,26)" transform="translate(0,0)"></path>
<path d="M 734.634 467.377 C 735.928 467.906 740.326 469.301 740.277 471.009 C 740.062 478.59 742.294 509.708 739.302 515.351 C 738.367 515.156 733.023 514.482 733.06 513.462 C 733.468 502.1 729.784 476.934 734.634 467.377 z" fill="rgb(22,40,26)" transform="translate(0,0)"></path>
<path d="M 794.359 468.428 C 804.901 468.67 801.233 474.48 801.372 484.316 C 801.508 493.929 801.506 504.541 801.039 514.102 C 800.169 514.05 793.316 514.257 793.37 512.799 C 793.774 501.991 791.259 477.862 794.359 468.428 z" fill="rgb(22,40,26)" transform="translate(0,0)"></path>
<path d="M 857.014 467.303 C 859.686 468.033 862.789 468.542 862.597 471.532 C 861.927 481.963 864.141 506.228 862.33 515.298 C 861.497 515.224 855.256 515.212 855.296 513.988 C 855.697 501.561 852.776 478.205 857.014 467.303 z" fill="rgb(22,40,26)" transform="translate(0,0)"></path>
<path d="M 532.774 1128.73 C 535.643 1130.28 556.175 1151.71 560.365 1155.72 C 558.177 1158.42 556.943 1159.85 554.543 1162.34 C 554.134 1161.96 553.719 1161.58 553.349 1161.16 C 550.147 1157.52 527.455 1137.39 527.385 1134.41 C 527.345 1132.68 531.622 1129.75 532.774 1128.73 z" fill="rgb(22,40,26)" transform="translate(0,0)"></path>
<path d="M 422.171 1263.88 C 426.924 1268.93 425.394 1268.45 419.619 1271.81 C 415.968 1271.25 420.86 1266.02 422.171 1263.88 z" fill="rgb(22,40,26)" transform="translate(0,0)"></path>
<metadata><recraft-signature>{"signed_by": "recraft", "signature_b64": "JjdWeC9MucLF3fKZfLyuqvcqrCFi9iVK9mD09atZ0ciRQFZHxrnYfCcbHNYah9qumfdG6pq3yysL5FWKVzofAA==", "signing_algo": "Ed25519", "generation_timestamp": 1784860373, "identifier": "8d54af90-4a46-4da2-9521-31dbb310a3b8"}</recraft-signature></metadata></svg>