<svg xmlns="http://www.w3.org/2000/svg" height="1152" preserveAspectRatio="none" style="display: block;" version="1.1" viewBox="0 0 1593 2048" width="896">
<path d="M 0 0 L 1593 0 L 1593 2048 L 0 2048 L 0 0 z" fill="rgb(255,255,255)" transform="translate(0,0)"></path>
<path d="M 1051.2 1110.94 L 1144.47 1110.87 C 1144.16 1141.85 1144.09 1143.75 1175.43 1143.01 C 1174.69 1184.75 1174.99 1231.83 1175.24 1273.83 C 1133.9 1274.1 1092.55 1274.07 1051.21 1273.74 L 1051.2 1110.94 z" fill="rgb(22,40,26)" transform="translate(0,0)"></path>
<path d="M 1084.65 1210.71 C 1086.28 1212.21 1087.92 1214.17 1090.06 1214.94 C 1092.16 1215.69 1093.8 1213.96 1095.6 1213.24 C 1097.76 1212.39 1100.37 1213.58 1100.61 1216.03 C 1100.85 1216.87 1100.95 1218.31 1101.52 1219.03 C 1103.62 1221.66 1107.42 1216.66 1109.53 1220.9 C 1110.2 1222.23 1108.49 1223.73 1108.39 1224.63 C 1108.12 1227.02 1112.42 1228.41 1113.47 1230.21 C 1114.78 1232.52 1111.89 1234.16 1111.87 1236.45 C 1111.77 1237.16 1111.68 1237.87 1111.58 1238.58 C 1110.85 1241.16 1113.6 1242.56 1113.89 1244.49 C 1114.46 1248.31 1110.22 1246.63 1108.73 1247.66 C 1107.13 1248.77 1108.35 1251.59 1108.01 1253.01 C 1107.25 1256.21 1103 1255.88 1100.83 1257.53 C 1099.04 1259.53 1100.55 1259.17 1097.83 1261.31 C 1091.15 1258.88 1091.84 1258.28 1085.51 1261.66 C 1084.93 1261.96 1083.18 1260.6 1082.86 1260.18 C 1079.57 1255.86 1076.7 1256.06 1072.43 1254.63 C 1072.07 1254.25 1072.23 1252.8 1072.31 1252.53 C 1074.07 1246.15 1069.5 1247.51 1066.98 1244.47 C 1065.82 1243.06 1070.64 1237.76 1068.92 1235.57 C 1068.53 1234.55 1067.21 1232.14 1067.25 1231.02 C 1067.45 1225.69 1066.37 1227.98 1071.04 1227.57 C 1076.17 1227.13 1066 1216.9 1080.01 1218.08 C 1081.88 1218.23 1083.8 1212.48 1084.65 1210.71 z" fill="rgb(255,255,255)" transform="translate(0,0)"></path>
<path d="M 1079.62 1222.6 C 1083.02 1220.66 1089.71 1217.18 1093.55 1218.53 C 1107.67 1228.16 1107.33 1223.68 1107.08 1243.89 C 1104.75 1246.63 1103.05 1248.42 1100.91 1251.4 L 1100.5 1251.96 L 1097.01 1253.31 C 1076.94 1261.15 1064.23 1237.84 1079.62 1222.6 z" fill="rgb(255,255,255)" transform="translate(0,0)"></path>
<path d="M 1093.55 1218.53 C 1107.67 1228.16 1107.33 1223.68 1107.08 1243.89 C 1104.75 1246.63 1103.05 1248.42 1100.91 1251.4 L 1100.5 1251.96 L 1097.01 1253.31 C 1076.94 1261.15 1064.23 1237.84 1079.62 1222.6 L 1081.26 1223.68 C 1073.38 1230.2 1072.57 1242.78 1080.25 1249.77 C 1090.13 1258.76 1108.73 1248.88 1104.92 1234.01 C 1102 1222.65 1102.3 1227.06 1093.58 1220.13 L 1092.72 1219.44 L 1093.55 1218.53 z" fill="rgb(22,40,26)" transform="translate(0,0)"></path>
<path d="M 1079.62 1222.6 C 1083.02 1220.66 1089.71 1217.18 1093.55 1218.53 L 1092.72 1219.44 C 1086.33 1220.78 1086.84 1223.42 1081.26 1223.68 L 1079.62 1222.6 z" fill="rgb(152,158,159)" transform="translate(0,0)"></path>
<path d="M 1091.3 1242.6 C 1088.31 1242.04 1085.87 1240.87 1085.01 1237.51 C 1084.15 1234.15 1082.67 1230.69 1082.59 1227.25 C 1082.25 1226.68 1083.79 1223.63 1084.62 1224.47 C 1087.5 1227.34 1085.6 1236.94 1091.04 1236.27 L 1091.82 1237.44 C 1091.63 1238.51 1091.68 1238.58 1091.72 1239.71 L 1091.3 1242.6 z" fill="rgb(22,40,26)" transform="translate(0,0)"></path>
<path d="M 1091.04 1236.27 C 1092.25 1234.55 1096.85 1227.23 1098.3 1226.96 C 1098.6 1227.29 1098.59 1227.39 1098.6 1227.88 L 1098.52 1227.44 L 1098.38 1228.59 L 1097.4 1228.24 L 1097.87 1229.55 L 1095.49 1232.91 C 1094.14 1234.81 1093.42 1235.8 1091.82 1237.44 L 1091.04 1236.27 z" fill="rgb(85,87,87)" transform="translate(0,0)"></path>
<path d="M 1091.72 1239.71 C 1093.06 1240.41 1096.85 1242.07 1097.38 1243.26 C 1097.17 1244.15 1092.05 1242.74 1091.3 1242.6 L 1091.72 1239.71 z" fill="rgb(85,87,87)" transform="translate(0,0)"></path>
<path d="M 1112.91 1177.5 C 1121.51 1177.38 1145.64 1176.44 1153.18 1177.72 L 1154.08 1179.76 L 1153.28 1180.86 C 1147.1 1181.85 1121.19 1181.23 1113.5 1181.19 C 1104.9 1181.08 1079.16 1182.24 1072.54 1180.33 L 1072.38 1178.45 C 1074.37 1177.05 1107.73 1177.52 1112.91 1177.5 z" fill="rgb(255,255,255)" transform="translate(0,0)"></path>
<path d="M 1070.84 1192.46 C 1078.09 1191.35 1148.4 1191.27 1153.48 1192.72 L 1154.79 1195.23 C 1151.08 1195.8 1146.64 1195.84 1142.88 1195.78 C 1119.68 1195.45 1096.28 1196.18 1073.15 1194.72 C 1073.15 1194.72 1071.05 1192.66 1070.84 1192.46 z" fill="rgb(255,255,255)" transform="translate(0,0)"></path>
<path d="M 1071.71 1130.23 C 1087.35 1128.68 1106.11 1130.34 1121.91 1130.26 C 1122.73 1130.26 1123.24 1133.28 1123.33 1133.68 C 1112.01 1134.11 1085.74 1133.93 1073.3 1133.64 C 1072.55 1133.62 1071.93 1131 1071.71 1130.23 z" fill="rgb(255,255,255)" transform="translate(0,0)"></path>
<path d="M 1071.19 1144.41 C 1074.93 1143.78 1086.34 1143.21 1090 1143.83 C 1096.12 1144.88 1119.98 1141.5 1122.19 1146.13 L 1122.76 1147.27 C 1118.48 1147.72 1114.43 1147.69 1110.12 1147.68 C 1097.96 1147.65 1085.76 1147.64 1073.61 1147.61 C 1072.89 1147.6 1072.11 1146.04 1071.88 1145.62 L 1071.19 1144.41 z" fill="rgb(255,255,255)" transform="translate(0,0)"></path>
<path d="M 1109.71 1162.47 C 1114.65 1161.92 1126.09 1161.34 1131.23 1162.02 C 1138.62 1162.98 1152.05 1158.7 1154.52 1165.17 C 1141.68 1166.62 1125.64 1164.51 1112.54 1165.19 C 1111.9 1165.22 1111.02 1164.09 1110.68 1163.64 L 1109.71 1162.47 z" fill="rgb(255,255,255)" transform="translate(0,0)"></path>
<path d="M 1121.76 1252.44 C 1131.51 1251.66 1141.3 1251.91 1151.07 1251.82 C 1154.19 1251.8 1154.18 1252.61 1153.95 1255.39 C 1149.34 1255.34 1120.28 1257.53 1121.76 1252.44 z" fill="rgb(255,255,255)" transform="translate(0,0)"></path>
<path d="M 1070.97 1162.44 C 1076.48 1161.66 1093.19 1160.09 1096.7 1164.59 C 1091 1165.69 1074.65 1167.3 1070.97 1162.44 z" fill="rgb(255,255,255)" transform="translate(0,0)"></path>
<path d="M 481.479 1125.42 C 535.665 1127.03 567.969 1175.24 555.598 1226.86 C 551.02 1245.97 540.884 1257.65 528.394 1272.08 C 512.182 1272.46 495.966 1272.66 479.75 1272.69 C 464.029 1272.5 448.307 1272.42 432.585 1272.43 C 416.45 1254.52 405.05 1234.88 404.152 1210.4 C 402.392 1162.38 434.258 1127.96 481.479 1125.42 z" fill="rgb(22,40,26)" transform="translate(0,0)"></path>
<path d="M 477.083 1209.93 C 479.6 1204.91 480.167 1197.91 487.915 1201.37 C 488.809 1201.77 490.205 1202.95 491.367 1202.56 C 498.552 1199.58 505.944 1196.11 513.065 1193.03 C 503.418 1200.31 496.295 1204.26 490.073 1215.19 C 488.29 1218.33 481.783 1216.22 478.018 1213.84 C 471.676 1216.58 462.057 1221.3 455.505 1224.32 C 459.454 1221.38 472.993 1211.97 477.083 1209.93 z" fill="rgb(255,255,255)" transform="translate(0,0)"></path>
<path d="M 526.45 1239.5 C 527.73 1238.15 528.511 1237.25 530.509 1237.36 C 532.226 1237.43 533.828 1238.24 534.91 1239.58 C 536.92 1242.07 536.525 1247.78 533.593 1249.51 C 531.67 1250.64 528.79 1250.56 526.639 1250.71 C 526.441 1246.75 526.515 1243.42 526.45 1239.5 z" fill="rgb(255,255,255)" transform="translate(0,0)"></path>
<path d="M 530.82 1245.47 C 531.289 1245.19 532.059 1244.47 532.509 1244.95 C 532.371 1245.6 531.932 1245.91 531.465 1246.43 C 530.889 1246.73 530.201 1247.29 529.506 1247.14 C 529.464 1247.08 529.423 1247.02 529.382 1246.95 C 529.527 1246.26 530.298 1245.87 530.82 1245.47 z" fill="rgb(22,40,26)" transform="translate(0,0)"></path>
<path d="M 434.09 1239.62 C 438.677 1230.8 446.793 1243.32 442.53 1248.56 C 440.125 1251.52 437.074 1250.88 434.476 1248.62 C 434.502 1245.19 434.38 1243.03 434.09 1239.62 z" fill="rgb(255,255,255)" transform="translate(0,0)"></path>
<path d="M 431.617 1169.36 C 441.025 1170.13 440.258 1175.2 436.909 1182.81 C 427.521 1180.97 427.612 1179.4 431.617 1169.36 z" fill="rgb(255,255,255)" transform="translate(0,0)"></path>
<path d="M 433.569 1171.46 C 436.981 1174.53 436.309 1175.95 435.042 1180.31 C 432.379 1177.12 433.091 1175.59 433.569 1171.46 z" fill="rgb(22,40,26)" transform="translate(0,0)"></path>
<path d="M 534.602 1169.84 C 542.325 1167.14 545.935 1171.57 539.643 1175.64 C 538.64 1176.29 538.08 1176.47 538.082 1177.71 C 539.325 1178.92 541.084 1177.92 542.087 1179.66 C 542.79 1180.89 540.406 1182.19 539.958 1182.1 C 538.124 1181.74 536.259 1180.31 534.187 1179.63 C 533.757 1177.44 535.906 1176.2 536.98 1174.4 C 537.096 1174.2 539.373 1172.11 538.547 1171.67 C 537.573 1171.83 537.019 1172.86 535.989 1173 C 534.859 1172.44 534.848 1170.94 534.602 1169.84 z" fill="rgb(210,213,215)" transform="translate(0,0)"></path>
<path d="M 532.403 1181.37 C 529.381 1183.06 523.296 1182.58 524.92 1179.74 C 526.143 1179.4 527.787 1180.12 528.543 1179.42 C 529.235 1178.78 527.591 1175.12 528.836 1173.84 C 529.276 1173.38 529.36 1172.53 529.138 1171.93 C 527.59 1170.7 525.448 1172.24 523.831 1171.24 L 523.781 1170.63 C 525.585 1167.47 530.185 1168.87 532.94 1169.66 C 531.514 1175.81 531.469 1175.16 532.403 1181.37 z" fill="rgb(255,255,255)" transform="translate(0,0)"></path>
<path d="M 523.598 1250.25 C 522.279 1250.22 517.073 1250.56 516.537 1249.29 C 515.501 1246.66 521.708 1244.22 521.869 1241.83 C 522.094 1238.48 516.848 1242.11 515.804 1239.8 C 517.775 1236.16 522.888 1237.42 525.719 1239.43 L 524.645 1241.78 C 522.117 1247.35 518.7 1244.98 523.598 1250.25 z" fill="rgb(210,213,215)" transform="translate(0,0)"></path>
<path d="M 448.034 1141.81 C 452.177 1143.66 456.912 1151.92 456.08 1156.29 C 451.759 1155.01 446.305 1146.8 448.034 1141.81 z" fill="rgb(255,255,255)" transform="translate(0,0)"></path>
<path d="M 534.483 1207.35 C 537.733 1206.79 548.73 1204.82 550.264 1208.78 L 550.728 1209.89 C 543.707 1210.75 538.384 1213.13 534.483 1207.35 z" fill="rgb(255,255,255)" transform="translate(0,0)"></path>
<path d="M 516.385 1143.94 C 522.473 1148.16 518.781 1148.46 514.765 1154.42 L 512.963 1157.14 C 507.408 1155.64 514.327 1148.47 516.385 1143.94 z" fill="rgb(255,255,255)" transform="translate(0,0)"></path>
<path d="M 482.717 1134.26 C 488.005 1137.28 485.696 1144.89 484.758 1150.6 C 480.025 1148.31 481.896 1138.78 482.717 1134.26 z" fill="rgb(255,255,255)" transform="translate(0,0)"></path>
<path d="M 421.594 1207.35 C 423.399 1207.1 428.056 1206.22 429.15 1208.19 C 428.683 1211.08 422.525 1210.41 420.246 1210.58 C 409.899 1211.75 409.095 1208.56 421.594 1207.35 z" fill="rgb(255,255,255)" transform="translate(0,0)"></path>
<path d="M 420.063 1169 C 424.072 1169.69 428.209 1169.99 429.146 1174.7 L 429.567 1176.92 C 425.049 1174.19 420.444 1173.74 420.063 1169 z" fill="rgb(255,255,255)" transform="translate(0,0)"></path>
<path d="M 430.723 1241.04 C 431.231 1243.97 431.351 1245.98 431.604 1248.91 C 422.769 1249.95 427.169 1244.25 430.723 1241.04 z" fill="rgb(255,255,255)" transform="translate(0,0)"></path>
<path d="M 417.556 1225.56 C 418.453 1224.84 419.748 1224.91 420.555 1225.73 C 421.362 1226.55 421.419 1227.85 420.688 1228.73 C 420.143 1229.39 419.27 1229.69 418.437 1229.49 C 417.605 1229.29 416.958 1228.63 416.771 1227.8 C 416.584 1226.96 416.889 1226.09 417.556 1225.56 z" fill="rgb(255,255,255)" transform="translate(0,0)"></path>
<path d="M 465.785 1138.47 C 466.318 1138.36 466.783 1138.1 467.25 1138.33 C 467.417 1138.58 467.537 1143.05 467.636 1143.83 C 464.065 1143.11 464.365 1141.52 465.785 1138.47 z" fill="rgb(152,158,159)" transform="translate(0,0)"></path>
<path d="M 500.138 1139.46 C 502.932 1138.83 502.385 1140 501.28 1142.35 C 497.791 1143.47 498.746 1141.53 500.138 1139.46 z" fill="rgb(210,213,215)" transform="translate(0,0)"></path>
<path d="M 541.727 1225.96 C 544.706 1225.33 545.044 1226.45 546.326 1229 C 543.838 1228.32 539.679 1228.6 541.727 1225.96 z" fill="rgb(210,213,215)" transform="translate(0,0)"></path>
<path d="M 414.319 1189.02 C 417.85 1189.86 418.489 1189.82 420.266 1193 C 416.353 1192.22 414.9 1192.95 414.319 1189.02 z" fill="rgb(210,213,215)" transform="translate(0,0)"></path>
<path d="M 434.596 1155.26 C 436.326 1155.03 436.387 1155.58 435.837 1157.09 C 435.158 1157.24 433.81 1157.91 433.329 1157.14 C 433.44 1156.35 434.065 1155.86 434.596 1155.26 z" fill="rgb(255,255,255)" transform="translate(0,0)"></path>
<path d="M 546.142 1191.33 C 546.559 1191.2 547.823 1190.58 548.395 1190.98 C 548.433 1191.53 547.384 1191.84 546.909 1192.15 C 546.16 1192.27 545.161 1192.69 544.516 1192.19 C 545.058 1191.9 545.6 1191.62 546.142 1191.33 z" fill="rgb(255,255,255)" transform="translate(0,0)"></path>
<path d="M 529.993 1158.44 C 530.21 1158.56 530.426 1158.68 530.643 1158.8 C 530.56 1159.32 530.172 1159.57 529.731 1160.02 C 529.647 1159.88 529.563 1159.75 529.479 1159.61 C 529.554 1159.31 529.797 1158.77 529.993 1158.44 z" fill="rgb(210,213,215)" transform="translate(0,0)"></path>
<path d="M 125.829 453.317 C 140.638 440.749 157.265 439.868 175.362 439.445 C 197.676 443.761 215.4 453.22 228.343 472.572 C 239.537 489.239 243.56 509.707 239.508 529.371 C 235.486 548.924 223.854 566.075 207.175 577.045 C 190.542 587.571 170.396 591.026 151.206 586.641 C 132.728 582.405 116.767 570.838 106.987 554.598 C 96.107 537.008 92.7395 515.788 97.6393 495.693 C 100.957 482.262 113.181 459.957 125.829 453.317 z" fill="rgb(22,40,26)" transform="translate(0,0)"></path>
<path d="M 168.678 457.475 L 169.067 458.891 C 177.815 460.804 183.856 462.112 191.965 466.186 C 230.223 485.407 231.505 539.393 194.805 561.34 C 182.54 568.539 167.914 570.561 154.156 566.96 C 126.819 559.685 108.842 527.334 116.733 500.319 C 121.061 485.502 128.387 477.361 139.642 467.493 L 139.439 464.978 C 143.238 464.064 142.917 462.676 146.209 461.631 C 153.324 459.372 161.225 457.544 168.678 457.475 z" fill="rgb(255,255,255)" transform="translate(0,0)"></path>
<path d="M 168.678 457.475 L 169.067 458.891 C 160.114 459.503 146.705 461.869 139.642 467.493 L 139.439 464.978 C 143.238 464.064 142.917 462.676 146.209 461.631 C 153.324 459.372 161.225 457.544 168.678 457.475 z" fill="rgb(111,115,116)" transform="translate(0,0)"></path>
<path d="M 125.829 453.317 C 140.638 440.749 157.265 439.868 175.362 439.445 C 173.051 440.087 170.942 441.526 169.284 441.744 C 165.893 447.391 165.466 451.552 168.678 457.475 C 161.225 457.544 153.324 459.372 146.209 461.631 C 142.917 462.676 143.238 464.064 139.439 464.978 L 139.196 463.696 C 137.839 456.192 136.289 455.372 129.029 453.387 C 127.917 453.432 126.895 453.569 125.829 453.317 z" fill="rgb(255,255,255)" transform="translate(0,0)"></path>
<path d="M 125.829 453.317 C 140.638 440.749 157.265 439.868 175.362 439.445 C 173.051 440.087 170.942 441.526 169.284 441.744 C 159.044 437.918 137.96 448.339 129.029 453.387 C 127.917 453.432 126.895 453.569 125.829 453.317 z" fill="rgb(111,115,116)" transform="translate(0,0)"></path>
<path d="M 220.969 1156.95 C 246.441 1182.79 247.664 1223.91 223.772 1251.22 C 199.879 1278.53 158.965 1282.78 129.966 1260.97 C 100.968 1239.16 93.7063 1198.67 113.318 1168.14 C 132.93 1137.61 172.773 1127.38 204.666 1144.69 C 210.676 1147.95 216.17 1152.08 220.969 1156.95 z" fill="rgb(22,40,26)" transform="translate(0,0)"></path>
<path d="M 161.777 1147.88 C 193.627 1142.48 223.815 1163.95 229.171 1195.81 C 234.526 1227.67 213.018 1257.83 181.154 1263.14 C 149.349 1268.44 119.258 1246.98 113.913 1215.19 C 108.567 1183.39 129.986 1153.27 161.777 1147.88 z" fill="rgb(255,255,255)" transform="translate(0,0)"></path>
<path d="M 132.574 1164.95 C 145.712 1153.26 152.994 1150.97 170.056 1148.52 C 169.9 1152.74 169.227 1157.82 170.763 1161.52 L 172.658 1161.65 C 175.675 1157.02 170.043 1152.84 175.362 1149.21 C 185.7 1148.06 202.043 1158.94 209.876 1165.11 C 206.176 1167.73 203.614 1169.19 200.904 1172.86 L 201.346 1173.91 C 205.716 1172.53 208.009 1169.95 211.483 1166.89 C 215.946 1171.57 217.07 1173.09 220.574 1178.54 C 212.138 1183.47 203.672 1188.35 195.177 1193.17 C 186.062 1197.25 181.259 1201.32 172.516 1198.68 C 168.753 1199.88 170.281 1198.83 167.845 1202.07 C 167.17 1205.46 167.157 1205.57 168.472 1208.84 C 171.469 1211.59 169.752 1210.84 173.806 1211.16 C 178.258 1209.23 178.813 1207.01 181.164 1202.48 C 186.346 1199.9 191.71 1197.12 196.957 1194.74 C 205.442 1189.95 213.212 1185.66 221.294 1180.19 C 223.937 1186.87 227.764 1193.77 225.711 1200.49 C 219.987 1206.07 216.88 1200.96 215.187 1205.07 C 219.359 1208.08 226.245 1202.85 226.938 1208.68 C 228.232 1219.58 220.414 1234.57 213.321 1242.36 C 212.255 1243.41 211.206 1244.48 210.173 1245.56 C 198.032 1257.27 188.999 1259.81 172.815 1262.39 C 172.814 1259.21 173.219 1252.14 171.308 1250.02 C 169.62 1253.66 170.013 1258.04 169.96 1262.2 C 153.325 1259.83 145.821 1256.55 133.034 1245.9 C 136.813 1242.35 139.003 1239.92 142.39 1236 C 140.605 1235.95 133.816 1240.7 131.75 1242 C 121.991 1240.39 116.631 1214.99 115.71 1206.88 C 118.942 1206.78 125.334 1206.98 127.355 1204.56 C 123.777 1203.15 119.596 1203.91 115.606 1204.2 C 117.618 1187.96 121.132 1178.89 131.549 1166.33 C 134.612 1169.29 135.646 1170.47 139.471 1172.51 L 140.582 1172.1 C 138.684 1168.52 135.998 1167.26 132.574 1164.95 z" fill="rgb(22,40,26)" transform="translate(0,0)"></path>
<path d="M 209.072 1243.09 C 206.713 1242 198.57 1238.59 201.053 1235.63 C 204.51 1235.33 206.915 1238.7 210.279 1241.48 L 209.072 1243.09 z" fill="rgb(255,255,255)" transform="translate(0,0)"></path>
<path d="M 210.279 1241.48 L 213.321 1242.36 C 212.255 1243.41 211.206 1244.48 210.173 1245.56 L 209.072 1243.09 L 210.279 1241.48 z" fill="rgb(85,87,87)" transform="translate(0,0)"></path>
<path d="M 1367.31 1779.09 C 1380.49 1778.8 1476.86 1777.38 1481.33 1780.7 C 1483.61 1782.39 1484.92 1785.24 1485.1 1788.04 C 1485.22 1790.03 1484.65 1791.93 1483.31 1793.4 C 1479.66 1797.37 1472.61 1796.49 1467.66 1796.6 C 1466.64 1810.56 1467.26 1826.96 1467.52 1841.13 C 1457.87 1849.75 1447.12 1859.81 1436.82 1867.36 C 1446.82 1876.31 1457.78 1885.73 1467 1895.37 L 1467 1940.85 C 1473.12 1940.74 1478.3 1940.04 1482.83 1944.89 C 1487.48 1949.85 1482.92 1955.04 1478.97 1958.07 C 1465.1 1958.66 1374.63 1960.09 1367.54 1957.15 C 1364.5 1955.89 1363.59 1954.35 1362.34 1951.47 C 1363.29 1940.31 1373.23 1940.26 1381.65 1940.24 L 1381.03 1895.36 C 1391.02 1884.52 1398.65 1877.45 1409.92 1868.09 C 1401.52 1859.46 1386.93 1849.35 1380.92 1839.49 L 1380.93 1796.31 C 1374.77 1796.5 1368.45 1797.32 1363.69 1792.69 C 1359.02 1788.14 1363.52 1782.1 1367.31 1779.09 z" fill="rgb(22,40,26)" transform="translate(0,0)"></path>
<path d="M 1385.66 1796.27 C 1409.68 1795.59 1438.94 1796.12 1462.98 1796.46 C 1462.63 1810.53 1462.86 1825.08 1462.66 1839.27 C 1452.34 1847.69 1438.86 1859.24 1429.82 1868.89 C 1439.79 1875.9 1453.95 1889.52 1462.76 1898.24 C 1462.41 1912.06 1462.81 1926.6 1462.98 1940.47 C 1439.83 1941.39 1408.85 1940.78 1385.58 1940.51 C 1384.77 1926.46 1385.02 1911.8 1385.11 1897.69 C 1395.59 1886.59 1407.18 1877.34 1416.84 1866.9 C 1405.42 1857.55 1395.98 1849.13 1385.84 1838.36 L 1385.66 1796.27 z" fill="rgb(255,255,255)" transform="translate(0,0)"></path>
<path d="M 1391.17 1811.13 C 1412.71 1811.05 1435.13 1810.81 1456.61 1811.18 C 1455.14 1834.64 1451.73 1842.56 1432.25 1857.56 C 1429.78 1859.46 1427.15 1860.33 1424.88 1862.49 L 1423.45 1862.05 C 1413.14 1857.45 1397.58 1843.99 1393.67 1833.1 C 1390.9 1825.38 1391.16 1819.09 1391.17 1811.13 z" fill="rgb(22,40,26)" transform="translate(0,0)"></path>
<path d="M 1425.01 1866.84 C 1426.33 1875.5 1425.23 1893.44 1426.72 1898.16 L 1427.24 1898.21 C 1446.06 1899.81 1454.49 1917.06 1457.67 1933.3 C 1435.22 1933.19 1412.11 1933.44 1389.76 1933.09 C 1392.39 1916.8 1403.53 1897.72 1422.11 1898.32 C 1423.53 1893.57 1422.94 1875.41 1422.97 1869.4 L 1425.01 1866.84 z" fill="rgb(22,40,26)" transform="translate(0,0)"></path>
<path d="M 1423.45 1862.05 L 1424.88 1862.49 L 1425.01 1866.84 L 1422.97 1869.4 C 1423.18 1866.96 1423.34 1864.51 1423.45 1862.05 z" fill="rgb(85,87,87)" transform="translate(0,0)"></path>
<path d="M 1424.07 441.146 C 1441.41 453.541 1462.27 460.736 1483.65 457.991 C 1484.02 515.829 1487.73 559.045 1424.71 586.065 C 1415.3 585.876 1395.54 570.43 1388.55 563.452 C 1358.97 533.886 1363.85 497.16 1363.96 458.526 C 1385.02 462.094 1406.71 452.09 1424.07 441.146 z" fill="rgb(22,40,26)" transform="translate(0,0)"></path>
<path d="M 1422.83 452.846 C 1425.1 453.132 1431.51 456.845 1433.95 458.132 C 1449.44 466.29 1457.55 468.79 1474.84 469.164 C 1475.37 518.495 1476.26 552.23 1424.2 575.475 C 1372.86 556.871 1372.01 514.049 1372.3 468.164 C 1390.05 470.448 1408.35 462.577 1422.83 452.846 z" fill="rgb(255,255,255)" transform="translate(0,0)"></path>
<path d="M 1423.19 456.184 C 1439.34 465.941 1452.62 471.588 1471.59 472.285 C 1472.78 516.911 1471.15 551.123 1424.43 571.885 C 1415.59 569.556 1403.93 561.718 1397.45 555.213 C 1373.72 531.391 1375.63 503.045 1375.3 472.406 C 1391.9 471.857 1409.99 466.46 1423.19 456.184 z" fill="rgb(22,40,26)" transform="translate(0,0)"></path>
<path d="M 1423.32 483.799 C 1426.2 486.992 1429.42 498.936 1431 503.494 L 1431.25 504.219 C 1437.35 504.588 1443.45 504.888 1449.56 505.118 C 1445.03 509.948 1440.43 513.972 1436.22 518.868 C 1437.65 525.921 1439.23 530.714 1441.12 537.536 C 1432.94 533.414 1432.95 533.555 1425.42 528.192 C 1423.71 527.662 1412.13 534.125 1408.26 535.772 C 1410.12 527.569 1410.71 525.45 1411.7 516.719 C 1397.21 503.697 1393.83 505.228 1416.98 503.88 C 1419.2 496.708 1420.54 490.941 1423.32 483.799 z" fill="rgb(255,255,255)" transform="translate(0,0)"></path>
<path d="M 181.668 1796.03 C 206.757 1801.29 191.657 1840.57 186.155 1855.26 C 200.569 1855.19 253.513 1849 237.83 1873.57 C 231.05 1884.19 247.719 1883.08 231.45 1899.62 C 234.412 1907.53 236.808 1910.46 229.446 1917.24 C 216.704 1928.98 236.393 1938.08 209.25 1938.49 C 193.732 1938.22 175.775 1938.92 160.516 1937.91 C 149.578 1937.19 145.912 1933.26 132.124 1933.03 C 131.92 1913.85 131.962 1894.67 132.25 1875.49 C 145.075 1859.14 159.232 1846.37 170.492 1829.89 C 177.613 1819.46 173.478 1802.01 181.668 1796.03 z" fill="rgb(22,40,26)" transform="translate(0,0)"></path>
<path d="M 1090.48 99.6743 C 1130.87 116.44 1135.92 148.218 1134.22 187.601 C 1145.49 175.264 1147.32 166.262 1147.08 149.769 C 1160.37 166.06 1166.3 184.104 1165.54 205.091 C 1164.36 237.525 1150.68 255.693 1119.98 263.913 C 1144.06 241.142 1125.16 226.033 1114.38 203.453 C 1111.1 196.589 1110.11 190.754 1109.01 183.251 L 1109.13 181.23 L 1108.08 180.576 C 1102.84 183.426 1096.18 190.325 1092.57 195.115 C 1074.07 219.656 1070.79 246.359 1095.62 266.534 C 1073.68 258.875 1060.3 249.018 1052.8 226.005 C 1046.7 207.124 1049.17 186.519 1059.55 169.614 C 1067.11 157.38 1072.86 152.346 1079.81 138.537 C 1081.44 147.494 1082.46 161.985 1083.68 171.749 C 1102.42 146.29 1104.88 127.787 1090.48 99.6743 z" fill="rgb(22,40,26)" transform="translate(0,0)"></path>
<path d="M 1110.11 438.806 C 1116.15 437.254 1121.61 434.513 1127.28 431.912 C 1130.74 437.953 1133.51 442.584 1137.44 448.314 C 1142.84 449.647 1149.35 450.108 1154.97 450.672 C 1155.21 456.755 1154.89 464.209 1154.8 470.395 C 1158.3 474.702 1163.25 479.965 1167.02 484.245 C 1162.91 489.776 1159.58 494.684 1155.81 500.46 L 1155.97 501.123 C 1157.8 508.943 1158.09 509.999 1158.21 518.143 C 1153.78 519.715 1148.54 521.114 1145 523.986 C 1129.59 535.165 1138.38 546.589 1112.17 535.356 C 1106.09 537.341 1092.73 542.774 1087.67 540.832 C 1086.47 537.166 1084.22 532.305 1082.7 528.513 C 1069.66 511.114 1059.95 531.231 1064.8 498.845 C 1054.41 485.357 1053 485.642 1063.82 472.74 C 1068.17 467.553 1066.79 457.894 1066.24 451.183 C 1072.02 450.337 1077.79 449.387 1083.54 448.335 C 1086.64 443.896 1090.36 437.369 1093.26 432.619 C 1099.3 435.133 1103.88 436.809 1110.11 438.806 z" fill="rgb(22,40,26)" transform="translate(0,0)"></path>
<path d="M 1102.38 449.82 C 1115.95 446.76 1130.12 451.239 1139.46 461.543 C 1148.81 471.847 1151.89 486.383 1147.53 499.592 C 1143.16 512.802 1132.03 522.641 1118.38 525.348 C 1097.66 529.459 1077.48 516.15 1073.1 495.483 C 1068.72 474.816 1081.77 454.467 1102.38 449.82 z" fill="rgb(255,255,255)" transform="translate(0,0)"></path>
<path d="M 1104.76 453.101 C 1123.89 449.763 1142.08 462.627 1145.3 481.773 C 1148.53 500.919 1135.56 519.032 1116.39 522.142 C 1097.39 525.226 1079.46 512.385 1076.26 493.401 C 1073.06 474.416 1085.8 456.412 1104.76 453.101 z" fill="rgb(22,40,26)" transform="translate(0,0)"></path>
<path d="M 1392.78 1175.06 L 1449.73 1175.02 L 1449.83 1195.16 C 1466.4 1195.94 1483.17 1195.83 1499.76 1195.88 C 1499.49 1211.06 1499.7 1226.73 1499.72 1241.95 L 1453.1 1241.91 L 1346.09 1241.72 L 1345.81 1202.81 L 1392.78 1202.92 L 1392.78 1175.06 z" fill="rgb(22,40,26)" transform="translate(0,0)"></path>
<path d="M 1407.52 112.186 C 1413.27 111.598 1419.07 111.633 1424.81 112.289 C 1442.56 114.383 1455.43 120.479 1466.41 134.472 C 1460.25 139.201 1457.34 142.121 1451.87 147.728 C 1443.69 141.538 1438.43 137.406 1428.35 134.522 C 1416.32 131.199 1403.45 132.833 1392.63 139.058 C 1381.29 145.612 1373.07 156.977 1369.76 169.591 C 1366.06 183.538 1368.23 198.392 1375.76 210.698 C 1382.47 221.749 1393.37 229.603 1405.97 232.463 C 1419.03 235.46 1432.74 233.096 1444.04 225.9 C 1469.64 209.5 1474.16 178.921 1458.14 153.926 L 1472.42 139.209 C 1478.31 148.839 1482.62 155.856 1485.34 167.092 C 1489.67 185.542 1486.63 204.954 1476.85 221.191 C 1456.53 254.273 1413.45 265.04 1380.61 243.973 C 1364.46 233.472 1353.16 216.954 1349.24 198.087 C 1340.38 156.913 1366.77 120.392 1407.52 112.186 z" fill="rgb(22,40,26)" transform="translate(0,0)"></path>
<path d="M 469.985 1462.08 C 469.843 1463.11 464.095 1474.25 463.294 1475.84 C 437.692 1526.69 479.761 1589.14 537.427 1579.3 C 544.197 1578.14 549.575 1576.07 556.167 1573.58 C 548.39 1589.8 536.41 1600.74 520.295 1608.25 C 446.083 1638.02 387.365 1547.62 433.649 1487.5 C 444.148 1473.86 454.072 1468.03 469.985 1462.08 z" fill="rgb(22,40,26)" transform="translate(0,0)"></path>
<path d="M 98.9511 829.623 C 131.211 859.815 142.533 886.399 165.569 829.003 C 167.198 824.944 169.428 819.478 172.464 816.328 L 174.118 816.255 C 182.114 825.247 189.888 862.254 204.423 863.873 C 214.956 865.046 239.257 836.216 247.545 829.578 C 240.817 851.152 234.159 874.812 227.179 896.017 L 231.048 899.763 C 229.88 902.697 230.827 901.659 228.414 903.222 C 216.523 903.26 117.429 904.283 114.995 902.484 C 115.137 899.537 114.604 900.707 116.062 898.65 L 118.65 896.127 C 114.039 884.134 102.105 842.635 98.9511 829.623 z" fill="rgb(22,40,26)" transform="translate(0,0)"></path>
<path d="M 118.65 896.127 L 194.328 895.897 C 199.554 895.882 223.087 895.431 227.179 896.017 L 231.048 899.763 C 229.88 902.697 230.827 901.659 228.414 903.222 C 216.523 903.26 117.429 904.283 114.995 902.484 C 115.137 899.537 114.604 900.707 116.062 898.65 L 118.65 896.127 z" fill="rgb(22,40,26)" transform="translate(0,0)"></path>
<path d="M 118.65 896.127 L 194.328 895.897 C 199.554 895.882 223.087 895.431 227.179 896.017 L 231.048 899.763 C 225.302 898.223 198.438 898.779 191.04 898.796 C 166.048 898.999 141.054 898.951 116.062 898.65 L 118.65 896.127 z" fill="rgb(210,213,215)" transform="translate(0,0)"></path>
<path d="M 774.613 1180.56 C 783.626 1163.24 796.531 1142.39 790.083 1122.21 C 789.587 1120.68 789.044 1119.17 788.454 1117.67 C 813.999 1139.4 824.025 1156.92 817.871 1191.34 C 816.951 1196.49 814.582 1201.89 815.17 1206.96 C 822.523 1209.62 832.721 1187.97 835.143 1182.99 C 845.648 1221.52 850.088 1254.55 809.799 1275.84 C 831.607 1248.13 818.055 1218.47 792.417 1198.97 C 790.691 1197.64 788.922 1196.38 787.111 1195.17 C 786.641 1223.24 761.825 1251.79 783.771 1274.62 C 784.244 1275.11 784.723 1275.6 785.208 1276.08 C 753.616 1266.07 743.874 1247.24 745.382 1214.94 C 745.98 1212.36 745.598 1211.97 747.194 1210.43 L 748.411 1213.09 C 752.365 1222.16 755.594 1223.52 763.954 1228.67 C 754.775 1202.47 754.111 1185.17 768.143 1159.79 L 774.613 1180.56 z" fill="rgb(22,40,26)" transform="translate(0,0)"></path>
<path d="M 441.702 448.091 L 492.539 447.964 C 501.523 447.914 516.204 447.403 524.581 448.429 C 526.399 450.968 525.749 451.688 525.887 455.515 C 525.143 467.04 523.55 483.938 519.584 494.777 L 517.692 500.771 C 514.715 510.573 508.613 519.235 499.426 524.088 C 498.335 524.66 497.231 525.204 496.113 525.721 C 497.779 526.705 498.647 527.09 500.425 527.84 C 500.036 531.948 500.272 533.968 497.292 536.91 C 494.907 537.642 493.565 538.051 491.291 539.062 C 486.563 540.139 482.249 539.797 477.489 539.061 C 476.091 537.48 474.895 537.484 472.931 536.918 C 467.629 536.097 466.81 530.316 469.314 527.465 L 471.466 525.445 C 462.279 520.089 456.228 514.779 451.415 505.021 C 450.658 503.487 450.572 503.266 448.961 502.53 L 448.062 503.329 C 444.526 503.296 437.065 499.577 434.157 497.642 C 418.929 487.509 416.395 466.46 413.254 449.879 C 421.051 449.932 432.089 449.508 439.406 451.003 C 437.534 460.224 429.201 455.141 420.772 456.838 C 425.245 480.515 426.308 485.498 447.514 497.106 C 447.802 492.782 442.94 469.003 442.026 462.42 L 441.702 448.091 z" fill="rgb(22,40,26)" transform="translate(0,0)"></path>
<path d="M 496.113 525.721 C 497.779 526.705 498.647 527.09 500.425 527.84 C 500.036 531.948 500.272 533.968 497.292 536.91 C 494.907 537.642 493.565 538.051 491.291 539.062 C 486.563 540.139 482.249 539.797 477.489 539.061 C 476.091 537.48 474.895 537.484 472.931 536.918 C 467.629 536.097 466.81 530.316 469.314 527.465 L 471.466 525.445 C 483.93 528.779 484.44 527.482 496.113 525.721 z" fill="rgb(22,40,26)" transform="translate(0,0)"></path>
<path d="M 496.113 525.721 C 497.779 526.705 498.647 527.09 500.425 527.84 C 483.445 529.624 488.101 531.339 470.307 527.664 L 469.314 527.465 L 471.466 525.445 C 483.93 528.779 484.44 527.482 496.113 525.721 z" fill="rgb(210,213,215)" transform="translate(0,0)"></path>
<path d="M 472.931 536.918 C 481.051 537.066 489.172 537.064 497.292 536.91 C 494.907 537.642 493.565 538.051 491.291 539.062 C 486.563 540.139 482.249 539.797 477.489 539.061 C 476.091 537.48 474.895 537.484 472.931 536.918 z" fill="rgb(210,213,215)" transform="translate(0,0)"></path>
<path d="M 792.375 116.413 C 803.037 115.018 812.473 121.159 822.869 125.567 L 836.779 156.66 C 843.125 150.946 852.268 138.135 859.88 137.856 C 862.691 139.751 861.735 138.499 862.785 141.788 C 861.985 147.967 840.32 164.644 834.368 169.863 C 831.024 162.561 824.084 150.801 820.02 143.412 L 806.053 179.526 C 813.794 189.277 828.068 202.803 837.118 212.693 L 844.447 256.582 C 852.955 257.164 858.808 257.348 867.368 257.265 C 858.621 264.806 850.923 269.223 841.093 275.076 C 834.957 258.472 828.879 236.311 822.936 218.65 L 814.427 212.156 L 791.534 196.632 C 785.441 205.856 779.639 215.268 774.134 224.854 C 759.403 223.632 744.662 222.543 729.911 221.588 C 721.823 228.028 714.149 236.487 707.052 244.05 C 708.466 233.372 712.099 221.216 714.936 210.658 L 765.953 211.214 C 770.531 200.24 773.84 191.795 776.787 180.206 C 781.252 162.643 788.202 145.038 794.516 127.989 L 768.978 127.876 C 765.787 136.819 761.524 160.69 753.312 164.598 C 744.156 159.23 759.872 128.006 762.926 118.245 C 772.271 117.984 782.939 117.045 792.375 116.413 z" fill="rgb(22,40,26)" transform="translate(0,0)"></path>
<path d="M 731.608 1823.94 C 731.822 1816.87 731.933 1813.71 737.688 1808.37 C 755.436 1793.06 785.452 1790.36 808.052 1790.96 C 826.893 1791.47 854.641 1796.12 868.523 1810.15 C 873.131 1814.81 872.998 1818.79 871.45 1824.66 C 863.051 1834.74 852.3 1840.27 839.713 1843.4 C 805.122 1851.99 757.776 1851.05 731.608 1823.94 z" fill="rgb(22,40,26)" transform="translate(0,0)"></path>
<path d="M 480.034 128.049 C 488.444 128.763 492.587 129.21 500.82 131.109 C 506.826 144.211 511.696 157.702 518.069 171.047 C 525.621 174.238 539.572 175.892 543.496 181.93 C 543.29 185.408 543.854 183.837 541.446 186.686 C 535.783 189.556 522.869 182.59 513.654 181.443 L 512.479 181.307 C 509.816 175.711 505.466 165.84 502.225 160.966 C 501.03 168.642 500.67 180.675 500.206 188.782 C 501.213 190.502 502.193 192.237 503.146 193.987 C 507.26 201.543 513.838 213.307 517.739 222.261 C 520.579 228.25 531.568 266.784 528.777 271.116 C 514.404 293.424 506.005 235.682 504.621 229.58 L 485.37 209.711 C 479.026 210.162 450.59 264.294 445.238 271.262 C 439.3 278.579 428.109 270.036 431.935 263.364 C 456.452 220.609 470.621 198.062 474.309 147.859 C 470.208 151.5 465.251 155.4 460.969 158.933 C 460.154 168.993 461.762 180.03 460.279 188.998 C 457.824 192.162 459.189 191.225 455.353 192.559 L 453.416 191.248 C 449.941 184.48 451.102 164.426 450.934 155.114 C 458.464 147.171 471.881 134.985 480.034 128.049 z" fill="rgb(22,40,26)" transform="translate(0,0)"></path>
<path d="M 1130.46 1798.14 C 1134.88 1797.96 1139.1 1799.29 1143.67 1798.9 C 1170.34 1796.61 1170.78 1810.36 1172.8 1831.3 C 1175.66 1860.87 1160.82 1876.06 1132.35 1863.6 C 1130.75 1866.53 1129.75 1869.21 1127.03 1870.96 C 1123.92 1870.01 1123.5 1868.43 1121.15 1865.5 C 1112.84 1876.09 1095.67 1893.47 1085.9 1904.52 C 1089.91 1907.78 1093.98 1910.97 1098.11 1914.08 C 1095.97 1916.92 1093.34 1919.55 1090.9 1922.15 C 1086.92 1918.51 1086.33 1916.8 1081 1917.57 L 1080 1919.61 C 1081.04 1923.88 1081.98 1923.84 1085.19 1927.33 C 1084.09 1929.78 1080.32 1933.45 1078.32 1935.65 L 1072.74 1930.46 C 1069.85 1929.59 1069.98 1929.68 1067.23 1930.44 L 1066.42 1932.49 C 1067.33 1936.71 1068.3 1938.02 1070.36 1941.74 L 1065.24 1949.22 C 1054.32 1933.46 1049.47 1946.34 1042.83 1929.12 C 1047.59 1921.44 1052.71 1917.11 1061.13 1907.5 C 1074.94 1891.75 1095.78 1871.42 1109.15 1854.64 C 1110.15 1853.38 1108.27 1849.65 1113.82 1842.75 C 1103.55 1823.94 1108.4 1804.62 1130.46 1798.14 z" fill="rgb(22,40,26)" transform="translate(0,0)"></path>
<path d="M 1149.16 1808.95 C 1166.18 1808.81 1167.21 1826.03 1156.39 1834.3 C 1144.91 1833.61 1141.21 1830.58 1142.22 1817.48 C 1142.56 1813.04 1145.82 1811.3 1149.16 1808.95 z" fill="rgb(255,255,255)" transform="translate(0,0)"></path>
<path d="M 781.514 1451.17 L 839.692 1450.74 C 830.096 1471.78 818.327 1491.4 809.164 1513.23 C 820.686 1513.73 832.224 1513.75 843.748 1513.3 L 782.761 1588.07 L 760.365 1616.78 C 772.307 1590.11 787.366 1558.28 797.839 1531.41 C 782.493 1531.7 768.661 1531.89 753.272 1531.31 C 761.856 1511.79 773.522 1473.3 781.514 1451.17 z" fill="rgb(22,40,26)" transform="translate(0,0)"></path>
<path d="M 1388.52 1598.9 C 1389.66 1578.33 1388.1 1557.16 1388.79 1536.58 C 1389.58 1513.14 1382.43 1494.19 1413.32 1492.99 C 1407.72 1498.6 1399.18 1504.92 1397.73 1512.11 C 1402.78 1519.51 1408.21 1526.58 1413.57 1533.75 C 1414.07 1534.42 1419.56 1535.4 1420.56 1535.56 C 1422.19 1540.54 1422.85 1544.18 1426.79 1547.41 C 1430.14 1548.57 1437.46 1548.31 1438.26 1549.38 C 1447.75 1561.96 1455.4 1558.84 1466.18 1547.68 C 1472.96 1540.67 1480.8 1530.24 1487.72 1521.46 C 1500.09 1537.11 1492.1 1541.01 1484.39 1555.6 C 1468.82 1585.05 1452.04 1623.02 1412.46 1599.04 L 1388.52 1598.9 z" fill="rgb(22,40,26)" transform="translate(0,0)"></path>
<path d="M 1415.57 137.396 C 1429.98 137.7 1438 141.186 1448.64 150.926 L 1432.26 165.864 C 1422.02 158.076 1408.78 156.429 1400.15 167.717 C 1395.83 173.287 1394.02 180.401 1395.15 187.359 C 1400.41 218.119 1449.31 212.408 1438.16 170.467 L 1455.27 156.523 L 1459.23 164.657 C 1460.92 169.101 1461.67 171.771 1462.37 176.505 C 1464.26 188.792 1461.08 201.321 1453.55 211.216 C 1446.29 220.93 1435.39 227.283 1423.36 228.823 C 1411.23 230.39 1398.98 226.977 1389.41 219.362 C 1358.74 194.482 1370.53 141.435 1415.57 137.396 z" fill="rgb(22,40,26)" transform="translate(0,0)"></path>
<path d="M 794.91 785.977 L 797.173 784.237 C 798.819 800.274 801.434 812.748 805.007 828.506 C 813.436 822.728 820.196 817.501 828.215 811.142 L 833.384 807.325 L 834.188 807.595 C 832.849 809.769 831.955 811.33 830.293 813.314 C 825.258 820.472 818.223 831.223 814.65 839.216 C 827.419 843.072 841.888 845.154 855.111 846.825 L 854.977 849.089 C 842.986 850.644 827.691 854.282 815.487 856.755 C 819.805 866.52 832.102 882.812 838.757 892.232 C 828.552 883.592 815.861 874.844 804.847 867.292 C 802.202 882 799.669 897.253 796.554 911.828 C 792.471 897.849 791.472 881.763 787.351 866.906 C 776.301 874.024 764.154 883.958 753.92 892.206 C 762.564 880.937 770.593 869.21 777.974 857.077 C 768.926 853.757 747.904 850.09 738.02 849.074 L 737.804 846.723 C 750.635 845.397 765.457 841.759 778.191 838.963 C 770.995 827.322 763.57 815.825 755.92 804.477 C 765.262 812.547 777.358 821.471 787.255 829.16 C 790.658 814.93 793.214 800.51 794.91 785.977 z" fill="rgb(22,40,26)" transform="translate(0,0)"></path>
<path d="M 727.861 1883.89 C 755.939 1915.66 847.734 1918.71 871.299 1883.96 C 871.835 1892.85 872.795 1901.12 869.955 1909.66 C 857.346 1925.64 839.133 1931.02 819.414 1933.22 C 788.214 1936.7 756.365 1933.66 731.008 1913.66 C 726.07 1907.35 727.701 1892.31 727.861 1883.89 z" fill="rgb(22,40,26)" transform="translate(0,0)"></path>
<path d="M 87.7296 1597.06 C 114.73 1559.69 145.391 1555.45 186.343 1571.36 C 206.963 1579.37 229.948 1586.81 250.97 1594.17 L 258.484 1596.16 C 259.85 1595.98 261.116 1595.85 262.251 1596.79 L 262.367 1597.32 C 260.214 1598.8 250.536 1597.51 247.504 1597.18 L 242.612 1597 C 228.42 1598.41 200.885 1597.54 185.806 1597.47 L 87.7296 1597.06 z" fill="rgb(22,40,26)" transform="translate(0,0)"></path>
<path d="M 258.484 1596.16 C 259.85 1595.98 261.116 1595.85 262.251 1596.79 L 262.367 1597.32 C 260.214 1598.8 250.536 1597.51 247.504 1597.18 C 252.125 1596.94 253.913 1597.06 258.484 1596.16 z" fill="rgb(152,158,159)" transform="translate(0,0)"></path>
<path d="M 729.045 1854.84 C 752.886 1886.6 834.129 1886.54 864.156 1864.05 C 866.29 1862.45 869.264 1859.76 871.224 1857.93 C 871.916 1866.42 871.661 1871.6 871.261 1880.01 C 846.336 1914.67 754.274 1914.22 729.52 1881.07 C 728.578 1874.53 729.008 1861.87 729.045 1854.84 z" fill="rgb(22,40,26)" transform="translate(0,0)"></path>
<path d="M 730.87 1827.23 C 758.319 1857.76 828.502 1856.86 862.166 1837.11 C 865.118 1835.38 869.575 1829.72 872.36 1829.84 L 873.038 1830.72 C 872.82 1838.93 873.709 1848.66 869.791 1855.64 L 869.13 1856.29 C 839.217 1885.39 760.892 1884.01 731.82 1853.51 C 730.89 1848.84 731.048 1833.08 730.87 1827.23 z" fill="rgb(22,40,26)" transform="translate(0,0)"></path>
<path d="M 481.21 838.696 C 486.671 840.24 537.938 894.958 545.568 902.768 C 541.493 908.04 536.351 912.906 531.617 917.642 C 516.895 901.637 499.12 884.531 483.662 869.069 L 482.018 868.073 C 479.813 869.652 471.825 878.776 469.312 881.313 C 457.666 893.073 445.807 904.343 434.848 916.755 C 430.063 912.523 424.614 906.962 419.944 902.449 C 440.6 881.425 461.023 860.172 481.21 838.696 z" fill="rgb(22,40,26)" transform="translate(0,0)"></path>
<path d="M 1361.47 1505.42 C 1370.32 1505.12 1376.24 1505.09 1385.15 1505.57 C 1385.53 1528.4 1386.85 1573.79 1384 1597.55 C 1383.68 1600.22 1378.91 1602.38 1376.42 1603.45 C 1353.14 1605.87 1351.66 1604.69 1352.2 1580.34 C 1352.72 1557.27 1350.68 1533.01 1353.48 1510.26 C 1353.78 1507.87 1359.62 1505.95 1361.47 1505.42 z" fill="rgb(22,40,26)" transform="translate(0,0)"></path>
<path d="M 830.213 430.396 C 836.642 431.018 841.17 431.016 847.661 430.954 C 839.759 455.031 831.641 479.037 823.31 502.969 C 820.488 511.095 815.878 526.108 812.787 533.206 C 805.547 529.7 793.753 528.898 786.615 532.952 C 782.287 527.113 756.152 443.485 752.261 431.273 L 767.389 431.075 C 778.023 465.065 790.792 494.611 799.078 530.075 C 801.5 520.157 804.313 510.338 807.509 500.642 C 811.17 489.542 830.453 437.631 830.213 430.396 z" fill="rgb(22,40,26)" transform="translate(0,0)"></path>
<path d="M 481.732 782.625 C 485.201 783.352 537.818 838.554 545.311 846.086 C 540.543 851.698 537.142 855.617 531.228 859.987 C 515.13 844.878 499.656 827.455 483.286 811.786 L 482.715 811.58 C 478.977 812.788 441.601 853.654 434.802 860.147 C 429.841 855.837 425.045 850.664 420.449 845.915 C 441.33 825.55 460.803 803.404 481.732 782.625 z" fill="rgb(22,40,26)" transform="translate(0,0)"></path>
<path d="M 137.345 139.346 C 143.48 139.431 152.624 140.527 156.716 145.288 C 170.537 161.366 151.883 177.955 145.874 192.494 C 144.36 196.157 144.664 202.717 144.722 206.555 C 135.507 206.984 132.446 207.267 123.442 208.507 C 119.42 209.36 120.176 209.397 116.67 210.749 C 114.87 209.949 103.322 182.44 102.403 178.837 C 96.7311 156.618 118.253 142.379 137.345 139.346 z" fill="rgb(22,40,26)" transform="translate(0,0)"></path>
<path d="M 191.841 159.455 C 191.701 154.784 192.746 149.621 190.936 146.009 C 186.132 136.429 166.626 110.101 179.906 100.472 C 210.298 78.4349 254.658 116.847 226.148 151.006 C 225.294 152.029 221.797 161.003 220.838 162.966 L 218.821 162.685 C 209.895 161.809 200.775 160.49 191.841 159.455 z" fill="rgb(22,40,26)" transform="translate(0,0)"></path>
<path d="M 730.109 1917.13 C 731.068 1917.43 731.134 1917.34 731.878 1917.98 C 762.936 1944.79 844.605 1945.48 871.086 1912.37 C 871.32 1920.03 871.674 1926.53 870.835 1934.2 C 845.967 1964.51 768.44 1964.26 737.364 1942.04 C 728.655 1935.81 729.991 1926.41 730.109 1917.13 z" fill="rgb(22,40,26)" transform="translate(0,0)"></path>
<path d="M 787.247 535.705 C 794.95 532.278 803.763 532.368 811.395 535.951 C 823.758 541.756 830.406 555.392 827.364 568.707 C 824.322 582.022 812.413 591.418 798.755 591.279 C 785.098 591.14 773.383 581.503 770.613 568.128 C 767.844 554.754 774.768 541.257 787.247 535.705 z" fill="rgb(22,40,26)" transform="translate(0,0)"></path>
<path d="M 795.37 543.183 C 817.89 542.175 828.078 569.564 802.693 581.577 C 779.026 583.461 771.526 554.735 795.37 543.183 z" fill="rgb(210,213,215)" transform="translate(0,0)"></path>
<path d="M 797.422 544.967 C 817.368 546.919 822.908 570.129 801.821 579.425 C 777.519 576.941 777.425 552.726 797.422 544.967 z" fill="rgb(22,40,26)" transform="translate(0,0)"></path>
<path d="M 1351.01 886.468 C 1349.86 878.396 1349.42 870.406 1350.33 862.273 C 1352.52 842.33 1362.6 824.093 1378.32 811.625 C 1394.08 799.169 1414.23 793.651 1434.14 796.334 C 1453.76 799.042 1471.49 809.478 1483.37 825.321 C 1498.02 844.86 1500.62 865.526 1497.44 888.879 C 1490.38 886.737 1483.46 885.163 1477.73 880.433 L 1478.24 878.949 C 1482.34 877.742 1484.73 878.612 1488.96 879.413 C 1489.28 871.397 1489.05 865.841 1488.6 857.924 C 1483.04 858.954 1480.17 860.34 1475.61 857.432 L 1475.88 855.734 C 1479.01 852.941 1482.27 853.002 1486.56 852.377 C 1483.16 843.762 1478.8 836.335 1474.01 828.502 L 1471.93 831.479 C 1469.97 834.346 1468.35 837.119 1464.53 835.594 L 1464.55 833.035 C 1466.58 829.066 1468.7 827.884 1472.21 825.124 C 1464.34 818.177 1459.28 815.179 1449.8 810.716 C 1446.61 817.89 1446.14 818.812 1441.31 825.151 C 1441.64 819.45 1443.16 813.526 1444.41 807.922 C 1439.05 806.52 1425.82 802.428 1421.33 805.585 L 1420.82 809.248 C 1421.09 812.952 1421.46 814.31 1419.51 816.863 L 1417.89 816.121 C 1415.99 812.888 1416.72 810.565 1417.13 806.723 C 1412.34 802.61 1398.49 809.079 1393.42 811.661 C 1394.67 815.138 1396.39 818.233 1395.42 821.548 L 1393.95 822.035 C 1390.63 820.06 1389.83 817.493 1388 813.977 C 1382.29 818.254 1375.19 823.371 1371.21 829.376 C 1375.22 831.995 1376.03 831.641 1377.98 835.574 L 1377.36 837.293 C 1374.16 837.827 1374.31 837.841 1370.99 835.414 C 1370.12 834.761 1369.25 834.098 1368.38 833.425 C 1363.94 838.592 1361.08 846.9 1358.66 853.335 C 1361.86 854.066 1367.29 854.749 1369.2 856.994 L 1368.61 858.761 C 1364.09 860.013 1362.28 858.151 1359.47 858.839 C 1354.12 860.144 1354.85 873.857 1356.21 877.841 C 1357.59 881.864 1362.96 876.911 1367.15 879.425 L 1366.77 881.87 C 1363.13 884.154 1355.53 885.45 1351.01 886.468 z" fill="rgb(22,40,26)" transform="translate(0,0)"></path>
<path d="M 477.489 539.061 C 482.249 539.797 486.563 540.139 491.291 539.062 C 494.33 557.306 495.849 558.165 503.748 574.115 L 504.132 576.273 C 515.243 575.638 517.517 573.115 518.502 582.695 L 518.894 584.314 C 523.388 584.105 523.665 583.325 526.922 585.483 C 529.022 589.484 529.359 591.1 526.812 594.916 C 517.871 597.17 453.533 595.941 440.102 595.937 L 440.359 584.516 C 443.664 583.832 449.05 584.676 450.145 582.604 C 451.95 573.382 453.976 575.89 464.598 575.926 L 464.993 574 C 473.736 559.46 473.06 553.629 477.489 539.061 z" fill="rgb(22,40,26)" transform="translate(0,0)"></path>
<path d="M 477.489 539.061 C 482.249 539.797 486.563 540.139 491.291 539.062 C 494.33 557.306 495.849 558.165 503.748 574.115 C 496.998 574.548 471.377 574.814 464.993 574 C 473.736 559.46 473.06 553.629 477.489 539.061 z" fill="rgb(22,40,26)" transform="translate(0,0)"></path>
<path d="M 464.598 575.926 L 464.993 574 C 471.377 574.814 496.998 574.548 503.748 574.115 L 504.132 576.273 C 515.243 575.638 517.517 573.115 518.502 582.695 C 506.055 581.464 462.579 581.109 450.145 582.604 C 451.95 573.382 453.976 575.89 464.598 575.926 z" fill="rgb(22,40,26)" transform="translate(0,0)"></path>
<path d="M 464.598 575.926 L 464.993 574 C 471.377 574.814 496.998 574.548 503.748 574.115 L 504.132 576.273 C 497.095 577.558 471.76 576.949 464.598 575.926 z" fill="rgb(111,115,116)" transform="translate(0,0)"></path>
<path d="M 450.145 582.604 C 462.579 581.109 506.055 581.464 518.502 582.695 L 518.894 584.314 C 512.081 585.111 499.642 584.89 492.356 584.847 C 475.896 584.749 456.632 585.51 440.359 584.516 C 443.664 583.832 449.05 584.676 450.145 582.604 z" fill="rgb(152,158,159)" transform="translate(0,0)"></path>
<path d="M 828.696 431.014 C 818.473 459.336 809.432 488.219 799.203 516.309 C 790.247 487.635 780.113 459.524 771.112 430.873 C 788.776 431.459 811.001 431.61 828.696 431.014 z" fill="rgb(22,40,26)" transform="translate(0,0)"></path>
<path d="M 95.2474 1871.03 C 106.1 1870.88 116.954 1870.83 127.807 1870.88 C 127.909 1893.49 127.89 1916.1 127.752 1938.71 C 116.869 1938.91 105.984 1938.97 95.1002 1938.92 L 95.2474 1871.03 z" fill="rgb(22,40,26)" transform="translate(0,0)"></path>
<path d="M 453.439 1830.98 L 504.541 1830.94 L 484.871 1892.31 L 477.916 1914.44 C 470.663 1898.75 457.383 1849.05 453.439 1830.98 z" fill="rgb(22,40,26)" transform="translate(0,0)"></path>
<path d="M 1056.29 1511.56 C 1060.17 1500.8 1069.32 1500.15 1075.43 1509.78 C 1076.27 1516.68 1074.95 1527.83 1076.42 1532.89 C 1077.21 1537.57 1077.21 1543.12 1076.8 1547.85 C 1075.35 1551.63 1076.89 1563.91 1075.65 1570.55 C 1069.22 1580.21 1062.41 1581.22 1056.34 1570.21 C 1055.36 1570.53 1054.8 1570.97 1053.91 1571.51 C 1046.19 1574.06 1044.82 1570.28 1043.3 1563.21 C 1044.6 1553.72 1043.25 1530.69 1042.98 1520.03 C 1043.58 1512.67 1047.08 1504.7 1054.58 1512.1 C 1055.5 1512 1055.57 1512.08 1056.29 1511.56 z" fill="rgb(22,40,26)" transform="translate(0,0)"></path>
<path d="M 1042.98 1520.03 C 1043.58 1512.67 1047.08 1504.7 1054.58 1512.1 C 1055.5 1512 1055.57 1512.08 1056.29 1511.56 C 1057.22 1515.72 1057.47 1565.49 1056.34 1570.21 C 1055.36 1570.53 1054.8 1570.97 1053.91 1571.51 C 1046.19 1574.06 1044.82 1570.28 1043.3 1563.21 C 1044.6 1553.72 1043.25 1530.69 1042.98 1520.03 z" fill="rgb(22,40,26)" transform="translate(0,0)"></path>
<path d="M 1054.58 1512.1 C 1055.5 1512 1055.57 1512.08 1056.29 1511.56 C 1057.22 1515.72 1057.47 1565.49 1056.34 1570.21 C 1055.36 1570.53 1054.8 1570.97 1053.91 1571.51 C 1054.5 1555.68 1052.8 1525.92 1054.58 1512.1 z" fill="rgb(210,213,215)" transform="translate(0,0)"></path>
<path d="M 1075.43 1509.78 C 1076.27 1516.68 1074.95 1527.83 1076.42 1532.89 C 1077.21 1537.57 1077.21 1543.12 1076.8 1547.85 C 1075.35 1551.63 1076.89 1563.91 1075.65 1570.55 C 1074.7 1562.88 1074.63 1517.49 1075.43 1509.78 z" fill="rgb(210,213,215)" transform="translate(0,0)"></path>
<path d="M 1094.1 860.616 C 1097.46 846.392 1104.03 797.446 1107.75 788.54 L 1108.89 788.233 C 1112.03 798.43 1111.16 879.831 1111.86 897.378 C 1111.99 899.787 1111.59 902.358 1112.85 903.669 C 1114.11 900.878 1114.71 899.449 1115.62 896.535 C 1118.89 883.848 1124.69 872.937 1127.41 859.942 C 1141.7 859.949 1174.66 859.17 1187.71 860.808 L 1188.21 861.688 C 1181.4 866.24 1142.49 864.808 1131.72 864.93 C 1122.4 887.255 1116.9 910.832 1108.16 932.506 C 1106.42 922.124 1106.92 891.249 1106.86 879.481 C 1105.73 869.479 1107.52 837.008 1104.42 832.089 C 1102.37 843.032 1100 858.233 1097.36 868.717 C 1096.22 872.539 1096.02 873.383 1094.12 876.818 C 1092.37 875.107 1092.75 873.346 1092.31 870.258 C 1090.03 866.547 1086 847.388 1084.15 841.699 L 1078.12 867.437 C 1065.12 867.263 1036.37 867.847 1025.65 866.541 L 1024.78 864.353 L 1025.79 862.586 C 1031.01 861.241 1066.8 862.223 1074.4 862.188 C 1077.52 850.121 1080.87 836.003 1084.82 824.383 C 1088.78 835.924 1091.47 848.65 1094.1 860.616 z" fill="rgb(22,40,26)" transform="translate(0,0)"></path>
<path d="M 1104.42 832.089 C 1104.97 826.497 1105.6 823.527 1106.77 818.104 C 1107.17 835.299 1107.78 862.436 1106.86 879.481 C 1105.73 869.479 1107.52 837.008 1104.42 832.089 z" fill="rgb(152,158,159)" transform="translate(0,0)"></path>
<path d="M 405.912 1830.15 C 420.604 1830.65 435.304 1830.88 450.005 1830.84 C 456.194 1855.43 464.113 1881.51 471.372 1905.92 C 472.634 1910.05 474.158 1913.74 473.898 1917.98 C 472.387 1914.95 469.66 1910.99 467.772 1908.06 C 464.63 1904.83 461.016 1899.44 458.236 1895.75 C 441.409 1873.41 422.958 1852.31 405.912 1830.15 z" fill="rgb(22,40,26)" transform="translate(0,0)"></path>
<path d="M 508.017 1830.95 C 516.049 1830.82 541.707 1830.06 548.841 1831.32 C 539.164 1845.14 525.402 1861.31 514.695 1874.72 C 504.437 1887.56 492.34 1903.82 481.485 1915.78 C 481.532 1908.25 504.241 1842.6 508.017 1830.95 z" fill="rgb(22,40,26)" transform="translate(0,0)"></path>
<path d="M 479.405 1921.97 C 486.041 1922.16 492.689 1922.08 499.34 1922.19 C 500.215 1933.68 500.017 1945.68 500.077 1957.24 C 484.73 1956.9 467.874 1957.27 452.746 1956.5 L 452.786 1922.44 C 457.874 1922.18 462.587 1922.16 467.682 1922.14 C 471.583 1922.12 475.51 1922.14 479.405 1921.97 z" fill="rgb(22,40,26)" transform="translate(0,0)"></path>
<path d="M 189.176 165.478 C 198.079 167.185 207.362 169.252 216.272 170.596 C 216.847 171.138 217.417 171.686 217.982 172.239 C 214.234 185.806 206.486 226.58 185.427 216.187 C 164.351 205.785 183.217 177.319 189.176 165.478 z" fill="rgb(22,40,26)" transform="translate(0,0)"></path>
<path d="M 144.625 213.456 C 146.456 213.149 148.028 212.894 149.262 214.792 C 156.678 226.202 168.175 251.924 151.815 261.711 C 148.567 263.626 144.699 264.199 141.035 263.307 C 140.2 263.083 139.364 262.86 138.529 262.636 C 124.041 251.658 122.636 233.928 118.831 216.439 C 127.82 215.351 135.555 214.252 144.625 213.456 z" fill="rgb(22,40,26)" transform="translate(0,0)"></path>
<path d="M 1114.86 540.016 C 1142.89 545.834 1129.27 542.872 1145.72 525.086 C 1146.93 528.631 1147.4 530.898 1148.17 534.489 C 1151.8 551.377 1156.37 567.769 1161.02 584.377 C 1153.62 579.099 1146.49 574.784 1138.98 569.388 C 1135.47 579.043 1132.05 585.598 1126.68 594.195 C 1122.87 576.534 1119.29 557.451 1114.86 540.016 z" fill="rgb(22,40,26)" transform="translate(0,0)"></path>
<path d="M 1082.7 528.513 C 1084.22 532.305 1086.47 537.166 1087.67 540.832 L 1086.75 542.581 C 1091.85 547.338 1102.37 539.954 1112 539.885 C 1109.44 558.549 1104.77 575.487 1101.3 593.806 C 1097.14 584.849 1092.5 578.706 1089.17 569.09 C 1081.42 574.366 1075.2 578.221 1067.14 583.069 C 1070.29 569.173 1074.73 555.795 1077.62 541.838 C 1078.44 537.864 1079.13 533.873 1080.25 529.975 C 1081.58 529.394 1081.49 529.403 1082.7 528.513 z" fill="rgb(22,40,26)" transform="translate(0,0)"></path>
<path d="M 1082.7 528.513 C 1084.22 532.305 1086.47 537.166 1087.67 540.832 L 1086.75 542.581 C 1084.59 538.296 1082.97 533.627 1080.25 529.975 C 1081.58 529.394 1081.49 529.403 1082.7 528.513 z" fill="rgb(111,115,116)" transform="translate(0,0)"></path>
<path d="M 1155.48 1516.25 C 1158.27 1496.05 1172.93 1505.28 1173.28 1507.93 C 1175.78 1527.01 1173.52 1550.82 1174.35 1570.02 C 1174.73 1578.82 1160.31 1581.1 1157.33 1572.92 C 1155.49 1567.88 1156.43 1554.68 1156 1549.23 C 1156.1 1544.54 1156.36 1520.21 1155.48 1516.25 z" fill="rgb(22,40,26)" transform="translate(0,0)"></path>
<path d="M 1153.26 1532.43 C 1154.34 1536.41 1153.99 1543.74 1153.78 1548.04 C 1129.89 1547.13 1101.12 1547.88 1076.8 1547.85 C 1077.21 1543.12 1077.21 1537.57 1076.42 1532.89 C 1098.33 1533.05 1132.03 1533.79 1153.26 1532.43 z" fill="rgb(22,40,26)" transform="translate(0,0)"></path>
<path d="M 434.835 446.621 C 434.749 442.356 434.2 438.459 435.962 434.715 C 440.922 434.161 446.441 434.144 451.454 434.262 C 477.839 434.885 505.041 433.351 531.344 434.806 C 534.058 437.213 532.955 442.538 532.608 446.002 C 516.222 445.29 496.083 446.177 479.368 445.907 C 468.586 445.734 444.386 445.426 434.835 446.621 z" fill="rgb(22,40,26)" transform="translate(0,0)"></path>
<path d="M 1473.07 114.575 C 1481.01 106.597 1489.11 98.7768 1497.36 91.1206 L 1496.89 112.51 L 1512.72 115.562 C 1506.32 122.032 1499.59 129.087 1493.09 135.377 C 1485.37 135.917 1481.42 135.534 1473.63 134.826 C 1468.12 140.418 1461.42 147.651 1455.29 152.287 L 1444.24 162.073 L 1442.81 163.279 C 1438.11 166.741 1434.97 168.705 1431.41 173.351 C 1429.26 175.375 1427.94 176.386 1425.57 178.154 C 1425.73 176.503 1429.17 172.73 1430.48 171.054 C 1437.84 163.892 1445.44 156.981 1453.28 150.333 C 1455.45 146.897 1468.32 134.74 1472.71 129.606 L 1473.07 114.575 z" fill="rgb(22,40,26)" transform="translate(0,0)"></path>
<path d="M 1466.29 1489.27 C 1474.3 1493.3 1476.88 1496.01 1473.86 1505.08 C 1467.53 1507.2 1445.11 1542.54 1435.23 1545.54 C 1430.43 1547 1423.43 1540.81 1424.21 1537.99 C 1426.22 1530.69 1439.97 1517.6 1445.03 1510.99 C 1446.82 1508.63 1448.67 1506.32 1450.57 1504.05 C 1455.39 1498.32 1459.34 1491.54 1466.29 1489.27 z" fill="rgb(22,40,26)" transform="translate(0,0)"></path>
<path d="M 1446.33 1479.11 C 1454.7 1471.12 1462.1 1474.91 1462.84 1486.26 C 1450.89 1493.5 1421.89 1548.8 1411.1 1526.86 C 1407.87 1520.29 1443.16 1486.92 1446.33 1479.11 z" fill="rgb(22,40,26)" transform="translate(0,0)"></path>
<path d="M 1433.65 174.956 C 1438.92 181.64 1433.81 195.038 1426.76 199.446 C 1422.78 201.89 1417.96 202.549 1413.47 201.263 C 1404.02 198.557 1396.12 188.246 1399.41 178.25 C 1401.1 173.26 1404.72 169.154 1409.46 166.852 C 1416.87 163.326 1420.79 165.332 1427.87 167.451 L 1428.7 167.695 C 1428.22 168.475 1420.95 179.424 1421.08 179.081 C 1418.05 187.339 1433.07 175.309 1433.65 174.956 z" fill="rgb(22,40,26)" transform="translate(0,0)"></path>
<path d="M 1476.19 1505.61 C 1483.92 1508.45 1488.63 1511.14 1486.2 1520.11 C 1476.66 1529.28 1458.24 1562.34 1443.75 1552.26 C 1437.83 1548.13 1446.55 1540.33 1449.26 1537.23 C 1458.24 1526.96 1466.55 1515.24 1476.19 1505.61 z" fill="rgb(22,40,26)" transform="translate(0,0)"></path>
<path d="M 169.021 1512.25 C 169.699 1512.2 170.378 1512.15 171.057 1512.11 C 191.565 1511.07 208.262 1526.78 210.115 1547 C 210.37 1549.78 209.249 1573.31 201.632 1568.5 C 200.493 1567.78 203.523 1562.62 204.05 1560.03 C 207.228 1544.4 202.542 1532.01 189.368 1522.65 C 173.966 1514.35 168.08 1516.25 153.789 1524.43 C 138.453 1533.21 141.839 1556.03 138.412 1558.38 L 137.588 1558.11 C 135.522 1555.71 135.508 1551.98 135.757 1548.96 C 137.528 1527.45 148.439 1516.01 169.021 1512.25 z" fill="rgb(22,40,26)" transform="translate(0,0)"></path>
<path d="M 152.268 1106.95 C 165.526 1107 178.784 1106.99 192.041 1106.9 L 191.75 1120.15 C 187.716 1120.2 184.571 1120.27 180.515 1119.84 L 180.139 1121.49 C 179.808 1125.68 179.324 1129.62 178.93 1133.78 C 174.48 1134.2 169.155 1133.53 164.208 1133.49 C 164.31 1115.14 167.355 1122.16 152.724 1119.28 C 150.176 1116.54 151.814 1110.85 152.268 1106.95 z" fill="rgb(22,40,26)" transform="translate(0,0)"></path>
<path d="M 152.724 1119.28 C 160.324 1118.91 173.103 1118.98 180.515 1119.84 L 180.139 1121.49 C 179.808 1125.68 179.324 1129.62 178.93 1133.78 C 174.48 1134.2 169.155 1133.53 164.208 1133.49 C 164.31 1115.14 167.355 1122.16 152.724 1119.28 z" fill="rgb(22,40,26)" transform="translate(0,0)"></path>
<path d="M 152.724 1119.28 C 160.324 1118.91 173.103 1118.98 180.515 1119.84 L 180.139 1121.49 C 174.887 1121.49 170.441 1121.38 165.216 1121.15 C 165.172 1124.99 165.152 1128.83 165.157 1132.67 C 172.077 1132.77 172.101 1132.88 178.93 1133.78 C 174.48 1134.2 169.155 1133.53 164.208 1133.49 C 164.31 1115.14 167.355 1122.16 152.724 1119.28 z" fill="rgb(111,115,116)" transform="translate(0,0)"></path>
<path d="M 477.742 1798.77 C 486.314 1807.71 494.535 1818.02 502.528 1827.49 C 494.493 1827.79 486.787 1827.8 478.75 1827.82 C 470.466 1827.81 462.476 1827.92 454.164 1827.72 L 477.742 1798.77 z" fill="rgb(22,40,26)" transform="translate(0,0)"></path>
<path d="M 494.101 93.1336 C 514.708 92.9017 516.955 115.092 501.006 125.369 C 482.399 124.605 477.251 103.304 494.101 93.1336 z" fill="rgb(22,40,26)" transform="translate(0,0)"></path>
<path d="M 438.273 1795.48 C 440.991 1804.51 446.085 1818.89 449.516 1827.7 C 443.308 1827.87 412.672 1828.44 408.241 1826.67 C 418.401 1816.65 428.086 1805.62 438.273 1795.48 z" fill="rgb(22,40,26)" transform="translate(0,0)"></path>
<path d="M 1414.88 1494.3 C 1420.55 1488.31 1433.64 1465.28 1442.61 1474.79 L 1444.54 1476.86 C 1434.09 1490.57 1419.74 1506.15 1408.62 1519.2 C 1407.94 1520 1399.76 1515.43 1401.04 1512.01 C 1403.41 1505.66 1409.97 1500.91 1414.2 1495.2 L 1414.88 1494.3 z" fill="rgb(22,40,26)" transform="translate(0,0)"></path>
<path d="M 822.002 87.8918 C 841.494 89.0744 842.803 108.55 828.056 119.078 C 807.459 119.621 806.69 96.3459 822.002 87.8918 z" fill="rgb(22,40,26)" transform="translate(0,0)"></path>
<path d="M 519.68 1796 C 528.578 1804.76 540.116 1818.1 548.866 1827.62 C 538.967 1828.19 517.851 1826.89 509.678 1827.76 C 509.898 1823.22 517.73 1801.23 519.68 1796 z" fill="rgb(22,40,26)" transform="translate(0,0)"></path>
<path d="M 1455.39 830.962 C 1456.01 835.007 1434.91 868.659 1433.53 876.344 C 1432.05 884.59 1423.2 884.229 1417.15 881.085 C 1408.87 868.131 1419.86 866.391 1427.54 859.091 C 1437.01 850.091 1446.06 840.149 1455.39 830.962 z" fill="rgb(22,40,26)" transform="translate(0,0)"></path>
<path d="M 1178.01 1508.79 C 1179.49 1508.95 1186.77 1509.31 1186.74 1511.59 C 1186.62 1520.69 1188.9 1565.89 1185.87 1571.43 L 1185.15 1572.83 C 1183.2 1572.83 1178.01 1572.85 1177.86 1571.47 C 1176.84 1561.61 1177.12 1516.14 1178.01 1508.79 z" fill="rgb(22,40,26)" transform="translate(0,0)"></path>
<path d="M 480.037 1795.05 C 483.408 1795.17 486.501 1795.38 489.87 1795.13 C 497.424 1796.15 508.837 1795.68 516.823 1795.73 C 513.006 1805.74 510.313 1815.71 506.143 1825.82 C 499.791 1819.2 484.991 1802.17 480.037 1795.05 z" fill="rgb(22,40,26)" transform="translate(0,0)"></path>
<path d="M 528.124 450.495 C 535.722 449.67 546.608 450.009 554.526 449.969 C 552.786 461.485 550.432 475.668 545.08 485.993 C 541.802 492.318 526.902 504.116 519.451 501.838 L 517.692 500.771 L 519.584 494.777 L 521.465 495.659 C 538.711 489.761 542.626 481.003 545.86 463.492 L 547.26 456.243 C 542.382 456.121 532.936 456.346 528.781 455.516 C 528.582 453.84 528.363 452.166 528.124 450.495 z" fill="rgb(22,40,26)" transform="translate(0,0)"></path>
<path d="M 519.584 494.777 L 521.465 495.659 C 520.517 497.985 519.967 499.41 519.451 501.838 L 517.692 500.771 L 519.584 494.777 z" fill="rgb(152,158,159)" transform="translate(0,0)"></path>
<path d="M 476.443 1794.96 C 471.868 1802.26 457.917 1817.29 451.378 1824.38 C 447.802 1815.02 444.75 1804.55 441.184 1795.61 C 454.442 1795.66 463.094 1795.97 476.443 1794.96 z" fill="rgb(22,40,26)" transform="translate(0,0)"></path>
<path d="M 198.61 83.5147 C 178.419 108.182 167.862 59.9069 192.439 66.0607 C 195.947 66.9392 197.72 73.0424 198.965 76.1896 C 198.868 78.6323 198.75 81.074 198.61 83.5147 z" fill="rgb(22,40,26)" transform="translate(0,0)"></path>
<path d="M 143.887 110.972 L 146.116 110.899 C 160.346 110.511 162.228 127.078 152.828 136.05 C 135.78 135.67 135.066 121.998 143.887 110.972 z" fill="rgb(22,40,26)" transform="translate(0,0)"></path>
<path d="M 206.98 1142.93 C 209.117 1139.76 210.123 1137.41 211.751 1134.01 C 213.432 1130.52 210.365 1131.62 209.104 1130.41 C 208.651 1128.65 212.711 1123.5 214.428 1124.92 C 221.041 1130.4 227.555 1135.32 234.59 1140.24 C 233.444 1142.39 231.751 1146.46 229.737 1147.63 C 228.261 1148.49 227.424 1145.42 226.078 1145.01 C 224.784 1145.46 223.077 1149.02 221.661 1150.85 L 220.952 1151.78 C 216.587 1148.96 210.756 1146.26 206.98 1142.93 z" fill="rgb(22,40,26)" transform="translate(0,0)"></path>
<path d="M 1148.35 1113.53 C 1151.76 1115.4 1171.93 1136.13 1175.53 1139.95 C 1170.9 1139.96 1166.28 1140.02 1161.65 1140.13 C 1144.03 1140.53 1147.81 1127.37 1148.35 1113.53 z" fill="rgb(22,40,26)" transform="translate(0,0)"></path>
<path d="M 1063.47 1888.66 C 1064.89 1889.71 1067.42 1891.76 1067.71 1893.57 C 1066.75 1895.44 1043.3 1920.44 1039.86 1924.39 C 1039.45 1924.45 1038.81 1924.6 1038.41 1924.48 C 1038.25 1924.41 1038.1 1924.34 1037.94 1924.28 C 1037.63 1924.14 1037.32 1924.01 1037.01 1923.88 C 1036.25 1923.93 1035.94 1920 1035.93 1920.02 C 1042.23 1909.1 1054.92 1898.27 1063.47 1888.66 z" fill="rgb(22,40,26)" transform="translate(0,0)"></path>
<path d="M 172.108 792.829 C 176.775 792.19 181.123 795.321 181.997 799.949 C 182.872 804.577 179.965 809.079 175.386 810.186 C 172.212 810.953 168.873 809.909 166.701 807.469 C 164.53 805.029 163.881 801.591 165.013 798.527 C 166.144 795.463 168.872 793.272 172.108 792.829 z" fill="rgb(22,40,26)" transform="translate(0,0)"></path>
<path d="M 1034.08 1557.3 C 1034.01 1553.16 1033.65 1530.87 1034.58 1526.32 C 1034.74 1525.55 1039.9 1525.58 1041.48 1525.5 C 1040.83 1530.29 1041.4 1554.17 1040.69 1555.75 C 1039.95 1556.29 1035.23 1557.04 1034.08 1557.3 z" fill="rgb(22,40,26)" transform="translate(0,0)"></path>
<path d="M 1190.12 1525.32 C 1198.86 1527.04 1196.82 1525.81 1196.96 1535.87 C 1197.06 1542.77 1196.9 1549.82 1196.71 1556.72 C 1195.7 1556.56 1190.78 1556.18 1190.69 1555.13 C 1189.89 1546.13 1190.1 1534.2 1190.12 1525.32 z" fill="rgb(22,40,26)" transform="translate(0,0)"></path>
<path d="M 201.898 76.8744 C 203.931 74.0451 207.599 72.9154 210.872 74.1108 C 214.144 75.3062 216.22 78.5342 215.951 82.0077 C 215.682 85.4812 213.132 88.3505 209.715 89.027 C 206.297 89.7035 202.847 88.0217 201.275 84.9127 C 199.967 82.3268 200.207 79.2278 201.898 76.8744 z" fill="rgb(22,40,26)" transform="translate(0,0)"></path>
<path d="M 125.168 118.58 C 135.914 118.914 138.814 127 132.076 134.918 C 120.163 135.62 118.786 126.898 125.168 118.58 z" fill="rgb(22,40,26)" transform="translate(0,0)"></path>
<path d="M 176.319 1474.36 C 177.989 1474.52 178.004 1475.09 178.926 1476.43 C 179.352 1485.08 180.481 1493.52 181.718 1502.06 C 181.986 1503.91 172.228 1502.59 171.153 1502.5 C 172.886 1493.34 174.52 1483.29 176.319 1474.36 z" fill="rgb(22,40,26)" transform="translate(0,0)"></path>
<path d="M 96.7565 1550.02 C 104.078 1548.62 118.643 1544.75 126.313 1545.4 C 126.982 1545.45 128.003 1554.3 124.646 1553.49 C 118.496 1553.1 111.367 1551.89 105.327 1551.96 C 103.999 1552.02 91.3449 1552.85 92.3662 1550.17 C 94.4072 1549.5 94.5475 1549.72 96.7565 1550.02 z" fill="rgb(22,40,26)" transform="translate(0,0)"></path>
<path d="M 105.327 1551.96 C 103.999 1552.02 91.3449 1552.85 92.3662 1550.17 C 94.4072 1549.5 94.5475 1549.72 96.7565 1550.02 C 99.6485 1550.66 102.451 1551.25 105.327 1551.96 z" fill="rgb(210,213,215)" transform="translate(0,0)"></path>
<path d="M 239.645 1557.16 C 235.979 1557.22 222.928 1558.68 219.322 1557.37 C 218.513 1557.07 218.666 1550.26 219.375 1550.26 C 225.565 1550.26 235.118 1552.47 241.33 1554.06 C 243.739 1554.62 245.351 1554.83 247.783 1555.16 L 247.025 1557.15 C 244.359 1557.08 242.324 1557.08 239.645 1557.16 z" fill="rgb(22,40,26)" transform="translate(0,0)"></path>
<path d="M 102.839 1520.96 C 110.56 1521 116.576 1523.3 124.023 1524.8 C 132.747 1526.56 131.285 1526.15 128.531 1533.66 C 127.309 1534.7 127.449 1534.5 125.778 1533.39 C 118.519 1528.56 110.46 1525.25 102.839 1520.96 z" fill="rgb(22,40,26)" transform="translate(0,0)"></path>
<path d="M 146.81 1477.69 C 148.939 1479.65 161.219 1501.33 160.795 1504.02 C 151.595 1506.42 153.178 1506.41 151.242 1496.48 C 150.004 1490.16 148.525 1483.9 146.81 1477.69 z" fill="rgb(22,40,26)" transform="translate(0,0)"></path>
<path d="M 93.1566 815.669 C 96.3685 814.286 100.098 815.716 101.561 818.892 C 103.025 822.068 101.689 825.832 98.5504 827.375 C 96.449 828.408 93.9528 828.22 92.0296 826.884 C 90.1064 825.548 89.0588 823.275 89.2929 820.945 C 89.527 818.615 91.0061 816.596 93.1566 815.669 z" fill="rgb(22,40,26)" transform="translate(0,0)"></path>
<path d="M 249.042 814.31 C 259.489 817.669 257.708 822.552 251.692 829.165 C 240.773 828.181 243.208 820.392 249.042 814.31 z" fill="rgb(22,40,26)" transform="translate(0,0)"></path>
<path d="M 108.045 132.045 C 120.919 115.519 126.183 145.802 111.043 140.389 C 110.004 137.453 108.995 135.095 108.045 132.045 z" fill="rgb(22,40,26)" transform="translate(0,0)"></path>
<path d="M 121.786 1496.48 C 125.283 1497.77 141.589 1509.87 143.073 1511.54 C 142.985 1512.47 141.547 1514.82 141.105 1515.75 C 140.127 1516.41 138.535 1517.82 137.425 1517.97 C 136.925 1517.65 123.674 1498.95 121.786 1496.48 z" fill="rgb(22,40,26)" transform="translate(0,0)"></path>
<path d="M 219.969 80.3716 C 230.626 82.5531 228.363 87.9853 224.652 96.2473 C 214.95 91.632 214.396 90.2816 219.969 80.3716 z" fill="rgb(22,40,26)" transform="translate(0,0)"></path>
<path d="M 200.753 1489.31 C 201.491 1487.69 202.282 1486.09 203.126 1484.52 L 204.187 1484.42 L 203.448 1484.02 L 204.178 1483.44 L 204.194 1483.38 C 205.569 1483.48 202.65 1491.78 202.339 1493.06 C 201.837 1494.66 197.56 1508.81 197.477 1508.93 C 195.872 1509.51 190.614 1506.8 189.988 1505.38 C 189.954 1505.74 199.745 1491.09 200.753 1489.31 z" fill="rgb(22,40,26)" transform="translate(0,0)"></path>
<path d="M 237.373 1529.47 C 234.94 1530.6 218.633 1540 218.709 1540.02 C 217.775 1538.97 217.876 1537.08 217.364 1535.9 C 215.453 1531.49 219.217 1531.11 223.507 1530.15 L 235.672 1527.34 L 237.373 1529.47 z" fill="rgb(22,40,26)" transform="translate(0,0)"></path>
<path d="M 224.854 1502.06 C 225.425 1502.58 225.269 1502.38 225.458 1502.7 C 225.45 1503.52 212.507 1520.7 210.14 1520.86 C 209.053 1519.53 206.533 1516.96 206.276 1515.47 C 206.469 1515.02 222.839 1503.53 224.854 1502.06 z" fill="rgb(22,40,26)" transform="translate(0,0)"></path>
<path d="M 105.984 136.086 C 108.436 139.517 108.598 139.847 109.953 143.723 C 108.253 145.389 106.515 147.016 104.742 148.602 C 102.352 147.246 101.95 146.735 99.3445 145.873 C 100.003 140.236 100.017 138.23 105.984 136.086 z" fill="rgb(22,40,26)" transform="translate(0,0)"></path>
<path d="M 233.602 102.637 C 222.786 97.2957 228.92 86.2709 238.297 95.2783 C 236.462 99.6187 236.477 98.9606 233.602 102.637 z" fill="rgb(22,40,26)" transform="translate(0,0)"></path>
<path d="M 139.011 1132.75 C 149.432 1133.65 138.423 1140.05 135.441 1142.64 C 128.807 1136.87 126.879 1139.93 139.011 1132.75 z" fill="rgb(22,40,26)" transform="translate(0,0)"></path>
<path d="M 97.4265 146.637 L 101.875 151.034 C 96.3963 160.012 90.2274 151.531 97.4265 146.637 z" fill="rgb(22,40,26)" transform="translate(0,0)"></path>
<path d="M 235.834 105.092 C 235.676 103.941 236.087 102.784 236.935 101.99 C 237.783 101.196 238.964 100.863 240.102 101.097 C 241.887 101.463 243.113 103.111 242.951 104.926 C 242.788 106.741 241.288 108.144 239.466 108.187 C 237.644 108.229 236.081 106.897 235.834 105.092 z" fill="rgb(22,40,26)" transform="translate(0,0)"></path>
<path d="M 176.319 1474.36 C 177.66 1460.74 179.129 1468.69 178.926 1476.43 C 178.004 1475.09 177.989 1474.52 176.319 1474.36 z" fill="rgb(85,87,87)" transform="translate(0,0)"></path>
<path d="M 738.02 849.074 C 736.297 848.998 732.186 849.176 730.98 847.627 L 731.015 847.511 C 731.882 846.843 736.599 846.8 737.804 846.723 L 738.02 849.074 z" fill="rgb(111,115,116)" transform="translate(0,0)"></path>
<path d="M 235.672 1527.34 C 236.891 1527.09 239.951 1526.19 241.087 1526.54 L 241.215 1526.67 C 241.075 1527.57 238.124 1529.01 237.373 1529.47 L 235.672 1527.34 z" fill="rgb(85,87,87)" transform="translate(0,0)"></path>
<path d="M 855.111 846.825 C 857.263 846.937 860.557 846.666 861.892 847.771 L 862.099 847.334 L 862.334 847.498 L 862.247 847.606 L 862.206 847.57 C 859.93 848.552 857.423 848.804 854.977 849.089 L 855.111 846.825 z" fill="rgb(111,115,116)" transform="translate(0,0)"></path>
<path d="M 794.91 785.977 C 795.085 784.695 795.548 780.385 796.48 779.495 C 797.18 780.306 797.115 783.179 797.173 784.237 L 794.91 785.977 z" fill="rgb(111,115,116)" transform="translate(0,0)"></path>
<path d="M 247.783 1555.16 C 249.107 1555.26 251.281 1555.26 252.229 1556.3 L 252.23 1556.44 C 251.509 1557.07 247.994 1557.08 247.025 1557.15 L 247.783 1555.16 z" fill="rgb(111,115,116)" transform="translate(0,0)"></path>
<metadata><recraft-signature>{"signed_by": "recraft", "signature_b64": "ugb0S4y+4f0WeS2Rd9G+c0hNboeJrvs1mInhj+PCy5q1UHK0OjOQWbBL9QVIO0unkRwfVk/N3ddIxfptO56iAQ==", "signing_algo": "Ed25519", "generation_timestamp": 1784860460, "identifier": "8a05d59b-886a-4c63-8dc4-24e451c9ea70"}</recraft-signature></metadata></svg>