<svg xmlns="http://www.w3.org/2000/svg" height="1152" preserveAspectRatio="none" style="display: block;" version="1.1" viewBox="0 0 1593 2048" width="896">
<path d="M 0 0 L 1135.42 0 L 1140.16 0 L 1593 0 L 1593 2048 L 456.91 2048 L 449.099 2048 L 142.727 2048 L 84.3388 2048 L 0 2048 L 0 822.869 L 0 810.542 L 0 0 z" fill="rgb(255,255,255)" transform="translate(0,0)"></path>
<path d="M 59.667 772.555 C 75.3647 727.867 123.221 727.441 143.854 768.66 C 167.317 767.001 165.102 774.018 174.498 789.382 C 175.308 790.706 187.251 791.223 189.149 792.103 C 213.066 802.762 218.103 832.776 200.034 851.375 C 196.73 854.775 192.418 857.822 187.737 858.81 C 171.965 861.213 154.306 860.366 138.382 860.356 L 55.0943 860.249 C 22.4383 860.075 9.45838 855.968 0 822.869 L 0 810.542 C 7.89475 781.608 29.0217 764.451 59.667 772.555 z" fill="rgb(22,40,26)" transform="translate(0,0)"></path>
<path d="M 102.896 1893.1 C 129.81 1892.94 152.436 1888 151.849 1923.34 C 151.336 1954.22 152.512 1985.83 151.979 2016.77 C 151.853 2029.92 152.948 2038.22 142.727 2048 L 84.3388 2048 C 74.9943 2039.17 75.1606 2035.33 75.1495 2022.7 C 75.1132 1981.65 74.3861 1940.51 75.2424 1899.48 C 75.3137 1896.06 76.6747 1895.1 78.7514 1892.93 L 102.896 1893.1 z" fill="rgb(22,40,26)" transform="translate(0,0)"></path>
<path d="M 109.506 1909.33 C 123.43 1908.6 145.691 1903.67 141.61 1923.25 C 134.661 1924.62 117.481 1924.07 109.366 1923.97 C 109.259 1918.89 109.232 1914.42 109.506 1909.33 z" fill="rgb(255,255,255)" transform="translate(0,0)"></path>
<path d="M 91.3246 1908.68 C 96.4145 1908.14 100.992 1911.8 101.576 1916.89 C 102.16 1921.97 98.5311 1926.57 93.4499 1927.2 C 88.3154 1927.82 83.6523 1924.15 83.0624 1919.01 C 82.4724 1913.87 86.1814 1909.24 91.3246 1908.68 z" fill="rgb(255,255,255)" transform="translate(0,0)"></path>
<path d="M 90.5739 1912.71 C 93.4783 1911.81 96.5641 1913.42 97.4764 1916.32 C 98.3886 1919.22 96.784 1922.32 93.887 1923.24 C 90.9732 1924.17 87.8589 1922.55 86.9413 1919.64 C 86.0238 1916.72 87.6525 1913.61 90.5739 1912.71 z" fill="rgb(22,40,26)" transform="translate(0,0)"></path>
<path d="M 83.2406 1976.49 C 94.6731 1974.24 125.615 1976.05 138.983 1975.76 C 140.104 1975.73 140.965 1977.35 141.594 1978.23 C 127.492 1981.13 101.736 1977.48 86.5551 1978.78 C 85.8158 1978.84 83.7202 1976.88 83.2406 1976.49 z" fill="rgb(255,255,255)" transform="translate(0,0)"></path>
<path d="M 84.6013 1962.44 C 86.5646 1962.35 88.5294 1962.29 90.4946 1962.27 C 97.5166 1962.23 132.339 1961.63 140.935 1962.97 C 141.56 1963.07 141.054 1964.72 140.733 1965.66 C 122.504 1965.61 104.228 1965.55 86.0232 1965.35 C 85.2933 1965.34 84.9621 1963.94 84.8547 1963.47 L 84.6013 1962.44 z" fill="rgb(255,255,255)" transform="translate(0,0)"></path>
<path d="M 85.0494 1949.38 C 93.9924 1948.37 129.669 1948.77 140.747 1949.3 C 141.239 1949.33 141.691 1951.29 141.792 1951.64 C 132.788 1952.77 97.4049 1952.18 86.1208 1951.77 C 85.5502 1951.75 85.1705 1949.85 85.0494 1949.38 z" fill="rgb(255,255,255)" transform="translate(0,0)"></path>
<path d="M 83.7968 1989.48 C 99.9074 1986.83 122.686 1989.98 139.49 1988.78 C 140.14 1988.73 140.847 1989.85 141.158 1990.32 L 142.01 1991.53 C 126.793 1993.09 103.787 1991.14 87.977 1991.95 C 85.7486 1992.06 85.3562 1991.11 83.7968 1989.48 z" fill="rgb(255,255,255)" transform="translate(0,0)"></path>
<path d="M 89.7709 2017.52 C 92.5416 2016.62 95.5291 2018.08 96.522 2020.82 C 97.5149 2023.56 96.1551 2026.59 93.4491 2027.67 C 91.6186 2028.4 89.5348 2028.08 88.0128 2026.83 C 86.4907 2025.57 85.7722 2023.59 86.1383 2021.65 C 86.5043 2019.72 87.8967 2018.13 89.7709 2017.52 z" fill="rgb(255,255,255)" transform="translate(0,0)"></path>
<path d="M 117.561 2016.36 C 126.421 2017.65 126.387 2019.74 124.691 2028.79 C 115.501 2027.3 115.346 2025.34 117.561 2016.36 z" fill="rgb(255,255,255)" transform="translate(0,0)"></path>
<path d="M 133.733 2017.78 C 136.359 2016.91 139.199 2018.27 140.177 2020.86 C 141.156 2023.44 139.927 2026.34 137.389 2027.43 C 135.643 2028.18 133.625 2027.92 132.136 2026.73 C 130.646 2025.55 129.925 2023.65 130.259 2021.78 C 130.593 2019.91 131.927 2018.37 133.733 2017.78 z" fill="rgb(255,255,255)" transform="translate(0,0)"></path>
<path d="M 104.871 2017.8 C 107.502 2016.88 110.388 2018.24 111.341 2020.87 C 112.295 2023.49 110.962 2026.39 108.351 2027.37 C 106.637 2028.02 104.708 2027.69 103.3 2026.52 C 101.893 2025.34 101.224 2023.51 101.549 2021.7 C 101.873 2019.9 103.142 2018.41 104.871 2017.8 z" fill="rgb(255,255,255)" transform="translate(0,0)"></path>
<path d="M 133.309 2003.35 C 134.949 2002.68 136.826 2002.94 138.213 2004.05 C 139.601 2005.15 140.281 2006.92 139.992 2008.67 C 139.702 2010.42 138.488 2011.88 136.819 2012.48 C 134.319 2013.37 131.56 2012.11 130.606 2009.63 C 129.652 2007.15 130.852 2004.36 133.309 2003.35 z" fill="rgb(255,255,255)" transform="translate(0,0)"></path>
<path d="M 91.0108 2003.4 C 93.4941 2003.11 95.7759 2004.8 96.239 2007.25 C 96.7021 2009.71 95.1892 2012.11 92.7726 2012.74 C 91.0466 2013.2 89.2104 2012.65 88.0146 2011.33 C 86.8188 2010 86.4638 2008.12 87.0949 2006.45 C 87.7259 2004.78 89.2371 2003.6 91.0108 2003.4 z" fill="rgb(255,255,255)" transform="translate(0,0)"></path>
<path d="M 118.962 2003.47 C 121.213 2002.43 123.884 2003.31 125.07 2005.49 C 126.256 2007.67 125.551 2010.39 123.457 2011.72 C 121.973 2012.66 120.087 2012.7 118.567 2011.82 C 117.046 2010.93 116.144 2009.28 116.227 2007.52 C 116.31 2005.76 117.365 2004.2 118.962 2003.47 z" fill="rgb(255,255,255)" transform="translate(0,0)"></path>
<path d="M 103.434 2004.6 C 104.64 2003.46 106.374 2003.06 107.957 2003.57 C 109.539 2004.08 110.717 2005.41 111.029 2007.05 C 111.341 2008.68 110.738 2010.35 109.455 2011.41 C 107.565 2012.97 104.78 2012.75 103.157 2010.91 C 101.535 2009.08 101.657 2006.29 103.434 2004.6 z" fill="rgb(255,255,255)" transform="translate(0,0)"></path>
<path d="M 449.099 2048 C 426.784 2041.31 413.462 2025.28 420.94 2001.5 C 423.635 1992.92 429.934 1986.77 437.817 1982.85 C 445.777 1978.81 455.045 1978.2 463.461 1981.18 C 482.509 1987.99 490.949 2009.21 482.777 2027.42 C 478.673 2036.4 471.063 2043.3 461.726 2046.51 C 460.064 2047.09 458.599 2047.51 456.91 2048 L 449.099 2048 z" fill="rgb(22,40,26)" transform="translate(0,0)"></path>
<path d="M 446.626 1987.87 C 455.976 1985.65 465.795 1988.63 472.335 1995.67 C 478.875 2002.71 481.126 2012.72 478.228 2021.88 C 475.331 2031.04 467.733 2037.94 458.335 2039.94 C 444.035 2042.98 429.948 2033.96 426.741 2019.69 C 423.533 2005.43 432.4 1991.24 446.626 1987.87 z" fill="rgb(255,255,255)" transform="translate(0,0)"></path>
<path d="M 471.659 2013.82 L 471.201 2012.87 C 462.954 1995.39 442.826 1991.94 434.801 2012.49 C 434.12 2014.23 434.25 2019.16 433.291 2019.99 C 426.657 2017.16 434.435 1995.75 445.495 1992.89 C 460.467 1989.02 468.841 1993.96 473.119 2008.48 L 473.87 2011.05 C 473.122 2012.02 472.431 2012.88 471.659 2013.82 z" fill="rgb(22,40,26)" transform="translate(0,0)"></path>
<path d="M 473.87 2011.05 C 474.097 2012.93 474.387 2020.53 473.412 2022.08 C 473.393 2021.99 473.374 2021.89 473.355 2021.79 C 473.02 2021.11 472.684 2020.43 472.349 2019.75 L 472.509 2020.53 C 472.446 2020.22 472.382 2019.91 472.319 2019.6 C 471.982 2017.69 471.762 2015.76 471.659 2013.82 C 472.431 2012.88 473.122 2012.02 473.87 2011.05 z" fill="rgb(118,123,117)" transform="translate(0,0)"></path>
<path d="M 1135.42 0 L 1140.16 0 C 1143.55 9.48791 1149.14 18.2211 1152.75 27.5944 C 1153.19 29.1935 1151.36 28.6739 1150.59 28.6423 C 1144.13 28.3773 1144.3 25.0159 1141.93 19.9012 C 1140.41 16.6166 1139.09 13.752 1137.65 10.6845 C 1136.01 14.1732 1131.23 26.9855 1128.6 28.4677 C 1115.29 35.9782 1133.19 4.60236 1135.42 0 z" fill="rgb(22,40,26)" transform="translate(0,0)"></path>
<path d="M 1414.54 1516.48 C 1461.5 1515.11 1510.21 1515.52 1557.04 1517.43 C 1573.21 1518.09 1589.08 1532.67 1589.44 1548.88 C 1590.11 1579.63 1591.54 1612.58 1588.57 1643.14 C 1587.06 1658.7 1570.31 1668.8 1556.16 1670.66 C 1529.49 1671.47 1493.37 1670.53 1469.59 1671 C 1396.9 1672.5 1375.73 1676.94 1381.16 1594.85 C 1383.03 1566.56 1370.5 1521.98 1414.54 1516.48 z" fill="rgb(22,40,26)" transform="translate(0,0)"></path>
<path d="M 1466.77 1545.88 L 1501.31 1545.87 C 1501.67 1554.81 1501.51 1565.01 1501.56 1574.05 L 1527.85 1574.06 L 1527.92 1610.6 L 1501.47 1610.96 L 1501.61 1638.8 L 1466.4 1639.02 L 1466.22 1610.67 C 1458.19 1610.39 1449.16 1610.54 1441.04 1610.51 L 1440.95 1573.96 L 1466.68 1573.93 L 1466.77 1545.88 z" fill="rgb(255,255,255)" transform="translate(0,0)"></path>
<path d="M 1470.97 1550.97 L 1497.02 1551.06 L 1497.07 1579.05 L 1522.98 1579.01 L 1522.91 1606.16 L 1497.21 1606.2 C 1497.22 1615.68 1497.16 1625.16 1497.04 1634.64 L 1470.91 1634.67 L 1470.78 1606.25 L 1445.18 1606.2 L 1445.12 1578.93 L 1471.05 1578.81 L 1470.97 1550.97 z" fill="rgb(22,40,26)" transform="translate(0,0)"></path>
<path d="M 1128.12 34.2646 C 1180.14 28.5423 1226.93 66.1517 1232.52 118.191 C 1238.11 170.229 1200.38 216.918 1148.33 222.376 C 1096.46 227.815 1049.98 190.251 1044.41 138.399 C 1038.84 86.5462 1076.28 39.9664 1128.12 34.2646 z" fill="rgb(22,40,26)" transform="translate(0,0)"></path>
<path d="M 1129.42 63.5889 C 1165.04 58.5616 1198.03 83.2628 1203.24 118.861 C 1208.45 154.458 1183.91 187.572 1148.34 192.957 C 1112.52 198.38 1079.11 173.631 1073.87 137.78 C 1068.63 101.929 1093.54 68.6519 1129.42 63.5889 z" fill="rgb(255,255,255)" transform="translate(0,0)"></path>
<path d="M 1176.04 85.074 L 1176.53 85.5995 C 1176.31 90.8373 1156.52 134.838 1152.98 142.626 C 1135.01 151.657 1116.75 160.099 1098.23 167.938 L 1097.26 166.5 C 1098.48 162.44 1106.88 147.829 1109.58 142.805 C 1115.05 132.54 1120.29 122.153 1125.3 111.652 C 1136.67 104.909 1164.13 90.6505 1176.04 85.074 z" fill="rgb(22,40,26)" transform="translate(0,0)"></path>
<path d="M 1134.74 124.537 C 1137.99 126.525 1145.03 136.118 1147.5 139.365 C 1137 144.843 1126.53 149.41 1115.61 155.255 C 1111.99 157.033 1108.75 158.39 1105.11 160.047 L 1134.74 124.537 z" fill="rgb(255,255,255)" transform="translate(0,0)"></path>
<path d="M 1134.6 204.942 C 1143.01 205.182 1147.25 206.253 1141.57 215.095 C 1133.06 214.795 1128.93 213.565 1134.6 204.942 z" fill="rgb(255,255,255)" transform="translate(0,0)"></path>
<path d="M 1213.7 122.654 C 1222.69 122.885 1223.29 127.258 1219.09 135.251 C 1217.7 134.873 1215.18 134.355 1213.99 133.716 C 1212.78 133.08 1211.89 131.972 1211.52 130.655 C 1210.59 127.368 1212.08 125.398 1213.7 122.654 z" fill="rgb(255,255,255)" transform="translate(0,0)"></path>
<path d="M 1136.73 40.434 C 1142.03 42.3431 1147.28 46.2548 1141.77 51.4589 C 1132.84 50.5359 1128.74 48.8018 1136.73 40.434 z" fill="rgb(255,255,255)" transform="translate(0,0)"></path>
<path d="M 1059.14 121.426 L 1061.06 122.4 C 1067.53 125.705 1066.67 128.895 1063.22 134.164 C 1054.05 132.288 1054.85 128.949 1059.14 121.426 z" fill="rgb(255,255,255)" transform="translate(0,0)"></path>
<path d="M 448.096 1460.81 C 477.782 1459.43 458.478 1507.93 467.308 1517.4 L 469.756 1517.46 C 476.516 1508.99 465.261 1472.75 484.699 1470.98 C 488.913 1470.6 493.088 1472.05 496.148 1474.98 C 500.85 1479.55 499.843 1485.55 499.569 1491.52 C 498.55 1513.75 496.732 1535.88 496.908 1558.15 C 501.359 1550.98 525.992 1502.45 541.454 1531.28 C 545.409 1538.66 537.053 1555.21 533.539 1563.31 C 523.336 1586.84 506.851 1607.16 494.11 1629.42 L 494.087 1642.22 L 452.5 1642.13 L 399.495 1642.15 C 391.35 1603.49 385.022 1564.5 375.835 1526.02 C 373.664 1516.93 367.177 1494.56 382.136 1492.15 C 403.437 1488.72 397.877 1524.57 406.866 1531.03 C 417.895 1526.06 387.951 1472.46 415.007 1469.87 C 438.936 1467.59 427.897 1511.66 436.97 1519.05 L 439.148 1517.87 C 445.332 1508.63 432.836 1478.69 440.524 1467.01 C 442.368 1464.21 445.372 1462.53 448.096 1460.81 z" fill="rgb(22,40,26)" transform="translate(0,0)"></path>
<path d="M 1584.74 1.95742 C 1585.77 2.15872 1585.14 1.94603 1586.42 3.01167 C 1585.29 10.2797 1582.67 15.7449 1580.96 22.5741 C 1577.43 36.605 1573.77 50.5864 1570.13 64.5879 L 1535.57 199.716 C 1524.03 179.32 1512.84 159.98 1502.48 138.892 C 1496.11 145.176 1485.96 157.967 1479.77 165.144 L 1433.78 218.048 C 1427.9 212.124 1421.03 206.046 1414.85 200.351 L 1399.35 186.137 C 1421.1 161.416 1442.39 136.289 1463.2 110.769 C 1440.69 101.481 1418.65 90.9543 1396.19 81.3018 C 1411.99 73.9264 1431.67 66.1537 1447.91 59.2202 L 1584.74 1.95742 z" fill="rgb(22,40,26)" transform="translate(0,0)"></path>
<path d="M 103.547 379.361 C 106.396 379.499 108.331 379.28 110.737 380.757 C 111.754 387.667 111.169 405.6 111.087 413.451 C 147.895 416.346 170.679 444.091 173.613 479.755 L 178.593 479.612 C 186.146 479.41 198.592 478.233 204.175 483.525 C 199.012 489.394 180.971 487.914 173.445 487.775 C 171.707 525.128 147.244 546.944 111.969 553.129 C 111.957 563.509 112.267 576.887 111.441 586.966 C 108.822 586.71 107.616 586.832 105.414 585.366 C 102.57 579.59 103.866 561.423 103.838 553.636 C 66.1504 546.271 46.016 525.847 40.7428 487.556 C 34.933 487.679 13.3581 489.338 11.0431 483.351 C 15.8604 478.371 34.4929 479.615 41.351 479.688 C 43.789 440.697 66.6233 420.3 103.348 412.594 C 103.825 402.238 103.535 389.866 103.547 379.361 z" fill="rgb(22,40,26)" transform="translate(0,0)"></path>
<path d="M 80.7962 481.461 C 83.0138 473.197 84.0332 466.372 92.0034 461.17 C 95.4414 458.926 100.885 456.117 105.109 456.837 C 105.661 461.611 105.89 465.303 106.122 470.087 C 98.0128 473.222 93.1707 479.68 96.5933 488.629 C 98.809 494.423 101.86 494.002 106.371 496.704 C 106.127 501.325 105.928 505.948 105.773 510.574 C 103.523 509.996 101.266 509.447 99.003 508.927 C 87.963 506.33 83.7924 496.674 80.969 486.909 C 87.2179 484.823 89.4009 482.713 80.7962 481.461 z" fill="rgb(255,255,255)" transform="translate(0,0)"></path>
<path d="M 110.099 455.896 C 123.769 459.068 131.231 466.873 133.562 480.633 C 132.052 480.828 129.525 480.701 128.53 482.111 C 128.146 482.661 128.051 483.362 128.275 483.994 C 128.982 486.026 132.034 486.007 133.801 486.331 C 131.443 496.557 122.849 509.835 112.349 510.078 C 109.469 510.145 105.259 496.76 114.634 493.39 C 121.906 490.776 122.35 471.898 108.423 470.899 C 109.201 465.762 109.432 461.037 110.099 455.896 z" fill="rgb(255,255,255)" transform="translate(0,0)"></path>
<path d="M 31.5956 1153.19 C 41.1697 1154.58 51.635 1153.39 61.3354 1153.59 C 70.5019 1153.77 86.0571 1151.91 86.2592 1165.16 L 87.9335 1166.87 C 92.6675 1166.77 93.2747 1167.48 97.0465 1165.26 L 97.2669 1164.56 C 98.0459 1162.17 98.1288 1161.74 99.5581 1159.55 C 103.725 1157.7 107.25 1157.1 111.688 1158.35 C 114.54 1160.66 114.806 1161.58 116.686 1164.86 C 119.324 1166.61 123.625 1167.9 126.539 1166.3 C 128.305 1162.94 131.832 1155.63 135.582 1155.05 C 149.645 1152.87 167.944 1154.3 182.444 1153.88 C 186.77 1175.32 190.982 1196.78 195.078 1218.27 C 196.945 1227.99 199.732 1239.79 200.947 1249.29 C 190.666 1239.15 183.009 1236.09 168.699 1235.43 C 153.82 1234.74 143.229 1245.81 136.19 1247 C 135.557 1244.32 135.042 1242.32 134.206 1239.7 C 130.828 1238.94 121.662 1236.59 118.922 1237.37 C 109.195 1251.51 89.9133 1231.7 79.7331 1241.46 C 79.2848 1245.4 79.7745 1248.71 77.8806 1251.31 C 56.7062 1230.4 34.219 1230.59 11.4999 1249.03 C 15.3364 1223.5 25.9345 1179.35 31.5956 1153.19 z" fill="rgb(22,40,26)" transform="translate(0,0)"></path>
<path d="M 91.2516 1187.79 C 92.5625 1187.89 97.6349 1187.92 97.9155 1188.38 C 99.5608 1191.07 99.4076 1210.08 97.7739 1212.48 C 97.1756 1212.46 89.3215 1212.54 89.3877 1211.57 C 89.9132 1203.86 90.0627 1195.46 91.2516 1187.79 z" fill="rgb(255,255,255)" transform="translate(0,0)"></path>
<path d="M 94.1856 1190.71 C 97.4171 1194.26 96.2978 1206 94.8289 1210.32 C 91.8974 1206.44 92.9334 1195.17 94.1856 1190.71 z" fill="rgb(22,40,26)" transform="translate(0,0)"></path>
<path d="M 114.728 1188.12 C 116.274 1188.33 121.348 1188.64 121.79 1189.41 C 123.597 1192.56 123.989 1207.96 124.535 1212.11 C 122.62 1212.13 115.508 1212.59 114.32 1211.53 C 113.878 1206.64 114.686 1193.78 114.728 1188.12 z" fill="rgb(255,255,255)" transform="translate(0,0)"></path>
<path d="M 118.079 1192.62 C 121.159 1195.67 120.281 1206.02 119.589 1210.12 C 115.829 1205.53 117.463 1198.42 118.079 1192.62 z" fill="rgb(22,40,26)" transform="translate(0,0)"></path>
<path d="M 791.339 1492 C 813.861 1491.17 804.116 1498.58 821.041 1499.9 C 874.798 1504.11 882.343 1546.17 882.841 1591.58 C 857.573 1587.26 831.725 1580.47 806.232 1577.18 C 788.84 1575.36 734.93 1587.16 715.975 1591.72 C 715.388 1555.24 723.882 1510.18 765.499 1501.89 C 771.491 1500.7 782.651 1500.62 787.731 1497.97 C 788.988 1494.87 789.216 1494.65 791.339 1492 z" fill="rgb(22,40,26)" transform="translate(0,0)"></path>
<path d="M 447.995 19.8015 C 454.165 19.9839 540.215 70.316 551.668 77.4452 C 519.542 97.8473 484.454 115.915 451.466 136.933 C 447.602 136.485 358.453 83.69 347.919 77.4481 C 381.088 57.9054 414.448 38.689 447.995 19.8015 z" fill="rgb(22,40,26)" transform="translate(0,0)"></path>
<path d="M 1134.38 1955.22 L 1143.4 1944.77 C 1147.67 1952.65 1154.15 1961.75 1159.37 1969.21 C 1164.98 1963.15 1170.69 1957.17 1176.49 1951.28 C 1193.94 1971.73 1221.91 2007.46 1238.25 2029.75 L 1033.15 2029.39 C 1042.14 2014.35 1052.38 1998.83 1061.83 1984 C 1067.97 1974.35 1078.32 1957 1085.34 1948.76 C 1086.97 1952.99 1086.48 1953.54 1090.87 1954.66 C 1095.29 1953.77 1101.05 1948.44 1104.99 1945.42 C 1107.31 1948.24 1109.68 1951.03 1112.07 1953.79 L 1120.34 1945.34 C 1125.18 1948.53 1129.69 1951.82 1134.38 1955.22 z" fill="rgb(22,40,26)" transform="translate(0,0)"></path>
<path d="M 1074.74 1549.43 C 1099.31 1547.94 1118 1555.08 1141.52 1557.73 C 1147.92 1558.45 1165.64 1553.19 1173.43 1551.67 C 1197.99 1546.89 1216.98 1549.44 1241.01 1553.74 C 1241.43 1559.37 1241.58 1565.42 1241.82 1571.09 C 1233.41 1582.75 1237.51 1599.8 1225.14 1608.73 C 1216.11 1615.25 1188.74 1614.55 1177.85 1612.49 C 1160.34 1604.67 1160.42 1586.76 1149.26 1574.02 C 1147.37 1571.87 1145.4 1571.04 1142.58 1570.9 C 1130.54 1570.28 1125.7 1597.71 1114.56 1606.83 C 1104.3 1615.22 1090.35 1614.24 1078 1613.14 C 1037.12 1609.5 1055.21 1587.62 1041.85 1572.11 C 1041.62 1571.85 1041.38 1571.59 1041.15 1571.33 C 1041.08 1565.84 1041.67 1559.77 1042.09 1554.24 C 1053.17 1551.18 1063.4 1550.27 1074.74 1549.43 z" fill="rgb(22,40,26)" transform="translate(0,0)"></path>
<path d="M 70.9367 32.0613 C 93.159 42.7487 115.268 53.6705 137.259 64.8251 C 136.424 111.494 137.179 160.531 137.433 207.348 C 123.16 199.034 86.3792 181.617 71.0712 174.586 L 70.9367 32.0613 z" fill="rgb(22,40,26)" transform="translate(0,0)"></path>
<path d="M 448.57 748.954 C 451.337 749.074 453.351 748.8 455.525 750.39 C 456.56 757.634 456.033 776.72 455.995 784.886 C 461.044 779.283 473.153 763.599 478.983 762.422 C 481.352 763.493 481.314 764.011 482.576 766.304 C 481.193 772.146 461.286 793.741 456.097 799.712 C 456.038 812.796 456.228 826.027 456.315 839.123 C 467.547 831.794 478.869 824.604 490.278 817.552 C 492.841 809.394 499.743 785.049 504.121 779.531 C 507.822 780.333 506.194 779.549 509.131 782.096 C 511.306 788.685 504.97 802.095 502.37 809.986 C 508.715 806.086 524.951 795.621 531.027 793.478 C 533.334 794.573 534.909 797.936 536.336 800.265 L 506.026 818.598 C 513.832 820.643 529.962 821.935 534.087 828.532 C 534.158 832.274 534.687 830.718 533.133 833.573 C 525.545 834.902 504.801 828.645 494.106 827.3 C 483.189 832.953 472.439 840.104 462.047 846.762 C 472.86 853.856 483.087 859.961 494.251 866.516 C 505.124 865.454 524.233 860.235 532.316 860.138 C 534.019 862.087 534.158 864.032 534.743 866.593 C 530.738 870.686 513.009 872.94 506.656 874.085 C 515.534 880.286 526.797 886.269 536.357 892.561 L 531.734 900.682 L 502.512 882.535 C 505.125 891.525 512.406 903.425 510.903 911.409 C 508.34 914.045 509.573 913.266 505.492 913.906 C 501.832 911.023 493.245 883.637 491.111 877.367 C 480.289 869.908 467.673 862.243 456.492 855.122 C 455.94 867.954 456.047 881.745 455.93 894.66 C 464.467 902.138 476.844 916.961 484.707 925.949 C 482.298 928.356 481.646 929.554 478.488 930.017 C 470.908 927.232 462.17 914.181 456.187 907.09 C 456.152 918.508 456.251 930.181 455.727 941.563 C 452.698 941.437 449.271 941.698 447.341 939.898 C 446.249 931.79 446.823 915.137 446.912 906.287 C 441.699 912.853 430.262 928.736 422.353 930.272 L 421.281 929.08 C 421.802 919.246 439.341 901.249 446.645 894.542 L 446.869 855.518 L 413.462 875.764 C 410.871 882.564 401.912 911.517 397.735 913.91 C 394.173 913.594 395.488 914.351 393.34 912.236 C 391.686 904.939 397.877 890.283 400.478 882.663 C 390.987 887.906 381.106 895.809 370.792 898.93 L 368.505 897.446 C 365.451 888.996 389.245 878.4 395.931 874.586 C 387.265 872.3 374.67 871.45 368.674 866.886 C 367.597 863.542 368.475 863.009 369.634 859.162 C 380.862 860.955 395.62 865.002 407.727 867.331 C 419.77 859.758 429.245 854.026 441.877 847.488 C 430.48 840.471 419.003 833.584 407.449 826.828 C 397.053 829.44 383.761 833.349 373.126 834.271 C 370.856 834.467 371.157 834.047 369.554 832.41 C 368.693 828.528 368.426 830.276 370.013 826.942 C 375.913 822.034 389.553 821.014 397.558 819.796 C 389.17 815.473 370.55 805.654 366.878 797.267 L 368.15 795.349 C 377.6 795.331 391.325 805.478 399.516 810.74 C 398.303 806.781 391.95 783.471 393.061 780.731 C 396.571 779.687 396.722 779.673 400.342 779.927 C 402.436 783.504 410.089 810.802 413.232 819.136 C 425.394 824.925 435.475 831.231 446.94 838.263 L 446.965 798.682 C 437.044 788.679 428.833 776.987 417.827 766.372 L 425.07 760.845 L 447.03 782.806 C 446.971 776.003 445.883 753.162 448.57 748.954 z" fill="rgb(22,40,26)" transform="translate(0,0)"></path>
<path d="M 1554.7 1250.16 C 1558.48 1266.35 1560.72 1282.55 1551.42 1297.65 C 1545.25 1307.72 1535.34 1314.95 1523.87 1317.75 C 1481.59 1327.65 1460.38 1274.88 1443.08 1245.59 C 1420.62 1207.57 1390.4 1168.82 1418.72 1125.6 C 1430.46 1107.95 1448.68 1095.65 1469.44 1091.35 C 1486.36 1088.01 1506.53 1092.29 1517.1 1106.96 L 1516.9 1108.52 C 1501.55 1106.07 1500.46 1120.76 1492.91 1118.09 C 1467.12 1108.97 1436.38 1130.05 1431.82 1157.37 C 1430.75 1163.73 1431.26 1170.26 1433.3 1176.38 C 1443.98 1208.4 1475.94 1248.46 1491.77 1279.53 C 1497.63 1291.03 1516.48 1298.31 1526.66 1288.35 C 1538.02 1279.03 1535.74 1267.67 1532.33 1255.28 C 1535.14 1254.3 1537.72 1255.63 1541.09 1256.52 C 1545.93 1254.38 1549.56 1252.06 1554.7 1250.16 z" fill="rgb(22,40,26)" transform="translate(0,0)"></path>
<path d="M 201.689 33.0661 C 202.893 34.2563 202.416 160.666 202.49 174.707 L 142.812 206.164 L 141.331 205.371 C 140.519 200.589 140.954 169.275 140.956 162.925 L 141.018 64.8978 C 153.425 56.7453 187.49 39.8728 201.689 33.0661 z" fill="rgb(22,40,26)" transform="translate(0,0)"></path>
<path d="M 64.902 32.8695 L 66.1642 33.128 C 67.3603 35.4707 66.8608 163.338 66.8779 174.344 L 8.12591 205.101 L 7.29769 204.314 C 5.78169 198.831 6.2896 166.25 6.29545 158.616 L 6.17572 64.385 C 22.0843 54.7195 47.8228 42.0802 64.902 32.8695 z" fill="rgb(22,40,26)" transform="translate(0,0)"></path>
<path d="M 1137.14 752.182 C 1167.72 751.445 1160.61 786.769 1160.42 808.094 L 1160.17 874.133 C 1186.45 894.783 1177.97 932.169 1144.95 940.062 C 1103.4 940.762 1092.22 894.015 1120.16 874.225 C 1120.09 857.2 1117.36 773.972 1122.27 763.525 C 1125.26 757.181 1131.02 754.613 1137.14 752.182 z" fill="rgb(22,40,26)" transform="translate(0,0)"></path>
<path d="M 1135.98 759.98 C 1136.73 759.938 1137.47 759.909 1138.22 759.891 C 1146.82 759.717 1152.25 763.126 1152.85 772.058 C 1153.7 784.849 1153.28 797.946 1153.23 810.767 L 1153.19 879.032 C 1154.23 879.573 1155.26 880.149 1156.26 880.762 C 1177.13 893.682 1170.36 927.251 1143.46 932.746 C 1110.28 933.597 1101.84 892 1127.74 879.818 L 1127.52 812.38 C 1127.38 798.909 1126.41 781.406 1128.14 768.057 C 1128.64 764.263 1132.8 762.014 1135.98 759.98 z" fill="rgb(255,255,255)" transform="translate(0,0)"></path>
<path d="M 1135.59 772.404 L 1146.88 772.515 C 1147.2 809.35 1147.3 846.186 1147.19 883.022 C 1166.94 893.258 1165.65 917.513 1144.59 925.153 C 1134.8 925.179 1127.42 923.63 1122.35 913.985 C 1119.56 908.621 1119.13 902.342 1121.14 896.644 C 1123.75 889.42 1127.6 886.544 1133.99 883.489 C 1133.95 869.593 1132.01 777.176 1135.59 772.404 z" fill="rgb(22,40,26)" transform="translate(0,0)"></path>
<path d="M 1477.27 440.081 C 1505.59 436.467 1531.49 456.504 1535.1 484.831 C 1538.71 513.159 1518.67 539.048 1490.34 542.653 C 1462.02 546.257 1436.13 526.222 1432.53 497.9 C 1428.92 469.579 1448.95 443.694 1477.27 440.081 z" fill="rgb(22,40,26)" transform="translate(0,0)"></path>
<path d="M 385.902 1095.21 C 431.614 1094.8 477.328 1094.64 523.042 1094.72 C 516.804 1104.54 505.581 1117.51 501.092 1126.71 C 493.801 1141.65 486.557 1158.33 479.859 1173.6 C 478.012 1177.81 474.026 1191.18 472.253 1193.03 C 468.64 1191.87 441.076 1192.64 434.903 1192.6 C 433.375 1183.79 428.729 1174.29 425.519 1166.02 C 414.162 1136.79 405.557 1119.99 385.902 1095.21 z" fill="rgb(22,40,26)" transform="translate(0,0)"></path>
<path d="M 396.239 1100.05 C 434.596 1100.73 474.336 1100.25 512.751 1100.12 C 510.169 1103.5 507.551 1107.24 505.029 1110.71 L 499.792 1118.94 C 469.335 1119.06 438.877 1118.96 408.421 1118.62 C 405.216 1112.95 399.967 1105.6 396.239 1100.05 z" fill="rgb(255,255,255)" transform="translate(0,0)"></path>
<path d="M 790.777 1580.35 C 811.704 1576.53 858.381 1592.78 882.66 1594.08 C 912.973 1679.86 846.09 1619.67 812.256 1615.17 L 811.057 1615.01 C 772.298 1609.41 732.641 1644.04 716.581 1639.16 C 713.862 1638.34 711.904 1636.69 710.584 1634.18 C 704.874 1623.31 712.823 1605.21 716.394 1594.58 C 741.335 1589.91 765.39 1584.44 790.777 1580.35 z" fill="rgb(22,40,26)" transform="translate(0,0)"></path>
<path d="M 1447.02 851.229 C 1461.38 849.966 1471.13 853.41 1480.56 864.76 C 1496.03 883.375 1506.65 879.469 1526.28 872.383 C 1539.67 874.981 1578.76 897.512 1590.08 906.099 L 1523.5 906.259 C 1473.93 906.111 1422.83 907.025 1373.42 906.033 C 1390.49 889.654 1425.27 856.381 1447.02 851.229 z" fill="rgb(22,40,26)" transform="translate(0,0)"></path>
<path d="M 520.737 140.15 C 531.361 146.904 540.725 152.299 551.755 158.407 L 521.98 175.881 C 511.664 181.498 499.616 189.05 489.285 194.969 C 479.554 200.543 458.651 211.186 450.993 218.125 C 438.786 212.104 421.161 201.385 409.209 194.501 L 347.333 158.917 C 358.498 153.111 366.871 147.771 377.426 140.919 C 380.769 140.987 441.883 176.91 450.56 181.912 L 520.737 140.15 z" fill="rgb(22,40,26)" transform="translate(0,0)"></path>
<path d="M 377.955 100.119 C 381.967 102.038 385.796 104.302 389.62 106.568 C 409.653 118.435 430.293 129.311 450.131 141.503 C 474.057 128.603 496.048 113.305 521.301 100.767 C 531.494 105.924 542.103 112.297 552.069 118.05 C 541.777 123.872 531.607 129.909 521.567 136.156 C 501.134 146.085 470.664 165.175 450.414 176.961 C 418.988 160.89 378.737 135.66 347.876 117.45 C 357.252 112.868 368.931 105.534 377.955 100.119 z" fill="rgb(22,40,26)" transform="translate(0,0)"></path>
<path d="M 1525.37 1848.19 C 1534.66 1853.69 1553.31 1868.33 1562.67 1875.31 C 1556.39 1880.02 1531.29 1900.13 1525.6 1901.24 L 1524.62 1897.11 C 1522.5 1895.59 1457.23 1896.36 1450.25 1896.35 L 1403.7 1896.16 C 1403.48 1882.53 1403.86 1867.84 1403.96 1854.13 C 1436.91 1853.92 1488.51 1854.35 1522.81 1853.19 C 1523.87 1853.16 1524.77 1849.73 1525.37 1848.19 z" fill="rgb(22,40,26)" transform="translate(0,0)"></path>
<path d="M 1526.21 1923.81 C 1530.16 1925.21 1556.48 1943.89 1562.98 1948.06 C 1557.7 1952.14 1528.33 1973.97 1524.35 1973.39 L 1523.69 1970.01 C 1520.77 1968.26 1453.81 1969.03 1444.5 1969.03 L 1403.09 1969.01 C 1403.74 1955.23 1403.63 1940.73 1403.74 1926.89 C 1442.79 1925.59 1482.35 1927.04 1521.41 1926.63 C 1524.54 1926.59 1524.43 1926.06 1526.21 1923.81 z" fill="rgb(22,40,26)" transform="translate(0,0)"></path>
<path d="M 161.097 1240.25 C 185.178 1235.95 208.172 1252.03 212.401 1276.12 C 216.629 1300.21 200.484 1323.16 176.377 1327.32 C 152.371 1331.46 129.541 1315.4 125.33 1291.4 C 121.119 1267.41 137.115 1244.53 161.097 1240.25 z" fill="rgb(22,40,26)" transform="translate(0,0)"></path>
<path d="M 163.067 1251.26 C 181.039 1248.07 198.184 1260.08 201.321 1278.06 C 204.457 1296.04 192.391 1313.15 174.4 1316.23 C 156.488 1319.3 139.469 1307.3 136.347 1289.4 C 133.224 1271.49 145.174 1254.44 163.067 1251.26 z" fill="rgb(255,255,255)" transform="translate(0,0)"></path>
<path d="M 761.696 388.009 L 869.099 388.023 C 861.006 398.996 852.172 410.202 843.865 421.078 L 858.759 439.486 L 869.283 453.07 L 761.498 452.747 C 762.081 431.543 761.744 409.305 761.696 388.009 z" fill="rgb(22,40,26)" transform="translate(0,0)"></path>
<path d="M 13.5935 1251.39 C 32.1134 1235.06 58.7502 1234.4 75.9784 1252.94 C 89.1091 1270.28 92.8412 1292.76 79.0035 1311 C 71.7227 1320.41 61.0001 1326.54 49.1969 1328.05 C 38.0095 1329.52 26.7029 1326.39 17.8608 1319.38 C -4.11282 1301.91 -3.86406 1272.07 13.5935 1251.39 z" fill="rgb(22,40,26)" transform="translate(0,0)"></path>
<path d="M 40.6094 1250.93 C 58.8982 1248.9 75.3408 1262.16 77.2382 1280.46 C 79.1356 1298.76 65.7616 1315.11 47.4451 1316.87 C 29.3165 1318.62 13.1748 1305.41 11.2968 1287.3 C 9.41888 1269.18 22.5081 1252.94 40.6094 1250.93 z" fill="rgb(255,255,255)" transform="translate(0,0)"></path>
<path d="M 799.043 102.478 C 810.482 99.9503 816.454 98.8801 825.014 90.6867 C 828.041 100.405 831.222 110.074 834.555 119.691 L 835.667 123.433 C 846.304 155.229 857.885 187.435 868.903 219.171 L 799.316 219.046 L 799.288 217.741 C 799.174 210.674 798.245 151.247 800.027 149.875 C 802.015 148.346 804.162 149.402 806.491 147.008 C 806.789 143.234 807.321 144.778 805.448 142.053 C 803.169 141.848 801.354 141.973 799.548 140.667 C 798.373 133.324 798.979 110.581 799.043 102.478 z" fill="rgb(22,40,26)" transform="translate(0,0)"></path>
<path d="M 833.06 126.045 C 832.421 129.84 829.119 132.607 825.271 132.571 C 821.424 132.535 818.173 129.707 817.606 125.901 C 817.039 122.095 819.323 118.442 822.993 117.286 C 826.663 116.129 830.629 117.813 832.346 121.257 C 833.084 122.737 833.334 124.414 833.06 126.045 z" fill="rgb(255,255,255)" transform="translate(0,0)"></path>
<path d="M 834.555 119.691 L 835.667 123.433 L 833.06 126.045 C 833.334 124.414 833.084 122.737 832.346 121.257 L 834.555 119.691 z" fill="rgb(68,79,69)" transform="translate(0,0)"></path>
<path d="M 830.315 170.605 C 832.993 169.659 835.943 170.977 837.027 173.602 C 838.112 176.227 836.951 179.242 834.386 180.462 C 832.603 181.311 830.497 181.106 828.911 179.93 C 827.325 178.754 826.517 176.798 826.811 174.845 C 827.105 172.893 828.453 171.262 830.315 170.605 z" fill="rgb(255,255,255)" transform="translate(0,0)"></path>
<path d="M 388.513 2016.62 C 388.047 2003.06 385.739 1976.4 394.08 1965.29 C 396.945 1960.21 408.797 1961.51 411.835 1959.54 C 432.215 1946.31 472.311 1942.74 491.527 1959.96 C 506.084 1960.72 510.595 1961.11 514.653 1976.37 C 515.214 1984.91 514.622 2010.4 515.652 2015.21 C 510.933 2026.92 497.612 2027.88 486.515 2029.68 C 488.761 2020.92 490.276 2012.91 488.364 2003.87 C 486.348 1994.37 480.522 1986.11 472.248 1981.03 C 464.017 1975.82 454.033 1974.15 444.556 1976.4 C 434.609 1978.72 426.027 1984.97 420.77 1993.73 C 413.869 2005.43 415.242 2016.53 418.502 2028.92 C 415.789 2028.78 413.08 2028.55 410.381 2028.23 C 398.901 2026.8 395.435 2025.47 388.513 2016.62 z" fill="rgb(22,40,26)" transform="translate(0,0)"></path>
<path d="M 799.128 1829.04 C 809.482 1836.04 816.493 1843.25 820.988 1855.04 C 831.03 1881.38 812.831 1898.38 810.16 1917.68 C 807.534 1936.67 812.408 1974.06 807.909 1993.86 C 805.725 2003.47 792.488 2012.62 786.471 2025.6 L 785.897 2026.85 C 785.062 2029.77 784.475 2031.37 783.292 2034.16 L 782.231 2034.02 C 777.715 2017.21 784.716 2014.3 787.407 2000.02 C 788.862 1987.81 788.36 1975.31 788.405 1963.01 C 787.364 1950.95 789.729 1932.54 787.805 1920.86 C 784.278 1899.45 768.553 1890.03 774.545 1864.92 C 778.815 1847.03 783.992 1839.59 799.128 1829.04 z" fill="rgb(22,40,26)" transform="translate(0,0)"></path>
<path d="M 791.431 1849.09 C 790.745 1852.3 784.448 1877.85 794.769 1879.64 C 795.331 1879.73 799.388 1871.53 800.339 1869.81 C 807.137 1879.94 806.576 1883.86 811.4 1870.92 C 811.714 1869.89 812.021 1867.74 813.345 1867.51 C 814.367 1868.16 814.359 1870.73 814.511 1871.74 C 814.026 1877.84 816.072 1880.78 813.307 1886.34 C 808.194 1896.64 806.713 1903.22 807.69 1914.5 C 802.406 1914.46 797.122 1914.36 791.841 1914.18 C 782.092 1885.05 771.637 1879.09 791.431 1849.09 z" fill="rgb(255,255,255)" transform="translate(0,0)"></path>
<path d="M 766.151 92.0179 C 775.427 98.2795 780.015 99.6439 790.904 102.695 C 790.921 129.573 791.597 157.257 791.778 184.137 C 792.067 226.879 767.228 219.833 735.131 219.296 L 722.95 218.972 C 726.873 204.071 735.369 181.985 741.033 167.106 C 742.582 161.873 751.633 166.105 755.408 163.916 C 768.763 156.171 762.751 143.862 751.539 138.65 L 750.473 138.16 C 750.984 131.965 763.347 98.806 766.151 92.0179 z" fill="rgb(22,40,26)" transform="translate(0,0)"></path>
<path d="M 779.041 136.55 C 780.46 135.617 782.279 135.546 783.765 136.367 C 785.252 137.188 786.161 138.765 786.127 140.462 C 786.093 142.16 785.121 143.699 783.603 144.46 C 781.438 145.544 778.803 144.753 777.593 142.655 C 776.383 140.558 777.018 137.881 779.041 136.55 z" fill="rgb(255,255,255)" transform="translate(0,0)"></path>
<path d="M 770.765 164.523 C 771.984 163.768 773.519 163.743 774.762 164.458 C 776.006 165.173 776.756 166.512 776.717 167.946 C 776.677 169.38 775.855 170.676 774.574 171.322 C 772.71 172.262 770.436 171.567 769.415 169.746 C 768.394 167.924 768.989 165.622 770.765 164.523 z" fill="rgb(255,255,255)" transform="translate(0,0)"></path>
<path d="M 871.447 1095.84 L 872.786 1092.42 C 883.054 1094.32 883.837 1119.6 881.878 1128.09 C 873.592 1164.03 843.819 1190.69 827.074 1221.11 C 829.523 1224.68 829.566 1223.61 829.628 1227.26 C 827.658 1229.91 827.094 1230.63 824.706 1232.88 C 815.224 1224.3 809.243 1216 798.306 1228.14 L 797.856 1228.64 C 792.466 1223.61 788.183 1218.89 782.48 1213.99 C 786.946 1206.72 814.167 1166.84 820.044 1163.8 C 842.555 1150.8 864.282 1121.09 871.447 1095.84 z" fill="rgb(22,40,26)" transform="translate(0,0)"></path>
<path d="M 1112.43 417.768 C 1128.07 447.714 1139.36 488.595 1155.82 520.034 L 1113.5 520.032 L 1068.84 519.919 C 1083.72 486.056 1097.37 451.607 1112.43 417.768 z" fill="rgb(22,40,26)" transform="translate(0,0)"></path>
<path d="M 509.362 389.119 C 530.237 387.285 551.751 401.365 545.619 424.421 C 539.838 446.161 524.832 467.9 516.778 489.805 C 507.204 489.927 489.284 492.313 479.279 493.323 C 460.091 495.076 440.916 496.975 421.757 499.021 C 418.076 499.267 413.798 499.708 412.552 495.558 C 418.794 491.319 499.225 485.659 513.424 483.939 C 510.504 477.424 507.534 470.214 504.311 463.907 C 491.895 439.613 468.75 402.86 509.362 389.119 z" fill="rgb(22,40,26)" transform="translate(0,0)"></path>
<path d="M 513.261 398.771 C 524.913 397.26 535.622 405.376 537.318 417.002 C 539.013 428.629 531.068 439.465 519.469 441.344 C 511.802 442.587 504.06 439.599 499.214 433.529 C 494.368 427.458 493.171 419.247 496.081 412.045 C 498.992 404.844 505.558 399.77 513.261 398.771 z" fill="rgb(255,255,255)" transform="translate(0,0)"></path>
<path d="M 512.509 404.645 C 520.938 402.716 529.334 407.988 531.258 416.418 C 533.182 424.848 527.906 433.241 519.475 435.16 C 511.05 437.078 502.665 431.807 500.742 423.383 C 498.82 414.96 504.087 406.572 512.509 404.645 z" fill="rgb(22,40,26)" transform="translate(0,0)"></path>
<path d="M 434.328 1219.89 C 447.523 1219.74 460.968 1219.89 474.184 1219.91 C 474.806 1249.35 476.119 1286.86 474.706 1316.67 C 474.626 1318.36 472.105 1321.28 470.915 1322.64 C 463.096 1325.87 441.454 1327.24 436.324 1320.51 C 431.757 1314.51 433.644 1285.72 433.75 1277.91 L 434.328 1219.89 z" fill="rgb(22,40,26)" transform="translate(0,0)"></path>
<path d="M 386.418 491.261 C 398.86 490.785 411.778 494.698 416.945 507.244 C 424.456 525.483 414.983 540.411 407.149 556.522 C 401.867 567.383 396.072 578.447 391.425 589.712 L 390.031 591.068 C 387.356 588.467 380.358 570.996 377.557 566.14 C 363.378 541.56 343.364 501.258 386.418 491.261 z" fill="rgb(22,40,26)" transform="translate(0,0)"></path>
<path d="M 387.177 500.961 C 399.045 499.578 409.8 508.045 411.241 519.906 C 412.683 531.767 404.27 542.563 392.416 544.064 C 380.479 545.575 369.59 537.089 368.138 525.145 C 366.687 513.2 375.226 502.354 387.177 500.961 z" fill="rgb(255,255,255)" transform="translate(0,0)"></path>
<path d="M 385.423 507.635 C 393.605 505.094 402.31 509.604 404.953 517.754 C 407.596 525.905 403.194 534.665 395.077 537.409 C 389.736 539.214 383.837 538.007 379.634 534.25 C 375.431 530.492 373.574 524.764 374.772 519.256 C 375.97 513.747 380.039 509.308 385.423 507.635 z" fill="rgb(22,40,26)" transform="translate(0,0)"></path>
<path d="M 1497.69 1121.38 C 1500.88 1118.17 1503.32 1114.14 1507.89 1115.91 L 1509.95 1120.76 L 1511.82 1121.34 C 1513.12 1116.34 1511.91 1115.48 1514.76 1112.49 C 1520.62 1111.93 1523.8 1116.97 1525 1121.97 C 1534.73 1162.43 1546.5 1203.48 1554.84 1244.18 C 1552.53 1247.05 1551.74 1247.66 1548.82 1249.94 C 1544.11 1249.88 1544.55 1248.11 1542.81 1243.67 L 1541.25 1242.83 L 1539.2 1244.53 C 1539.51 1246.44 1539.8 1247.83 1540.25 1249.72 C 1536.95 1252.75 1534.4 1251.08 1530.15 1250.92 C 1526.87 1243.99 1521.03 1217.31 1518.93 1208.58 C 1512.05 1179.47 1504.97 1150.4 1497.69 1121.38 z" fill="rgb(22,40,26)" transform="translate(0,0)"></path>
<path d="M 767.839 1223.42 C 767.555 1222.5 767.355 1221.01 767.182 1220.02 C 770.385 1214.14 775.105 1213.54 780.965 1215.44 C 784.235 1221.31 792.886 1228.31 798.729 1231.74 C 798.253 1235.54 795.664 1236.65 792.285 1238.23 C 787.19 1234.1 775.781 1222.37 770.604 1221.23 L 768.925 1222.77 C 777.05 1227.48 782.512 1234.41 790.19 1239.94 C 788.871 1243.86 783.248 1247.66 779.867 1250.43 L 781.8 1260.9 C 774.413 1273.01 757.401 1292.39 747.9 1303.93 C 741.829 1311.3 737.521 1304.53 729.712 1304.53 C 724.723 1308.73 727.258 1314.11 721.339 1315.45 C 715.363 1313.24 712.058 1308.46 707.604 1303.63 C 716.56 1293.39 714.389 1292.33 720.15 1281.64 C 723.22 1275.94 733.51 1266.17 738.264 1260.43 C 747.792 1248.94 748.031 1240.02 763.354 1236.69 C 764.652 1231.6 765.328 1228.05 767.839 1223.42 z" fill="rgb(22,40,26)" transform="translate(0,0)"></path>
<path d="M 371.717 1975.92 C 372.231 1933.38 374.196 1888.47 406.06 1856.15 C 433.741 1828.07 472.631 1828.93 499.682 1857.02 C 524.794 1883.1 533.623 1927.89 532.841 1963.22 C 532.762 1967.35 532.541 1971.47 532.179 1975.59 C 534.723 1979.76 535.826 1982.01 535.863 1986.94 C 535.922 1995.04 538.687 2009.64 531.117 2015.28 C 529.873 2016.21 521.486 2016.09 519.605 2016.09 C 516.848 2011.95 517.891 1983.89 517.679 1976.02 C 520.789 1974.98 521.461 1976.01 524.795 1973.93 C 526.486 1971.65 527.906 1968.91 527.808 1965.95 C 526.527 1929.95 522.723 1889.26 496.932 1861.73 C 471.852 1834.97 434.758 1833.81 409.085 1860.35 C 381.757 1888.59 377.602 1931.18 376.812 1968.59 C 376.73 1972.44 376.583 1973.3 379.18 1975.74 C 381.855 1975.73 383.818 1975.33 385.873 1976.88 C 385.704 1989.07 385.879 2001.53 385.089 2013.65 C 384.886 2016.77 375.964 2016.56 373.296 2015.61 C 371.292 2013.85 369.272 2011.68 369.117 2008.93 C 368.64 2000.52 366.526 1982.72 371.717 1975.92 z" fill="rgb(22,40,26)" transform="translate(0,0)"></path>
<path d="M 399.664 1646.95 L 493.759 1646.86 C 494.625 1657.66 494.97 1666.36 495.086 1677.19 C 463.194 1676.83 431.004 1677.08 399.089 1677.11 L 399.664 1646.95 z" fill="rgb(22,40,26)" transform="translate(0,0)"></path>
<path d="M 747.281 367.797 C 750.737 367.735 755.076 367.143 757.834 368.869 C 759.417 380.09 758.619 422.532 758.659 436.568 L 758.885 584.045 C 754.803 584.118 752.615 584.317 748.567 583.32 C 746.238 579.611 747.348 387.669 747.281 367.797 z" fill="rgb(22,40,26)" transform="translate(0,0)"></path>
<path d="M 1127.87 1229.25 C 1131.36 1229.43 1131.81 1229.37 1135.06 1230.49 C 1135.3 1239 1109.13 1290.39 1125.93 1298.52 C 1159.97 1314.99 1145.25 1258.14 1142.23 1244.12 C 1138.84 1254.62 1135.01 1265.54 1133.48 1276.45 C 1131.49 1290.64 1136.33 1286.95 1141.74 1293.99 L 1141 1296 C 1139.29 1297.54 1138.3 1298.49 1135.9 1298.55 C 1123.71 1298.86 1125.78 1282.76 1126.02 1275.19 C 1127.49 1265.91 1134.29 1232.8 1143.59 1230.42 C 1152.45 1234.59 1165.82 1297.38 1143.89 1308.56 C 1138.91 1311.13 1133.06 1311.43 1127.84 1309.39 C 1098.95 1298.23 1120.31 1248.01 1127.87 1229.25 z" fill="rgb(22,40,26)" transform="translate(0,0)"></path>
<path d="M 1115.55 1229.05 C 1118.47 1229.2 1121.56 1228.93 1123.73 1230.68 C 1123.29 1233.83 1120.41 1241.29 1118.4 1245.16 C 1107.8 1265.54 1099.96 1314.87 1135.67 1314.81 C 1162.57 1314.76 1162.91 1277.86 1157.87 1259.01 C 1156.39 1253.46 1151.85 1235.42 1151.65 1229.6 L 1153.36 1228.43 C 1158.88 1229.1 1159.02 1229.21 1160.89 1234.02 C 1167.29 1260.06 1178.85 1307.33 1146.48 1320.79 C 1138.79 1324.02 1130.11 1323.96 1122.47 1320.61 C 1087.87 1305.11 1104.11 1254.61 1115.55 1229.05 z" fill="rgb(22,40,26)" transform="translate(0,0)"></path>
<path d="M 1452.2 1486.2 C 1454.4 1486.03 1456.6 1485.9 1458.8 1485.82 C 1476.81 1485.21 1497.35 1485.19 1515.28 1486.34 C 1529.36 1487.25 1531.67 1501.68 1531.67 1512.57 L 1517.25 1512.47 L 1516.84 1501.25 C 1496.87 1500.28 1471.75 1500.92 1451.58 1501.01 C 1451.09 1504.85 1451.08 1508.88 1448.84 1511.79 C 1445.29 1513.77 1440.37 1512.89 1436.02 1512.66 C 1435.67 1497.11 1437.56 1491.92 1452.2 1486.2 z" fill="rgb(22,40,26)" transform="translate(0,0)"></path>
<path d="M 754.044 31.9796 C 755.268 29.8784 756.515 27.7908 757.785 25.7169 C 760.515 21.2721 765.184 13.0393 770.318 11.8242 C 774.917 18.1893 784.966 30.71 786.025 37.9828 L 784.893 41.7515 C 792.424 33.9347 800.337 34.1424 807.161 42.689 L 805.92 38.4757 C 807.184 31.3638 818.765 18.094 823.608 12.0442 C 829.648 16.551 834.414 24.3641 837.927 30.9778 C 834.264 33.6544 812.385 44.2123 807.929 43.6284 C 809.168 50.2021 809.342 51.7673 805.937 57.8795 C 794.927 69.1043 780.047 59.2261 784.024 42.6174 C 779.947 43.1595 758.957 34.2075 754.044 31.9796 z" fill="rgb(22,40,26)" transform="translate(0,0)"></path>
<path d="M 797.107 43.8452 C 804.264 48.4304 803.549 50.9404 796.957 56.3888 C 794.018 54.8923 787.868 52.2232 790.196 46.4989 C 790.843 44.9085 794.916 44.6439 797.107 43.8452 z" fill="rgb(255,255,255)" transform="translate(0,0)"></path>
<path d="M 1140.45 1125.33 L 1139.39 1124.88 C 1133.23 1122.27 1129.2 1122.74 1123.07 1125.21 C 1118.19 1127.18 1115.03 1131.28 1113.32 1136.16 C 1104.68 1160.71 1127.17 1194.7 1124.31 1199.87 C 1122.82 1200.18 1120.01 1201 1118.76 1199.42 C 1105.02 1182.09 1095.17 1140.97 1112.54 1122.82 C 1124.96 1109.85 1140.84 1113.12 1150.11 1127.86 C 1150.32 1130.34 1150.24 1132.41 1151.1 1134.67 C 1153.09 1131.56 1154.98 1128.83 1159.51 1130.47 C 1160.57 1133.91 1157.14 1143.57 1155.12 1145.94 C 1147.37 1155.09 1140.24 1197.03 1134.43 1201.36 C 1131.44 1201.92 1132.92 1202.06 1129.9 1200.45 C 1129.16 1197.49 1129.17 1197.5 1129.25 1194.45 C 1132.76 1179.71 1142.9 1151.71 1149.24 1138.19 L 1147.55 1132.07 C 1145.6 1129.85 1142.69 1127.36 1140.45 1125.33 z" fill="rgb(22,40,26)" transform="translate(0,0)"></path>
<path d="M 134.828 1507.61 C 137.224 1508.76 138.883 1508.91 140.721 1510.84 C 134.303 1526.61 128.085 1546.4 122.595 1562.73 L 98.6721 1633.06 C 96.9365 1638.19 86.3441 1667.31 86.0051 1670.49 C 88.3253 1674.83 92.7356 1672.61 92.3132 1676.12 C 89.215 1678.66 87.8945 1677.56 83.8833 1676.95 C 80.2473 1680.04 81.8153 1684.69 77.9179 1687.81 L 75.5539 1687.01 C 74.0028 1683.02 76.202 1679.69 78.0148 1675.38 C 74.4497 1673.39 72.6311 1673.15 70.8366 1669.98 L 71.6161 1668.01 C 73.9036 1667.2 75.4057 1667.92 77.795 1668.56 C 78.4373 1668.21 79.0796 1667.85 79.7218 1667.5 C 87.741 1645.9 103.573 1599.81 109.848 1579.85 L 112.8 1570.94 C 120.648 1550.54 126.365 1527.75 134.828 1507.61 z" fill="rgb(22,40,26)" transform="translate(0,0)"></path>
<path d="M 1086.51 1947.4 C 1088.71 1940.4 1110.91 1908.57 1115.98 1901.93 C 1120.28 1909.41 1140.43 1939.35 1141.47 1943.21 C 1138.68 1945.66 1136.41 1947.84 1133.5 1950.26 C 1128.91 1947.21 1124.97 1944.33 1120.22 1941.44 C 1117.54 1944.1 1115.06 1946.74 1112.43 1949.41 C 1109.78 1945.69 1108.74 1944.23 1105.77 1940.74 C 1101.32 1943.71 1095.84 1948.48 1091.06 1950.38 C 1090.74 1950.5 1087.58 1947.96 1086.51 1947.4 z" fill="rgb(22,40,26)" transform="translate(0,0)"></path>
<path d="M 1472.78 1972.79 L 1488.86 1972.77 C 1489.23 1997.08 1488.7 2022.45 1488.55 2046.83 C 1483.25 2046.92 1478.18 2046.82 1472.81 2046.97 C 1472.81 2022.35 1472.54 1997.34 1472.78 1972.79 z" fill="rgb(22,40,26)" transform="translate(0,0)"></path>
<path d="M 1113.95 1205.28 C 1125.06 1204.79 1152.82 1204.53 1164.55 1205.92 C 1169 1206.44 1172.87 1220.74 1163.77 1225.33 C 1150.16 1226.65 1127.65 1224.78 1113.45 1224.04 C 1108.61 1223.78 1106.1 1209.75 1113.95 1205.28 z" fill="rgb(22,40,26)" transform="translate(0,0)"></path>
<path d="M 709.656 839.43 L 844.278 839.509 C 850.632 839.519 884.86 838.848 889 840.012 C 890.657 842.813 890.126 841.962 889.662 845.965 C 869.654 845.94 713.495 846.667 708.588 844.119 C 707.927 841.051 707.797 842.594 709.656 839.43 z" fill="rgb(22,40,26)" transform="translate(0,0)"></path>
<path d="M 80.2854 1823.28 C 80.0752 1816.65 78.8702 1807.57 82.4354 1802.28 C 85.5082 1800.89 84.1489 1801.08 87.9623 1802.28 C 90.1272 1804.24 90.8764 1805.73 90.84 1808.82 C 90.6224 1827.28 92.2618 1851.97 90.682 1869.83 C 88.213 1871.52 86.1118 1871.13 82.7691 1871.38 L 83.7094 1873.57 C 87.6098 1874.85 92.3801 1874.41 96.6068 1874.36 L 100.43 1874.41 C 103.658 1878.84 102.211 1884.83 101.698 1890.57 C 94.6183 1889.89 87.2038 1890.21 80.0681 1890.33 C 79.7381 1886.39 79.9507 1879.25 79.9525 1875.06 L 80.2854 1823.28 z" fill="rgb(22,40,26)" transform="translate(0,0)"></path>
<path d="M 434.344 1194.02 C 440.015 1195.52 467.057 1195.41 473.098 1194.61 C 480.531 1196.05 477.924 1195.84 478.394 1204.5 C 478.621 1208.69 478.528 1212.82 478.785 1217.04 C 462.527 1216.83 446.267 1216.83 430.009 1217.05 C 430.03 1211.6 427.818 1194.47 433.125 1194.12 L 434.344 1194.02 z" fill="rgb(22,40,26)" transform="translate(0,0)"></path>
<path d="M 55.6072 1136.27 C 55.647 1133.61 54.74 1126.74 56.3363 1124.59 C 57.3905 1123.16 88.0707 1124.17 91.9543 1124.22 C 91.955 1132.58 92.1372 1142.1 91.834 1150.38 C 91.893 1154.36 93.0836 1159.32 90.049 1161.94 C 89.3829 1160.49 89.0607 1159.85 88.5834 1158.32 C 78.87 1146.95 70.2777 1150.87 55.6304 1150.91 C 55.6134 1146.07 55.7284 1141.09 55.6072 1136.27 z" fill="rgb(22,40,26)" transform="translate(0,0)"></path>
<path d="M 123.091 1123.92 C 134.22 1124.38 147.64 1124.03 158.934 1124.01 C 158.876 1128.72 158.834 1132.82 159.014 1137.55 C 158.621 1141.35 158.776 1146.75 158.717 1150.74 C 135.503 1150.9 136.46 1145.87 122.973 1164.28 L 123.091 1123.92 z" fill="rgb(22,40,26)" transform="translate(0,0)"></path>
<path d="M 1177.9 1862.73 C 1186.76 1860.47 1195.82 1865.64 1198.38 1874.42 C 1200.95 1883.2 1196.1 1892.43 1187.41 1895.29 C 1181.52 1897.24 1175.04 1895.81 1170.51 1891.58 C 1165.97 1887.34 1164.11 1880.97 1165.65 1874.96 C 1167.19 1868.95 1171.89 1864.26 1177.9 1862.73 z" fill="rgb(22,40,26)" transform="translate(0,0)"></path>
<path d="M 1178.43 1865.68 C 1185.69 1863.84 1193.12 1868.04 1195.26 1875.22 C 1197.4 1882.4 1193.51 1889.99 1186.42 1892.43 C 1181.57 1894.09 1176.2 1892.97 1172.43 1889.5 C 1168.65 1886.03 1167.08 1880.77 1168.33 1875.8 C 1169.59 1870.83 1173.47 1866.95 1178.43 1865.68 z" fill="rgb(255,255,255)" transform="translate(0,0)"></path>
<path d="M 1175.73 1090.21 C 1180.78 1089.95 1184.29 1089.46 1189 1091.89 C 1193.04 1093.97 1196.82 1098.08 1198.2 1102.5 C 1201.25 1112.25 1194.72 1123.25 1190.45 1131.71 C 1190.01 1132.57 1188.03 1136.18 1186.87 1136.44 C 1186.42 1136.54 1185.41 1136.11 1185.1 1135.74 C 1183.95 1134.36 1182.19 1133.66 1180.6 1132.98 C 1180.57 1132.93 1179.38 1132.63 1179.39 1132.32 C 1179.45 1128.82 1182.81 1124.16 1184.69 1120.88 C 1187 1116.83 1188.65 1113.69 1190.52 1109.28 C 1190 1103.72 1189.44 1100.76 1182.98 1099.26 C 1172.22 1096.77 1169.69 1110.94 1166.51 1118.04 C 1165.33 1120.65 1165.26 1123.44 1163.07 1125.16 C 1161.5 1126.38 1156.48 1123.81 1156.32 1122.83 C 1155.79 1119.39 1158.17 1114.61 1159.09 1111.31 C 1162.81 1101.19 1165.54 1095 1175.73 1090.21 z" fill="rgb(22,40,26)" transform="translate(0,0)"></path>
<path d="M 1037.79 577.409 C 1056.06 577.005 1233.87 576.466 1239.83 578.926 L 1240.33 580.519 L 1238.8 581.593 C 1219.77 580.868 1041.15 582.625 1037.38 580.382 L 1037.79 577.409 z" fill="rgb(22,40,26)" transform="translate(0,0)"></path>
<path d="M 54.9571 1103.21 C 63.4753 1103.08 72.7364 1103.05 80.8833 1103.07 C 94.262 1103.1 96.5833 1101.52 95.9127 1116 C 95.79 1118.65 96.9477 1120.1 94.0405 1121.07 C 80.7743 1121.19 65.419 1121.4 52.2678 1120.92 C 51.8797 1113.62 50.5957 1108.56 54.9571 1103.21 z" fill="rgb(22,40,26)" transform="translate(0,0)"></path>
<path d="M 120.837 1121.16 C 117.473 1117.71 119.654 1113.83 119.029 1109.51 C 117.85 1101.36 128.108 1102.58 133.851 1103.1 C 151.802 1104.74 168.799 1095.3 161.477 1120.9 C 148.078 1121.33 134.302 1120.89 120.837 1121.16 z" fill="rgb(22,40,26)" transform="translate(0,0)"></path>
<path d="M 810.514 775.266 C 822.427 776.656 832.283 783.584 834.604 796.002 C 835.965 803.172 834.239 810.583 829.85 816.413 C 817.409 832.892 795.431 824.619 808.504 819.05 C 813.431 816.951 815.005 822.106 824.487 812.144 C 827.985 805.486 828.689 799.481 825.453 792.56 C 817.955 776.527 796.349 781.029 793.362 797.589 C 793.34 797.711 792.574 801.731 791.856 801.642 C 784.712 800.747 786.125 790.955 789.738 786.833 C 794.599 780.369 800.032 776.995 806.491 775.912 L 810.514 775.266 z" fill="rgb(22,40,26)" transform="translate(0,0)"></path>
<path d="M 1044.69 565.279 C 1063.9 564.784 1228.65 563.587 1232.44 566.227 L 1232.74 569.113 C 1171.72 568.372 1110.11 569.428 1049.06 569.283 C 1047.07 569.278 1046.05 569.173 1044.5 567.936 L 1044.69 565.279 z" fill="rgb(22,40,26)" transform="translate(0,0)"></path>
<path d="M 805.129 858.82 C 822.028 859.936 834.332 871.262 831.665 887.997 C 827.961 911.247 801.095 918.84 787.451 897.479 C 786.654 894.735 785.476 891.842 785.494 888.984 C 785.102 886.985 789.435 886.41 790.01 886.965 C 794.724 891.511 794.427 900.112 803.016 901.878 C 812.286 903.783 822.783 899.127 824.375 889.007 C 825.231 883.56 824.34 877.877 821.131 873.441 C 814 861.388 800.774 872.474 805.129 858.82 z" fill="rgb(22,40,26)" transform="translate(0,0)"></path>
<path d="M 117.192 1586.68 C 120.963 1592.46 140.887 1657.64 144.699 1668.8 L 146.173 1668.3 C 149.827 1667.09 150.509 1667.01 153.463 1668.54 L 153.565 1670.39 C 150.6 1673.75 150.52 1673.05 146.073 1674.67 C 147.469 1678.95 149.276 1683.26 148.872 1687.7 L 146.248 1687.02 C 142.527 1683.53 144.077 1683.32 141.675 1677.97 C 138.192 1676.28 137.937 1678.19 132.586 1677.92 C 131.418 1675.27 131.446 1676.54 132.144 1674.01 C 134.798 1672.78 135.799 1672.59 137.513 1670.19 C 137.97 1666.75 116.761 1605.76 114.073 1597.41 L 117.192 1586.68 z" fill="rgb(22,40,26)" transform="translate(0,0)"></path>
<path d="M 1127.49 1192.32 C 1122.1 1175.36 1105.42 1145.23 1122.57 1130.12 C 1126.58 1126.59 1132.41 1125.99 1137.56 1126.77 L 1139.11 1126.97 C 1143.26 1131.47 1143.18 1132.44 1145.95 1137.95 C 1144.48 1142.28 1142.95 1146.34 1141.54 1150.72 L 1138.71 1148.53 C 1138.3 1140.78 1131.71 1128.17 1125.78 1138.02 C 1119.36 1154.83 1124.88 1161.46 1131.57 1178.01 C 1130 1182.75 1129.17 1188.11 1127.49 1192.32 z" fill="rgb(22,40,26)" transform="translate(0,0)"></path>
<path d="M 1050.78 553.026 C 1083.08 551.402 1122.88 553.881 1155.97 552.828 C 1166.29 552.5 1216.01 552.348 1223.68 553.589 C 1225.71 555.329 1225.16 554.255 1225.4 556.905 L 1102.55 556.802 C 1095.88 556.819 1054.09 557.601 1050.33 556.361 L 1050.78 553.026 z" fill="rgb(22,40,26)" transform="translate(0,0)"></path>
<path d="M 1096.96 527.5 L 1118.44 527.335 C 1130.17 527.29 1205.73 525.824 1209.46 529.527 C 1205.04 533.641 1183.29 531.795 1176.04 531.687 L 1099.05 531.695 C 1091.12 531.715 1070.66 532.407 1064.08 531.797 L 1063.17 530.655 L 1064.67 528.405 C 1070.71 526.878 1089.76 527.469 1096.96 527.5 z" fill="rgb(22,40,26)" transform="translate(0,0)"></path>
<path d="M 1057.75 540.194 C 1075.22 539.802 1212.97 538.944 1215.54 540.757 C 1216.82 541.651 1216.47 542.452 1216.63 543.898 L 1108.01 543.934 C 1101.22 543.931 1060.64 544.896 1057.49 542.958 L 1057.75 540.194 z" fill="rgb(22,40,26)" transform="translate(0,0)"></path>
<path d="M 1165.98 1131.41 C 1168.69 1131.87 1174.95 1132.3 1173.04 1135.95 C 1161.92 1157.15 1153.51 1177.06 1149.3 1200.77 C 1137.83 1203.92 1142.09 1194.54 1144.38 1186.2 C 1148.86 1169.94 1156.94 1145.72 1165.98 1131.41 z" fill="rgb(22,40,26)" transform="translate(0,0)"></path>
<path d="M 868.333 1097.49 C 858.717 1124.17 848.339 1136.41 827.01 1154.75 C 826.405 1155.64 826.525 1155.51 825.691 1156.17 C 823.997 1157.68 823.079 1158.84 820.84 1159.36 C 825.226 1149.73 826.286 1146.71 829.335 1137.28 C 844.384 1126.41 846.375 1125.13 853.23 1108.32 C 857.786 1105.07 864.439 1100.92 868.333 1097.49 z" fill="rgb(22,40,26)" transform="translate(0,0)"></path>
<path d="M 806.718 59.2969 C 807.517 58.5091 810.443 54.6268 811.098 54.7765 C 819.358 56.6613 830.423 62.661 837.971 65.8968 C 837.357 71.3413 828.045 87.1011 822.34 86.7141 C 816.983 78.5562 811.367 70.4826 805.88 62.4432 C 805.336 61.6467 806.362 60.009 806.718 59.2969 z" fill="rgb(22,40,26)" transform="translate(0,0)"></path>
<path d="M 1178.24 1136.38 C 1186.52 1140.29 1185.3 1140.77 1180.81 1148.58 C 1170.37 1166.74 1165.9 1182.01 1160.67 1202.02 C 1159.97 1201.97 1154.43 1201.76 1154.46 1200.62 C 1155.09 1181.08 1167.94 1152.56 1178.24 1136.38 z" fill="rgb(22,40,26)" transform="translate(0,0)"></path>
<path d="M 753.88 34.6339 C 758.292 37.9955 778.475 42.9252 780.64 47.6868 C 784.625 56.4512 761.036 58.3281 753.454 63.7582 C 749.724 56.5841 749.901 41.6265 753.88 34.6339 z" fill="rgb(22,40,26)" transform="translate(0,0)"></path>
<path d="M 769.562 88.3457 C 771.761 85.01 790.666 56.3316 794.459 66.0538 C 795.187 67.9194 794.814 93.3203 794.612 97.2526 C 783.617 96.7055 778.635 94.3261 769.562 88.3457 z" fill="rgb(22,40,26)" transform="translate(0,0)"></path>
<path d="M 838.907 64.2594 C 824.035 54.2408 791.195 52.6452 826.805 39.211 C 830.905 37.6643 834.703 34.9671 838.774 33.6775 C 841.05 43.804 842.534 54.2383 838.907 64.2594 z" fill="rgb(22,40,26)" transform="translate(0,0)"></path>
<path d="M 797.965 97.8359 C 797.223 95.8157 793.434 59.2191 802.872 64.3337 C 807.886 67.0505 816.897 82.3412 821.25 88.4084 C 816.984 93.0216 804.17 96.4892 797.965 97.8359 z" fill="rgb(22,40,26)" transform="translate(0,0)"></path>
<path d="M 781.846 55.5754 C 783.673 57.7133 785.417 59.9548 787.283 62.1438 C 780.436 70.4272 774.075 77.9026 767.72 86.6995 C 760.026 78.9961 758.383 74.8836 753.547 65.8885 C 762.706 62.9186 772.455 58.8089 781.846 55.5754 z" fill="rgb(22,40,26)" transform="translate(0,0)"></path>
<path d="M 708.529 859.077 L 758.539 858.963 C 766.678 858.945 779.962 858.499 787.368 859.449 C 789.28 862.354 788.741 861.225 788.352 865.47 C 783.967 865.896 762.335 865.564 757.094 865.444 C 743.76 865.139 723.29 866.249 710.758 864.839 C 708.352 862.74 709.121 863.222 708.529 859.077 z" fill="rgb(22,40,26)" transform="translate(0,0)"></path>
<path d="M 796.739 2.69614 C 805.283 2.99148 814.439 4.43344 821.148 10.3023 C 820.502 11.2657 819.847 12.2232 819.184 13.1746 C 796.349 45.9034 798.585 40.0699 796.739 2.69614 z" fill="rgb(22,40,26)" transform="translate(0,0)"></path>
<path d="M 771.907 10.7471 C 776.224 5.02892 787.884 3.27452 794.523 1.69343 C 794.492 11.7252 796.508 22.1433 795.466 31.9587 C 795.413 32.4499 789.481 34.9269 788.528 33.571 C 783.071 25.8016 777.956 18.1642 771.907 10.7471 z" fill="rgb(22,40,26)" transform="translate(0,0)"></path>
<path d="M 707.603 817.006 C 731.255 815.693 757.576 817.189 781.356 817.284 C 782.172 817.288 783.017 821.962 783.155 822.527 C 769.236 826.465 726.582 821.372 710.192 822.701 C 709.077 822.792 707.845 817.751 707.603 817.006 z" fill="rgb(22,40,26)" transform="translate(0,0)"></path>
<path d="M 142.398 1469.14 C 149.132 1471.42 151.251 1472.29 157.586 1475.04 C 154.727 1482.8 151.595 1492.44 148.236 1499.96 C 143.62 1497.78 139.596 1496.34 134.986 1494.31 C 136.922 1487.23 139.729 1475.59 142.398 1469.14 z" fill="rgb(22,40,26)" transform="translate(0,0)"></path>
<path d="M 68.8821 1474.13 C 74.8554 1472.21 77.4904 1471.56 83.5663 1468.99 C 85.3621 1474.76 90.9635 1491.36 91.5837 1495.72 C 84.4036 1496.99 81.9812 1499.13 77.4554 1500 C 75.3619 1492.19 71.7542 1481.75 68.8821 1474.13 z" fill="rgb(22,40,26)" transform="translate(0,0)"></path>
<path d="M 91.1684 1507.79 C 94.8004 1514.69 107.562 1557.23 110.537 1567.15 C 109.709 1572.15 110.036 1573.08 107.412 1577.34 C 100.694 1555.61 93.9788 1532.35 86.2044 1511.01 C 87.9686 1509.21 88.9469 1508.93 91.1684 1507.79 z" fill="rgb(22,40,26)" transform="translate(0,0)"></path>
<path d="M 708.221 795.305 C 716.414 794.521 762.895 794.357 773.697 795.222 C 774.03 795.248 774.433 796.796 774.496 797.49 L 774.746 800.486 C 755.58 802.767 729.485 800.118 709.938 800.526 C 708.834 800.549 708.328 795.938 708.221 795.305 z" fill="rgb(22,40,26)" transform="translate(0,0)"></path>
<path d="M 177.548 878.457 C 187.341 880.869 182.291 886.13 177.683 893.386 C 171.655 902.88 166.166 912.97 160.117 922.325 C 152.132 919.99 154.769 916.715 158.546 910.256 C 164.76 899.626 170.9 888.81 177.548 878.457 z" fill="rgb(22,40,26)" transform="translate(0,0)"></path>
<path d="M 1472.33 1900.05 L 1488.69 1900 C 1488.76 1907.4 1488.71 1914.81 1488.52 1922.21 C 1483.2 1922.38 1477.87 1922.42 1472.54 1922.34 C 1472.4 1914.91 1472.33 1907.48 1472.33 1900.05 z" fill="rgb(22,40,26)" transform="translate(0,0)"></path>
<path d="M 142.111 878.516 C 143.25 878.851 148.321 880.901 147.382 882.604 C 141.269 893.697 131.275 912.865 123.593 922.285 C 122.728 921.89 118.378 919.972 119.093 918.408 C 124.76 906.007 134.232 889.655 142.111 878.516 z" fill="rgb(22,40,26)" transform="translate(0,0)"></path>
<path d="M 69.7321 878.34 C 76.0054 881.309 75.0602 882.756 71.5013 888.745 C 64.8482 899.94 58.1363 911.692 51.3841 922.773 C 50.2141 922.258 46.5534 920.559 47.026 918.981 C 50.6091 907.025 63.2786 888.725 69.7321 878.34 z" fill="rgb(22,40,26)" transform="translate(0,0)"></path>
<path d="M 106.482 878.448 C 107.283 878.749 110.984 880.247 110.296 881.561 C 105.079 891.518 94.2815 914.877 87.4685 922.577 C 86.5326 921.948 82.5842 919.766 83.1147 918.44 C 87.8335 906.638 98.9917 888.081 106.482 878.448 z" fill="rgb(22,40,26)" transform="translate(0,0)"></path>
<path d="M 741.963 587.049 C 749.316 586.927 756.669 586.852 764.023 586.823 C 764.074 591.829 764.079 596.834 764.038 601.84 L 741.868 601.825 C 741.869 596.9 741.901 591.974 741.963 587.049 z" fill="rgb(22,40,26)" transform="translate(0,0)"></path>
<path d="M 134.282 1506.06 C 131.853 1504.85 125.003 1502.42 123.063 1500.43 C 122.343 1499.69 124.166 1495.4 125.241 1495.59 C 131.71 1496.76 138.68 1498.82 144.864 1501.17 C 148.424 1502.52 153.351 1503.22 155.928 1505.96 C 157.039 1507.15 155.189 1511.61 153.941 1511.75 C 151.118 1512.07 144.977 1509.66 142.278 1508.69 C 141.65 1509.92 141.681 1509.88 140.721 1510.84 C 138.883 1508.91 137.224 1508.76 134.828 1507.61 L 134.282 1506.06 z" fill="rgb(22,40,26)" transform="translate(0,0)"></path>
<path d="M 134.282 1506.06 L 137.563 1506.84 C 139.542 1507.33 140.508 1507.88 142.278 1508.69 C 141.65 1509.92 141.681 1509.88 140.721 1510.84 C 138.883 1508.91 137.224 1508.76 134.828 1507.61 L 134.282 1506.06 z" fill="rgb(197,198,192)" transform="translate(0,0)"></path>
<path d="M 94.9595 1497.19 C 96.4916 1496.73 104.946 1493.47 102.324 1501.31 C 101.889 1502.61 93.3797 1505.27 91.1322 1506.31 L 91.1684 1507.79 C 88.9469 1508.93 87.9686 1509.21 86.2044 1511.01 C 85.4026 1509.74 85.4152 1509.68 84.9708 1508.23 C 82.63 1509.06 73.8084 1513.05 72.5836 1512.1 C 65.34 1506.52 76.8361 1503.31 77.7438 1502.87 L 78.3861 1502.55 C 84.4979 1500.63 88.2411 1498.95 94.9595 1497.19 z" fill="rgb(22,40,26)" transform="translate(0,0)"></path>
<path d="M 91.1322 1506.31 L 91.1684 1507.79 C 88.9469 1508.93 87.9686 1509.21 86.2044 1511.01 C 85.4026 1509.74 85.4152 1509.68 84.9708 1508.23 C 87.2488 1507.47 88.7469 1506.97 91.1322 1506.31 z" fill="rgb(197,198,192)" transform="translate(0,0)"></path>
<path d="M 1169.83 812.195 C 1175.65 812.096 1206.93 809.27 1206.28 816.4 L 1206.06 818.81 C 1202.03 818.904 1175.26 819.705 1170.51 817.719 C 1170.07 817.535 1169.86 815.776 1169.86 815.03 L 1169.83 812.195 z" fill="rgb(22,40,26)" transform="translate(0,0)"></path>
<path d="M 1549.08 483.993 C 1552.52 484.89 1575.18 489.8 1576.11 491.498 C 1575.48 492.531 1569.26 494.142 1567.72 494.64 C 1563.19 495.583 1553.5 498.409 1548.58 499.785 C 1548.87 494.377 1548.93 489.38 1549.08 483.993 z" fill="rgb(22,40,26)" transform="translate(0,0)"></path>
<path d="M 1170.78 768.171 C 1181.54 768.009 1192.3 768.003 1203.06 767.686 C 1207.19 767.564 1206.05 771.721 1205.68 774.42 C 1204.27 774.518 1202.87 774.6 1201.46 774.667 C 1192.07 775.053 1181.89 774.548 1172.44 774.561 C 1169.89 774.565 1170.75 769.739 1170.78 768.171 z" fill="rgb(22,40,26)" transform="translate(0,0)"></path>
<path d="M 1444.82 545.787 C 1449.39 548.547 1452.98 550.699 1457.62 553.377 L 1458.48 553.879 L 1444.42 567.98 C 1442 570.567 1439.63 573.207 1437.33 575.896 C 1439.57 564.943 1442.11 556.514 1444.82 545.787 z" fill="rgb(22,40,26)" transform="translate(0,0)"></path>
<path d="M 1125.78 1138.02 C 1139.14 1138.87 1137.58 1160.76 1135.4 1169.92 C 1129.99 1175.56 1125.98 1140.9 1125.78 1138.02 z" fill="rgb(22,40,26)" transform="translate(0,0)"></path>
<path d="M 1170.53 834.191 C 1181.53 834.215 1192.6 834.033 1203.58 834.352 C 1207.16 834.456 1206.04 838.494 1205.72 840.661 C 1195.82 841.189 1181.53 841.483 1171.77 839.548 C 1170.77 839.35 1170.62 834.971 1170.53 834.191 z" fill="rgb(22,40,26)" transform="translate(0,0)"></path>
<path d="M 1472.65 1836.04 C 1478.02 1835.97 1483.39 1835.96 1488.76 1836 C 1488.81 1840.58 1488.76 1845.16 1488.6 1849.74 C 1483.33 1850.02 1477.95 1849.94 1472.67 1849.94 C 1472.56 1845.3 1472.55 1840.67 1472.65 1836.04 z" fill="rgb(22,40,26)" transform="translate(0,0)"></path>
<path d="M 1559.79 444.168 C 1560.71 444.138 1561.76 443.936 1562.5 444.499 C 1561.13 446.526 1544.1 464.293 1542.9 464.411 C 1540.37 459.736 1538.44 455.528 1536.3 450.709 C 1544.85 448.651 1551.57 446.347 1559.79 444.168 z" fill="rgb(22,40,26)" transform="translate(0,0)"></path>
<path d="M 1528.76 408.845 C 1529.08 412.161 1523.89 432.093 1522.79 437.182 C 1519.73 435.494 1516.79 433.708 1513.8 431.904 C 1512.87 431.349 1510.13 430.199 1509.93 428.912 C 1509.84 428.331 1526.62 411.045 1528.76 408.845 z" fill="rgb(22,40,26)" transform="translate(0,0)"></path>
<path d="M 1169.89 789.899 C 1180.46 789.893 1194.57 789.369 1205.17 790.475 C 1206.37 790.601 1206.59 795.035 1206.71 795.997 C 1196.22 796.167 1181.57 796.398 1171.01 795.485 C 1170.1 795.406 1170.03 791.203 1169.98 790.698 L 1169.89 789.899 z" fill="rgb(22,40,26)" transform="translate(0,0)"></path>
<path d="M 1438 409.56 C 1440.67 411.36 1445.45 415.983 1447.3 418.547 C 1454.57 428.586 1460.97 426.384 1450.49 433.502 C 1449.15 434.321 1447.85 435.192 1446.58 436.115 C 1445.82 436.656 1445.06 437.198 1444.3 437.739 L 1438 409.56 z" fill="rgb(22,40,26)" transform="translate(0,0)"></path>
<path d="M 1177.49 516.723 C 1182.77 514.2 1190.54 509.942 1195.92 507.073 C 1198.68 511.547 1200.95 515.605 1203.51 520.177 C 1196.08 520.165 1183.54 519.68 1176.65 520.682 C 1176.15 520.59 1172.47 520.285 1172.46 519.47 C 1173.21 518.462 1176.25 517.297 1177.49 516.723 z" fill="rgb(22,40,26)" transform="translate(0,0)"></path>
<path d="M 1475.39 558.571 L 1490.62 558.252 C 1488.89 565.62 1486.19 574.884 1485.47 582.251 C 1483.13 587.465 1482.82 582.352 1481.24 578.885 C 1479.6 572.342 1477.28 565.12 1475.39 558.571 z" fill="rgb(22,40,26)" transform="translate(0,0)"></path>
<path d="M 1415.74 484.079 C 1419.78 484.712 1418.13 494.817 1418.19 499.048 C 1412.83 497.373 1405.59 495.573 1400.06 494.433 C 1398.88 494.07 1392.53 492.273 1392.1 491.475 C 1392.31 491.305 1413.56 484.721 1415.74 484.079 z" fill="rgb(22,40,26)" transform="translate(0,0)"></path>
<path d="M 1423.98 520.86 C 1425.94 522.188 1429.22 528.18 1431.79 531.487 L 1432.24 532.072 C 1425.13 534.113 1418.05 536.171 1410.83 537.817 C 1409.61 538.069 1405.7 539.448 1404.92 538.351 C 1405.45 535.884 1421.26 522.937 1423.98 520.86 z" fill="rgb(22,40,26)" transform="translate(0,0)"></path>
<path d="M 1403.32 443.764 C 1407.82 444.282 1426.28 449.75 1431.94 451.293 C 1430.34 453.501 1428.56 455.753 1427.18 458.08 C 1426.61 459.001 1424.44 463.184 1423.44 463.365 C 1423.27 463.27 1404.54 445.067 1403.32 443.764 z" fill="rgb(22,40,26)" transform="translate(0,0)"></path>
<path d="M 1509.47 555.004 L 1521.92 545.916 C 1523.36 550.971 1524.51 555.109 1525.7 560.25 C 1526.85 565.2 1528.23 570.081 1529.52 574.993 C 1525.62 571.199 1522.03 567.414 1518.2 563.606 C 1515.22 560.807 1512.31 557.939 1509.47 555.004 z" fill="rgb(22,40,26)" transform="translate(0,0)"></path>
<path d="M 1542.55 519.391 C 1544.72 520.591 1562.44 537.431 1561.9 538.754 C 1560.8 539.253 1559.99 538.798 1558.73 538.476 C 1551.24 536.182 1543.68 534.103 1536.06 532.242 C 1538.53 527.808 1540.38 523.994 1542.55 519.391 z" fill="rgb(22,40,26)" transform="translate(0,0)"></path>
<path d="M 1483.22 396.687 C 1485.81 403.507 1486.8 410.263 1488.29 417.363 C 1490.12 426.114 1489.45 424.561 1482.03 425.567 C 1481.63 425.485 1476.34 424.821 1476.61 423.598 C 1478.53 415.013 1480.38 405.021 1483.22 396.687 z" fill="rgb(22,40,26)" transform="translate(0,0)"></path>
<path d="M 1481.77 822.15 C 1489.64 822.178 1497.22 823.137 1500.47 831.622 C 1501.01 833.049 1501.49 834.989 1500.79 836.446 C 1500.08 836.905 1499.37 835.984 1499.15 835.402 C 1496.64 828.572 1493.67 827.298 1487.56 824.628 C 1474.3 825.9 1476.12 827.922 1469.55 837.507 L 1469.48 837.503 C 1464.98 831.716 1477.69 824.029 1481.77 822.15 z" fill="rgb(22,40,26)" transform="translate(0,0)"></path>
<path d="M 1205.24 1875.43 C 1209.55 1874.54 1222.3 1873.02 1225.33 1876.81 C 1221.8 1877.84 1208.59 1879.32 1206.11 1876.4 L 1205.24 1875.43 z" fill="rgb(22,40,26)" transform="translate(0,0)"></path>
<path d="M 1483.66 799.535 C 1484.29 799.625 1484.91 799.715 1485.54 799.805 C 1486.23 799.941 1486.81 800.41 1487.08 801.058 C 1488.16 803.539 1487.2 811.526 1485.49 814.984 C 1481.33 811.023 1483.39 805.361 1483.66 799.535 z" fill="rgb(68,79,69)" transform="translate(0,0)"></path>
<path d="M 1208.83 1845.59 C 1213 1848.49 1204.15 1855.87 1201.33 1859.4 C 1196.1 1855.82 1205.12 1849.61 1208.83 1845.59 z" fill="rgb(22,40,26)" transform="translate(0,0)"></path>
<path d="M 1445.75 833.43 C 1451.06 832.74 1459.61 831.96 1464.3 834.829 C 1459.39 836.711 1449.52 837.997 1445.75 833.43 z" fill="rgb(22,40,26)" transform="translate(0,0)"></path>
<path d="M 1153.16 1845.74 L 1154.3 1846.37 C 1159.54 1849.29 1163.46 1855.12 1165.08 1860.93 C 1160.91 1857.76 1153.41 1851.19 1153.16 1845.74 z" fill="rgb(22,40,26)" transform="translate(0,0)"></path>
<path d="M 1181.2 1834.74 C 1184.56 1838 1183.12 1848.49 1182.53 1852.93 C 1178.52 1849.17 1179.58 1839.42 1181.2 1834.74 z" fill="rgb(22,40,26)" transform="translate(0,0)"></path>
<path d="M 1137.97 1875.46 C 1144.09 1874.2 1152.66 1873.51 1158.36 1876.53 C 1152.46 1877.65 1143.29 1878.58 1137.97 1875.46 z" fill="rgb(22,40,26)" transform="translate(0,0)"></path>
<path d="M 1508.25 833.38 C 1512.54 832.837 1521.77 830.843 1523.27 835.632 C 1519.36 836.091 1509.21 838.113 1508.25 833.38 z" fill="rgb(22,40,26)" transform="translate(0,0)"></path>
<path d="M 1461.46 808.714 C 1465.91 811.278 1469.45 816.19 1471.18 820.97 C 1465.94 818.471 1460.56 815.03 1461.46 808.714 z" fill="rgb(22,40,26)" transform="translate(0,0)"></path>
<path d="M 1507.83 809.652 C 1511.72 813.208 1504.26 818.833 1501.23 822.119 C 1498.56 818.162 1505.1 812.555 1507.83 809.652 z" fill="rgb(22,40,26)" transform="translate(0,0)"></path>
<path d="M 1138.71 1148.53 L 1141.54 1150.72 C 1139.31 1158.76 1139.03 1152.25 1138.71 1148.53 z" fill="rgb(68,79,69)" transform="translate(0,0)"></path>
<metadata><recraft-signature>{"signed_by": "recraft", "signature_b64": "7kigzI3ym/fdAlHvLbezdxw6ALDmnLRuAO0NZEJ8kS72cCIhd4u3QZqc1Ew14QVnKWG0UIHhli2iX05Nge2uCA==", "signing_algo": "Ed25519", "generation_timestamp": 1784860463, "identifier": "d31c8445-058d-4660-b2ab-533ebdd2c9ce"}</recraft-signature></metadata></svg>