<svg xmlns="http://www.w3.org/2000/svg" height="2304" preserveAspectRatio="none" style="display: block;" version="1.1" viewBox="0 0 2304 2304" width="1792">
<path d="M 0 0 L 2304 0 L 2304 23.1412 L 2304 53.3208 L 2304 163.649 L 2304 171.002 L 2304 1380.91 L 2304 1388.79 L 2304 2304 L 233.176 2304 L 231.466 2304 L 226.173 2304 L 64.1469 2304 L 59.6347 2304 L 51.8967 2304 L 0 2304 L 0 1887.28 L 0 1885.08 L 0 608.674 L 0 607.259 L 0 0 z" fill="rgb(255,255,255)" transform="translate(0,0)"></path>
<path d="M 2083.32 1348.41 C 2090.74 1278.52 2213.41 1268.9 2236.46 1344.84 C 2266.58 1342.02 2294.37 1348.04 2304 1380.91 L 2304 1388.79 C 2291.54 1430.55 2254.63 1426.47 2220.11 1426.49 L 2157.22 1426.44 L 2094.01 1426.39 C 2082.83 1426.37 2066.85 1426.81 2056.25 1425.39 C 2043.93 1423.68 2032.81 1417.08 2025.39 1407.08 C 2005.98 1380.34 2030.05 1352.64 2057.04 1347.57 C 2067.91 1345.53 2072.92 1346.43 2083.32 1348.41 z" fill="rgb(22,40,26)" transform="translate(0,0)"></path>
<path d="M 232.641 1768.32 C 246.192 1742.97 262.466 1705.18 275.899 1682.52 C 277.516 1748.66 276.682 1820.83 276.354 1887.37 L 0 1887.28 L 0 1885.08 C 9.6892 1874.39 18.1089 1863.46 27.4613 1852.88 L 37.2647 1859.56 C 45.2295 1852.58 54.2342 1844.31 62.4791 1837.86 C 74.8051 1838.48 88.0915 1839.39 100.36 1839.5 C 115.737 1821.48 130.95 1803.31 145.998 1785.02 C 155.525 1792.05 164.376 1799.83 173.378 1807.53 C 185.19 1790.45 196.476 1772.33 208.6 1755.7 C 216.302 1759.78 224.864 1764.57 232.641 1768.32 z" fill="rgb(22,40,26)" transform="translate(0,0)"></path>
<path d="M 142.502 503.343 C 142.802 494.177 141.508 441.933 144.133 438.227 L 145.155 440.148 C 157.647 444.946 181.673 446.223 190.379 454.461 C 191.921 458.367 192.054 456.568 191.099 460.021 C 184.333 465.839 158.908 468.877 148.659 470.671 C 146.351 472.024 145.851 471.638 145.634 473.73 C 144.7 482.748 145.277 494.759 145.4 503.783 C 153.015 512.763 159.009 519.339 167.177 527.784 C 173.411 523.392 180.31 518.73 186.282 514.096 C 219.702 545.912 254.507 576.875 287.935 608.773 L 0 608.674 L 0 607.259 C 21.7145 586.28 50.9175 561.731 74.0464 541.21 L 83.2791 549.478 L 113.975 523.425 L 124.558 531.073 C 129.55 519.301 134.491 513.444 142.502 503.343 z" fill="rgb(22,40,26)" transform="translate(0,0)"></path>
<path d="M 178.474 543.38 C 187.546 542.623 203.23 550.735 208.558 557.323 C 202.002 556.88 194.024 549.598 188.373 547.455 C 178.167 543.583 162.03 553.351 152.24 558.028 C 146.759 554.628 143.52 552.698 137.55 549.9 C 110.451 567.382 102.103 587.622 65.4864 575.854 C 57.1155 573.236 51.7512 583.701 41.0437 589.066 C 46.4443 582.319 53.5165 576.672 60.1038 571.017 C 100.615 586.531 106.675 566.788 137.352 546.634 L 152.329 554.387 C 161.342 550.334 169.243 546.86 178.474 543.38 z" fill="rgb(201,203,201)" transform="translate(0,0)"></path>
<path d="M 27.9608 2302.85 C 31.7359 2249.86 64.7463 2226.37 114.218 2218.3 C 129.765 2224.75 143.491 2228.74 159.82 2223.26 C 164.814 2221.58 174.319 2219.58 179.274 2219.72 C 212.261 2220.65 243.167 2243.27 255.401 2273.77 C 260.299 2285.99 260.429 2290.43 262.334 2303 C 254.48 2303.06 240.417 2302.74 233.176 2304 L 231.466 2304 L 226.173 2304 L 64.1469 2304 L 59.6347 2304 L 51.8967 2304 C 43.7985 2302.9 36.1213 2302.97 27.9608 2302.85 z" fill="rgb(22,40,26)" transform="translate(0,0)"></path>
<path d="M 226.173 2304 C 226.174 2303.62 224.53 2275.18 230.017 2284.09 C 230.752 2285.28 230.3 2299.8 231.466 2304 L 226.173 2304 z" fill="rgb(255,255,255)" transform="translate(0,0)"></path>
<path d="M 59.6347 2304 C 59.6472 2303.07 59.1384 2274.96 63.7673 2283.2 C 64.3252 2284.19 64.1414 2301.05 64.1469 2304 L 59.6347 2304 z" fill="rgb(255,255,255)" transform="translate(0,0)"></path>
<path d="M 2303.9 41.1295 C 2299.95 37.035 2289.41 22.7212 2296.22 18.256 C 2300.04 19.0724 2301.1 20.5308 2304 23.1412 L 2304 53.3208 L 2304 163.649 C 2299.94 166.352 2294.82 170.708 2290.2 170.269 C 2286.92 167.558 2287.93 168.325 2286.32 163.684 C 2283.35 163.897 2264.5 165.877 2263.27 165.834 C 2260.28 167.977 2258.55 168.69 2257.31 172.353 C 2257.77 175.12 2258.19 177.235 2258.83 179.965 C 2255.77 183.578 2246.11 185.671 2241.57 186.528 L 2240.3 185.839 L 2240.26 176.904 L 2241.31 174.199 C 2233.48 174.147 2225.65 174.696 2217.91 175.841 C 2217.07 162.472 2216.98 147.337 2216.63 133.809 C 2220.61 128.256 2226.41 121.856 2230.98 116.542 C 2221.3 104.864 2216.2 91.7459 2211 77.7133 C 2203.59 88.5417 2195.88 104.962 2183.55 109.139 L 2179.97 99.9289 C 2190.45 89.398 2197.15 59.3777 2214.87 49.5014 C 2240.04 35.4736 2251.68 45.4048 2275.8 51.2596 C 2284.91 48.28 2294.82 44.4311 2303.9 41.1295 z" fill="rgb(22,40,26)" transform="translate(0,0)"></path>
<path d="M 2273.68 65.5119 C 2284.95 61.4597 2293.09 58.1284 2304 53.3208 L 2304 163.649 C 2299.94 166.352 2294.82 170.708 2290.2 170.269 C 2286.92 167.558 2287.93 168.325 2286.32 163.684 C 2283.35 163.897 2264.5 165.877 2263.27 165.834 C 2260.28 167.977 2258.55 168.69 2257.31 172.353 C 2257.77 175.12 2258.19 177.235 2258.83 179.965 C 2255.77 183.578 2246.11 185.671 2241.57 186.528 L 2240.3 185.839 L 2240.26 176.904 L 2241.31 174.199 C 2243.08 169.555 2242.24 145.414 2242.14 138.307 C 2245.67 135.609 2249.26 132.412 2252.66 129.502 C 2254.5 139.009 2258.73 153.736 2261.71 162.831 C 2268.83 161.691 2279 161.901 2285.58 159.828 C 2280.36 143.723 2279.08 119.214 2275.46 102.444 C 2272.31 87.797 2266.01 75.8342 2259.4 62.5962 C 2264.03 63.6577 2269 64.5666 2273.68 65.5119 z" fill="rgb(255,255,255)" transform="translate(0,0)"></path>
<path d="M 2263.27 165.834 C 2264.5 165.877 2283.35 163.897 2286.32 163.684 C 2287.93 168.325 2286.92 167.558 2290.2 170.269 C 2294.82 170.708 2299.94 166.352 2304 163.649 L 2304 171.002 C 2297.65 174.251 2288.05 179.437 2281.25 181.384 C 2246.35 191.388 2211.98 202.938 2177.27 213.625 C 2172.11 215.214 2163.2 218.276 2158.03 218.441 L 2157.05 216.234 C 2159.97 209.778 2205.23 203.347 2208.96 196.29 L 2208.46 194.945 C 2206.82 190.371 2206.27 189.746 2207 185.203 C 2209.14 181.396 2211.5 179.989 2215.67 178.842 C 2216.59 177.675 2217.09 177.011 2217.91 175.841 C 2225.65 174.696 2233.48 174.147 2241.31 174.199 L 2240.26 176.904 L 2240.3 185.839 L 2241.57 186.528 C 2246.11 185.671 2255.77 183.578 2258.83 179.965 C 2258.19 177.235 2257.77 175.12 2257.31 172.353 C 2258.55 168.69 2260.28 167.977 2263.27 165.834 z" fill="rgb(22,40,26)" transform="translate(0,0)"></path>
<path d="M 2217.91 175.841 C 2225.65 174.696 2233.48 174.147 2241.31 174.199 L 2240.26 176.904 C 2231.3 176.86 2224.53 177.729 2215.67 178.842 C 2216.59 177.675 2217.09 177.011 2217.91 175.841 z" fill="rgb(201,203,201)" transform="translate(0,0)"></path>
<path d="M 1001.39 1263.29 L 1294.65 1263.21 C 1294.33 1324.26 1295.16 1386.38 1294.4 1447.28 L 1001.64 1447.63 L 1001.39 1263.29 z" fill="rgb(22,40,26)" transform="translate(0,0)"></path>
<path d="M 1019.86 1277.59 C 1105.13 1276.94 1190.4 1277.01 1275.66 1277.82 L 1275.95 1367.28 C 1275.57 1389.22 1275.53 1411.16 1275.82 1433.09 L 1020.27 1433.11 C 1020.17 1397.85 1018.4 1346.58 1020.35 1312.15 C 1020.06 1300.63 1019.89 1289.11 1019.86 1277.59 z" fill="rgb(255,255,255)" transform="translate(0,0)"></path>
<path d="M 1196.72 1308.87 C 1221.33 1330.64 1246.85 1352.46 1270.9 1374.73 C 1271.81 1391.61 1271.2 1412.15 1271.11 1429.33 L 1024.35 1429.06 C 1024.33 1423.79 1024 1395.81 1024.93 1392.83 C 1040.77 1380.82 1056.79 1369.05 1072.98 1357.52 C 1081.81 1365.37 1091.78 1373.5 1100.83 1381.2 C 1130.67 1361.04 1166.22 1331.07 1196.72 1308.87 z" fill="rgb(22,40,26)" transform="translate(0,0)"></path>
<path d="M 1194.37 1323.63 C 1197.85 1326.15 1215.16 1355.08 1218.06 1360.23 L 1198.9 1350.62 C 1197 1358.16 1194.54 1364.88 1192.62 1372.14 C 1189.21 1368.34 1187.76 1356.75 1186.49 1351.36 C 1180.18 1354.17 1173.85 1356.9 1167.48 1359.57 C 1172.73 1351.32 1187.83 1331.33 1194.37 1323.63 z" fill="rgb(255,255,255)" transform="translate(0,0)"></path>
<path d="M 2134.92 1666.54 C 2172.22 1661.52 2216.49 1674.06 2246.22 1696.33 C 2316.09 1748.66 2299.13 1836.72 2223.77 1873.19 C 2203.58 1882.96 2191.25 1885.63 2168.92 1888.66 C 2127.42 1892.24 2089.21 1884.64 2055.12 1859.6 C 2008.99 1825.72 1994.12 1765.31 2031.31 1718.72 C 2057.65 1685.72 2093.6 1671.3 2134.92 1666.54 z" fill="rgb(22,40,26)" transform="translate(0,0)"></path>
<path d="M 2126.96 1702.25 C 2188.21 1697.82 2181.95 1696.29 2181.68 1752.57 C 2195.1 1752.62 2232.99 1750.86 2242.68 1754.64 C 2246.65 1758.95 2246.37 1793.13 2243.32 1797.84 C 2235.36 1801.49 2192.91 1800.07 2182 1800.07 C 2181.66 1811.46 2183.46 1841.6 2179.25 1849.08 C 2172.99 1850.08 2132.97 1851.99 2128.04 1847.69 C 2121.32 1841.81 2123.96 1810.61 2124.01 1800.05 C 2115.59 1799.96 2069.31 1801.92 2062.39 1797.19 C 2060.07 1795.61 2059.34 1759.52 2063.03 1754.86 C 2072.79 1751.1 2111.29 1752.69 2124.05 1752.8 C 2123.91 1742.04 2121.77 1709.28 2126.96 1702.25 z" fill="rgb(255,255,255)" transform="translate(0,0)"></path>
<path d="M 1126.79 1668.76 C 1167.18 1665.1 1204.8 1672.66 1237.86 1697.27 C 1282.02 1730.15 1294.82 1789.46 1259.93 1834.14 C 1235.89 1864.94 1200.83 1878.94 1162.76 1883.71 C 1122.09 1887 1086.03 1879.49 1052.35 1855.17 C 1007.47 1822.76 994.697 1763.99 1029.7 1719.09 C 1053.66 1688.36 1088.52 1673.49 1126.79 1668.76 z" fill="rgb(22,40,26)" transform="translate(0,0)"></path>
<path d="M 1140.12 1765.76 C 1140.09 1747.96 1139.27 1729.96 1139.82 1712.27 C 1139.87 1710.7 1143.41 1710.62 1143.46 1711.31 C 1144.94 1728.72 1144.28 1747.74 1144.46 1765.45 C 1151.2 1768.96 1155.59 1769.06 1155.26 1777.32 C 1160.38 1785.22 1205.23 1792 1205.42 1798.01 C 1205.19 1798.39 1204.99 1799.02 1204.38 1798.86 C 1187.3 1794.27 1170.26 1787.45 1152.97 1782.89 C 1137.15 1791.06 1120.54 1778.55 1140.12 1765.76 z" fill="rgb(255,255,255)" transform="translate(0,0)"></path>
<path d="M 1246.9 1770.8 C 1260.76 1770.88 1262.13 1767.2 1263 1779.64 C 1257.97 1779.63 1246.79 1782.11 1246.85 1775.89 L 1246.9 1770.8 z" fill="rgb(255,255,255)" transform="translate(0,0)"></path>
<path d="M 1027.32 1770.7 C 1033.57 1770.77 1041.84 1768.12 1042.06 1775.18 L 1042.2 1779.84 C 1028.19 1779.76 1027.4 1783.23 1027.32 1770.7 z" fill="rgb(255,255,255)" transform="translate(0,0)"></path>
<path d="M 1239.29 1816.67 C 1250.42 1821.93 1253.08 1820.25 1244.39 1829.73 C 1232.36 1824.91 1232.35 1825.34 1239.29 1816.67 z" fill="rgb(255,255,255)" transform="translate(0,0)"></path>
<path d="M 1045.99 1722.89 C 1058.05 1727.55 1057.27 1727.59 1051.31 1735.85 C 1037.98 1731.99 1039.6 1732.09 1045.99 1722.89 z" fill="rgb(255,255,255)" transform="translate(0,0)"></path>
<path d="M 1139.6 1680.91 C 1151.82 1681.15 1149.74 1680.23 1149.59 1693.31 C 1137.31 1693.13 1139.58 1693.82 1139.6 1680.91 z" fill="rgb(255,255,255)" transform="translate(0,0)"></path>
<path d="M 1199.32 1848.44 C 1205.91 1852.9 1208.05 1856.72 1200.3 1859.81 L 1197.33 1860.96 C 1184.66 1854.28 1192.44 1851.63 1199.32 1848.44 z" fill="rgb(255,255,255)" transform="translate(0,0)"></path>
<path d="M 1242.92 1723.58 C 1244.74 1724.15 1250.31 1728.76 1249.46 1730.59 C 1248.66 1732.33 1242.51 1734.56 1240.4 1735.6 C 1238.05 1734.99 1238.26 1733.98 1236.64 1732.35 C 1231.2 1726.89 1237.49 1726.2 1242.92 1723.58 z" fill="rgb(255,255,255)" transform="translate(0,0)"></path>
<path d="M 1090.97 1848.98 C 1103.37 1851.65 1100.51 1852.62 1094.54 1861.23 C 1080.52 1858.7 1085.02 1856.78 1090.97 1848.98 z" fill="rgb(255,255,255)" transform="translate(0,0)"></path>
<path d="M 1139.78 1859.55 C 1151.77 1859.94 1149.52 1859.25 1149.52 1871.83 C 1137.26 1871.84 1139.58 1872.69 1139.78 1859.55 z" fill="rgb(255,255,255)" transform="translate(0,0)"></path>
<path d="M 1050.71 1816.86 C 1059.97 1824.47 1054.83 1825.6 1047.23 1829.64 C 1037.76 1820.95 1039.21 1822.09 1050.71 1816.86 z" fill="rgb(255,255,255)" transform="translate(0,0)"></path>
<path d="M 1196.53 1691.44 C 1208.64 1693.74 1206.32 1696.3 1200.2 1703.61 C 1197.66 1704.03 1192.11 1701.44 1191.52 1699.27 C 1191.03 1697.47 1195.31 1693.03 1196.53 1691.44 z" fill="rgb(255,255,255)" transform="translate(0,0)"></path>
<path d="M 1091.51 1691.62 C 1095.64 1691.88 1096.59 1694.59 1098.96 1697.78 C 1101.1 1700.66 1094.66 1702.75 1092.91 1703.66 C 1089.37 1703.05 1090.14 1702.81 1087.57 1700.09 C 1082.17 1694.39 1085.62 1694.8 1091.51 1691.62 z" fill="rgb(255,255,255)" transform="translate(0,0)"></path>
<path d="M 1144.44 2061.1 C 1147.76 2061.69 1167.2 2072.46 1172.5 2074.84 C 1206.49 2090.1 1230.47 2093.01 1266.71 2094.6 C 1267.09 2122.98 1269.37 2156.25 1261.09 2182.98 C 1244.03 2238.1 1193.43 2272.23 1145.11 2297.84 C 1113.96 2281.44 1087.85 2266.15 1063.1 2240.88 C 1016.47 2193.27 1021.34 2154.91 1021.87 2094.18 C 1078.63 2091.49 1094.16 2086.39 1144.44 2061.1 z" fill="rgb(22,40,26)" transform="translate(0,0)"></path>
<path d="M 1206.35 2129.81 C 1230.17 2129.1 1227.18 2147.81 1208.26 2159.23 C 1185.44 2173.02 1141.37 2219.77 1118.02 2227.44 C 1107.13 2225.65 1092.53 2211.24 1083.47 2203.51 C 1079.82 2200.6 1068.44 2192.43 1066.64 2186.9 C 1062.68 2174.72 1081.83 2169.37 1090.93 2175.71 C 1099.05 2181.36 1109.63 2190.4 1118.43 2197.63 C 1138.04 2183.21 1157.08 2166.42 1176.46 2151.63 C 1184.68 2145.34 1197.31 2133.71 1206.35 2129.81 z" fill="rgb(255,255,255)" transform="translate(0,0)"></path>
<path d="M 621.696 859.232 C 637.745 857.763 651.211 857.438 667.318 859.364 C 689.09 862.158 709.828 870.307 727.677 883.083 C 812.96 944.457 758.25 1044.91 667.732 1056.46 C 610.074 1067.82 525.216 1036.27 516.101 970.231 C 507.404 907.222 567.517 867.239 621.696 859.232 z" fill="rgb(22,40,26)" transform="translate(0,0)"></path>
<path d="M 630.386 871.12 C 660.621 867.267 692.625 875.439 717.359 893.09 C 761.296 924.444 766.204 980.867 724.191 1016.46 C 702.912 1034.49 682.327 1041.17 655.03 1044.67 C 649.365 1045.55 640.673 1045.54 634.944 1045.13 C 504.188 1035.65 494.579 888.723 630.386 871.12 z" fill="rgb(255,255,255)" transform="translate(0,0)"></path>
<path d="M 635.565 873.451 C 660.763 870.634 692.878 879.603 713.436 894.101 C 766.861 931.78 758.539 999.071 701.625 1027.84 C 683.599 1036.96 673.132 1039.17 652.906 1041.77 C 622.187 1044.2 591.081 1036.52 566.925 1017.41 C 516.608 977.603 532.273 911.405 587.703 886.202 C 605.549 878.087 615.742 875.485 635.565 873.451 z" fill="rgb(22,40,26)" transform="translate(0,0)"></path>
<path d="M 692.007 910.144 C 695.673 913.538 663.878 961.92 659.635 968.926 C 635.283 980.62 615.911 988.611 591.554 1002.35 C 589.794 1000.65 590.302 1000.88 591.745 998.369 C 601.996 980.556 613.212 963.611 622.642 945.31 C 630.84 941.129 637.798 938.674 645.743 934.881 C 661.407 927.401 676.823 918.544 692.007 910.144 z" fill="rgb(255,255,255)" transform="translate(0,0)"></path>
<path d="M 680.065 923.545 C 683.053 926.263 667.344 946.523 664.746 952.161 C 658.752 965.173 651.036 971.329 636.738 964.977 L 636.134 964.366 C 627.728 956.019 631.278 949.618 641.922 945.475 C 655.241 940.29 667.694 931.029 680.065 923.545 z" fill="rgb(22,40,26)" transform="translate(0,0)"></path>
<path d="M 639.515 951.693 C 648.533 951.179 655.551 951.746 650.04 962.285 L 649.588 962.338 C 640.367 963.494 634.83 961.827 639.515 951.693 z" fill="rgb(255,255,255)" transform="translate(0,0)"></path>
<path d="M 546.255 953.974 C 551.41 953.893 556.565 953.849 561.721 953.842 C 567.566 953.816 567.984 954.122 566.889 960.001 C 561.952 960.21 545.554 962.586 546.434 956.9 C 546.501 956.468 546.297 954.654 546.255 953.974 z" fill="rgb(255,255,255)" transform="translate(0,0)"></path>
<path d="M 640.673 876.943 C 644.74 877.818 647.133 877.446 647.126 881.953 C 647.115 888.234 647.835 890.476 645.756 896.154 C 639.12 893.682 639.988 894.903 639.754 888.19 C 639.569 882.883 639.208 881.923 640.673 876.943 z" fill="rgb(255,255,255)" transform="translate(0,0)"></path>
<path d="M 735.407 959.586 C 732.512 960.714 720.814 961.701 719.219 958.95 C 714.515 950.837 732.278 953.418 735.256 954.895 C 735.324 956.458 735.375 958.022 735.407 959.586 z" fill="rgb(255,255,255)" transform="translate(0,0)"></path>
<path d="M 640.475 1021.19 C 650.401 1023.62 647.628 1026.18 647.602 1037.36 C 637.295 1036.31 638.56 1033.07 640.475 1021.19 z" fill="rgb(255,255,255)" transform="translate(0,0)"></path>
<path d="M 738.843 956.529 C 743.912 953.223 745.533 961.335 737.886 958.872 L 738.843 956.529 z" fill="rgb(201,203,201)" transform="translate(0,0)"></path>
<path d="M 698.56 893.791 C 698.715 893.685 700.373 892.177 700.729 893.073 C 700.59 893.959 699.984 894.264 699.28 894.913 C 698.482 895.215 698.034 895.541 697.266 895.349 C 697.229 895.233 697.192 895.118 697.155 895.003 C 697.507 894.388 697.877 894.279 698.56 893.791 z" fill="rgb(201,203,201)" transform="translate(0,0)"></path>
<path d="M 560.155 998.05 C 560.499 997.942 561.121 997.668 561.542 997.816 C 561.811 997.91 561.864 998.033 561.907 998.229 C 562.023 998.754 561.347 999.583 561.159 999.886 C 557.148 1000.82 558.863 999.675 560.155 998.05 z" fill="rgb(201,203,201)" transform="translate(0,0)"></path>
<path d="M 697.503 1017.76 C 698.286 1018.18 700.026 1018.8 700.439 1019.69 C 700.503 1019.83 700.499 1019.98 700.429 1020.11 C 700.128 1020.7 698.727 1020.81 698.362 1020.88 C 695.626 1022.01 694.926 1021.62 696.703 1018.98 L 697.503 1017.76 z" fill="rgb(201,203,201)" transform="translate(0,0)"></path>
<path d="M 577.141 900.184 C 578.007 899.981 579.094 899.426 579.879 899.955 C 579.295 900.392 578.711 900.829 578.127 901.266 C 577.554 901.293 575.826 901.518 575.585 900.895 C 575.869 900.417 576.684 900.319 577.141 900.184 z" fill="rgb(201,203,201)" transform="translate(0,0)"></path>
<path d="M 589.064 890.4 C 590.085 891.003 591.792 891.62 592.203 892.673 C 591.844 893.33 590.902 893.48 590.258 893.71 C 586.134 895.574 587.836 892.888 589.064 890.4 z" fill="rgb(201,203,201)" transform="translate(0,0)"></path>
<path d="M 589.926 1021.59 C 590.51 1021.27 590.806 1020.96 591.361 1021.01 C 591.648 1021.49 591.503 1021.91 591.483 1022.57 C 590.954 1022.92 590.353 1023.5 589.717 1023.5 C 589.483 1022.92 589.8 1022.19 589.926 1021.59 z" fill="rgb(201,203,201)" transform="translate(0,0)"></path>
<path d="M 578.567 1015.81 C 579.707 1015.46 580.553 1015.05 581.691 1015.17 C 581.743 1015.27 581.795 1015.37 581.846 1015.47 C 581.436 1016.08 580.999 1016.42 580.417 1016.92 C 578.045 1018.02 578.138 1017.81 578.567 1015.81 z" fill="rgb(201,203,201)" transform="translate(0,0)"></path>
<path d="M 615.513 883.663 C 616.384 883.424 616.878 883.096 617.595 883.477 C 617.691 884.649 616.463 884.613 615.395 884.873 C 614.795 884.97 614.072 885.252 613.555 884.88 C 613.555 883.955 614.787 883.859 615.513 883.663 z" fill="rgb(201,203,201)" transform="translate(0,0)"></path>
<path d="M 616.241 1030.86 C 619.765 1029.31 617.543 1031.43 616.808 1032.41 C 616.089 1032.67 615.818 1032.89 615.149 1032.75 C 614.585 1031.89 615.694 1031.54 616.241 1030.86 z" fill="rgb(201,203,201)" transform="translate(0,0)"></path>
<path d="M 602.523 1027.28 C 603.037 1027.1 603.818 1026.68 604.401 1026.79 C 604.454 1027.32 603.945 1027.92 603.705 1028.34 C 603.064 1028.39 602.31 1028.62 601.698 1028.38 C 601.729 1027.98 602.028 1027.81 602.523 1027.28 z" fill="rgb(201,203,201)" transform="translate(0,0)"></path>
<path d="M 687.127 1025.27 C 687.844 1024.97 688.375 1024.66 688.919 1024.94 C 688.852 1025.56 688.036 1025.76 687.373 1026.21 C 686.569 1026.89 686.422 1027.3 685.544 1027.39 L 685.487 1027.27 C 685.619 1026.32 686.428 1025.89 687.127 1025.27 z" fill="rgb(201,203,201)" transform="translate(0,0)"></path>
<path d="M 730.563 988.019 C 731.168 987.882 731.847 987.553 732.464 987.699 C 732.511 988.081 732.328 988.207 731.905 988.902 C 731.209 989.123 730.412 989.582 729.672 989.492 C 729.659 988.971 730.367 988.284 730.563 988.019 z" fill="rgb(201,203,201)" transform="translate(0,0)"></path>
<path d="M 671.872 884.146 C 672.44 883.895 673.055 883.457 673.679 883.499 C 673.871 883.943 673.645 884.296 673.508 884.841 C 673.207 885.055 671.99 885.771 671.813 885.875 C 671.549 885.37 671.793 884.724 671.872 884.146 z" fill="rgb(201,203,201)" transform="translate(0,0)"></path>
<path d="M 658.032 881.146 C 658.781 880.996 659.06 880.786 659.693 881.101 C 659.704 881.736 659.076 882.117 658.501 882.793 C 657.388 883.158 657.521 883.328 656.632 882.882 C 656.663 882.214 657.358 881.846 658.032 881.146 z" fill="rgb(201,203,201)" transform="translate(0,0)"></path>
<path d="M 735.513 977.961 C 736.162 977.677 736.525 977.396 737.151 977.5 C 737.71 978.382 736.364 979.026 735.822 979.719 C 734.6 979.952 735.152 980.109 734.208 979.66 C 734.258 978.837 734.807 978.606 735.513 977.961 z" fill="rgb(201,203,201)" transform="translate(0,0)"></path>
<path d="M 686.464 888.676 C 687.042 888.429 687.557 888.072 688.157 888.182 C 688.315 888.605 688.251 888.317 688.266 889.15 C 687.444 889.851 687.099 890.039 686.444 890.518 C 686.146 890.006 686.401 889.239 686.464 888.676 z" fill="rgb(165,167,166)" transform="translate(0,0)"></path>
<path d="M 658.328 1032.68 C 658.908 1032.42 659.429 1032.18 660.02 1032.09 C 660.25 1032.51 660.088 1032.78 660.008 1033.37 C 659.694 1033.59 658.491 1034.28 658.308 1034.38 C 658.034 1033.88 658.258 1033.28 658.328 1032.68 z" fill="rgb(165,167,166)" transform="translate(0,0)"></path>
<path d="M 553.987 988.903 C 554.408 988.637 554.994 988.115 555.531 988.097 C 555.675 988.505 555.467 988.859 555.256 989.603 C 554.889 989.901 554.398 990.468 553.89 990.522 C 553.677 990.064 553.917 989.365 553.987 988.903 z" fill="rgb(201,203,201)" transform="translate(0,0)"></path>
<path d="M 568.184 909.264 C 568.561 909.11 568.938 908.957 569.315 908.804 C 569.518 909.198 569.375 909.599 569.33 910.099 C 568.952 910.239 568.575 910.379 568.197 910.52 C 568.103 910.021 568.137 910.379 568.184 909.264 z" fill="rgb(201,203,201)" transform="translate(0,0)"></path>
<path d="M 724.048 998.009 C 724.427 997.871 725.375 997.394 725.947 997.452 C 725.648 997.897 725.349 998.342 725.05 998.787 C 724.676 998.885 723.754 999.233 723.214 999.172 L 723.199 999.017 C 723.482 998.681 723.765 998.345 724.048 998.009 z" fill="rgb(201,203,201)" transform="translate(0,0)"></path>
<path d="M 601.509 887.91 C 601.977 887.766 602.537 887.477 603.016 887.58 C 603.072 887.933 602.906 888.078 602.564 888.739 C 601.699 888.995 601.064 889.121 600.3 889.305 C 600.703 888.84 601.106 888.375 601.509 887.91 z" fill="rgb(201,203,201)" transform="translate(0,0)"></path>
<path d="M 738.058 945.235 C 738.4 945.117 738.742 944.999 739.084 944.881 C 739.28 945.262 739.156 945.607 739.119 946.108 C 738.351 946.707 738.652 946.545 738.172 946.732 L 738.068 946.65 C 737.976 946.082 738.008 946.487 738.058 945.235 z" fill="rgb(201,203,201)" transform="translate(0,0)"></path>
<path d="M 734.06 932.705 C 734.334 932.633 735.786 932.364 735.948 932.334 C 736.035 932.819 735.675 933.217 735.434 933.686 C 734.785 933.789 734.021 934.069 733.39 933.876 C 733.369 933.417 733.777 933.091 734.06 932.705 z" fill="rgb(165,167,166)" transform="translate(0,0)"></path>
<path d="M 628.94 881.123 C 629.359 880.945 629.779 880.766 630.198 880.587 C 630.291 880.944 630.078 881.178 629.748 881.882 C 629.026 882.052 628.303 882.221 627.581 882.391 C 627.656 881.965 628.912 881.145 628.94 881.123 z" fill="rgb(201,203,201)" transform="translate(0,0)"></path>
<path d="M 569.112 1007.11 C 569.531 1006.97 570.043 1006.71 570.408 1006.79 C 570.508 1007.13 570.387 1007.25 570.156 1007.94 C 569.29 1008.16 568.652 1008.27 567.885 1008.42 C 568.294 1007.98 568.703 1007.55 569.112 1007.11 z" fill="rgb(201,203,201)" transform="translate(0,0)"></path>
<path d="M 631.183 1032.82 C 631.518 1032.85 631.853 1032.89 632.188 1032.93 C 632.238 1033.4 632.235 1033.1 632.142 1033.9 C 631.998 1033.94 631.854 1033.98 631.711 1034.03 C 631.223 1034.18 630.23 1034.63 629.595 1034.53 C 630.124 1033.96 630.654 1033.39 631.183 1032.82 z" fill="rgb(201,203,201)" transform="translate(0,0)"></path>
<path d="M 547.164 966.787 C 547.927 966.649 548.162 966.519 548.502 966.684 C 548.445 967.184 547.951 967.664 547.664 968.059 C 547.343 968.134 546.536 968.466 546.089 968.283 C 546.193 967.751 546.875 967.132 547.164 966.787 z" fill="rgb(201,203,201)" transform="translate(0,0)"></path>
<path d="M 719.437 910.233 C 719.711 910.188 721.061 910.068 721.223 910.054 C 721.293 910.497 721.004 910.767 720.756 911.22 C 720.106 911.306 719.361 911.587 718.723 911.384 C 718.718 910.994 718.933 910.874 719.437 910.233 z" fill="rgb(201,203,201)" transform="translate(0,0)"></path>
<path d="M 549.199 977.832 C 549.578 977.65 549.956 977.468 550.335 977.286 C 550.525 977.702 550.349 978.208 550.289 978.687 C 549.433 978.997 549.758 978.928 549.249 978.983 L 549.14 978.876 C 549.081 978.459 549.092 978.757 549.199 977.832 z" fill="rgb(201,203,201)" transform="translate(0,0)"></path>
<path d="M 558.469 919.216 C 558.908 919.088 559.903 918.671 560.485 918.76 C 560.162 919.19 559.839 919.619 559.516 920.049 C 559.059 920.17 558.4 920.434 558.009 920.341 C 557.958 919.994 558.121 919.861 558.469 919.216 z" fill="rgb(201,203,201)" transform="translate(0,0)"></path>
<path d="M 547.92 941.768 C 548.27 941.679 548.621 941.59 548.972 941.501 C 549.027 941.893 549.021 941.634 548.923 942.349 C 548.623 942.62 548.324 942.891 548.025 943.163 L 547.946 943.111 C 547.843 942.585 547.883 942.965 547.92 941.768 z" fill="rgb(165,167,166)" transform="translate(0,0)"></path>
<path d="M 727.436 920.564 C 727.755 920.493 728.324 920.231 728.693 920.424 C 728.237 921.128 728.054 921.396 727.477 922.127 C 726.713 922.179 726.503 922.282 726.204 922.071 C 726.546 921.489 726.943 921.084 727.436 920.564 z" fill="rgb(201,203,201)" transform="translate(0,0)"></path>
<path d="M 707.579 1014 C 708.132 1013.94 708.686 1013.88 709.24 1013.82 C 708.792 1014.11 708.344 1014.4 707.897 1014.7 C 707.598 1014.66 706.501 1014.55 706.218 1014.42 C 706.671 1014.28 707.125 1014.14 707.579 1014 z" fill="rgb(201,203,201)" transform="translate(0,0)"></path>
<path d="M 710.495 901.42 C 711.421 901.424 711.112 901.357 711.554 901.522 C 711.476 901.952 710.758 902.663 710.42 903.037 C 710.088 903.089 709.504 903.318 709.142 903.099 C 709.652 902.404 709.859 902.136 710.495 901.42 z" fill="rgb(201,203,201)" transform="translate(0,0)"></path>
<path d="M 551.837 929.907 C 552.859 929.555 552.674 929.247 553.478 929.953 C 553.063 930.364 552.708 930.869 552.204 930.904 C 551.968 930.564 552.106 930.827 551.837 929.907 z" fill="rgb(165,167,166)" transform="translate(0,0)"></path>
<path d="M 583.772 1306.44 C 586.51 1300.63 592.914 1285.02 600.247 1283.6 C 620.234 1279.73 643.136 1282.72 663.317 1282.02 C 695.941 1280.88 691.99 1284.07 705.749 1308.31 C 718.848 1308.41 770.328 1302.99 771.073 1321.13 C 772.48 1355.46 771.526 1390.7 772.498 1425.19 C 772.637 1429.86 771.069 1439.19 767.237 1440.77 C 751.715 1447.15 710.987 1444.86 696.432 1444.85 L 595.2 1444.76 L 540.53 1444.76 C 532.142 1444.76 521.416 1445.32 513.254 1444.11 C 503.119 1442.61 499.481 1434.67 499.277 1425.34 C 498.653 1396.97 499.687 1368.52 499.187 1340.17 C 498.895 1323.65 495.651 1313.76 513.632 1307.03 C 519.62 1308.45 576.967 1308 583.772 1306.44 z" fill="rgb(22,40,26)" transform="translate(0,0)"></path>
<path d="M 633.759 1316.56 C 724.044 1308.19 750.067 1413.16 655.02 1429.66 C 560.788 1437.54 539.124 1332.25 633.759 1316.56 z" fill="rgb(255,255,255)" transform="translate(0,0)"></path>
<path d="M 638.249 1327.94 C 712.274 1324.04 724.123 1407.66 651.443 1418.22 C 633.929 1419.25 620.275 1417.44 605.461 1407.06 C 586.297 1393.63 580.203 1367.54 595.662 1348.72 C 606.893 1335.04 621.306 1330.07 638.249 1327.94 z" fill="rgb(22,40,26)" transform="translate(0,0)"></path>
<path d="M 614.696 1339.16 C 623.065 1342.96 616.017 1343.87 616.966 1345.04 C 619.948 1349.62 629.245 1354.87 632.224 1359.12 C 638.361 1367.88 653.069 1369.66 648.491 1379.99 C 642.438 1378.28 640.781 1374.64 636.095 1370.33 C 627.989 1362.86 619.937 1355.31 612.725 1346.98 C 609.698 1343.48 609.553 1343.68 613.023 1340.68 L 614.696 1339.16 z" fill="rgb(255,255,255)" transform="translate(0,0)"></path>
<path d="M 611.517 1401.23 C 612.311 1400.27 613.588 1399.85 614.797 1400.16 C 616.005 1400.46 616.928 1401.44 617.167 1402.67 C 617.405 1403.89 616.916 1405.14 615.911 1405.88 C 614.6 1406.84 612.777 1406.68 611.659 1405.5 C 610.542 1404.31 610.481 1402.48 611.517 1401.23 z" fill="rgb(255,255,255)" transform="translate(0,0)"></path>
<path d="M 594.508 1369.94 C 595.732 1369.15 597.346 1369.32 598.379 1370.35 C 599.412 1371.38 599.584 1372.99 598.792 1374.22 C 598.107 1375.28 596.847 1375.82 595.608 1375.58 C 594.369 1375.34 593.399 1374.37 593.157 1373.13 C 592.916 1371.89 593.45 1370.63 594.508 1369.94 z" fill="rgb(201,203,201)" transform="translate(0,0)"></path>
<path d="M 596.847 1380.76 C 598.349 1380.12 600.091 1380.82 600.727 1382.32 C 601.363 1383.83 600.65 1385.57 599.139 1386.19 C 597.643 1386.81 595.928 1386.11 595.298 1384.61 C 594.668 1383.12 595.36 1381.4 596.847 1380.76 z" fill="rgb(255,255,255)" transform="translate(0,0)"></path>
<path d="M 622.71 1407.54 C 627.87 1407.05 629.6 1406.47 630.387 1411.94 C 626.083 1411.1 623.214 1411.91 622.71 1407.54 z" fill="rgb(255,255,255)" transform="translate(0,0)"></path>
<path d="M 688.412 1380.79 C 689.45 1379.91 690.982 1379.93 691.988 1380.85 C 692.994 1381.77 693.16 1383.29 692.374 1384.41 C 691.771 1385.26 690.726 1385.69 689.695 1385.51 C 688.663 1385.33 687.829 1384.57 687.555 1383.56 C 687.28 1382.55 687.614 1381.47 688.412 1380.79 z" fill="rgb(255,255,255)" transform="translate(0,0)"></path>
<path d="M 650.09 1333.23 C 651.398 1333.17 657.886 1331.88 655.694 1335.01 L 654.972 1336.1 C 651.504 1336.77 651.353 1336.51 650.09 1333.23 z" fill="rgb(255,255,255)" transform="translate(0,0)"></path>
<path d="M 596.405 1359.6 C 597.21 1358.99 598.289 1358.9 599.19 1359.35 C 600.09 1359.8 600.657 1360.72 600.652 1361.73 C 600.648 1362.74 600.072 1363.66 599.167 1364.1 C 597.94 1364.7 596.457 1364.27 595.742 1363.11 C 595.027 1361.94 595.314 1360.42 596.405 1359.6 z" fill="rgb(255,255,255)" transform="translate(0,0)"></path>
<path d="M 683.097 1390.95 C 684.062 1389.87 685.725 1389.77 686.813 1390.73 C 687.901 1391.69 688.004 1393.35 687.043 1394.44 C 686.08 1395.54 684.412 1395.64 683.321 1394.67 C 682.23 1393.71 682.13 1392.04 683.097 1390.95 z" fill="rgb(255,255,255)" transform="translate(0,0)"></path>
<path d="M 640.334 1331.56 C 644.668 1333.85 644.368 1334.33 640.913 1337.85 C 636.348 1334.84 635.558 1334.66 640.334 1331.56 z" fill="rgb(255,255,255)" transform="translate(0,0)"></path>
<path d="M 683.334 1347.83 L 684.634 1348.92 C 690.188 1353.52 688.376 1356.36 681.76 1352.62 C 682.307 1351.03 682.831 1349.43 683.334 1347.83 z" fill="rgb(255,255,255)" transform="translate(0,0)"></path>
<path d="M 602.059 1349.46 C 603.169 1349.64 605.946 1349.73 606.734 1350.64 C 606.861 1351.63 606.255 1352.55 605.844 1353.42 L 605.166 1355.14 C 602.446 1354.49 600.043 1354.46 601.411 1351.13 L 602.059 1349.46 z" fill="rgb(255,255,255)" transform="translate(0,0)"></path>
<path d="M 676.624 1398.87 C 677.912 1398.74 679.101 1399.57 679.413 1400.83 C 679.726 1402.08 679.068 1403.38 677.868 1403.87 C 676.924 1404.25 675.841 1404.05 675.099 1403.35 C 674.357 1402.65 674.091 1401.58 674.419 1400.62 C 674.747 1399.65 675.609 1398.97 676.624 1398.87 z" fill="rgb(201,203,201)" transform="translate(0,0)"></path>
<path d="M 690.38 1370.83 C 691.102 1370.18 692.127 1370 693.03 1370.35 C 693.932 1370.71 694.558 1371.54 694.647 1372.5 C 694.737 1373.47 694.275 1374.4 693.454 1374.92 C 692.324 1375.62 690.84 1375.35 690.039 1374.28 C 689.238 1373.22 689.386 1371.72 690.38 1370.83 z" fill="rgb(255,255,255)" transform="translate(0,0)"></path>
<path d="M 652.183 1410.64 C 654.412 1409.37 656.45 1408.08 656.892 1411.66 L 657.092 1412.96 C 654.645 1413.05 650.432 1414.31 651.563 1411.42 L 652.183 1410.64 z" fill="rgb(255,255,255)" transform="translate(0,0)"></path>
<path d="M 623.337 1335.27 C 628.118 1335.07 630.663 1333.78 629.27 1339.11 C 626.482 1339.25 623.687 1340.3 623.462 1336.66 L 623.337 1335.27 z" fill="rgb(201,203,201)" transform="translate(0,0)"></path>
<path d="M 638.559 1410.15 C 639.503 1409.14 641.084 1409.08 642.107 1410.01 C 643.13 1410.94 643.215 1412.52 642.297 1413.55 C 641.693 1414.23 640.769 1414.54 639.878 1414.35 C 638.988 1414.16 638.269 1413.5 637.995 1412.63 C 637.722 1411.77 637.937 1410.82 638.559 1410.15 z" fill="rgb(255,255,255)" transform="translate(0,0)"></path>
<path d="M 690.134 1360.66 C 693.409 1359.38 693.185 1360.98 691.227 1363.07 C 688.166 1364.34 687.936 1362.78 690.134 1360.66 z" fill="rgb(255,255,255)" transform="translate(0,0)"></path>
<path d="M 676.12 1346.57 C 673.487 1342.01 675.445 1341.29 679.653 1343.13 C 678.623 1345.56 678.613 1345.33 676.12 1346.57 z" fill="rgb(255,255,255)" transform="translate(0,0)"></path>
<path d="M 665.125 1337.72 C 667.547 1336.56 668.445 1336.44 667.886 1339.45 C 665.748 1341.34 664.951 1339.95 665.125 1337.72 z" fill="rgb(255,255,255)" transform="translate(0,0)"></path>
<path d="M 665.088 1404.63 C 666.26 1405.12 667.933 1405.53 668.46 1406.83 C 667.978 1407.84 666.9 1407.47 665.861 1407.65 C 665.255 1407.94 663.728 1409.14 663.067 1408.31 C 662.911 1407.4 663.648 1406.53 664.168 1405.87 L 665.088 1404.63 z" fill="rgb(255,255,255)" transform="translate(0,0)"></path>
<path d="M 739.034 1319.9 C 744.105 1319.8 755.453 1318.61 756.549 1325.49 C 758.476 1337.59 759.775 1340 748.904 1343.11 C 735.945 1343.41 726.442 1344.82 731.022 1324.09 C 731.507 1321.9 737.189 1320.47 739.034 1319.9 z" fill="rgb(255,255,255)" transform="translate(0,0)"></path>
<path d="M 1589.18 828.173 C 1609.21 827.44 1695.96 825.692 1710.91 830.095 C 1716.85 831.845 1724.6 835.337 1727.33 841.318 C 1729.52 846.107 1730.02 853.954 1730.31 859.23 C 1732.13 892.306 1730.54 926.325 1730.51 959.49 C 1730.49 984.757 1732.37 1011.74 1730.13 1036.85 C 1729.77 1040.77 1729.25 1043.83 1727.38 1047.3 C 1722.76 1055.93 1714.63 1059.24 1705.8 1061.97 L 1631.77 1061.9 C 1558.25 1061.78 1563.78 1060.11 1563.95 987.305 C 1564.05 942.847 1563.7 897.099 1564.15 852.537 C 1564.31 837.153 1576.22 831.682 1589.18 828.173 z" fill="rgb(22,40,26)" transform="translate(0,0)"></path>
<path d="M 1581.72 859.728 C 1625.57 860.138 1669.58 859.248 1713.43 859.973 L 1713.4 966.378 C 1713.43 975.624 1714.73 1021.03 1711.64 1025.8 L 1631.09 1025.97 C 1620.48 1025.99 1591.43 1026.8 1582.43 1024.41 C 1580.49 1013.31 1581.11 993.577 1581.21 982.03 L 1581.46 926.047 C 1581.45 914.949 1580.37 868.133 1581.72 859.728 z" fill="rgb(255,255,255)" transform="translate(0,0)"></path>
<path d="M 1593.47 917.742 C 1601.78 917.639 1623.04 918.337 1629.73 916.364 C 1629.96 915.668 1630.19 914.973 1630.41 914.278 C 1630.39 903.751 1643.07 904.16 1646.77 895.441 C 1649.46 889.094 1644.8 886.401 1641.09 881.908 L 1641.38 879.806 C 1646.05 876.272 1650.22 879.027 1655.13 875.973 C 1657.24 871.773 1657.9 868.535 1662.77 867.819 L 1665.96 870.568 C 1669.88 879.779 1676.28 878.42 1685.25 879.025 C 1680.67 884.449 1674.06 889.584 1675.5 895.089 C 1676.24 897.926 1676.38 900.145 1675.26 902.312 C 1672.22 901.955 1673.27 902.344 1670.63 900.908 C 1667.15 899.415 1663.07 897.257 1659.52 898.429 C 1640.17 904.821 1635.02 912.454 1644.85 931.177 C 1647.57 936.355 1651.33 944.944 1653.87 950.322 C 1668.64 950.053 1664.24 951.801 1678.16 956.18 C 1680.21 956.827 1690.27 956.485 1693.12 956.369 C 1693.24 965.217 1695.29 1003.67 1690.47 1009.32 L 1688 1008.27 C 1684.59 1002.8 1686.24 970.811 1686.31 962.525 C 1683.92 962.529 1673.85 962.53 1672.22 962.003 C 1660.74 958.275 1661.03 955.801 1648.48 956.446 C 1642.66 945.827 1637.86 933.631 1633.11 922.408 L 1600.75 923.841 C 1600.71 932.923 1602.98 969.67 1599 974.113 L 1595.61 973.817 C 1592.04 969.734 1593.52 926.243 1593.47 917.742 z" fill="rgb(22,40,26)" transform="translate(0,0)"></path>
<path d="M 1661.76 873.562 C 1663.41 876.492 1664.44 880.482 1667.83 881.635 C 1670.31 882.478 1679.35 881.175 1671.8 885.98 C 1668.88 887.837 1668.61 888.936 1670.34 892.159 C 1671.34 893.864 1671 894.737 1670.3 896.724 C 1661.47 891.204 1663.47 891.562 1654.38 895.327 C 1653.28 895.784 1652.58 893.712 1653.32 892.783 C 1657.3 887.798 1648.08 884.073 1648.67 882.63 C 1656.71 878.254 1654.42 888.191 1661.76 873.562 z" fill="rgb(255,255,255)" transform="translate(0,0)"></path>
<path d="M 1641.39 1030.61 C 1661.68 1028.92 1672.48 1043.17 1654.47 1054.36 C 1634.19 1057.56 1622.81 1042.72 1641.39 1030.61 z" fill="rgb(255,255,255)" transform="translate(0,0)"></path>
<path d="M 1642.11 1033.91 C 1657.84 1033.02 1665.71 1042.43 1651.57 1051.76 C 1637.82 1051.84 1630.12 1044.28 1642.11 1033.91 z" fill="rgb(22,40,26)" transform="translate(0,0)"></path>
<path d="M 1628.65 846.341 C 1640.1 845.137 1652.93 846.057 1664.53 845.78 C 1667.72 845.703 1667.52 847.231 1667.24 849.835 C 1661 849.918 1630.57 852.48 1629.01 847.438 L 1628.65 846.341 z" fill="rgb(255,255,255)" transform="translate(0,0)"></path>
<path d="M 1643.47 2084.95 C 1657.25 2083.06 1663.01 2084.78 1671.01 2096.26 C 1711.88 2154.96 1753.22 2213.34 1794.08 2272.05 C 1795.54 2274.15 1796.8 2276.6 1797.08 2279.18 C 1797.5 2283.31 1796.08 2287.43 1793.18 2290.41 C 1783.1 2300.67 1752.64 2297.74 1738.16 2297.71 L 1659.94 2297.53 L 1575.23 2297.63 C 1542.28 2297.71 1474.74 2306.2 1522.21 2251.93 C 1545.05 2225.83 1623.64 2095.48 1643.47 2084.95 z" fill="rgb(22,40,26)" transform="translate(0,0)"></path>
<path d="M 1639.57 2139.04 C 1644.67 2138.81 1649.77 2138.7 1654.87 2138.71 C 1658.15 2138.73 1671.43 2139.81 1671.73 2143.79 C 1672.92 2159.7 1672.06 2222.27 1661.57 2231.18 C 1655.86 2232.52 1651.09 2233.25 1645.33 2231.8 C 1642.62 2231.12 1639.16 2229.68 1637.78 2227.06 C 1635.13 2222.04 1628.2 2151.51 1630.34 2146.05 C 1631.83 2142.25 1636.06 2140.46 1639.57 2139.04 z" fill="rgb(255,255,255)" transform="translate(0,0)"></path>
<path d="M 1646.25 2243.24 C 1672.24 2240.49 1681.21 2264.65 1656.85 2274.03 L 1656.34 2274.06 C 1630.6 2275.44 1622.31 2252.94 1646.25 2243.24 z" fill="rgb(255,255,255)" transform="translate(0,0)"></path>
<path d="M 1097.55 828.129 C 1119.3 827.336 1184.97 824.629 1202.72 831.928 C 1211.05 835.352 1217.86 841.307 1221.17 849.84 C 1224.73 859.041 1223.43 1010.67 1222.55 1027.76 C 1222.33 1032 1222.1 1036.13 1220.2 1040.01 C 1214.83 1050.95 1205 1056.21 1193.92 1059.73 C 1188.78 1060.68 1181.09 1060.86 1175.82 1060.74 C 1152.02 1060.19 1127.75 1061.69 1104.03 1060.65 C 1083.7 1059.51 1068.28 1046.71 1068.44 1025.57 C 1068.88 969.358 1068.23 913.211 1068.63 857.021 C 1068.76 839.15 1082.35 832.313 1097.55 828.129 z" fill="rgb(22,40,26)" transform="translate(0,0)"></path>
<path d="M 1095.6 848.542 C 1110.94 847.932 1195.01 847.238 1203.22 851.321 C 1209.16 870.655 1203.09 924.98 1205.22 949.05 C 1205.87 956.421 1205.56 1012.16 1204.4 1015.61 C 1201.19 1018.22 1202.04 1017.4 1197.28 1018.04 L 1130.49 1018.02 C 1119.85 1018.03 1097.08 1018.75 1087.4 1016.45 C 1085.75 1011.95 1084.61 860.1 1086.63 852.29 C 1089.65 849.446 1091.56 849.44 1095.6 848.542 z" fill="rgb(255,255,255)" transform="translate(0,0)"></path>
<path d="M 1101.3 862.294 L 1190.23 862.153 L 1190.28 969.667 L 1100.58 969.427 C 1100.55 957.382 1099.5 866.826 1101.3 862.294 z" fill="rgb(22,40,26)" transform="translate(0,0)"></path>
<path d="M 1161.02 868.823 C 1171.57 873.172 1162.39 879.343 1156.82 883.002 C 1150.36 883.25 1145.53 883.489 1139.11 884.192 C 1137.54 887.751 1136.15 891.143 1134.65 894.72 L 1129.37 896.202 C 1127.74 896.658 1113.14 899.762 1118.54 905.372 C 1120.72 907.637 1131.19 906.489 1134.74 906.411 C 1132.45 915.755 1131.19 919.498 1127.38 928.129 L 1125.89 931.558 C 1137.82 931.731 1149.72 931.494 1161.63 932.077 L 1167.24 951.034 C 1173.65 954.723 1173.26 953.821 1179 958.625 C 1173.15 964.459 1174.31 961.009 1170.39 957.848 C 1159.89 949.399 1162.94 949.466 1158.73 934.607 C 1146.43 934.785 1134.12 934.635 1121.83 934.156 C 1123.97 927.477 1127.28 920.802 1128.53 914.041 C 1128.87 912.1 1129.22 908.494 1125.57 909.339 C 1116.2 911.51 1110.58 905.476 1117.17 897.653 C 1118.66 895.876 1128.98 893.027 1132.18 892.12 C 1133.69 888.523 1134.96 884.906 1136.5 881.226 C 1151.02 880.187 1156.93 883.824 1160.72 869.908 L 1161.02 868.823 z" fill="rgb(255,255,255)" transform="translate(0,0)"></path>
<path d="M 1139.44 1026.04 C 1159.19 1024.22 1170.67 1038.23 1152.1 1049.57 C 1130.8 1051.54 1121.3 1037.13 1139.44 1026.04 z" fill="rgb(255,255,255)" transform="translate(0,0)"></path>
<path d="M 1139.52 837.363 C 1145.1 836.704 1153.44 834.314 1154.25 841.144 C 1148.57 841.733 1140.65 844.047 1139.52 837.363 z" fill="rgb(255,255,255)" transform="translate(0,0)"></path>
<path d="M 134.533 1242.42 C 197.346 1236.51 266.19 1289.77 235.535 1353.95 C 218.043 1390.57 175.053 1441.36 149.668 1474.46 C 147.282 1477.6 146.752 1478.72 143.278 1480.72 C 138.081 1476.07 125.201 1459.76 119.988 1453.11 C 98.4363 1425.18 74.5681 1398.82 57.2208 1367.93 C 19.1071 1300.06 65.9667 1250.46 134.533 1242.42 z" fill="rgb(22,40,26)" transform="translate(0,0)"></path>
<path d="M 131.732 1267.09 C 137.886 1266.65 142.777 1266.53 149.034 1266.79 C 203.31 1269.06 241.436 1330.08 183.502 1364.06 C 174.17 1369.53 165.218 1371.57 154.314 1373.58 C 134.058 1375.33 116.505 1372.78 98.6778 1362.17 C 75.3212 1348.37 64.5119 1319.57 80.9548 1296.02 C 93.3666 1278.23 111.346 1270.95 131.732 1267.09 z" fill="rgb(255,255,255)" transform="translate(0,0)"></path>
<path d="M 142.001 1283.06 C 145.354 1286.02 152.626 1303.06 155.348 1308.16 L 187.766 1309.55 C 177.933 1316.76 172.382 1320.86 161.996 1327.31 C 164.936 1336.42 167.96 1345.17 171.298 1354.16 C 161.455 1349.59 153.074 1344.84 143.557 1339.68 C 140.042 1339.63 118.444 1351.88 113.687 1354.28 C 116.934 1344.97 119.101 1337.05 122.691 1327.57 C 113.87 1321.41 105.372 1315.42 96.334 1309.57 L 129.641 1308.06 C 134.112 1298.9 137.186 1292.16 142.001 1283.06 z" fill="rgb(22,40,26)" transform="translate(0,0)"></path>
<path d="M 2136.96 823.914 C 2187.69 818.619 2250.93 845.482 2251.01 904.524 C 2251.07 953.789 2195.94 1014.49 2161.53 1047.41 C 2159.07 1050.2 2155.73 1053.03 2152.91 1055.56 C 2118.68 1023.66 2063 960.642 2053.99 914.064 C 2044.29 863.945 2092.56 830.809 2136.96 823.914 z" fill="rgb(22,40,26)" transform="translate(0,0)"></path>
<path d="M 2139.4 848.575 C 2159.65 847.061 2175.04 848.16 2193.27 858.484 C 2217.41 872.153 2230.38 902.213 2213.82 926.913 C 2202.13 944.336 2186.15 951.235 2166.47 955.597 C 2133.87 959.447 2093.22 948.523 2084.93 911.995 C 2082.28 900.138 2084.51 887.716 2091.1 877.513 C 2102.09 860.264 2120.28 852.599 2139.4 848.575 z" fill="rgb(255,255,255)" transform="translate(0,0)"></path>
<path d="M 2148.73 873.246 C 2191.47 872.277 2205.75 917.461 2158.06 929.487 C 2107.43 930.233 2100.47 882.08 2148.73 873.246 z" fill="rgb(22,40,26)" transform="translate(0,0)"></path>
<path d="M 2168.05 889.472 C 2169.09 889.776 2172.3 891.276 2170.46 892.79 C 2162.64 899.251 2154.25 906.658 2145.91 912.254 C 2144.83 912.978 2139.1 908.37 2138.23 907.753 C 2136.44 906.477 2133.29 904.209 2137.5 903.081 C 2140.07 902.388 2142.5 907.333 2144.48 907.354 C 2147.57 907.386 2151.63 902.459 2154.17 900.943 C 2158.92 897.503 2163.64 893.364 2168.05 889.472 z" fill="rgb(255,255,255)" transform="translate(0,0)"></path>
<path d="M 1996.23 533.307 C 1996.65 509.811 2001.8 492.323 2019.75 475.69 C 2082.16 417.864 2212.44 418.315 2273.03 478.792 C 2288.73 494.465 2293.51 512.002 2294.37 533.332 C 2275.98 514.707 2254.03 501.041 2230.54 489.793 C 2223.46 495.332 2176.27 591.309 2164.66 609.547 C 2162.33 616.163 2160.56 624.044 2159.3 630.954 C 2161.15 633.842 2162.99 632.885 2163.73 634.532 C 2163.62 635.475 2162.78 635.531 2161.98 635.89 C 2157.49 641.122 2154.69 644.625 2150.63 650.149 C 2146.89 650.103 2143.15 650.096 2139.41 650.127 C 2135.17 644.117 2133.66 641.438 2128.77 635.847 C 2127.36 632.675 2129.28 633.617 2132.26 632.169 C 2130.96 627.544 2130.25 623.294 2128.84 618.756 C 2127.87 615.595 2126.84 612.455 2125.73 609.34 C 2122.13 600.704 2062.22 491.511 2060.18 489.686 C 2032.61 502.043 2018 513.563 1996.23 533.307 z" fill="rgb(255,255,255)" transform="translate(0,0)"></path>
<path d="M 1996.23 533.307 C 1996.65 509.811 2001.8 492.323 2019.75 475.69 C 2082.16 417.864 2212.44 418.315 2273.03 478.792 C 2288.73 494.465 2293.51 512.002 2294.37 533.332 C 2275.98 514.707 2254.03 501.041 2230.54 489.793 L 2227.11 488.404 C 2221.66 485.7 2215.29 482.978 2209.68 480.44 L 2206.83 479.774 C 2159.43 467.008 2132.04 466.501 2084.72 479.682 L 2081.23 480.811 C 2075.27 483.241 2069.13 485.648 2063.27 488.263 L 2060.18 489.686 C 2032.61 502.043 2018 513.563 1996.23 533.307 z" fill="rgb(22,40,26)" transform="translate(0,0)"></path>
<path d="M 2206.83 479.774 L 2209.68 480.44 C 2215.29 482.978 2221.66 485.7 2227.11 488.404 L 2230.54 489.793 C 2223.46 495.332 2176.27 591.309 2164.66 609.547 C 2163.15 608.334 2161.63 607.139 2160.09 605.962 C 2175.94 564.002 2191.52 521.939 2206.83 479.774 z" fill="rgb(255,255,255)" transform="translate(0,0)"></path>
<path d="M 2206.83 479.774 L 2209.68 480.44 C 2206.21 485.838 2191.82 526.248 2189.07 534.678 C 2182.88 553.655 2170.35 582.018 2165.54 600.2 L 2166.3 601.509 C 2169.89 596.738 2173.02 589.998 2175.87 584.626 C 2192.77 552.725 2211.1 520.719 2227.11 488.404 L 2230.54 489.793 C 2223.46 495.332 2176.27 591.309 2164.66 609.547 C 2163.15 608.334 2161.63 607.139 2160.09 605.962 C 2175.94 564.002 2191.52 521.939 2206.83 479.774 z" fill="rgb(201,203,201)" transform="translate(0,0)"></path>
<path d="M 2081.23 480.811 L 2084.72 479.682 C 2085.02 490.42 2123.86 589.783 2130.71 605.495 C 2129.07 606.81 2127.42 608.092 2125.73 609.34 C 2122.13 600.704 2062.22 491.511 2060.18 489.686 L 2063.27 488.263 C 2069.13 485.648 2075.27 483.241 2081.23 480.811 z" fill="rgb(255,255,255)" transform="translate(0,0)"></path>
<path d="M 2081.23 480.811 L 2084.72 479.682 C 2085.02 490.42 2123.86 589.783 2130.71 605.495 C 2129.07 606.81 2127.42 608.092 2125.73 609.34 C 2122.13 600.704 2062.22 491.511 2060.18 489.686 L 2063.27 488.263 C 2084.41 528.067 2104.87 567.414 2127.03 606.787 C 2123.78 592.424 2116.84 577.435 2111.74 563.418 C 2101.79 536.14 2090.02 508.406 2081.23 480.811 z" fill="rgb(201,203,201)" transform="translate(0,0)"></path>
<path d="M 2139.07 631.124 C 2141.12 634.454 2151.32 634.901 2152.67 631.111 C 2155.19 631.925 2157.03 632.73 2159.3 630.954 C 2161.15 633.842 2162.99 632.885 2163.73 634.532 C 2163.62 635.475 2162.78 635.531 2161.98 635.89 C 2157.49 641.122 2154.69 644.625 2150.63 650.149 C 2146.89 650.103 2143.15 650.096 2139.41 650.127 C 2135.17 644.117 2133.66 641.438 2128.77 635.847 C 2127.36 632.675 2129.28 633.617 2132.26 632.169 C 2135.66 631.886 2136.05 632.361 2139.07 631.124 z" fill="rgb(22,40,26)" transform="translate(0,0)"></path>
<path d="M 2139.07 631.124 C 2141.12 634.454 2151.32 634.901 2152.67 631.111 C 2155.19 631.925 2157.03 632.73 2159.3 630.954 C 2161.15 633.842 2162.99 632.885 2163.73 634.532 C 2163.62 635.475 2162.78 635.531 2161.98 635.89 C 2158 633.961 2132.64 634.088 2128.77 635.847 C 2127.36 632.675 2129.28 633.617 2132.26 632.169 C 2135.66 631.886 2136.05 632.361 2139.07 631.124 z" fill="rgb(201,203,201)" transform="translate(0,0)"></path>
<path d="M 2130.71 605.495 C 2131.9 608.929 2132.39 610.187 2133.18 613.677 C 2134.55 619.677 2136.52 625.523 2139.07 631.124 C 2136.05 632.361 2135.66 631.886 2132.26 632.169 C 2130.96 627.544 2130.25 623.294 2128.84 618.756 C 2127.87 615.595 2126.84 612.455 2125.73 609.34 C 2127.42 608.092 2129.07 606.81 2130.71 605.495 z" fill="rgb(22,40,26)" transform="translate(0,0)"></path>
<path d="M 2160.09 605.962 C 2161.63 607.139 2163.15 608.334 2164.66 609.547 C 2162.33 616.163 2160.56 624.044 2159.3 630.954 C 2157.03 632.73 2155.19 631.925 2152.67 631.111 C 2155.48 622.705 2157.41 614.319 2160.09 605.962 z" fill="rgb(22,40,26)" transform="translate(0,0)"></path>
<path d="M 656.336 487.435 C 665.636 493.708 674.961 499.947 684.272 506.205 C 703.818 519.343 722.869 529.049 741.405 543.797 L 744.011 546.509 C 745.796 545.405 750.562 542.27 751.476 542.893 C 765.234 552.262 806.104 589.264 816.835 598.607 L 469.03 598.76 C 507.555 568.297 546.41 538.254 585.589 508.636 C 594.389 513.992 603.063 519.553 611.603 525.314 L 613.365 522.778 C 625.902 511.751 642.975 497.289 656.336 487.435 z" fill="rgb(22,40,26)" transform="translate(0,0)"></path>
<path d="M 656.336 487.435 C 665.636 493.708 674.961 499.947 684.272 506.205 C 703.818 519.343 722.869 529.049 741.405 543.797 C 735.134 548.543 726.94 552.58 719.918 556.319 C 711.294 551.584 706.811 549.677 697.391 547.777 C 691.377 549.654 685.965 552.309 680.228 554.908 C 669.496 545.215 656.337 531.819 642.377 527.23 C 631.522 523.661 622.53 531.234 613.365 522.778 C 625.902 511.751 642.975 497.289 656.336 487.435 z" fill="rgb(22,40,26)" transform="translate(0,0)"></path>
<path d="M 611.603 525.314 L 613.365 522.778 C 622.53 531.234 631.522 523.661 642.377 527.23 C 656.337 531.819 669.496 545.215 680.228 554.908 C 685.965 552.309 691.377 549.654 697.391 547.777 C 706.811 549.677 711.294 551.584 719.918 556.319 C 726.94 552.58 735.134 548.543 741.405 543.797 L 744.011 546.509 C 735.785 551.407 728.331 555.435 719.838 559.878 C 710.732 554.855 708.089 553.269 698.21 550.377 C 682.063 555.633 662.987 568.459 647.437 571.047 C 631.174 573.753 598.79 546.05 584.982 535.651 C 578.965 540.63 572.475 547.112 566.747 552.59 C 559.82 551.683 557.729 551.661 550.817 551.902 C 546.522 554.864 539.319 560.497 534.435 560.878 L 535.142 559.204 L 535.804 560.167 L 535.617 558.708 C 545.98 549.77 553.646 548.388 566.054 549.082 C 572.814 542.381 577.86 537.89 585.199 531.795 C 604.576 546.717 622.176 562.473 645.662 569.556 C 656.947 567.059 666.431 561.81 676.687 556.684 C 666.797 547.26 654.667 534.817 641.677 530.151 C 629.105 525.634 622.581 534.684 611.603 525.314 z" fill="rgb(201,203,201)" transform="translate(0,0)"></path>
<path d="M 1771.89 1754.08 C 1765.92 1755.18 1744.45 1761.89 1738.19 1764 C 1714.54 1771.98 1677.86 1778.88 1662.72 1800.42 C 1651.79 1816.17 1642.38 1832.11 1626.89 1844.1 C 1588.63 1873.69 1507.44 1851.5 1516.55 1794.07 C 1518.88 1779.38 1528.48 1766.32 1541.06 1758.26 C 1574.21 1737.01 1616.45 1728.22 1654.49 1719.68 C 1658.28 1718.86 1676.53 1722.12 1688.87 1719.47 C 1697.99 1717.52 1741.4 1711.47 1746.65 1712.35 C 1748.72 1717.71 1767.71 1748.08 1771.89 1754.08 z" fill="rgb(22,40,26)" transform="translate(0,0)"></path>
<path d="M 1580.23 1762.15 C 1644.79 1760.42 1656.87 1831.09 1590.46 1841.63 C 1523.26 1842.29 1513.74 1772.19 1580.23 1762.15 z" fill="rgb(255,255,255)" transform="translate(0,0)"></path>
<path d="M 1579.39 1765.45 C 1639.11 1763.16 1650.93 1826.57 1591.72 1838.32 C 1528.03 1839.3 1519.15 1775.86 1579.39 1765.45 z" fill="rgb(22,40,26)" transform="translate(0,0)"></path>
<path d="M 1576.33 1798.07 C 1582.71 1797.17 1595.23 1795.05 1590.99 1805.56 C 1584.56 1805.83 1571.36 1807.95 1576.33 1798.07 z" fill="rgb(255,255,255)" transform="translate(0,0)"></path>
<path d="M 1582.76 1801.16 C 1583.04 1801.06 1584.11 1800.53 1584.68 1800.61 C 1584.86 1800.63 1584.96 1800.68 1585.06 1800.83 C 1585.32 1801.22 1584.86 1802.12 1584.78 1802.35 C 1584.4 1802.44 1581.79 1803.45 1581.56 1802.62 C 1581.76 1801.97 1582.24 1801.7 1582.76 1801.16 z" fill="rgb(22,40,26)" transform="translate(0,0)"></path>
<path d="M 1559.33 1797.94 C 1560.43 1797.88 1567.57 1797.08 1568.17 1798.51 C 1567.74 1800.03 1565.37 1800.64 1566.91 1802.34 C 1567.83 1803.35 1567.65 1804.05 1567.62 1805.39 C 1561.99 1805.95 1556.74 1805.78 1559.33 1797.94 z" fill="rgb(255,255,255)" transform="translate(0,0)"></path>
<path d="M 1600.88 1797.92 C 1611.1 1797.43 1607.82 1796.46 1609.78 1805.52 C 1608.73 1805.59 1607.68 1805.65 1606.63 1805.71 C 1602.06 1808.7 1599.95 1801.24 1600.88 1797.92 z" fill="rgb(255,255,255)" transform="translate(0,0)"></path>
<path d="M 1723.96 1730.31 C 1728.74 1731.17 1728.04 1735.12 1730.58 1738.87 C 1736.12 1747.03 1724.7 1748.27 1719.3 1749.46 C 1712.83 1749.25 1711.14 1740.03 1708.73 1734.49 C 1713.82 1732.91 1718.8 1731.64 1723.96 1730.31 z" fill="rgb(255,255,255)" transform="translate(0,0)"></path>
<path d="M 1029.43 99.2945 C 1029.97 95.4996 1029.61 92.6366 1031.74 90.4581 C 1035.77 90.3324 1063.55 94.1435 1068.77 95.6478 C 1099.08 104.389 1129.08 103.551 1159.95 108.072 C 1159.99 110.678 1159.96 113.278 1160.18 115.869 C 1154.11 123.04 1128.49 121.728 1139.75 139.474 C 1150.81 147.913 1169.91 134.551 1181.46 130.114 C 1186.93 136.415 1195.36 139.622 1201.71 144.763 C 1193.03 150.986 1187.64 155.031 1180.6 163.239 C 1189 166.263 1192.03 167.005 1200.85 168.588 C 1205.82 164.432 1216.63 155.015 1221.7 152.218 C 1247.26 160.171 1291.1 150.711 1285.39 196.916 C 1274.68 205.689 1257.14 208.273 1243.64 209.505 C 1220.59 211.58 1197.38 210.864 1174.51 207.373 C 1129.79 200.169 1088.39 188.207 1042.03 189.972 C 1037.52 190.144 1021.65 191.337 1018.49 190.331 L 1017.53 187.054 C 1018.36 177.091 1019.39 167.542 1022.47 157.982 C 1028.81 138.278 1030.49 120.04 1029.43 99.2945 z" fill="rgb(22,40,26)" transform="translate(0,0)"></path>
<path d="M 680.702 1682.88 L 682.246 1684.95 C 667.304 1689.95 611.019 1698.15 607.101 1711.09 C 609.443 1718.8 620.253 1722.16 627.587 1724.39 C 652.28 1732.36 740.151 1744.35 756.942 1762.11 C 813.898 1822.37 574.567 1816.11 666.889 1885.44 L 512.061 1885.5 C 507.1 1880.25 503.048 1875.07 501.675 1867.78 C 490.035 1806 682.049 1802.93 697.289 1773.72 C 698.772 1770.88 698.892 1768.57 697.814 1765.56 C 692.201 1749.89 628.605 1737.29 611.785 1730.5 C 603.949 1727.34 596.151 1724.44 592.641 1716.14 C 591.76 1695.02 661.659 1688.87 679.161 1683.38 L 680.702 1682.88 z" fill="rgb(22,40,26)" transform="translate(0,0)"></path>
<path d="M 1146.41 418.715 C 1161.95 441.67 1180.39 466.018 1194.71 489.397 C 1191.47 489.482 1184.62 488.829 1182.84 490.554 C 1187.35 497.804 1205.13 517.561 1206.18 524.419 L 1203.75 525.285 C 1199.51 524.829 1198.85 524 1195.71 525.617 C 1195.4 532.786 1211.78 550.567 1216.57 559.105 L 1202.15 560.567 C 1206.83 566.85 1233.5 600.897 1234.37 605.185 C 1216.66 603.839 1188.5 604.826 1170.12 604.844 L 1061.44 604.703 C 1072.39 590.946 1084.07 574.181 1094.56 559.83 L 1078.31 559.522 C 1086.84 547.848 1095.22 536.055 1103.42 524.146 L 1088.35 524.967 C 1093.72 516.357 1108.44 497.22 1115.05 489.445 L 1100.32 489.09 C 1115.8 466.616 1131.53 441.702 1146.41 418.715 z" fill="rgb(22,40,26)" transform="translate(0,0)"></path>
<path d="M 639.852 2095.43 C 645.391 2099.94 668.913 2143.99 674.908 2154.06 C 700.421 2156.44 731.186 2161.48 756.912 2165.07 C 736.529 2179.44 716.278 2194 696.162 2208.74 L 709.575 2271.78 C 686.843 2261.04 663.95 2250.64 640.903 2240.6 C 624.136 2249.54 589.371 2264.01 571.407 2271.7 C 575.854 2250.9 581.979 2228.47 585.734 2208.12 C 565.542 2193.95 545.474 2179.61 525.531 2165.09 C 552.477 2161.49 579.403 2157.73 606.308 2153.82 C 617.309 2137.06 629.464 2113.47 639.852 2095.43 z" fill="rgb(22,40,26)" transform="translate(0,0)"></path>
<path d="M 87.8065 2115.72 C 108.309 2083.68 111.111 2066.7 144.744 2081.24 C 150.4 2083.69 167.946 2068.61 178.667 2079.69 C 188.806 2086.84 198.457 2105.05 205.034 2116.11 C 207.158 2116.61 209.289 2117.09 211.425 2117.54 L 212.6 2117.83 C 227.408 2121.37 253.85 2122.27 264.997 2131.19 C 270.206 2144.58 214.059 2148.66 204.9 2149.64 L 202.398 2152.34 C 202.866 2157.16 203.49 2165.55 202.492 2170.12 C 191.906 2218.67 117.805 2224.42 93.9693 2183.5 C 88.5891 2174.26 87.2194 2163 89.6864 2152.87 L 90.5895 2151.91 L 90.1927 2149.93 C 79.2136 2148.51 26.6776 2145.29 26.5916 2132.39 C 34.3696 2122.77 72.9606 2118.58 85.8436 2118.59 L 87.8065 2115.72 z" fill="rgb(22,40,26)" transform="translate(0,0)"></path>
<path d="M 89.6864 2152.87 C 115.23 2155.4 178.244 2157.76 202.398 2152.34 C 202.866 2157.16 203.49 2165.55 202.492 2170.12 C 191.906 2218.67 117.805 2224.42 93.9693 2183.5 C 88.5891 2174.26 87.2194 2163 89.6864 2152.87 z" fill="rgb(22,40,26)" transform="translate(0,0)"></path>
<path d="M 87.8065 2115.72 C 108.309 2083.68 111.111 2066.7 144.744 2081.24 C 150.4 2083.69 167.946 2068.61 178.667 2079.69 C 188.806 2086.84 198.457 2105.05 205.034 2116.11 C 183.62 2123.21 108.894 2124.81 87.8065 2115.72 z" fill="rgb(22,40,26)" transform="translate(0,0)"></path>
<path d="M 85.8436 2118.59 L 87.8065 2115.72 C 108.894 2124.81 183.62 2123.21 205.034 2116.11 C 207.158 2116.61 209.289 2117.09 211.425 2117.54 C 181.855 2124.1 112.387 2130.44 85.8436 2118.59 z" fill="rgb(201,203,201)" transform="translate(0,0)"></path>
<path d="M 90.1927 2149.93 C 133.214 2153.29 161.443 2153.55 204.9 2149.64 L 202.398 2152.34 C 178.244 2157.76 115.23 2155.4 89.6864 2152.87 L 90.5895 2151.91 L 90.1927 2149.93 z" fill="rgb(201,203,201)" transform="translate(0,0)"></path>
<path d="M 1588.4 1328.27 L 1713.94 1328.21 C 1712.41 1334.4 1712.95 1362.51 1712.97 1370.53 L 1713.27 1453.27 L 1588.22 1453.4 C 1588.71 1411.78 1587.71 1370.12 1588.4 1328.27 z" fill="rgb(22,40,26)" transform="translate(0,0)"></path>
<path d="M 2127.57 2088.83 C 2142.32 2088.7 2157.33 2088.88 2172.1 2088.91 C 2172.53 2135.02 2172.62 2181.13 2172.37 2227.25 C 2183.59 2217.99 2194.17 2209.21 2205.88 2200.56 C 2221.45 2203.49 2237.44 2207.23 2253.15 2210.33 L 2160.89 2285.86 C 2158.09 2288.37 2152.63 2292.3 2149.47 2294.73 C 2115.39 2266.63 2081.14 2238.73 2046.74 2211.02 L 2094.06 2200.45 C 2104.12 2209.47 2116.68 2218.2 2127.7 2227.99 C 2128.87 2183.46 2127.68 2133.77 2127.57 2088.83 z" fill="rgb(22,40,26)" transform="translate(0,0)"></path>
<path d="M 568.842 99.1751 C 558.69 87.7158 561.543 75.9208 561.911 61.0699 C 562.634 48.9296 558.492 27.3073 570.41 19.0505 C 597.293 0.426642 646.353 0.151816 676.456 3.71155 C 714.166 8.17083 741.197 13.553 734.675 57.6275 C 732.017 75.5866 741.02 80.6949 727.329 99.1598 C 721.824 100.703 715.733 100.301 709.921 100.313 L 709.966 72.5175 C 715.831 64.5521 722.185 30.6257 715.227 26.7232 C 705.549 36.2288 727.18 72.4376 688.236 76.7553 C 658.568 80.0446 618.835 84.1518 590.852 69.1424 C 582.302 64.5562 585.62 37.8595 583.897 28.084 L 582.366 27.2731 C 575.924 32.0549 580.755 62.6692 585.888 70.2018 L 585.526 100.284 C 578.906 100.293 575.468 100.432 568.842 99.1751 z" fill="rgb(22,40,26)" transform="translate(0,0)"></path>
<path d="M 24.4721 181.757 C 63.0182 161.646 124.752 100.465 147.049 62.9052 C 180.948 111.111 213.529 143.194 261.535 177.072 C 264.847 178.649 268.255 180.327 271.593 181.814 C 271.54 176.708 270.912 168.143 272.951 163.79 C 277.141 167.965 279.246 186.061 275.889 191.239 L 274.292 191.718 C 268.492 183.964 270.599 183.6 261.595 180.623 C 240.275 172.451 229.321 165.954 210.84 153.162 C 210.735 153.947 210.311 156.096 210.52 156.699 C 224.914 168.363 237.269 178.556 252.36 189.372 L 179.063 189.383 C 167.165 167.273 157.104 148.44 150.564 123.978 C 149.66 117.18 146.599 111.499 144.56 121.477 C 135.842 148.586 128.325 164.448 115.007 189.458 C 90.6057 189.904 66.1991 189.959 41.7964 189.623 C 56.8824 179.186 71.3956 167.945 85.273 155.948 L 82.7606 153.655 C 64.4114 168.117 46.8728 175.395 25.6294 184.428 C 24.5534 184.885 24.3282 190.209 24.2913 191.25 L 22.7046 192.43 L 20.3135 191.844 C 17.1466 186.397 18.222 168.71 22.6728 164.422 C 25.0956 170.574 24.5643 175.049 24.4721 181.757 z" fill="rgb(22,40,26)" transform="translate(0,0)"></path>
<path d="M 24.4721 181.757 C 63.0182 161.646 124.752 100.465 147.049 62.9052 C 180.948 111.111 213.529 143.194 261.535 177.072 C 264.847 178.649 268.255 180.327 271.593 181.814 C 271.54 176.708 270.912 168.143 272.951 163.79 C 277.141 167.965 279.246 186.061 275.889 191.239 L 274.292 191.718 C 268.492 183.964 270.599 183.6 261.595 180.623 C 240.275 172.451 229.321 165.954 210.84 153.162 C 207.925 149.585 189.746 134.926 184.873 129.941 C 169.727 114.444 159.527 101.199 147.048 83.6135 C 130.173 109.986 107.116 134.058 82.7606 153.655 C 64.4114 168.117 46.8728 175.395 25.6294 184.428 C 24.5534 184.885 24.3282 190.209 24.2913 191.25 L 22.7046 192.43 L 20.3135 191.844 C 17.1466 186.397 18.222 168.71 22.6728 164.422 C 25.0956 170.574 24.5643 175.049 24.4721 181.757 z" fill="rgb(22,40,26)" transform="translate(0,0)"></path>
<path d="M 82.7606 153.655 C 107.116 134.058 130.173 109.986 147.048 83.6135 C 159.527 101.199 169.727 114.444 184.873 129.941 C 189.746 134.926 207.925 149.585 210.84 153.162 C 210.735 153.947 210.311 156.096 210.52 156.699 C 191.963 144.778 160.997 108.838 148.397 90.8016 C 148.449 96.5431 148.906 104.278 147.497 109.623 C 145.781 105.853 145.534 96.9951 145.175 92.4542 C 128.192 116.248 108.039 137.61 85.273 155.948 L 82.7606 153.655 z" fill="rgb(201,203,201)" transform="translate(0,0)"></path>
<path d="M 1561.49 86.7057 C 1605.45 53.8914 1597.44 61.3764 1652.45 61.091 C 1664.1 67.9832 1675.47 75.3623 1686.5 83.209 C 1693.42 83.2217 1716.16 82.7084 1721.14 84.0108 L 1721.06 85.7317 C 1720.84 91.7651 1720.7 93.3393 1723.81 98.7787 C 1715.14 100.585 1687.14 100.838 1677.36 99.3783 C 1674.71 98.9828 1662.83 91.5962 1659.61 89.6237 C 1659.6 111.764 1662.01 133.293 1652.81 153.075 C 1659.39 156.793 1666.59 161.079 1673.2 164.582 C 1679.18 181.874 1686.47 206.733 1692.77 222.736 C 1687.59 227.262 1681.2 221.389 1667.67 229.719 C 1664.22 217.503 1655.96 196.797 1651.47 184.072 L 1634.88 175.631 C 1624.73 170.227 1614.54 164.885 1604.33 159.605 C 1580.87 144.581 1588.62 118.139 1588.84 92.6909 C 1574.27 103.476 1574.2 111.842 1569.2 129.387 C 1560.45 125.753 1559.26 125.494 1550.08 127.664 C 1554.73 114.441 1558.02 100.318 1561.49 86.7057 z" fill="rgb(22,40,26)" transform="translate(0,0)"></path>
<path d="M 1509.22 608.579 C 1507.64 606.168 1507.12 492.748 1508.79 483.74 L 1509.48 491.278 C 1509.73 494.062 1509.54 494.528 1511.42 496.519 C 1524.48 500.246 1532.01 499.655 1545.95 504.931 C 1557.8 509.419 1592.26 535.18 1598.04 536.289 L 1596.01 540.045 C 1615.14 550.162 1664.97 575.701 1648.18 603.641 C 1647.18 605.277 1646.14 606.887 1645.05 608.467 L 1509.22 608.579 z" fill="rgb(22,40,26)" transform="translate(0,0)"></path>
<path d="M 1509.22 608.579 C 1507.64 606.168 1507.12 492.748 1508.79 483.74 L 1509.48 491.278 C 1509.73 494.062 1509.54 494.528 1511.42 496.519 C 1524.48 500.246 1532.01 499.655 1545.95 504.931 C 1557.8 509.419 1592.26 535.18 1598.04 536.289 L 1596.01 540.045 C 1566.09 520.054 1546.22 502.572 1509.56 500.243 L 1509.55 572.249 C 1509.56 580.855 1510.07 600.809 1509.22 608.579 z" fill="rgb(201,203,201)" transform="translate(0,0)"></path>
<path d="M 113.306 902.431 C 104.132 886.447 55.6228 853.002 55.6144 841.226 C 57.235 837.519 55.948 838.85 59.6271 837.116 C 78.9739 838.325 105.819 878.392 128.928 881.126 C 144.012 882.911 155.029 882.148 169.511 876.961 C 184.208 871.697 215.541 831.39 229.443 837.379 C 236.915 851.077 184.712 885.075 173.917 901.434 C 173.655 916.655 174.34 1014.26 170.58 1021.06 L 167.197 1023.38 C 163.871 1023.16 160.663 1022.65 157.426 1022.74 L 156.015 1024.86 C 146.847 1024.63 136.116 1024.34 127.083 1024.97 L 126.925 1023.03 C 124.69 1022.91 123.79 1022.85 121.524 1023.02 L 116.267 1021.28 C 114.44 1011.03 114.653 987.779 114.53 976.665 C 114.408 951.916 114 927.17 113.306 902.431 z" fill="rgb(22,40,26)" transform="translate(0,0)"></path>
<path d="M 126.925 1023.03 C 136.422 1017.6 134.018 1008.41 136.063 997.869 C 138.66 984.486 140.323 971.273 143.953 958.026 L 149.516 987.749 C 151.316 996.866 152.634 1016.15 157.426 1022.74 L 156.015 1024.86 C 146.847 1024.63 136.116 1024.34 127.083 1024.97 L 126.925 1023.03 z" fill="rgb(255,255,255)" transform="translate(0,0)"></path>
<path d="M 1797.2 482.133 C 1799.04 491.304 1799.22 597.95 1797.35 608.599 L 1718.67 608.659 C 1719.03 605.728 1719.41 602.706 1719.76 599.774 C 1723.24 570.835 1656.89 563.877 1660.61 541.228 C 1669.61 528.929 1701.73 526.714 1716.1 523.107 C 1725.51 520.746 1733.8 517.842 1742.94 514.672 L 1740.92 512.226 C 1759.1 505.569 1777.53 500.14 1796.8 497.906 C 1796.6 491.69 1796.47 488.449 1797.2 482.133 z" fill="rgb(22,40,26)" transform="translate(0,0)"></path>
<path d="M 1797.2 482.133 C 1799.04 491.304 1799.22 597.95 1797.35 608.599 C 1796 600.773 1796.39 579.351 1796.4 570.442 L 1796.62 500.9 C 1777.28 503.343 1761.23 508.075 1742.94 514.672 L 1740.92 512.226 C 1759.1 505.569 1777.53 500.14 1796.8 497.906 C 1796.6 491.69 1796.47 488.449 1797.2 482.133 z" fill="rgb(201,203,201)" transform="translate(0,0)"></path>
<path d="M 569.24 102.987 C 575.995 104.365 578.913 104.269 585.646 104.299 L 585.369 169.023 C 585.241 186.905 579.421 223.145 603.997 225.612 C 625.269 227.746 647.433 225.571 668.863 226.316 C 687.7 227.014 698.83 228.159 709.541 210.772 C 710.83 176.297 709.598 138.784 709.949 103.984 C 714.415 103.938 722.633 104.094 726.777 103.548 C 727.922 121.931 735.366 131.257 735.95 137.838 C 737.287 152.938 738.858 207.17 736.305 219.052 C 735.08 225.029 732.383 230.606 728.459 235.278 C 711.585 255.111 668.485 247.096 644.081 248.325 C 626.093 249.23 605.066 249.092 587.292 247.242 C 580.106 246.129 574.844 242.636 569.234 238.371 C 566.177 235.041 560.768 228.328 559.902 224.06 C 554.491 197.404 559.444 165.615 557.24 137.679 C 563.734 124.736 569.115 117.872 569.24 102.987 z" fill="rgb(22,40,26)" transform="translate(0,0)"></path>
<path d="M 637.47 134.21 C 651.207 132.883 676.73 133.837 687.784 143.323 C 692.975 147.777 691.579 161.976 691.619 168.519 C 695.38 168.914 698.767 168.947 702.501 169.132 L 704.798 169.259 C 704.774 218.643 713.085 223.293 660.938 222.994 C 651.294 222.942 635.109 222.052 626.073 222.853 C 581.249 226.825 590.343 206.631 590.282 169.107 C 594.793 168.902 599.104 168.989 603.596 168.876 C 603.733 162.533 602.948 151.093 606.654 146.38 C 613.177 138.083 627.854 135.544 637.47 134.21 z" fill="rgb(22,40,26)" transform="translate(0,0)"></path>
<path d="M 642.18 170.153 C 667.394 169.971 673.744 190.198 651.368 199.044 C 642.536 199.344 632.552 198.193 629.267 188.327 C 628.245 185.21 628.501 181.814 629.981 178.886 C 632.502 173.794 637.161 172.01 642.18 170.153 z" fill="rgb(255,255,255)" transform="translate(0,0)"></path>
<path d="M 638.962 174.627 C 654.911 172.252 668.461 180.787 653.926 194.259 C 637.452 198.144 626.109 186.686 637.726 175.823 L 638.962 174.627 z" fill="rgb(22,40,26)" transform="translate(0,0)"></path>
<path d="M 157.426 1022.74 C 160.663 1022.65 163.871 1023.16 167.197 1023.38 C 167.075 1024.47 167.23 1024.53 167.612 1025.74 C 208.363 1031.15 235.221 1041.48 266.762 1068.18 L 269.877 1070.36 L 269.326 1071.64 C 261.658 1072.63 246.39 1072.09 238.154 1072.03 L 184.161 1071.85 C 136.369 1071.81 77.576 1073.5 30.6862 1071.72 L 9.2615 1071.92 C 39.0815 1047.39 77.5977 1026.95 117.002 1025.98 L 118.351 1025.57 C 119.252 1025.27 121.372 1024.93 121.978 1024.26 C 122.036 1023.7 121.899 1023.71 121.524 1023.02 C 123.79 1022.85 124.69 1022.91 126.925 1023.03 L 127.083 1024.97 C 136.116 1024.34 146.847 1024.63 156.015 1024.86 L 157.426 1022.74 z" fill="rgb(22,40,26)" transform="translate(0,0)"></path>
<path d="M 157.426 1022.74 C 160.663 1022.65 163.871 1023.16 167.197 1023.38 C 167.075 1024.47 167.23 1024.53 167.612 1025.74 C 163.314 1025.86 160.279 1025.29 156.015 1024.86 L 157.426 1022.74 z" fill="rgb(201,203,201)" transform="translate(0,0)"></path>
<path d="M 121.524 1023.02 C 123.79 1022.85 124.69 1022.91 126.925 1023.03 L 127.083 1024.97 C 122.372 1025.78 121.713 1026 117.002 1025.98 L 118.351 1025.57 C 119.252 1025.27 121.372 1024.93 121.978 1024.26 C 122.036 1023.7 121.899 1023.71 121.524 1023.02 z" fill="rgb(127,131,129)" transform="translate(0,0)"></path>
<path d="M 1205.06 528.615 C 1208.56 529.098 1210.35 529.79 1213.32 528.001 C 1214.7 520.305 1206.91 522.169 1213.97 511.795 L 1213.07 510.508 L 1207.35 510.152 C 1206 505.377 1231.82 471.161 1236.36 463.733 C 1240.64 470.272 1266.37 506.513 1265.57 510.681 L 1259.74 511.317 C 1258.68 516.052 1274.76 533.674 1277.95 540.13 L 1276.8 541.255 C 1273.03 541.182 1271.17 540.392 1268.85 542.166 C 1272.07 551.014 1282.47 560.363 1287.65 570.568 L 1287.08 571.693 C 1283.32 571.971 1280.56 572.085 1276.79 572.117 C 1284.88 582.625 1292.05 593.53 1299.45 604.519 C 1280.35 604.56 1260.29 604.297 1241.29 605.235 C 1235.73 597.948 1216.02 573.224 1213.06 566.129 C 1214.64 564.468 1219.16 564.579 1222.14 564.195 L 1223.14 561.974 C 1221.38 553.107 1208.9 539.695 1203.12 530.623 L 1205.06 528.615 z" fill="rgb(22,40,26)" transform="translate(0,0)"></path>
<path d="M 1060.95 462.255 C 1065.76 468.995 1091.43 503.125 1089.59 508.031 L 1084.47 508.782 L 1083.71 510.286 C 1085.52 512.95 1086.51 513.736 1086.62 516.884 C 1084.57 520.561 1082.33 523.374 1082.61 527.4 C 1085.54 530.064 1086.68 529.114 1091.9 529.348 L 1092.73 530.582 C 1089.46 537.139 1074.43 555.339 1068.81 563.777 C 1073.89 564.11 1079.78 564.061 1084.94 564.145 C 1076.44 576.806 1064.4 594.314 1054.55 605.669 C 1054.14 605.574 1053.73 605.478 1053.32 605.383 L 1051.32 604.96 C 1043.86 603.31 1037.32 603.551 1029.66 603.402 L 998.569 603.326 C 1005.43 592.224 1013.98 580.567 1021.54 569.801 L 1007.49 569.653 C 1012.73 562.848 1027.24 545.261 1029.48 538.458 L 1029.38 539.644 L 1029.26 538.316 C 1025.62 538.417 1024.43 538.599 1020.8 537.722 C 1021.29 528.698 1039.3 515.67 1038.32 508.963 C 1035.17 508.499 1034.29 508.438 1031.21 507.417 C 1031.85 503.536 1057.02 467.582 1060.95 462.255 z" fill="rgb(22,40,26)" transform="translate(0,0)"></path>
<path d="M 2005.27 133.994 C 2032.78 109.179 2032.34 101.947 2070.7 102.598 C 2078.68 107.188 2094.88 119.465 2103.08 125.191 C 2113.33 125.064 2124.71 124.119 2135.36 123.869 C 2135.48 129.919 2135.45 130.891 2139.04 135.862 C 2125.47 136.974 2110.85 138.416 2097.35 139.082 C 2090.46 135.293 2085.86 132.369 2079.34 127.963 C 2079.34 139.591 2079.19 151.666 2079.37 163.255 C 2088.57 165.988 2126.25 175.482 2131.94 182.435 C 2133.87 184.799 2133.05 207.706 2133.14 213.182 C 2125.1 210.94 2122.29 213.218 2115.72 211.789 C 2112.6 208.279 2113.4 206.612 2112.84 201.178 L 2112.63 196.928 C 2108.27 192.134 2081.26 189.468 2073.16 188.326 C 2061.91 184.657 2057.29 185.068 2045.2 179.61 C 2031.57 167.005 2035.15 147.931 2034.03 128.737 C 2016.59 140.241 2016.85 144.144 2015.07 164.675 C 2010.23 163.83 2005.91 164.051 2001 164.062 C 2003.01 155.093 2004.13 143.309 2005.27 133.994 z" fill="rgb(22,40,26)" transform="translate(0,0)"></path>
<path d="M 1029.74 81.1118 C 1032.19 67.8372 1027.87 52.4056 1036.25 42.4172 C 1046.25 36.9953 1062.35 40.4758 1073.72 38.4507 C 1095.21 34.7289 1115.59 22.7544 1137.73 22.729 C 1151.67 22.713 1163.8 23.1146 1163.15 39.9398 C 1162.51 45.2788 1163.37 45.6911 1160.53 49.0874 C 1143.89 53.5126 1128.22 27.2655 1116.61 43.3907 C 1113.39 47.8635 1114.58 57.6528 1121.21 59.4576 C 1134.61 63.1046 1147.58 64.9729 1161.02 69.1055 C 1159.52 77.5516 1160.1 83.9998 1159.37 92.1207 C 1146.9 90.3094 1144.17 88.2237 1132.66 84.3666 C 1124.51 81.6363 1099.71 76.9002 1092.02 81.4584 C 1087.55 84.111 1087.02 87.3947 1085.66 92.1113 L 1085.24 93.6135 C 1076.42 94.7865 1042.42 88.4567 1031.74 86.042 C 1030.39 85.7363 1030.28 83.2123 1029.74 81.1118 z" fill="rgb(22,40,26)" transform="translate(0,0)"></path>
<path d="M 1508.79 483.74 C 1585.3 466.804 1603.31 515.513 1659.81 514.541 C 1711.07 513.658 1721.66 473.02 1797.2 482.133 C 1796.47 488.449 1796.6 491.69 1796.8 497.906 C 1777.53 500.14 1759.1 505.569 1740.92 512.226 C 1733.63 514.928 1725.44 518.749 1717.69 519.446 C 1694.23 521.557 1610.72 513.223 1598.41 535.455 C 1598.27 535.721 1598.16 536.011 1598.04 536.289 C 1592.26 535.18 1557.8 509.419 1545.95 504.931 C 1532.01 499.655 1524.48 500.246 1511.42 496.519 C 1509.54 494.528 1509.73 494.062 1509.48 491.278 L 1508.79 483.74 z" fill="rgb(22,40,26)" transform="translate(0,0)"></path>
<path d="M 1635.67 1261.27 C 1638.88 1257.28 1658.48 1258.92 1664.36 1259.3 C 1666.07 1260.89 1665.71 1260.11 1666.11 1261.22 C 1675.19 1285.55 1708.6 1286.6 1713.9 1325.1 C 1699.25 1324.65 1593.23 1326.63 1588.85 1323.5 L 1587.85 1317.36 C 1596.36 1288.97 1626.48 1281.46 1635.67 1261.27 z" fill="rgb(22,40,26)" transform="translate(0,0)"></path>
<path d="M 1018.2 194.649 C 1042.89 192.649 1089.29 194.444 1113.86 199.217 C 1164.38 209.027 1203.53 219.145 1256.51 211.689 C 1270.09 209.779 1276.16 205.266 1286.17 202.535 C 1284.31 213.575 1284.82 214.637 1276.98 222.771 C 1268.71 224.666 1259.67 227.563 1252.26 223.386 C 1248.23 221.116 1247.12 221.486 1242.73 222.676 C 1234.68 230.787 1213.26 229.029 1202.28 228.488 C 1198.46 223.85 1197.64 223.228 1191.92 222.837 C 1160.55 244.535 1137.25 195.134 1105.41 218.43 C 1100.88 221.745 1096.11 225.035 1091.58 228.387 C 1085.06 228.808 1069.99 230.535 1064.5 228.051 C 1063.2 224.415 1064.09 225.457 1061.55 223.013 C 1058.25 222.612 1055.73 221.923 1052.67 223.079 C 1050.86 226.456 1051.76 225.611 1049.04 227.962 C 1015.77 231.267 991.59 201.57 1018.2 194.649 z" fill="rgb(22,40,26)" transform="translate(0,0)"></path>
<path d="M 615.088 104.057 L 704.65 103.92 C 704.576 122.154 704.43 140.431 704.64 158.63 C 704.729 163.75 705.581 165.31 700.342 165.165 C 695.169 165.48 695.25 164.126 695.407 159.189 C 695.875 144.514 692.95 139.906 679.396 134.646 L 677.577 134.168 C 663.158 130.384 648.146 129.405 633.357 131.283 C 610.679 134.29 598.391 141.275 598.803 164.485 C 598.819 165.365 591.074 165.754 591.02 164.836 C 589.86 145.019 590.311 124.203 590.311 104.133 L 615.088 104.057 z" fill="rgb(22,40,26)" transform="translate(0,0)"></path>
<path d="M 1587.65 1463.73 C 1587.95 1461.53 1588.31 1459.69 1588.75 1457.51 C 1593.36 1455.63 1700.87 1456.7 1713.64 1456.82 C 1711.24 1498.92 1651.39 1486.56 1622.83 1487.52 C 1606.67 1488.07 1593.28 1478.56 1587.65 1463.73 z" fill="rgb(22,40,26)" transform="translate(0,0)"></path>
<path d="M 224.956 1693.28 C 227.025 1692.77 225.86 1692.83 228.451 1693.49 C 230.154 1697.81 230.812 1720.02 231.097 1725.64 C 226.392 1722.08 221.723 1718.91 216.863 1715.58 C 201.936 1733.85 185.91 1751.55 170.714 1770.2 C 161.941 1765.52 151.152 1758.52 142.513 1753.21 C 131.157 1760.7 21.3495 1836.21 16.8628 1836.64 C 14.7455 1833.62 14.1783 1833.3 13.484 1829.65 C 24.3101 1820.41 55.0379 1800.57 68.0615 1791.9 C 92.5901 1775.57 118.005 1757.22 142.564 1741.51 C 151.363 1746.67 159.273 1751.91 167.76 1757.52 L 208.028 1709.89 L 192.4 1702.09 L 224.956 1693.28 z" fill="rgb(22,40,26)" transform="translate(0,0)"></path>
<path d="M 2101.24 1276.06 C 2119.88 1274.87 2127.32 1277.18 2143.28 1286.91 C 2117.15 1293.58 2098.87 1301.3 2083.48 1324.59 C 2081.64 1327.85 2079.87 1331.1 2079.06 1334.81 L 2077.27 1342.97 C 2062.73 1329.26 2053.69 1315.39 2066.32 1295.83 C 2074.98 1282.43 2086.21 1278.79 2101.24 1276.06 z" fill="rgb(22,40,26)" transform="translate(0,0)"></path>
<path d="M 590.573 74.1162 C 618.597 85.427 677.39 87.1531 704.605 75.0247 L 704.733 93.6562 C 704.731 93.9433 705.047 99.7879 703.943 99.8105 C 667.008 100.567 627.18 100.176 590.413 100.222 C 590.356 91.52 590.41 82.8172 590.573 74.1162 z" fill="rgb(22,40,26)" transform="translate(0,0)"></path>
<path d="M 1621.68 9.27724 C 1658.06 7.62162 1667.48 43.1988 1632.3 53.602 C 1599.26 55.4951 1583.3 19.8047 1621.68 9.27724 z" fill="rgb(22,40,26)" transform="translate(0,0)"></path>
<path d="M 1602.09 163.278 C 1610.9 167.419 1624.1 173.914 1632.11 179.238 C 1629.62 183.717 1625.37 191.719 1622.59 195.809 C 1619.12 200.915 1608.59 226.207 1603.78 226.94 L 1602.33 227.116 C 1593.92 222.075 1586.39 224.085 1577.14 223.635 C 1583.17 204.784 1595.46 181.503 1602.09 163.278 z" fill="rgb(22,40,26)" transform="translate(0,0)"></path>
<path d="M 554.032 171.057 C 552.515 185.507 550.688 221.829 560.364 233.415 C 566.094 240.274 556.609 236.561 549.288 238.032 L 545.452 237.431 C 534.752 235.728 532.408 232.884 526.52 224.519 C 526.133 213.518 526.399 194.801 526.661 183.591 C 535.286 171.266 539.1 171.588 554.032 171.057 z" fill="rgb(22,40,26)" transform="translate(0,0)"></path>
<path d="M 626.816 855.499 C 622.624 851.632 616.504 844.689 617.088 838.686 C 621.243 795.994 698.492 823.87 659.961 855.839 C 650.423 853.331 636.544 854.229 626.816 855.499 z" fill="rgb(22,40,26)" transform="translate(0,0)"></path>
<path d="M 637.007 826.01 C 658.596 822.961 668.287 839.437 650.085 849.967 C 628.742 853.07 618.192 836.855 637.007 826.01 z" fill="rgb(255,255,255)" transform="translate(0,0)"></path>
<path d="M 741.138 170.894 C 764.704 173.366 768.143 177.166 767.225 201.495 C 766.545 219.498 772.068 227.102 754.144 236.624 C 745.989 238.133 738.497 238.17 730.261 238.38 C 746.464 219.204 740.945 196.846 741.138 170.894 z" fill="rgb(22,40,26)" transform="translate(0,0)"></path>
<path d="M 2112.96 218.285 C 2120.87 214.491 2122.74 214.872 2131.44 216.629 C 2144.61 230.759 2126.25 239.372 2113.27 232.014 C 2081.04 242.249 2045.81 253.557 2013.02 261.849 L 2011.33 260.71 C 2014.89 255.561 2034.91 251.118 2042.7 248.504 C 2031.13 239.546 2031.21 232.791 2043.33 224.408 C 2054.29 222.767 2054.83 223.691 2064.23 227.768 C 2067.5 232.928 2067.4 234.628 2068.25 240.783 C 2077.78 237.949 2101.47 231.467 2109.17 227.305 C 2110.05 224.453 2110.56 222.62 2112.01 219.976 L 2112.96 218.285 z" fill="rgb(22,40,26)" transform="translate(0,0)"></path>
<path d="M 2211.04 4.60199 C 2216.67 4.37758 2220.34 4.12552 2225.65 6.15116 C 2230.93 8.17893 2235.14 12.2811 2237.32 17.5017 C 2242.32 29.3679 2231.26 36.9875 2221.71 40.9876 C 2191.68 41.7269 2180.94 15.0117 2211.04 4.60199 z" fill="rgb(22,40,26)" transform="translate(0,0)"></path>
<path d="M 2047.38 62.1471 C 2079.53 58.557 2088.45 85.3222 2061.32 95.9068 C 2035.9 98.9002 2020.22 75.7396 2047.38 62.1471 z" fill="rgb(22,40,26)" transform="translate(0,0)"></path>
<path d="M 137.421 842.879 C 148.267 842.136 159.56 843.428 163.899 855.168 C 165.175 858.621 164.996 862.444 163.403 865.763 C 160.567 871.553 156.119 873.451 150.286 875.693 C 121.275 877.446 110.43 854.728 137.421 842.879 z" fill="rgb(22,40,26)" transform="translate(0,0)"></path>
<path d="M 2045.2 179.61 C 2057.29 185.068 2061.91 184.657 2073.16 188.326 L 2072.03 188.627 C 2069.35 189.267 2070.96 190.676 2069.67 193.268 C 2067.76 204.028 2067.47 214.733 2065.59 225.037 C 2064.97 226.062 2064.72 226.689 2064.23 227.768 C 2054.83 223.691 2054.29 222.767 2043.33 224.408 C 2038.15 220.412 2039.93 215.538 2041.68 209.681 C 2042.31 200.418 2041.71 192.758 2043.53 183.285 C 2045.55 181.861 2045.95 182.061 2045.2 179.61 z" fill="rgb(22,40,26)" transform="translate(0,0)"></path>
<path d="M 2043.33 224.408 C 2038.15 220.412 2039.93 215.538 2041.68 209.681 C 2041.71 211.74 2041.36 219.385 2042.08 220.937 C 2043.32 221.765 2049.76 219.924 2053.13 220.475 C 2059.1 221.451 2060.33 222.392 2065.59 225.037 C 2064.97 226.062 2064.72 226.689 2064.23 227.768 C 2054.83 223.691 2054.29 222.767 2043.33 224.408 z" fill="rgb(201,203,201)" transform="translate(0,0)"></path>
<path d="M 2045.2 179.61 C 2057.29 185.068 2061.91 184.657 2073.16 188.326 L 2072.03 188.627 C 2069.35 189.267 2070.96 190.676 2069.67 193.268 C 2068.46 186.932 2054.43 187.532 2046.93 184.628 L 2043.53 183.285 C 2045.55 181.861 2045.95 182.061 2045.2 179.61 z" fill="rgb(201,203,201)" transform="translate(0,0)"></path>
<path d="M 1578.19 227.61 C 1589.37 226.329 1591.25 226.026 1600.86 231.197 C 1606.87 239.06 1608.2 247.231 1599.43 253.599 C 1581.15 266.871 1549.89 242.905 1578.19 227.61 z" fill="rgb(22,40,26)" transform="translate(0,0)"></path>
<path d="M 1133.95 609.308 C 1142.57 609.471 1151.19 609.531 1159.81 609.488 C 1159.76 621.903 1161.41 631.265 1161.75 642.665 L 1131.26 642.864 C 1133.08 630.07 1133.78 622.13 1133.95 609.308 z" fill="rgb(22,40,26)" transform="translate(0,0)"></path>
<path d="M 1749.39 1710.91 C 1772.36 1705.2 1786.03 1730.52 1796.2 1747.09 C 1789.59 1748.93 1783.14 1750.51 1776.56 1752.55 C 1772.96 1750.22 1752.74 1716.5 1749.39 1710.91 z" fill="rgb(22,40,26)" transform="translate(0,0)"></path>
<path d="M 1669.26 233.315 C 1677.65 228.089 1681.62 226.849 1691.73 228.845 L 1693.59 229.178 C 1718.94 245.723 1689.72 265.729 1672.19 253.797 C 1664.39 248.486 1665.12 241.053 1669.26 233.315 z" fill="rgb(22,40,26)" transform="translate(0,0)"></path>
<path d="M 1736.55 103.268 C 1741.46 104.3 1739.83 103.071 1742.7 105.911 C 1743.83 119.034 1743.31 139.851 1743.32 153.453 L 1743.29 238.669 C 1739.32 238.543 1739.48 239.25 1737.18 237.191 C 1736.05 226.038 1736.82 201.323 1736.83 189.35 L 1736.55 103.268 z" fill="rgb(22,40,26)" transform="translate(0,0)"></path>
<path d="M 1549.17 152.822 L 1551.09 153.886 C 1552.92 154.881 1553.94 155.377 1555.75 156.49 C 1550.95 167.267 1545.35 186.354 1541.87 198.062 C 1537.79 211.765 1531.21 227.367 1527.76 240.622 C 1528.62 243.426 1534.66 242.333 1535.38 244.212 C 1537.7 250.331 1528.15 246.167 1526.67 247.13 C 1522.97 249.547 1524.66 254.087 1521.53 256.186 C 1520.25 257.048 1518.27 255.274 1517.96 254.221 C 1516.61 251.985 1521.42 246.173 1520.15 245.097 C 1518.46 243.605 1513.9 244.18 1512.4 242.511 C 1510.77 240.688 1512.64 237.149 1515.4 238.545 C 1515.62 238.66 1521.05 240.295 1521.4 239.194 C 1530.23 211.927 1543.14 180.685 1549.17 152.822 z" fill="rgb(22,40,26)" transform="translate(0,0)"></path>
<path d="M 1053.4 606.126 C 1065.59 607.927 1060.16 608.978 1075.48 608.647 C 1075.53 613.833 1077.77 635.979 1075.41 637.896 L 1051.05 637.888 C 1052.02 627.502 1052.2 616.249 1053.4 606.126 z" fill="rgb(22,40,26)" transform="translate(0,0)"></path>
<path d="M 1246.5 607.756 C 1248.53 609.154 1249.7 631.937 1250.51 636.901 L 1227.09 636.73 C 1226.96 636.728 1224.34 636.763 1224.31 636.308 C 1223.91 629.471 1225.11 615.997 1225.15 609.249 C 1230.71 609.342 1239.83 610.309 1244.82 608.381 L 1246.5 607.756 z" fill="rgb(22,40,26)" transform="translate(0,0)"></path>
<path d="M 1136.52 52.9179 C 1136.17 53.3659 1135.01 54.7091 1134.94 54.9337 C 1132.26 62.7891 1116.8 56.8169 1120.01 47.6582 C 1123.33 38.1767 1134.02 41.547 1137.31 49.2936 L 1138.22 51.2915 C 1139.37 51.6101 1139.69 51.5729 1140.95 51.6671 C 1146.49 50.3922 1167.41 51.5804 1160.67 62.9883 C 1159.2 65.4686 1141.6 59.7419 1137.98 58.8822 C 1137.5 56.8915 1137.02 54.9034 1136.52 52.9179 z" fill="rgb(22,40,26)" transform="translate(0,0)"></path>
<path d="M 1551.4 130.493 C 1559.76 129.941 1560.13 129.75 1567.82 132.572 C 1575.23 143.767 1568.79 148.254 1558.26 152.029 C 1555.36 151.538 1553.08 150.678 1550.27 149.967 L 1549.46 149.114 C 1543.68 143.147 1543.35 137.635 1549.8 131.943 L 1551.4 130.493 z" fill="rgb(22,40,26)" transform="translate(0,0)"></path>
<path d="M 1117.2 99.3923 C 1118.61 93.0118 1118.92 91.215 1119.72 84.7667 C 1123.25 85.4847 1133.66 86.3651 1135.62 89.9374 C 1136.92 92.2998 1136.68 92.9683 1139.56 93.1138 C 1145.7 93.4267 1151.79 94.387 1157.73 95.9786 C 1158.28 96.1271 1158.83 96.2756 1159.38 96.4241 C 1159.41 99.6087 1159.63 101.405 1159.99 104.59 C 1154.48 103.732 1146.74 102.642 1141.24 101.403 C 1139.2 100.945 1139.55 99.5425 1137.1 100.639 C 1132.66 102.623 1122.36 100.074 1117.2 99.3923 z" fill="rgb(22,40,26)" transform="translate(0,0)"></path>
<path d="M 1736.05 79.7156 C 1738.59 79.7792 1740.36 79.7663 1742.94 79.6313 C 1753.91 84.2852 1755.99 93.5739 1744.88 99.1882 C 1729.98 106.718 1718.73 84.9545 1732.47 80.7891 L 1736.05 79.7156 z" fill="rgb(22,40,26)" transform="translate(0,0)"></path>
<path d="M 1629.63 1246.6 C 1643.72 1247.23 1658.7 1245.64 1672.34 1247.37 C 1673.17 1247.48 1673.2 1254.52 1672.32 1254.64 C 1658.96 1256.42 1642.89 1255.22 1629.13 1255.4 C 1629.17 1251.63 1628.95 1250.25 1629.63 1246.6 z" fill="rgb(22,40,26)" transform="translate(0,0)"></path>
<path d="M 2147.46 139.013 C 2149.11 138.721 2150.76 138.383 2152.39 138.001 C 2152.19 147.284 2153.6 229.45 2151.51 230.772 C 2150.57 230.796 2149.35 229.811 2149.33 229.626 C 2147.3 210.875 2149.18 155.414 2147.46 139.013 z" fill="rgb(22,40,26)" transform="translate(0,0)"></path>
<path d="M 519.738 1295.85 C 526.723 1295.61 552.919 1295.02 560.67 1296.54 C 561.419 1296.69 561.579 1302.03 561.471 1302.09 C 561.463 1302.09 561.608 1304.91 561.609 1304.92 C 548.866 1303.12 534.638 1305.76 521.918 1304.09 C 520.876 1303.95 519.921 1296.7 519.738 1295.85 z" fill="rgb(22,40,26)" transform="translate(0,0)"></path>
<path d="M 1097.92 83.7001 C 1100.74 83.7538 1111.56 83.7529 1113.04 84.912 C 1116.32 87.4848 1116.12 99.1981 1109.34 99.7243 C 1100.74 99.8316 1092.93 101.688 1090.89 90.4969 C 1089.91 85.1167 1093.61 84.5436 1097.92 83.7001 z" fill="rgb(22,40,26)" transform="translate(0,0)"></path>
<path d="M 1628.61 1243.43 C 1628.64 1243.17 1629.06 1238.16 1629.73 1238.1 C 1643.85 1236.84 1659.02 1237.53 1673.38 1237.21 C 1673.33 1237.6 1672.81 1242.98 1672.14 1243.03 C 1658.49 1244.14 1642.28 1243.07 1628.61 1243.43 z" fill="rgb(22,40,26)" transform="translate(0,0)"></path>
<path d="M 1206.72 146.272 C 1209.94 148.022 1213.04 149.337 1216.34 150.906 C 1211.73 154.726 1198 170.361 1189.29 162.431 C 1185.82 159.267 1203.97 148.309 1206.72 146.272 z" fill="rgb(22,40,26)" transform="translate(0,0)"></path>
<path d="M 2139.67 125.577 C 2151.52 112.703 2167.67 126.95 2152.25 135.524 C 2150.8 135.619 2149.34 135.693 2147.88 135.744 C 2146.2 134.966 2145.33 134.575 2143.61 133.952 C 2140.21 130.757 2140.68 130.264 2139.67 125.577 z" fill="rgb(22,40,26)" transform="translate(0,0)"></path>
<path d="M 1149.46 124.337 C 1154.18 126.042 1158.09 129.727 1162.15 132.63 C 1164.49 134.31 1156.35 138.556 1155.44 139.12 C 1143.42 140.543 1134.41 132.236 1149.46 124.337 z" fill="rgb(22,40,26)" transform="translate(0,0)"></path>
<path d="M 2166.63 100.059 C 2175.8 100.929 2176.56 101.053 2178.92 109.902 C 2174.3 114.86 2168.35 118.347 2162.32 112.356 C 2161.16 111.21 2160.51 109.64 2160.54 108.01 C 2160.55 105.051 2162.93 102.944 2165.08 101.298 L 2166.63 100.059 z" fill="rgb(22,40,26)" transform="translate(0,0)"></path>
<path d="M 2001.03 167.775 L 2004.7 167.247 C 2007.57 166.856 2009.53 167.083 2012.34 166.728 C 2026.23 185.301 1992.01 186.296 2001.03 167.775 z" fill="rgb(22,40,26)" transform="translate(0,0)"></path>
<path d="M 144.56 121.477 C 146.599 111.499 149.66 117.18 150.564 123.978 C 145.078 125.013 151.495 186.209 147.009 187.59 C 144.132 185.977 148.724 129.323 144.56 121.477 z" fill="rgb(165,167,166)" transform="translate(0,0)"></path>
<path d="M 1726.62 243.415 C 1730.1 242.81 1750.67 240.756 1751.16 244.778 C 1751.24 245.389 1751.04 246.003 1750.63 246.46 C 1749.55 247.658 1744.49 247.271 1742.95 247.338 C 1742.91 249.15 1743.26 256.272 1742.26 257.182 C 1739.57 258.928 1736.89 257.526 1737.38 254.258 C 1739.25 241.911 1731.09 250.814 1727.57 244.891 L 1726.62 243.415 z" fill="rgb(22,40,26)" transform="translate(0,0)"></path>
<path d="M 1164.26 119.295 C 1169.92 117.894 1171.94 123.612 1177.98 127.213 C 1166.38 133.139 1166.03 130.687 1155.43 123.827 C 1158.36 122.286 1161.36 120.901 1164.26 119.295 z" fill="rgb(22,40,26)" transform="translate(0,0)"></path>
<path d="M 1736.08 64.6499 C 1737.51 59.7293 1738.45 60.9748 1743.35 60.4191 C 1743.05 62.6765 1742.79 74.8485 1742 75.3121 C 1734.89 79.4764 1736.44 68.1001 1736.08 64.6499 z" fill="rgb(22,40,26)" transform="translate(0,0)"></path>
<path d="M 2152.77 1265.27 C 2159.98 1269.41 2151.15 1274.17 2146.09 1279.5 C 2136.93 1276.66 2148.08 1270.14 2152.77 1265.27 z" fill="rgb(22,40,26)" transform="translate(0,0)"></path>
<path d="M 2041.8 1280.05 C 2047.37 1280.49 2059.42 1284.2 2059.89 1290.53 C 2054.24 1289.94 2042.4 1286.44 2041.8 1280.05 z" fill="rgb(22,40,26)" transform="translate(0,0)"></path>
<path d="M 2031.94 1312.19 C 2038.62 1311.99 2050.99 1308.98 2052.15 1315.78 C 2045.61 1316.14 2032.96 1319.39 2031.94 1312.19 z" fill="rgb(22,40,26)" transform="translate(0,0)"></path>
<path d="M 2072.54 1259.66 C 2079.67 1260.64 2083.23 1267.37 2083.39 1274.11 C 2076.82 1272.81 2072.91 1265.81 2072.54 1259.66 z" fill="rgb(22,40,26)" transform="translate(0,0)"></path>
<path d="M 2142.16 233.487 C 2147.86 232.684 2150.05 232.294 2155.53 233.016 C 2161.23 233.766 2159.76 235.588 2155.09 236.759 L 2153.08 237.349 C 2152.36 239.383 2153.27 241.845 2151.55 242.834 C 2147.69 242.841 2152.08 235.991 2147.1 236.03 C 2144.76 236.049 2143.7 235.027 2142.16 233.487 z" fill="rgb(22,40,26)" transform="translate(0,0)"></path>
<path d="M 2113.16 1253.43 C 2120.99 1254.93 2117.68 1259.87 2116.46 1267.62 C 2108.46 1269.43 2112.44 1259.44 2113.16 1253.43 z" fill="rgb(22,40,26)" transform="translate(0,0)"></path>
<path d="M 2057.4 1336.29 C 2063.64 1342.77 2052.91 1342.72 2046.65 1344.37 C 2040.35 1342.61 2055.01 1337.42 2057.4 1336.29 z" fill="rgb(22,40,26)" transform="translate(0,0)"></path>
<path d="M 2144.47 112.325 C 2147.28 112.306 2154.97 111.249 2150.73 116.218 C 2144.51 116.896 2142.22 119.109 2144.47 112.325 z" fill="rgb(22,40,26)" transform="translate(0,0)"></path>
<path d="M 688.2 1675.64 C 688.204 1681.49 687.23 1681.65 682.246 1684.95 L 680.702 1682.88 C 683.988 1681.03 683.96 1680.95 686.585 1678.44 L 688.2 1675.64 z" fill="rgb(82,87,84)" transform="translate(0,0)"></path>
<metadata><recraft-signature>{"signed_by": "recraft", "signature_b64": "IEQH9qJ8W14b5ZzfS+DJkA10THKhIHsLS1oYJgAMgw4MtO+Q2CM1qhTe+SVi8STG/sru/WRQ6VMpe9KEPATQDg==", "signing_algo": "Ed25519", "generation_timestamp": 1784860008, "identifier": "fc3a3653-d063-4c4b-b5f1-e2366129f483"}</recraft-signature></metadata></svg>