<svg xmlns="http://www.w3.org/2000/svg" viewBox="-9.06 -29.59 314.52 314.52" style="color:#16281A"><mask id="ma01" maskUnits="userSpaceOnUse" x="-9.06" y="-29.59" width="314.52" height="314.52"><rect x="-9.06" y="-29.59" width="314.52" height="314.52" fill="black"/><path d="M 24.4721 181.757 C 63.0182 161.646 124.752 100.465 147.049 62.9052 C 180.948 111.111 213.529 143.194 261.535 177.072 C 264.847 178.649 268.255 180.327 271.593 181.814 C 271.54 176.708 270.912 168.143 272.951 163.79 C 277.141 167.965 279.246 186.061 275.889 191.239 L 274.292 191.718 C 268.492 183.964 270.599 183.6 261.595 180.623 C 240.275 172.451 229.321 165.954 210.84 153.162 C 210.735 153.947 210.311 156.096 210.52 156.699 C 224.914 168.363 237.269 178.556 252.36 189.372 L 179.063 189.383 C 167.165 167.273 157.104 148.44 150.564 123.978 C 149.66 117.18 146.599 111.499 144.56 121.477 C 135.842 148.586 128.325 164.448 115.007 189.458 C 90.6057 189.904 66.1991 189.959 41.7964 189.623 C 56.8824 179.186 71.3956 167.945 85.273 155.948 L 82.7606 153.655 C 64.4114 168.117 46.8728 175.395 25.6294 184.428 C 24.5534 184.885 24.3282 190.209 24.2913 191.25 L 22.7046 192.43 L 20.3135 191.844 C 17.1466 186.397 18.222 168.71 22.6728 164.422 C 25.0956 170.574 24.5643 175.049 24.4721 181.757 z" fill="rgb(222,222,222)"/><path d="M 24.4721 181.757 C 63.0182 161.646 124.752 100.465 147.049 62.9052 C 180.948 111.111 213.529 143.194 261.535 177.072 C 264.847 178.649 268.255 180.327 271.593 181.814 C 271.54 176.708 270.912 168.143 272.951 163.79 C 277.141 167.965 279.246 186.061 275.889 191.239 L 274.292 191.718 C 268.492 183.964 270.599 183.6 261.595 180.623 C 240.275 172.451 229.321 165.954 210.84 153.162 C 207.925 149.585 189.746 134.926 184.873 129.941 C 169.727 114.444 159.527 101.199 147.048 83.6135 C 130.173 109.986 107.116 134.058 82.7606 153.655 C 64.4114 168.117 46.8728 175.395 25.6294 184.428 C 24.5534 184.885 24.3282 190.209 24.2913 191.25 L 22.7046 192.43 L 20.3135 191.844 C 17.1466 186.397 18.222 168.71 22.6728 164.422 C 25.0956 170.574 24.5643 175.049 24.4721 181.757 z" fill="rgb(222,222,222)"/><path d="M 82.7606 153.655 C 107.116 134.058 130.173 109.986 147.048 83.6135 C 159.527 101.199 169.727 114.444 184.873 129.941 C 189.746 134.926 207.925 149.585 210.84 153.162 C 210.735 153.947 210.311 156.096 210.52 156.699 C 191.963 144.778 160.997 108.838 148.397 90.8016 C 148.449 96.5431 148.906 104.278 147.497 109.623 C 145.781 105.853 145.534 96.9951 145.175 92.4542 C 128.192 116.248 108.039 137.61 85.273 155.948 L 82.7606 153.655 z" fill="rgb(53,53,53)"/><path d="M 144.56 121.477 C 146.599 111.499 149.66 117.18 150.564 123.978 C 145.078 125.013 151.495 186.209 147.009 187.59 C 144.132 185.977 148.724 129.323 144.56 121.477 z" fill="rgb(89,89,89)"/></mask><rect x="-9.06" y="-29.59" width="314.52" height="314.52" fill="currentColor" mask="url(#ma01)"/></svg>
