<svg xmlns="http://www.w3.org/2000/svg" viewBox="496.12 -25.34 305.95 305.95" style="color:#16281A"><mask id="ma02" maskUnits="userSpaceOnUse" x="496.12" y="-25.34" width="305.95" height="305.95"><rect x="496.12" y="-25.34" width="305.95" height="305.95" fill="black"/><path d="M 568.842 99.1751 C 558.69 87.7158 561.543 75.9208 561.911 61.0699 C 562.634 48.9296 558.492 27.3073 570.41 19.0505 C 597.293 0.426642 646.353 0.151816 676.456 3.71155 C 714.166 8.17083 741.197 13.553 734.675 57.6275 C 732.017 75.5866 741.02 80.6949 727.329 99.1598 C 721.824 100.703 715.733 100.301 709.921 100.313 L 709.966 72.5175 C 715.831 64.5521 722.185 30.6257 715.227 26.7232 C 705.549 36.2288 727.18 72.4376 688.236 76.7553 C 658.568 80.0446 618.835 84.1518 590.852 69.1424 C 582.302 64.5562 585.62 37.8595 583.897 28.084 L 582.366 27.2731 C 575.924 32.0549 580.755 62.6692 585.888 70.2018 L 585.526 100.284 C 578.906 100.293 575.468 100.432 568.842 99.1751 z" fill="rgb(222,222,222)"/><path d="M 569.24 102.987 C 575.995 104.365 578.913 104.269 585.646 104.299 L 585.369 169.023 C 585.241 186.905 579.421 223.145 603.997 225.612 C 625.269 227.746 647.433 225.571 668.863 226.316 C 687.7 227.014 698.83 228.159 709.541 210.772 C 710.83 176.297 709.598 138.784 709.949 103.984 C 714.415 103.938 722.633 104.094 726.777 103.548 C 727.922 121.931 735.366 131.257 735.95 137.838 C 737.287 152.938 738.858 207.17 736.305 219.052 C 735.08 225.029 732.383 230.606 728.459 235.278 C 711.585 255.111 668.485 247.096 644.081 248.325 C 626.093 249.23 605.066 249.092 587.292 247.242 C 580.106 246.129 574.844 242.636 569.234 238.371 C 566.177 235.041 560.768 228.328 559.902 224.06 C 554.491 197.404 559.444 165.615 557.24 137.679 C 563.734 124.736 569.115 117.872 569.24 102.987 z" fill="rgb(222,222,222)"/><path d="M 637.47 134.21 C 651.207 132.883 676.73 133.837 687.784 143.323 C 692.975 147.777 691.579 161.976 691.619 168.519 C 695.38 168.914 698.767 168.947 702.501 169.132 L 704.798 169.259 C 704.774 218.643 713.085 223.293 660.938 222.994 C 651.294 222.942 635.109 222.052 626.073 222.853 C 581.249 226.825 590.343 206.631 590.282 169.107 C 594.793 168.902 599.104 168.989 603.596 168.876 C 603.733 162.533 602.948 151.093 606.654 146.38 C 613.177 138.083 627.854 135.544 637.47 134.21 z" fill="rgb(222,222,222)"/><path d="M 642.18 170.153 C 667.394 169.971 673.744 190.198 651.368 199.044 C 642.536 199.344 632.552 198.193 629.267 188.327 C 628.245 185.21 628.501 181.814 629.981 178.886 C 632.502 173.794 637.161 172.01 642.18 170.153 z" fill="rgb(0,0,0)"/><path d="M 638.962 174.627 C 654.911 172.252 668.461 180.787 653.926 194.259 C 637.452 198.144 626.109 186.686 637.726 175.823 L 638.962 174.627 z" fill="rgb(222,222,222)"/><path d="M 615.088 104.057 L 704.65 103.92 C 704.576 122.154 704.43 140.431 704.64 158.63 C 704.729 163.75 705.581 165.31 700.342 165.165 C 695.169 165.48 695.25 164.126 695.407 159.189 C 695.875 144.514 692.95 139.906 679.396 134.646 L 677.577 134.168 C 663.158 130.384 648.146 129.405 633.357 131.283 C 610.679 134.29 598.391 141.275 598.803 164.485 C 598.819 165.365 591.074 165.754 591.02 164.836 C 589.86 145.019 590.311 124.203 590.311 104.133 L 615.088 104.057 z" fill="rgb(222,222,222)"/><path d="M 590.573 74.1162 C 618.597 85.427 677.39 87.1531 704.605 75.0247 L 704.733 93.6562 C 704.731 93.9433 705.047 99.7879 703.943 99.8105 C 667.008 100.567 627.18 100.176 590.413 100.222 C 590.356 91.52 590.41 82.8172 590.573 74.1162 z" fill="rgb(222,222,222)"/><path d="M 554.032 171.057 C 552.515 185.507 550.688 221.829 560.364 233.415 C 566.094 240.274 556.609 236.561 549.288 238.032 L 545.452 237.431 C 534.752 235.728 532.408 232.884 526.52 224.519 C 526.133 213.518 526.399 194.801 526.661 183.591 C 535.286 171.266 539.1 171.588 554.032 171.057 z" fill="rgb(222,222,222)"/><path d="M 741.138 170.894 C 764.704 173.366 768.143 177.166 767.225 201.495 C 766.545 219.498 772.068 227.102 754.144 236.624 C 745.989 238.133 738.497 238.17 730.261 238.38 C 746.464 219.204 740.945 196.846 741.138 170.894 z" fill="rgb(222,222,222)"/></mask><rect x="496.12" y="-25.34" width="305.95" height="305.95" fill="currentColor" mask="url(#ma02)"/></svg>
