<svg xmlns="http://www.w3.org/2000/svg" viewBox="961.64 -46.08 359.41 359.41"><path d="M 1029.43 99.2945 C 1029.97 95.4996 1029.61 92.6366 1031.74 90.4581 C 1035.77 90.3324 1063.55 94.1435 1068.77 95.6478 C 1099.08 104.389 1129.08 103.551 1159.95 108.072 C 1159.99 110.678 1159.96 113.278 1160.18 115.869 C 1154.11 123.04 1128.49 121.728 1139.75 139.474 C 1150.81 147.913 1169.91 134.551 1181.46 130.114 C 1186.93 136.415 1195.36 139.622 1201.71 144.763 C 1193.03 150.986 1187.64 155.031 1180.6 163.239 C 1189 166.263 1192.03 167.005 1200.85 168.588 C 1205.82 164.432 1216.63 155.015 1221.7 152.218 C 1247.26 160.171 1291.1 150.711 1285.39 196.916 C 1274.68 205.689 1257.14 208.273 1243.64 209.505 C 1220.59 211.58 1197.38 210.864 1174.51 207.373 C 1129.79 200.169 1088.39 188.207 1042.03 189.972 C 1037.52 190.144 1021.65 191.337 1018.49 190.331 L 1017.53 187.054 C 1018.36 177.091 1019.39 167.542 1022.47 157.982 C 1028.81 138.278 1030.49 120.04 1029.43 99.2945 z" fill="rgb(22,40,26)" transform="translate(0,0)"/><path d="M 1029.74 81.1118 C 1032.19 67.8372 1027.87 52.4056 1036.25 42.4172 C 1046.25 36.9953 1062.35 40.4758 1073.72 38.4507 C 1095.21 34.7289 1115.59 22.7544 1137.73 22.729 C 1151.67 22.713 1163.8 23.1146 1163.15 39.9398 C 1162.51 45.2788 1163.37 45.6911 1160.53 49.0874 C 1143.89 53.5126 1128.22 27.2655 1116.61 43.3907 C 1113.39 47.8635 1114.58 57.6528 1121.21 59.4576 C 1134.61 63.1046 1147.58 64.9729 1161.02 69.1055 C 1159.52 77.5516 1160.1 83.9998 1159.37 92.1207 C 1146.9 90.3094 1144.17 88.2237 1132.66 84.3666 C 1124.51 81.6363 1099.71 76.9002 1092.02 81.4584 C 1087.55 84.111 1087.02 87.3947 1085.66 92.1113 L 1085.24 93.6135 C 1076.42 94.7865 1042.42 88.4567 1031.74 86.042 C 1030.39 85.7363 1030.28 83.2123 1029.74 81.1118 z" fill="rgb(22,40,26)" transform="translate(0,0)"/><path d="M 1018.2 194.649 C 1042.89 192.649 1089.29 194.444 1113.86 199.217 C 1164.38 209.027 1203.53 219.145 1256.51 211.689 C 1270.09 209.779 1276.16 205.266 1286.17 202.535 C 1284.31 213.575 1284.82 214.637 1276.98 222.771 C 1268.71 224.666 1259.67 227.563 1252.26 223.386 C 1248.23 221.116 1247.12 221.486 1242.73 222.676 C 1234.68 230.787 1213.26 229.029 1202.28 228.488 C 1198.46 223.85 1197.64 223.228 1191.92 222.837 C 1160.55 244.535 1137.25 195.134 1105.41 218.43 C 1100.88 221.745 1096.11 225.035 1091.58 228.387 C 1085.06 228.808 1069.99 230.535 1064.5 228.051 C 1063.2 224.415 1064.09 225.457 1061.55 223.013 C 1058.25 222.612 1055.73 221.923 1052.67 223.079 C 1050.86 226.456 1051.76 225.611 1049.04 227.962 C 1015.77 231.267 991.59 201.57 1018.2 194.649 z" fill="rgb(22,40,26)" transform="translate(0,0)"/><path d="M 1136.52 52.9179 C 1136.17 53.3659 1135.01 54.7091 1134.94 54.9337 C 1132.26 62.7891 1116.8 56.8169 1120.01 47.6582 C 1123.33 38.1767 1134.02 41.547 1137.31 49.2936 L 1138.22 51.2915 C 1139.37 51.6101 1139.69 51.5729 1140.95 51.6671 C 1146.49 50.3922 1167.41 51.5804 1160.67 62.9883 C 1159.2 65.4686 1141.6 59.7419 1137.98 58.8822 C 1137.5 56.8915 1137.02 54.9034 1136.52 52.9179 z" fill="rgb(22,40,26)" transform="translate(0,0)"/><path d="M 1117.2 99.3923 C 1118.61 93.0118 1118.92 91.215 1119.72 84.7667 C 1123.25 85.4847 1133.66 86.3651 1135.62 89.9374 C 1136.92 92.2998 1136.68 92.9683 1139.56 93.1138 C 1145.7 93.4267 1151.79 94.387 1157.73 95.9786 C 1158.28 96.1271 1158.83 96.2756 1159.38 96.4241 C 1159.41 99.6087 1159.63 101.405 1159.99 104.59 C 1154.48 103.732 1146.74 102.642 1141.24 101.403 C 1139.2 100.945 1139.55 99.5425 1137.1 100.639 C 1132.66 102.623 1122.36 100.074 1117.2 99.3923 z" fill="rgb(22,40,26)" transform="translate(0,0)"/><path d="M 1097.92 83.7001 C 1100.74 83.7538 1111.56 83.7529 1113.04 84.912 C 1116.32 87.4848 1116.12 99.1981 1109.34 99.7243 C 1100.74 99.8316 1092.93 101.688 1090.89 90.4969 C 1089.91 85.1167 1093.61 84.5436 1097.92 83.7001 z" fill="rgb(22,40,26)" transform="translate(0,0)"/><path d="M 1206.72 146.272 C 1209.94 148.022 1213.04 149.337 1216.34 150.906 C 1211.73 154.726 1198 170.361 1189.29 162.431 C 1185.82 159.267 1203.97 148.309 1206.72 146.272 z" fill="rgb(22,40,26)" transform="translate(0,0)"/><path d="M 1149.46 124.337 C 1154.18 126.042 1158.09 129.727 1162.15 132.63 C 1164.49 134.31 1156.35 138.556 1155.44 139.12 C 1143.42 140.543 1134.41 132.236 1149.46 124.337 z" fill="rgb(22,40,26)" transform="translate(0,0)"/><path d="M 1164.26 119.295 C 1169.92 117.894 1171.94 123.612 1177.98 127.213 C 1166.38 133.139 1166.03 130.687 1155.43 123.827 C 1158.36 122.286 1161.36 120.901 1164.26 119.295 z" fill="rgb(22,40,26)" transform="translate(0,0)"/></svg>
