<svg xmlns="http://www.w3.org/2000/svg" viewBox="1477.83 -18.30 311.10 311.10" style="color:#16281A"><mask id="ma04" maskUnits="userSpaceOnUse" x="1477.83" y="-18.30" width="311.10" height="311.10"><rect x="1477.83" y="-18.30" width="311.10" height="311.10" fill="black"/><path d="M 1561.49 86.7057 C 1605.45 53.8914 1597.44 61.3764 1652.45 61.091 C 1664.1 67.9832 1675.47 75.3623 1686.5 83.209 C 1693.42 83.2217 1716.16 82.7084 1721.14 84.0108 L 1721.06 85.7317 C 1720.84 91.7651 1720.7 93.3393 1723.81 98.7787 C 1715.14 100.585 1687.14 100.838 1677.36 99.3783 C 1674.71 98.9828 1662.83 91.5962 1659.61 89.6237 C 1659.6 111.764 1662.01 133.293 1652.81 153.075 C 1659.39 156.793 1666.59 161.079 1673.2 164.582 C 1679.18 181.874 1686.47 206.733 1692.77 222.736 C 1687.59 227.262 1681.2 221.389 1667.67 229.719 C 1664.22 217.503 1655.96 196.797 1651.47 184.072 L 1634.88 175.631 C 1624.73 170.227 1614.54 164.885 1604.33 159.605 C 1580.87 144.581 1588.62 118.139 1588.84 92.6909 C 1574.27 103.476 1574.2 111.842 1569.2 129.387 C 1560.45 125.753 1559.26 125.494 1550.08 127.664 C 1554.73 114.441 1558.02 100.318 1561.49 86.7057 z" fill="rgb(222,222,222)"/><path d="M 1621.68 9.27724 C 1658.06 7.62162 1667.48 43.1988 1632.3 53.602 C 1599.26 55.4951 1583.3 19.8047 1621.68 9.27724 z" fill="rgb(222,222,222)"/><path d="M 1602.09 163.278 C 1610.9 167.419 1624.1 173.914 1632.11 179.238 C 1629.62 183.717 1625.37 191.719 1622.59 195.809 C 1619.12 200.915 1608.59 226.207 1603.78 226.94 L 1602.33 227.116 C 1593.92 222.075 1586.39 224.085 1577.14 223.635 C 1583.17 204.784 1595.46 181.503 1602.09 163.278 z" fill="rgb(222,222,222)"/><path d="M 1578.19 227.61 C 1589.37 226.329 1591.25 226.026 1600.86 231.197 C 1606.87 239.06 1608.2 247.231 1599.43 253.599 C 1581.15 266.871 1549.89 242.905 1578.19 227.61 z" fill="rgb(222,222,222)"/><path d="M 1669.26 233.315 C 1677.65 228.089 1681.62 226.849 1691.73 228.845 L 1693.59 229.178 C 1718.94 245.723 1689.72 265.729 1672.19 253.797 C 1664.39 248.486 1665.12 241.053 1669.26 233.315 z" fill="rgb(222,222,222)"/><path d="M 1736.55 103.268 C 1741.46 104.3 1739.83 103.071 1742.7 105.911 C 1743.83 119.034 1743.31 139.851 1743.32 153.453 L 1743.29 238.669 C 1739.32 238.543 1739.48 239.25 1737.18 237.191 C 1736.05 226.038 1736.82 201.323 1736.83 189.35 L 1736.55 103.268 z" fill="rgb(222,222,222)"/><path d="M 1549.17 152.822 L 1551.09 153.886 C 1552.92 154.881 1553.94 155.377 1555.75 156.49 C 1550.95 167.267 1545.35 186.354 1541.87 198.062 C 1537.79 211.765 1531.21 227.367 1527.76 240.622 C 1528.62 243.426 1534.66 242.333 1535.38 244.212 C 1537.7 250.331 1528.15 246.167 1526.67 247.13 C 1522.97 249.547 1524.66 254.087 1521.53 256.186 C 1520.25 257.048 1518.27 255.274 1517.96 254.221 C 1516.61 251.985 1521.42 246.173 1520.15 245.097 C 1518.46 243.605 1513.9 244.18 1512.4 242.511 C 1510.77 240.688 1512.64 237.149 1515.4 238.545 C 1515.62 238.66 1521.05 240.295 1521.4 239.194 C 1530.23 211.927 1543.14 180.685 1549.17 152.822 z" fill="rgb(222,222,222)"/><path d="M 1551.4 130.493 C 1559.76 129.941 1560.13 129.75 1567.82 132.572 C 1575.23 143.767 1568.79 148.254 1558.26 152.029 C 1555.36 151.538 1553.08 150.678 1550.27 149.967 L 1549.46 149.114 C 1543.68 143.147 1543.35 137.635 1549.8 131.943 L 1551.4 130.493 z" fill="rgb(222,222,222)"/><path d="M 1736.05 79.7156 C 1738.59 79.7792 1740.36 79.7663 1742.94 79.6313 C 1753.91 84.2852 1755.99 93.5739 1744.88 99.1882 C 1729.98 106.718 1718.73 84.9545 1732.47 80.7891 L 1736.05 79.7156 z" fill="rgb(222,222,222)"/><path d="M 1726.62 243.415 C 1730.1 242.81 1750.67 240.756 1751.16 244.778 C 1751.24 245.389 1751.04 246.003 1750.63 246.46 C 1749.55 247.658 1744.49 247.271 1742.95 247.338 C 1742.91 249.15 1743.26 256.272 1742.26 257.182 C 1739.57 258.928 1736.89 257.526 1737.38 254.258 C 1739.25 241.911 1731.09 250.814 1727.57 244.891 L 1726.62 243.415 z" fill="rgb(222,222,222)"/><path d="M 1736.08 64.6499 C 1737.51 59.7293 1738.45 60.9748 1743.35 60.4191 C 1743.05 62.6765 1742.79 74.8485 1742 75.3121 C 1734.89 79.4764 1736.44 68.1001 1736.08 64.6499 z" fill="rgb(222,222,222)"/></mask><rect x="1477.83" y="-18.30" width="311.10" height="311.10" fill="currentColor" mask="url(#ma04)"/></svg>
