<svg xmlns="http://www.w3.org/2000/svg" viewBox="1960.81 -54.21 374.39 374.39" style="color:#16281A"><mask id="ma05" maskUnits="userSpaceOnUse" x="1960.81" y="-54.21" width="374.39" height="374.39"><rect x="1960.81" y="-54.21" width="374.39" height="374.39" fill="black"/><path d="M 2303.9 41.1295 C 2299.95 37.035 2289.41 22.7212 2296.22 18.256 C 2300.04 19.0724 2301.1 20.5308 2304 23.1412 L 2304 53.3208 L 2304 163.649 C 2299.94 166.352 2294.82 170.708 2290.2 170.269 C 2286.92 167.558 2287.93 168.325 2286.32 163.684 C 2283.35 163.897 2264.5 165.877 2263.27 165.834 C 2260.28 167.977 2258.55 168.69 2257.31 172.353 C 2257.77 175.12 2258.19 177.235 2258.83 179.965 C 2255.77 183.578 2246.11 185.671 2241.57 186.528 L 2240.3 185.839 L 2240.26 176.904 L 2241.31 174.199 C 2233.48 174.147 2225.65 174.696 2217.91 175.841 C 2217.07 162.472 2216.98 147.337 2216.63 133.809 C 2220.61 128.256 2226.41 121.856 2230.98 116.542 C 2221.3 104.864 2216.2 91.7459 2211 77.7133 C 2203.59 88.5417 2195.88 104.962 2183.55 109.139 L 2179.97 99.9289 C 2190.45 89.398 2197.15 59.3777 2214.87 49.5014 C 2240.04 35.4736 2251.68 45.4048 2275.8 51.2596 C 2284.91 48.28 2294.82 44.4311 2303.9 41.1295 z" fill="rgb(222,222,222)"/><path d="M 2273.68 65.5119 C 2284.95 61.4597 2293.09 58.1284 2304 53.3208 L 2304 163.649 C 2299.94 166.352 2294.82 170.708 2290.2 170.269 C 2286.92 167.558 2287.93 168.325 2286.32 163.684 C 2283.35 163.897 2264.5 165.877 2263.27 165.834 C 2260.28 167.977 2258.55 168.69 2257.31 172.353 C 2257.77 175.12 2258.19 177.235 2258.83 179.965 C 2255.77 183.578 2246.11 185.671 2241.57 186.528 L 2240.3 185.839 L 2240.26 176.904 L 2241.31 174.199 C 2243.08 169.555 2242.24 145.414 2242.14 138.307 C 2245.67 135.609 2249.26 132.412 2252.66 129.502 C 2254.5 139.009 2258.73 153.736 2261.71 162.831 C 2268.83 161.691 2279 161.901 2285.58 159.828 C 2280.36 143.723 2279.08 119.214 2275.46 102.444 C 2272.31 87.797 2266.01 75.8342 2259.4 62.5962 C 2264.03 63.6577 2269 64.5666 2273.68 65.5119 z" fill="rgb(0,0,0)"/><path d="M 2263.27 165.834 C 2264.5 165.877 2283.35 163.897 2286.32 163.684 C 2287.93 168.325 2286.92 167.558 2290.2 170.269 C 2294.82 170.708 2299.94 166.352 2304 163.649 L 2304 171.002 C 2297.65 174.251 2288.05 179.437 2281.25 181.384 C 2246.35 191.388 2211.98 202.938 2177.27 213.625 C 2172.11 215.214 2163.2 218.276 2158.03 218.441 L 2157.05 216.234 C 2159.97 209.778 2205.23 203.347 2208.96 196.29 L 2208.46 194.945 C 2206.82 190.371 2206.27 189.746 2207 185.203 C 2209.14 181.396 2211.5 179.989 2215.67 178.842 C 2216.59 177.675 2217.09 177.011 2217.91 175.841 C 2225.65 174.696 2233.48 174.147 2241.31 174.199 L 2240.26 176.904 L 2240.3 185.839 L 2241.57 186.528 C 2246.11 185.671 2255.77 183.578 2258.83 179.965 C 2258.19 177.235 2257.77 175.12 2257.31 172.353 C 2258.55 168.69 2260.28 167.977 2263.27 165.834 z" fill="rgb(222,222,222)"/><path d="M 2217.91 175.841 C 2225.65 174.696 2233.48 174.147 2241.31 174.199 L 2240.26 176.904 C 2231.3 176.86 2224.53 177.729 2215.67 178.842 C 2216.59 177.675 2217.09 177.011 2217.91 175.841 z" fill="rgb(53,53,53)"/><path d="M 2005.27 133.994 C 2032.78 109.179 2032.34 101.947 2070.7 102.598 C 2078.68 107.188 2094.88 119.465 2103.08 125.191 C 2113.33 125.064 2124.71 124.119 2135.36 123.869 C 2135.48 129.919 2135.45 130.891 2139.04 135.862 C 2125.47 136.974 2110.85 138.416 2097.35 139.082 C 2090.46 135.293 2085.86 132.369 2079.34 127.963 C 2079.34 139.591 2079.19 151.666 2079.37 163.255 C 2088.57 165.988 2126.25 175.482 2131.94 182.435 C 2133.87 184.799 2133.05 207.706 2133.14 213.182 C 2125.1 210.94 2122.29 213.218 2115.72 211.789 C 2112.6 208.279 2113.4 206.612 2112.84 201.178 L 2112.63 196.928 C 2108.27 192.134 2081.26 189.468 2073.16 188.326 C 2061.91 184.657 2057.29 185.068 2045.2 179.61 C 2031.57 167.005 2035.15 147.931 2034.03 128.737 C 2016.59 140.241 2016.85 144.144 2015.07 164.675 C 2010.23 163.83 2005.91 164.051 2001 164.062 C 2003.01 155.093 2004.13 143.309 2005.27 133.994 z" fill="rgb(222,222,222)"/><path d="M 2112.96 218.285 C 2120.87 214.491 2122.74 214.872 2131.44 216.629 C 2144.61 230.759 2126.25 239.372 2113.27 232.014 C 2081.04 242.249 2045.81 253.557 2013.02 261.849 L 2011.33 260.71 C 2014.89 255.561 2034.91 251.118 2042.7 248.504 C 2031.13 239.546 2031.21 232.791 2043.33 224.408 C 2054.29 222.767 2054.83 223.691 2064.23 227.768 C 2067.5 232.928 2067.4 234.628 2068.25 240.783 C 2077.78 237.949 2101.47 231.467 2109.17 227.305 C 2110.05 224.453 2110.56 222.62 2112.01 219.976 L 2112.96 218.285 z" fill="rgb(222,222,222)"/><path d="M 2211.04 4.60199 C 2216.67 4.37758 2220.34 4.12552 2225.65 6.15116 C 2230.93 8.17893 2235.14 12.2811 2237.32 17.5017 C 2242.32 29.3679 2231.26 36.9875 2221.71 40.9876 C 2191.68 41.7269 2180.94 15.0117 2211.04 4.60199 z" fill="rgb(222,222,222)"/><path d="M 2047.38 62.1471 C 2079.53 58.557 2088.45 85.3222 2061.32 95.9068 C 2035.9 98.9002 2020.22 75.7396 2047.38 62.1471 z" fill="rgb(222,222,222)"/><path d="M 2045.2 179.61 C 2057.29 185.068 2061.91 184.657 2073.16 188.326 L 2072.03 188.627 C 2069.35 189.267 2070.96 190.676 2069.67 193.268 C 2067.76 204.028 2067.47 214.733 2065.59 225.037 C 2064.97 226.062 2064.72 226.689 2064.23 227.768 C 2054.83 223.691 2054.29 222.767 2043.33 224.408 C 2038.15 220.412 2039.93 215.538 2041.68 209.681 C 2042.31 200.418 2041.71 192.758 2043.53 183.285 C 2045.55 181.861 2045.95 182.061 2045.2 179.61 z" fill="rgb(222,222,222)"/><path d="M 2043.33 224.408 C 2038.15 220.412 2039.93 215.538 2041.68 209.681 C 2041.71 211.74 2041.36 219.385 2042.08 220.937 C 2043.32 221.765 2049.76 219.924 2053.13 220.475 C 2059.1 221.451 2060.33 222.392 2065.59 225.037 C 2064.97 226.062 2064.72 226.689 2064.23 227.768 C 2054.83 223.691 2054.29 222.767 2043.33 224.408 z" fill="rgb(53,53,53)"/><path d="M 2045.2 179.61 C 2057.29 185.068 2061.91 184.657 2073.16 188.326 L 2072.03 188.627 C 2069.35 189.267 2070.96 190.676 2069.67 193.268 C 2068.46 186.932 2054.43 187.532 2046.93 184.628 L 2043.53 183.285 C 2045.55 181.861 2045.95 182.061 2045.2 179.61 z" fill="rgb(53,53,53)"/><path d="M 2147.46 139.013 C 2149.11 138.721 2150.76 138.383 2152.39 138.001 C 2152.19 147.284 2153.6 229.45 2151.51 230.772 C 2150.57 230.796 2149.35 229.811 2149.33 229.626 C 2147.3 210.875 2149.18 155.414 2147.46 139.013 z" fill="rgb(222,222,222)"/><path d="M 2139.67 125.577 C 2151.52 112.703 2167.67 126.95 2152.25 135.524 C 2150.8 135.619 2149.34 135.693 2147.88 135.744 C 2146.2 134.966 2145.33 134.575 2143.61 133.952 C 2140.21 130.757 2140.68 130.264 2139.67 125.577 z" fill="rgb(222,222,222)"/><path d="M 2166.63 100.059 C 2175.8 100.929 2176.56 101.053 2178.92 109.902 C 2174.3 114.86 2168.35 118.347 2162.32 112.356 C 2161.16 111.21 2160.51 109.64 2160.54 108.01 C 2160.55 105.051 2162.93 102.944 2165.08 101.298 L 2166.63 100.059 z" fill="rgb(222,222,222)"/><path d="M 2001.03 167.775 L 2004.7 167.247 C 2007.57 166.856 2009.53 167.083 2012.34 166.728 C 2026.23 185.301 1992.01 186.296 2001.03 167.775 z" fill="rgb(222,222,222)"/><path d="M 2142.16 233.487 C 2147.86 232.684 2150.05 232.294 2155.53 233.016 C 2161.23 233.766 2159.76 235.588 2155.09 236.759 L 2153.08 237.349 C 2152.36 239.383 2153.27 241.845 2151.55 242.834 C 2147.69 242.841 2152.08 235.991 2147.1 236.03 C 2144.76 236.049 2143.7 235.027 2142.16 233.487 z" fill="rgb(222,222,222)"/><path d="M 2144.47 112.325 C 2147.28 112.306 2154.97 111.249 2150.73 116.218 C 2144.51 116.896 2142.22 119.109 2144.47 112.325 z" fill="rgb(222,222,222)"/></mask><rect x="1960.81" y="-54.21" width="374.39" height="374.39" fill="currentColor" mask="url(#ma05)"/></svg>
