<svg xmlns="http://www.w3.org/2000/svg" viewBox="-28.79 350.74 345.52 345.52" style="color:#16281A"><mask id="ma06" maskUnits="userSpaceOnUse" x="-28.79" y="350.74" width="345.52" height="345.52"><rect x="-28.79" y="350.74" width="345.52" height="345.52" fill="black"/><path d="M 142.502 503.343 C 142.802 494.177 141.508 441.933 144.133 438.227 L 145.155 440.148 C 157.647 444.946 181.673 446.223 190.379 454.461 C 191.921 458.367 192.054 456.568 191.099 460.021 C 184.333 465.839 158.908 468.877 148.659 470.671 C 146.351 472.024 145.851 471.638 145.634 473.73 C 144.7 482.748 145.277 494.759 145.4 503.783 C 153.015 512.763 159.009 519.339 167.177 527.784 C 173.411 523.392 180.31 518.73 186.282 514.096 C 219.702 545.912 254.507 576.875 287.935 608.773 L 0 608.674 L 0 607.259 C 21.7145 586.28 50.9175 561.731 74.0464 541.21 L 83.2791 549.478 L 113.975 523.425 L 124.558 531.073 C 129.55 519.301 134.491 513.444 142.502 503.343 z" fill="rgb(222,222,222)"/><path d="M 178.474 543.38 C 187.546 542.623 203.23 550.735 208.558 557.323 C 202.002 556.88 194.024 549.598 188.373 547.455 C 178.167 543.583 162.03 553.351 152.24 558.028 C 146.759 554.628 143.52 552.698 137.55 549.9 C 110.451 567.382 102.103 587.622 65.4864 575.854 C 57.1155 573.236 51.7512 583.701 41.0437 589.066 C 46.4443 582.319 53.5165 576.672 60.1038 571.017 C 100.615 586.531 106.675 566.788 137.352 546.634 L 152.329 554.387 C 161.342 550.334 169.243 546.86 178.474 543.38 z" fill="rgb(53,53,53)"/></mask><rect x="-28.79" y="350.74" width="345.52" height="345.52" fill="currentColor" mask="url(#ma06)"/></svg>
