<svg xmlns="http://www.w3.org/2000/svg" viewBox="434.25 334.41 417.37 417.37" style="color:#16281A"><mask id="ma07" maskUnits="userSpaceOnUse" x="434.25" y="334.41" width="417.37" height="417.37"><rect x="434.25" y="334.41" width="417.37" height="417.37" fill="black"/><path d="M 656.336 487.435 C 665.636 493.708 674.961 499.947 684.272 506.205 C 703.818 519.343 722.869 529.049 741.405 543.797 L 744.011 546.509 C 745.796 545.405 750.562 542.27 751.476 542.893 C 765.234 552.262 806.104 589.264 816.835 598.607 L 469.03 598.76 C 507.555 568.297 546.41 538.254 585.589 508.636 C 594.389 513.992 603.063 519.553 611.603 525.314 L 613.365 522.778 C 625.902 511.751 642.975 497.289 656.336 487.435 z" fill="rgb(222,222,222)"/><path d="M 656.336 487.435 C 665.636 493.708 674.961 499.947 684.272 506.205 C 703.818 519.343 722.869 529.049 741.405 543.797 C 735.134 548.543 726.94 552.58 719.918 556.319 C 711.294 551.584 706.811 549.677 697.391 547.777 C 691.377 549.654 685.965 552.309 680.228 554.908 C 669.496 545.215 656.337 531.819 642.377 527.23 C 631.522 523.661 622.53 531.234 613.365 522.778 C 625.902 511.751 642.975 497.289 656.336 487.435 z" fill="rgb(222,222,222)"/><path d="M 611.603 525.314 L 613.365 522.778 C 622.53 531.234 631.522 523.661 642.377 527.23 C 656.337 531.819 669.496 545.215 680.228 554.908 C 685.965 552.309 691.377 549.654 697.391 547.777 C 706.811 549.677 711.294 551.584 719.918 556.319 C 726.94 552.58 735.134 548.543 741.405 543.797 L 744.011 546.509 C 735.785 551.407 728.331 555.435 719.838 559.878 C 710.732 554.855 708.089 553.269 698.21 550.377 C 682.063 555.633 662.987 568.459 647.437 571.047 C 631.174 573.753 598.79 546.05 584.982 535.651 C 578.965 540.63 572.475 547.112 566.747 552.59 C 559.82 551.683 557.729 551.661 550.817 551.902 C 546.522 554.864 539.319 560.497 534.435 560.878 L 535.142 559.204 L 535.804 560.167 L 535.617 558.708 C 545.98 549.77 553.646 548.388 566.054 549.082 C 572.814 542.381 577.86 537.89 585.199 531.795 C 604.576 546.717 622.176 562.473 645.662 569.556 C 656.947 567.059 666.431 561.81 676.687 556.684 C 666.797 547.26 654.667 534.817 641.677 530.151 C 629.105 525.634 622.581 534.684 611.603 525.314 z" fill="rgb(53,53,53)"/></mask><rect x="434.25" y="334.41" width="417.37" height="417.37" fill="currentColor" mask="url(#ma07)"/></svg>
