<svg xmlns="http://www.w3.org/2000/svg" viewBox="968.48 350.26 361.06 361.06" style="color:#16281A"><mask id="ma08" maskUnits="userSpaceOnUse" x="968.48" y="350.26" width="361.06" height="361.06"><rect x="968.48" y="350.26" width="361.06" height="361.06" fill="black"/><path d="M 1146.41 418.715 C 1161.95 441.67 1180.39 466.018 1194.71 489.397 C 1191.47 489.482 1184.62 488.829 1182.84 490.554 C 1187.35 497.804 1205.13 517.561 1206.18 524.419 L 1203.75 525.285 C 1199.51 524.829 1198.85 524 1195.71 525.617 C 1195.4 532.786 1211.78 550.567 1216.57 559.105 L 1202.15 560.567 C 1206.83 566.85 1233.5 600.897 1234.37 605.185 C 1216.66 603.839 1188.5 604.826 1170.12 604.844 L 1061.44 604.703 C 1072.39 590.946 1084.07 574.181 1094.56 559.83 L 1078.31 559.522 C 1086.84 547.848 1095.22 536.055 1103.42 524.146 L 1088.35 524.967 C 1093.72 516.357 1108.44 497.22 1115.05 489.445 L 1100.32 489.09 C 1115.8 466.616 1131.53 441.702 1146.41 418.715 z" fill="rgb(222,222,222)"/><path d="M 1205.06 528.615 C 1208.56 529.098 1210.35 529.79 1213.32 528.001 C 1214.7 520.305 1206.91 522.169 1213.97 511.795 L 1213.07 510.508 L 1207.35 510.152 C 1206 505.377 1231.82 471.161 1236.36 463.733 C 1240.64 470.272 1266.37 506.513 1265.57 510.681 L 1259.74 511.317 C 1258.68 516.052 1274.76 533.674 1277.95 540.13 L 1276.8 541.255 C 1273.03 541.182 1271.17 540.392 1268.85 542.166 C 1272.07 551.014 1282.47 560.363 1287.65 570.568 L 1287.08 571.693 C 1283.32 571.971 1280.56 572.085 1276.79 572.117 C 1284.88 582.625 1292.05 593.53 1299.45 604.519 C 1280.35 604.56 1260.29 604.297 1241.29 605.235 C 1235.73 597.948 1216.02 573.224 1213.06 566.129 C 1214.64 564.468 1219.16 564.579 1222.14 564.195 L 1223.14 561.974 C 1221.38 553.107 1208.9 539.695 1203.12 530.623 L 1205.06 528.615 z" fill="rgb(222,222,222)"/><path d="M 1060.95 462.255 C 1065.76 468.995 1091.43 503.125 1089.59 508.031 L 1084.47 508.782 L 1083.71 510.286 C 1085.52 512.95 1086.51 513.736 1086.62 516.884 C 1084.57 520.561 1082.33 523.374 1082.61 527.4 C 1085.54 530.064 1086.68 529.114 1091.9 529.348 L 1092.73 530.582 C 1089.46 537.139 1074.43 555.339 1068.81 563.777 C 1073.89 564.11 1079.78 564.061 1084.94 564.145 C 1076.44 576.806 1064.4 594.314 1054.55 605.669 C 1054.14 605.574 1053.73 605.478 1053.32 605.383 L 1051.32 604.96 C 1043.86 603.31 1037.32 603.551 1029.66 603.402 L 998.569 603.326 C 1005.43 592.224 1013.98 580.567 1021.54 569.801 L 1007.49 569.653 C 1012.73 562.848 1027.24 545.261 1029.48 538.458 L 1029.38 539.644 L 1029.26 538.316 C 1025.62 538.417 1024.43 538.599 1020.8 537.722 C 1021.29 528.698 1039.3 515.67 1038.32 508.963 C 1035.17 508.499 1034.29 508.438 1031.21 507.417 C 1031.85 503.536 1057.02 467.582 1060.95 462.255 z" fill="rgb(222,222,222)"/><path d="M 1133.95 609.308 C 1142.57 609.471 1151.19 609.531 1159.81 609.488 C 1159.76 621.903 1161.41 631.265 1161.75 642.665 L 1131.26 642.864 C 1133.08 630.07 1133.78 622.13 1133.95 609.308 z" fill="rgb(222,222,222)"/><path d="M 1053.4 606.126 C 1065.59 607.927 1060.16 608.978 1075.48 608.647 C 1075.53 613.833 1077.77 635.979 1075.41 637.896 L 1051.05 637.888 C 1052.02 627.502 1052.2 616.249 1053.4 606.126 z" fill="rgb(222,222,222)"/><path d="M 1246.5 607.756 C 1248.53 609.154 1249.7 631.937 1250.51 636.901 L 1227.09 636.73 C 1226.96 636.728 1224.34 636.763 1224.31 636.308 C 1223.91 629.471 1225.11 615.997 1225.15 609.249 C 1230.71 609.342 1239.83 610.309 1244.82 608.381 L 1246.5 607.756 z" fill="rgb(222,222,222)"/></mask><rect x="968.48" y="350.26" width="361.06" height="361.06" fill="currentColor" mask="url(#ma08)"/></svg>
