<svg xmlns="http://www.w3.org/2000/svg" viewBox="1477.91 362.47 350.52 350.52" style="color:#16281A"><mask id="ma09" maskUnits="userSpaceOnUse" x="1477.91" y="362.47" width="350.52" height="350.52"><rect x="1477.91" y="362.47" width="350.52" height="350.52" fill="black"/><path d="M 1509.22 608.579 C 1507.64 606.168 1507.12 492.748 1508.79 483.74 L 1509.48 491.278 C 1509.73 494.062 1509.54 494.528 1511.42 496.519 C 1524.48 500.246 1532.01 499.655 1545.95 504.931 C 1557.8 509.419 1592.26 535.18 1598.04 536.289 L 1596.01 540.045 C 1615.14 550.162 1664.97 575.701 1648.18 603.641 C 1647.18 605.277 1646.14 606.887 1645.05 608.467 L 1509.22 608.579 z" fill="rgb(222,222,222)"/><path d="M 1509.22 608.579 C 1507.64 606.168 1507.12 492.748 1508.79 483.74 L 1509.48 491.278 C 1509.73 494.062 1509.54 494.528 1511.42 496.519 C 1524.48 500.246 1532.01 499.655 1545.95 504.931 C 1557.8 509.419 1592.26 535.18 1598.04 536.289 L 1596.01 540.045 C 1566.09 520.054 1546.22 502.572 1509.56 500.243 L 1509.55 572.249 C 1509.56 580.855 1510.07 600.809 1509.22 608.579 z" fill="rgb(53,53,53)"/><path d="M 1797.2 482.133 C 1799.04 491.304 1799.22 597.95 1797.35 608.599 L 1718.67 608.659 C 1719.03 605.728 1719.41 602.706 1719.76 599.774 C 1723.24 570.835 1656.89 563.877 1660.61 541.228 C 1669.61 528.929 1701.73 526.714 1716.1 523.107 C 1725.51 520.746 1733.8 517.842 1742.94 514.672 L 1740.92 512.226 C 1759.1 505.569 1777.53 500.14 1796.8 497.906 C 1796.6 491.69 1796.47 488.449 1797.2 482.133 z" fill="rgb(222,222,222)"/><path d="M 1797.2 482.133 C 1799.04 491.304 1799.22 597.95 1797.35 608.599 C 1796 600.773 1796.39 579.351 1796.4 570.442 L 1796.62 500.9 C 1777.28 503.343 1761.23 508.075 1742.94 514.672 L 1740.92 512.226 C 1759.1 505.569 1777.53 500.14 1796.8 497.906 C 1796.6 491.69 1796.47 488.449 1797.2 482.133 z" fill="rgb(53,53,53)"/><path d="M 1508.79 483.74 C 1585.3 466.804 1603.31 515.513 1659.81 514.541 C 1711.07 513.658 1721.66 473.02 1797.2 482.133 C 1796.47 488.449 1796.6 491.69 1796.8 497.906 C 1777.53 500.14 1759.1 505.569 1740.92 512.226 C 1733.63 514.928 1725.44 518.749 1717.69 519.446 C 1694.23 521.557 1610.72 513.223 1598.41 535.455 C 1598.27 535.721 1598.16 536.011 1598.04 536.289 C 1592.26 535.18 1557.8 509.419 1545.95 504.931 C 1532.01 499.655 1524.48 500.246 1511.42 496.519 C 1509.54 494.528 1509.73 494.062 1509.48 491.278 L 1508.79 483.74 z" fill="rgb(222,222,222)"/></mask><rect x="1477.91" y="362.47" width="350.52" height="350.52" fill="currentColor" mask="url(#ma09)"/></svg>
