<svg xmlns="http://www.w3.org/2000/svg" viewBox="1966.42 355.12 357.77 357.77" style="color:#16281A"><mask id="ma10" maskUnits="userSpaceOnUse" x="1966.42" y="355.12" width="357.77" height="357.77"><rect x="1966.42" y="355.12" width="357.77" height="357.77" fill="black"/><path d="M 1996.23 533.307 C 1996.65 509.811 2001.8 492.323 2019.75 475.69 C 2082.16 417.864 2212.44 418.315 2273.03 478.792 C 2288.73 494.465 2293.51 512.002 2294.37 533.332 C 2275.98 514.707 2254.03 501.041 2230.54 489.793 C 2223.46 495.332 2176.27 591.309 2164.66 609.547 C 2162.33 616.163 2160.56 624.044 2159.3 630.954 C 2161.15 633.842 2162.99 632.885 2163.73 634.532 C 2163.62 635.475 2162.78 635.531 2161.98 635.89 C 2157.49 641.122 2154.69 644.625 2150.63 650.149 C 2146.89 650.103 2143.15 650.096 2139.41 650.127 C 2135.17 644.117 2133.66 641.438 2128.77 635.847 C 2127.36 632.675 2129.28 633.617 2132.26 632.169 C 2130.96 627.544 2130.25 623.294 2128.84 618.756 C 2127.87 615.595 2126.84 612.455 2125.73 609.34 C 2122.13 600.704 2062.22 491.511 2060.18 489.686 C 2032.61 502.043 2018 513.563 1996.23 533.307 z" fill="rgb(0,0,0)"/><path d="M 1996.23 533.307 C 1996.65 509.811 2001.8 492.323 2019.75 475.69 C 2082.16 417.864 2212.44 418.315 2273.03 478.792 C 2288.73 494.465 2293.51 512.002 2294.37 533.332 C 2275.98 514.707 2254.03 501.041 2230.54 489.793 L 2227.11 488.404 C 2221.66 485.7 2215.29 482.978 2209.68 480.44 L 2206.83 479.774 C 2159.43 467.008 2132.04 466.501 2084.72 479.682 L 2081.23 480.811 C 2075.27 483.241 2069.13 485.648 2063.27 488.263 L 2060.18 489.686 C 2032.61 502.043 2018 513.563 1996.23 533.307 z" fill="rgb(222,222,222)"/><path d="M 2206.83 479.774 L 2209.68 480.44 C 2215.29 482.978 2221.66 485.7 2227.11 488.404 L 2230.54 489.793 C 2223.46 495.332 2176.27 591.309 2164.66 609.547 C 2163.15 608.334 2161.63 607.139 2160.09 605.962 C 2175.94 564.002 2191.52 521.939 2206.83 479.774 z" fill="rgb(0,0,0)"/><path d="M 2206.83 479.774 L 2209.68 480.44 C 2206.21 485.838 2191.82 526.248 2189.07 534.678 C 2182.88 553.655 2170.35 582.018 2165.54 600.2 L 2166.3 601.509 C 2169.89 596.738 2173.02 589.998 2175.87 584.626 C 2192.77 552.725 2211.1 520.719 2227.11 488.404 L 2230.54 489.793 C 2223.46 495.332 2176.27 591.309 2164.66 609.547 C 2163.15 608.334 2161.63 607.139 2160.09 605.962 C 2175.94 564.002 2191.52 521.939 2206.83 479.774 z" fill="rgb(53,53,53)"/><path d="M 2081.23 480.811 L 2084.72 479.682 C 2085.02 490.42 2123.86 589.783 2130.71 605.495 C 2129.07 606.81 2127.42 608.092 2125.73 609.34 C 2122.13 600.704 2062.22 491.511 2060.18 489.686 L 2063.27 488.263 C 2069.13 485.648 2075.27 483.241 2081.23 480.811 z" fill="rgb(0,0,0)"/><path d="M 2081.23 480.811 L 2084.72 479.682 C 2085.02 490.42 2123.86 589.783 2130.71 605.495 C 2129.07 606.81 2127.42 608.092 2125.73 609.34 C 2122.13 600.704 2062.22 491.511 2060.18 489.686 L 2063.27 488.263 C 2084.41 528.067 2104.87 567.414 2127.03 606.787 C 2123.78 592.424 2116.84 577.435 2111.74 563.418 C 2101.79 536.14 2090.02 508.406 2081.23 480.811 z" fill="rgb(53,53,53)"/><path d="M 2139.07 631.124 C 2141.12 634.454 2151.32 634.901 2152.67 631.111 C 2155.19 631.925 2157.03 632.73 2159.3 630.954 C 2161.15 633.842 2162.99 632.885 2163.73 634.532 C 2163.62 635.475 2162.78 635.531 2161.98 635.89 C 2157.49 641.122 2154.69 644.625 2150.63 650.149 C 2146.89 650.103 2143.15 650.096 2139.41 650.127 C 2135.17 644.117 2133.66 641.438 2128.77 635.847 C 2127.36 632.675 2129.28 633.617 2132.26 632.169 C 2135.66 631.886 2136.05 632.361 2139.07 631.124 z" fill="rgb(222,222,222)"/><path d="M 2139.07 631.124 C 2141.12 634.454 2151.32 634.901 2152.67 631.111 C 2155.19 631.925 2157.03 632.73 2159.3 630.954 C 2161.15 633.842 2162.99 632.885 2163.73 634.532 C 2163.62 635.475 2162.78 635.531 2161.98 635.89 C 2158 633.961 2132.64 634.088 2128.77 635.847 C 2127.36 632.675 2129.28 633.617 2132.26 632.169 C 2135.66 631.886 2136.05 632.361 2139.07 631.124 z" fill="rgb(53,53,53)"/><path d="M 2130.71 605.495 C 2131.9 608.929 2132.39 610.187 2133.18 613.677 C 2134.55 619.677 2136.52 625.523 2139.07 631.124 C 2136.05 632.361 2135.66 631.886 2132.26 632.169 C 2130.96 627.544 2130.25 623.294 2128.84 618.756 C 2127.87 615.595 2126.84 612.455 2125.73 609.34 C 2127.42 608.092 2129.07 606.81 2130.71 605.495 z" fill="rgb(222,222,222)"/><path d="M 2160.09 605.962 C 2161.63 607.139 2163.15 608.334 2164.66 609.547 C 2162.33 616.163 2160.56 624.044 2159.3 630.954 C 2157.03 632.73 2155.19 631.925 2152.67 631.111 C 2155.48 622.705 2157.41 614.319 2160.09 605.962 z" fill="rgb(222,222,222)"/></mask><rect x="1966.42" y="355.12" width="357.77" height="357.77" fill="currentColor" mask="url(#ma10)"/></svg>
