<svg xmlns="http://www.w3.org/2000/svg" viewBox="476.85 748.57 366.67 366.67"><path d="M 621.696 859.232 C 637.745 857.763 651.211 857.438 667.318 859.364 C 689.09 862.158 709.828 870.307 727.677 883.083 C 812.96 944.457 758.25 1044.91 667.732 1056.46 C 610.074 1067.82 525.216 1036.27 516.101 970.231 C 507.404 907.222 567.517 867.239 621.696 859.232 z" fill="rgb(22,40,26)" transform="translate(0,0)"/><path d="M 630.386 871.12 C 660.621 867.267 692.625 875.439 717.359 893.09 C 761.296 924.444 766.204 980.867 724.191 1016.46 C 702.912 1034.49 682.327 1041.17 655.03 1044.67 C 649.365 1045.55 640.673 1045.54 634.944 1045.13 C 504.188 1035.65 494.579 888.723 630.386 871.12 z" fill="rgb(255,255,255)" transform="translate(0,0)"/><path d="M 635.565 873.451 C 660.763 870.634 692.878 879.603 713.436 894.101 C 766.861 931.78 758.539 999.071 701.625 1027.84 C 683.599 1036.96 673.132 1039.17 652.906 1041.77 C 622.187 1044.2 591.081 1036.52 566.925 1017.41 C 516.608 977.603 532.273 911.405 587.703 886.202 C 605.549 878.087 615.742 875.485 635.565 873.451 z" fill="rgb(22,40,26)" transform="translate(0,0)"/><path d="M 692.007 910.144 C 695.673 913.538 663.878 961.92 659.635 968.926 C 635.283 980.62 615.911 988.611 591.554 1002.35 C 589.794 1000.65 590.302 1000.88 591.745 998.369 C 601.996 980.556 613.212 963.611 622.642 945.31 C 630.84 941.129 637.798 938.674 645.743 934.881 C 661.407 927.401 676.823 918.544 692.007 910.144 z" fill="rgb(255,255,255)" transform="translate(0,0)"/><path d="M 680.065 923.545 C 683.053 926.263 667.344 946.523 664.746 952.161 C 658.752 965.173 651.036 971.329 636.738 964.977 L 636.134 964.366 C 627.728 956.019 631.278 949.618 641.922 945.475 C 655.241 940.29 667.694 931.029 680.065 923.545 z" fill="rgb(22,40,26)" transform="translate(0,0)"/><path d="M 639.515 951.693 C 648.533 951.179 655.551 951.746 650.04 962.285 L 649.588 962.338 C 640.367 963.494 634.83 961.827 639.515 951.693 z" fill="rgb(255,255,255)" transform="translate(0,0)"/><path d="M 546.255 953.974 C 551.41 953.893 556.565 953.849 561.721 953.842 C 567.566 953.816 567.984 954.122 566.889 960.001 C 561.952 960.21 545.554 962.586 546.434 956.9 C 546.501 956.468 546.297 954.654 546.255 953.974 z" fill="rgb(255,255,255)" transform="translate(0,0)"/><path d="M 640.673 876.943 C 644.74 877.818 647.133 877.446 647.126 881.953 C 647.115 888.234 647.835 890.476 645.756 896.154 C 639.12 893.682 639.988 894.903 639.754 888.19 C 639.569 882.883 639.208 881.923 640.673 876.943 z" fill="rgb(255,255,255)" transform="translate(0,0)"/><path d="M 735.407 959.586 C 732.512 960.714 720.814 961.701 719.219 958.95 C 714.515 950.837 732.278 953.418 735.256 954.895 C 735.324 956.458 735.375 958.022 735.407 959.586 z" fill="rgb(255,255,255)" transform="translate(0,0)"/><path d="M 640.475 1021.19 C 650.401 1023.62 647.628 1026.18 647.602 1037.36 C 637.295 1036.31 638.56 1033.07 640.475 1021.19 z" fill="rgb(255,255,255)" transform="translate(0,0)"/><path d="M 738.843 956.529 C 743.912 953.223 745.533 961.335 737.886 958.872 L 738.843 956.529 z" fill="rgb(201,203,201)" transform="translate(0,0)"/><path d="M 698.56 893.791 C 698.715 893.685 700.373 892.177 700.729 893.073 C 700.59 893.959 699.984 894.264 699.28 894.913 C 698.482 895.215 698.034 895.541 697.266 895.349 C 697.229 895.233 697.192 895.118 697.155 895.003 C 697.507 894.388 697.877 894.279 698.56 893.791 z" fill="rgb(201,203,201)" transform="translate(0,0)"/><path d="M 560.155 998.05 C 560.499 997.942 561.121 997.668 561.542 997.816 C 561.811 997.91 561.864 998.033 561.907 998.229 C 562.023 998.754 561.347 999.583 561.159 999.886 C 557.148 1000.82 558.863 999.675 560.155 998.05 z" fill="rgb(201,203,201)" transform="translate(0,0)"/><path d="M 697.503 1017.76 C 698.286 1018.18 700.026 1018.8 700.439 1019.69 C 700.503 1019.83 700.499 1019.98 700.429 1020.11 C 700.128 1020.7 698.727 1020.81 698.362 1020.88 C 695.626 1022.01 694.926 1021.62 696.703 1018.98 L 697.503 1017.76 z" fill="rgb(201,203,201)" transform="translate(0,0)"/><path d="M 577.141 900.184 C 578.007 899.981 579.094 899.426 579.879 899.955 C 579.295 900.392 578.711 900.829 578.127 901.266 C 577.554 901.293 575.826 901.518 575.585 900.895 C 575.869 900.417 576.684 900.319 577.141 900.184 z" fill="rgb(201,203,201)" transform="translate(0,0)"/><path d="M 589.064 890.4 C 590.085 891.003 591.792 891.62 592.203 892.673 C 591.844 893.33 590.902 893.48 590.258 893.71 C 586.134 895.574 587.836 892.888 589.064 890.4 z" fill="rgb(201,203,201)" transform="translate(0,0)"/><path d="M 589.926 1021.59 C 590.51 1021.27 590.806 1020.96 591.361 1021.01 C 591.648 1021.49 591.503 1021.91 591.483 1022.57 C 590.954 1022.92 590.353 1023.5 589.717 1023.5 C 589.483 1022.92 589.8 1022.19 589.926 1021.59 z" fill="rgb(201,203,201)" transform="translate(0,0)"/><path d="M 578.567 1015.81 C 579.707 1015.46 580.553 1015.05 581.691 1015.17 C 581.743 1015.27 581.795 1015.37 581.846 1015.47 C 581.436 1016.08 580.999 1016.42 580.417 1016.92 C 578.045 1018.02 578.138 1017.81 578.567 1015.81 z" fill="rgb(201,203,201)" transform="translate(0,0)"/><path d="M 615.513 883.663 C 616.384 883.424 616.878 883.096 617.595 883.477 C 617.691 884.649 616.463 884.613 615.395 884.873 C 614.795 884.97 614.072 885.252 613.555 884.88 C 613.555 883.955 614.787 883.859 615.513 883.663 z" fill="rgb(201,203,201)" transform="translate(0,0)"/><path d="M 616.241 1030.86 C 619.765 1029.31 617.543 1031.43 616.808 1032.41 C 616.089 1032.67 615.818 1032.89 615.149 1032.75 C 614.585 1031.89 615.694 1031.54 616.241 1030.86 z" fill="rgb(201,203,201)" transform="translate(0,0)"/><path d="M 602.523 1027.28 C 603.037 1027.1 603.818 1026.68 604.401 1026.79 C 604.454 1027.32 603.945 1027.92 603.705 1028.34 C 603.064 1028.39 602.31 1028.62 601.698 1028.38 C 601.729 1027.98 602.028 1027.81 602.523 1027.28 z" fill="rgb(201,203,201)" transform="translate(0,0)"/><path d="M 687.127 1025.27 C 687.844 1024.97 688.375 1024.66 688.919 1024.94 C 688.852 1025.56 688.036 1025.76 687.373 1026.21 C 686.569 1026.89 686.422 1027.3 685.544 1027.39 L 685.487 1027.27 C 685.619 1026.32 686.428 1025.89 687.127 1025.27 z" fill="rgb(201,203,201)" transform="translate(0,0)"/><path d="M 730.563 988.019 C 731.168 987.882 731.847 987.553 732.464 987.699 C 732.511 988.081 732.328 988.207 731.905 988.902 C 731.209 989.123 730.412 989.582 729.672 989.492 C 729.659 988.971 730.367 988.284 730.563 988.019 z" fill="rgb(201,203,201)" transform="translate(0,0)"/><path d="M 671.872 884.146 C 672.44 883.895 673.055 883.457 673.679 883.499 C 673.871 883.943 673.645 884.296 673.508 884.841 C 673.207 885.055 671.99 885.771 671.813 885.875 C 671.549 885.37 671.793 884.724 671.872 884.146 z" fill="rgb(201,203,201)" transform="translate(0,0)"/><path d="M 658.032 881.146 C 658.781 880.996 659.06 880.786 659.693 881.101 C 659.704 881.736 659.076 882.117 658.501 882.793 C 657.388 883.158 657.521 883.328 656.632 882.882 C 656.663 882.214 657.358 881.846 658.032 881.146 z" fill="rgb(201,203,201)" transform="translate(0,0)"/><path d="M 735.513 977.961 C 736.162 977.677 736.525 977.396 737.151 977.5 C 737.71 978.382 736.364 979.026 735.822 979.719 C 734.6 979.952 735.152 980.109 734.208 979.66 C 734.258 978.837 734.807 978.606 735.513 977.961 z" fill="rgb(201,203,201)" transform="translate(0,0)"/><path d="M 686.464 888.676 C 687.042 888.429 687.557 888.072 688.157 888.182 C 688.315 888.605 688.251 888.317 688.266 889.15 C 687.444 889.851 687.099 890.039 686.444 890.518 C 686.146 890.006 686.401 889.239 686.464 888.676 z" fill="rgb(165,167,166)" transform="translate(0,0)"/><path d="M 658.328 1032.68 C 658.908 1032.42 659.429 1032.18 660.02 1032.09 C 660.25 1032.51 660.088 1032.78 660.008 1033.37 C 659.694 1033.59 658.491 1034.28 658.308 1034.38 C 658.034 1033.88 658.258 1033.28 658.328 1032.68 z" fill="rgb(165,167,166)" transform="translate(0,0)"/><path d="M 553.987 988.903 C 554.408 988.637 554.994 988.115 555.531 988.097 C 555.675 988.505 555.467 988.859 555.256 989.603 C 554.889 989.901 554.398 990.468 553.89 990.522 C 553.677 990.064 553.917 989.365 553.987 988.903 z" fill="rgb(201,203,201)" transform="translate(0,0)"/><path d="M 568.184 909.264 C 568.561 909.11 568.938 908.957 569.315 908.804 C 569.518 909.198 569.375 909.599 569.33 910.099 C 568.952 910.239 568.575 910.379 568.197 910.52 C 568.103 910.021 568.137 910.379 568.184 909.264 z" fill="rgb(201,203,201)" transform="translate(0,0)"/><path d="M 724.048 998.009 C 724.427 997.871 725.375 997.394 725.947 997.452 C 725.648 997.897 725.349 998.342 725.05 998.787 C 724.676 998.885 723.754 999.233 723.214 999.172 L 723.199 999.017 C 723.482 998.681 723.765 998.345 724.048 998.009 z" fill="rgb(201,203,201)" transform="translate(0,0)"/><path d="M 601.509 887.91 C 601.977 887.766 602.537 887.477 603.016 887.58 C 603.072 887.933 602.906 888.078 602.564 888.739 C 601.699 888.995 601.064 889.121 600.3 889.305 C 600.703 888.84 601.106 888.375 601.509 887.91 z" fill="rgb(201,203,201)" transform="translate(0,0)"/><path d="M 738.058 945.235 C 738.4 945.117 738.742 944.999 739.084 944.881 C 739.28 945.262 739.156 945.607 739.119 946.108 C 738.351 946.707 738.652 946.545 738.172 946.732 L 738.068 946.65 C 737.976 946.082 738.008 946.487 738.058 945.235 z" fill="rgb(201,203,201)" transform="translate(0,0)"/><path d="M 734.06 932.705 C 734.334 932.633 735.786 932.364 735.948 932.334 C 736.035 932.819 735.675 933.217 735.434 933.686 C 734.785 933.789 734.021 934.069 733.39 933.876 C 733.369 933.417 733.777 933.091 734.06 932.705 z" fill="rgb(165,167,166)" transform="translate(0,0)"/><path d="M 628.94 881.123 C 629.359 880.945 629.779 880.766 630.198 880.587 C 630.291 880.944 630.078 881.178 629.748 881.882 C 629.026 882.052 628.303 882.221 627.581 882.391 C 627.656 881.965 628.912 881.145 628.94 881.123 z" fill="rgb(201,203,201)" transform="translate(0,0)"/><path d="M 569.112 1007.11 C 569.531 1006.97 570.043 1006.71 570.408 1006.79 C 570.508 1007.13 570.387 1007.25 570.156 1007.94 C 569.29 1008.16 568.652 1008.27 567.885 1008.42 C 568.294 1007.98 568.703 1007.55 569.112 1007.11 z" fill="rgb(201,203,201)" transform="translate(0,0)"/><path d="M 631.183 1032.82 C 631.518 1032.85 631.853 1032.89 632.188 1032.93 C 632.238 1033.4 632.235 1033.1 632.142 1033.9 C 631.998 1033.94 631.854 1033.98 631.711 1034.03 C 631.223 1034.18 630.23 1034.63 629.595 1034.53 C 630.124 1033.96 630.654 1033.39 631.183 1032.82 z" fill="rgb(201,203,201)" transform="translate(0,0)"/><path d="M 547.164 966.787 C 547.927 966.649 548.162 966.519 548.502 966.684 C 548.445 967.184 547.951 967.664 547.664 968.059 C 547.343 968.134 546.536 968.466 546.089 968.283 C 546.193 967.751 546.875 967.132 547.164 966.787 z" fill="rgb(201,203,201)" transform="translate(0,0)"/><path d="M 719.437 910.233 C 719.711 910.188 721.061 910.068 721.223 910.054 C 721.293 910.497 721.004 910.767 720.756 911.22 C 720.106 911.306 719.361 911.587 718.723 911.384 C 718.718 910.994 718.933 910.874 719.437 910.233 z" fill="rgb(201,203,201)" transform="translate(0,0)"/><path d="M 549.199 977.832 C 549.578 977.65 549.956 977.468 550.335 977.286 C 550.525 977.702 550.349 978.208 550.289 978.687 C 549.433 978.997 549.758 978.928 549.249 978.983 L 549.14 978.876 C 549.081 978.459 549.092 978.757 549.199 977.832 z" fill="rgb(201,203,201)" transform="translate(0,0)"/><path d="M 558.469 919.216 C 558.908 919.088 559.903 918.671 560.485 918.76 C 560.162 919.19 559.839 919.619 559.516 920.049 C 559.059 920.17 558.4 920.434 558.009 920.341 C 557.958 919.994 558.121 919.861 558.469 919.216 z" fill="rgb(201,203,201)" transform="translate(0,0)"/><path d="M 547.92 941.768 C 548.27 941.679 548.621 941.59 548.972 941.501 C 549.027 941.893 549.021 941.634 548.923 942.349 C 548.623 942.62 548.324 942.891 548.025 943.163 L 547.946 943.111 C 547.843 942.585 547.883 942.965 547.92 941.768 z" fill="rgb(165,167,166)" transform="translate(0,0)"/><path d="M 727.436 920.564 C 727.755 920.493 728.324 920.231 728.693 920.424 C 728.237 921.128 728.054 921.396 727.477 922.127 C 726.713 922.179 726.503 922.282 726.204 922.071 C 726.546 921.489 726.943 921.084 727.436 920.564 z" fill="rgb(201,203,201)" transform="translate(0,0)"/><path d="M 707.579 1014 C 708.132 1013.94 708.686 1013.88 709.24 1013.82 C 708.792 1014.11 708.344 1014.4 707.897 1014.7 C 707.598 1014.66 706.501 1014.55 706.218 1014.42 C 706.671 1014.28 707.125 1014.14 707.579 1014 z" fill="rgb(201,203,201)" transform="translate(0,0)"/><path d="M 710.495 901.42 C 711.421 901.424 711.112 901.357 711.554 901.522 C 711.476 901.952 710.758 902.663 710.42 903.037 C 710.088 903.089 709.504 903.318 709.142 903.099 C 709.652 902.404 709.859 902.136 710.495 901.42 z" fill="rgb(201,203,201)" transform="translate(0,0)"/><path d="M 551.837 929.907 C 552.859 929.555 552.674 929.247 553.478 929.953 C 553.063 930.364 552.708 930.869 552.204 930.904 C 551.968 930.564 552.106 930.827 551.837 929.907 z" fill="rgb(165,167,166)" transform="translate(0,0)"/><path d="M 626.816 855.499 C 622.624 851.632 616.504 844.689 617.088 838.686 C 621.243 795.994 698.492 823.87 659.961 855.839 C 650.423 853.331 636.544 854.229 626.816 855.499 z" fill="rgb(22,40,26)" transform="translate(0,0)"/><path d="M 637.007 826.01 C 658.596 822.961 668.287 839.437 650.085 849.967 C 628.742 853.07 618.192 836.855 637.007 826.01 z" fill="rgb(255,255,255)" transform="translate(0,0)"/></svg>
