<svg xmlns="http://www.w3.org/2000/svg" viewBox="1004.24 800.92 284.47 284.47"><path d="M 1097.55 828.129 C 1119.3 827.336 1184.97 824.629 1202.72 831.928 C 1211.05 835.352 1217.86 841.307 1221.17 849.84 C 1224.73 859.041 1223.43 1010.67 1222.55 1027.76 C 1222.33 1032 1222.1 1036.13 1220.2 1040.01 C 1214.83 1050.95 1205 1056.21 1193.92 1059.73 C 1188.78 1060.68 1181.09 1060.86 1175.82 1060.74 C 1152.02 1060.19 1127.75 1061.69 1104.03 1060.65 C 1083.7 1059.51 1068.28 1046.71 1068.44 1025.57 C 1068.88 969.358 1068.23 913.211 1068.63 857.021 C 1068.76 839.15 1082.35 832.313 1097.55 828.129 z" fill="rgb(22,40,26)" transform="translate(0,0)"/><path d="M 1095.6 848.542 C 1110.94 847.932 1195.01 847.238 1203.22 851.321 C 1209.16 870.655 1203.09 924.98 1205.22 949.05 C 1205.87 956.421 1205.56 1012.16 1204.4 1015.61 C 1201.19 1018.22 1202.04 1017.4 1197.28 1018.04 L 1130.49 1018.02 C 1119.85 1018.03 1097.08 1018.75 1087.4 1016.45 C 1085.75 1011.95 1084.61 860.1 1086.63 852.29 C 1089.65 849.446 1091.56 849.44 1095.6 848.542 z" fill="rgb(255,255,255)" transform="translate(0,0)"/><path d="M 1101.3 862.294 L 1190.23 862.153 L 1190.28 969.667 L 1100.58 969.427 C 1100.55 957.382 1099.5 866.826 1101.3 862.294 z" fill="rgb(22,40,26)" transform="translate(0,0)"/><path d="M 1161.02 868.823 C 1171.57 873.172 1162.39 879.343 1156.82 883.002 C 1150.36 883.25 1145.53 883.489 1139.11 884.192 C 1137.54 887.751 1136.15 891.143 1134.65 894.72 L 1129.37 896.202 C 1127.74 896.658 1113.14 899.762 1118.54 905.372 C 1120.72 907.637 1131.19 906.489 1134.74 906.411 C 1132.45 915.755 1131.19 919.498 1127.38 928.129 L 1125.89 931.558 C 1137.82 931.731 1149.72 931.494 1161.63 932.077 L 1167.24 951.034 C 1173.65 954.723 1173.26 953.821 1179 958.625 C 1173.15 964.459 1174.31 961.009 1170.39 957.848 C 1159.89 949.399 1162.94 949.466 1158.73 934.607 C 1146.43 934.785 1134.12 934.635 1121.83 934.156 C 1123.97 927.477 1127.28 920.802 1128.53 914.041 C 1128.87 912.1 1129.22 908.494 1125.57 909.339 C 1116.2 911.51 1110.58 905.476 1117.17 897.653 C 1118.66 895.876 1128.98 893.027 1132.18 892.12 C 1133.69 888.523 1134.96 884.906 1136.5 881.226 C 1151.02 880.187 1156.93 883.824 1160.72 869.908 L 1161.02 868.823 z" fill="rgb(255,255,255)" transform="translate(0,0)"/><path d="M 1139.44 1026.04 C 1159.19 1024.22 1170.67 1038.23 1152.1 1049.57 C 1130.8 1051.54 1121.3 1037.13 1139.44 1026.04 z" fill="rgb(255,255,255)" transform="translate(0,0)"/><path d="M 1139.52 837.363 C 1145.1 836.704 1153.44 834.314 1154.25 841.144 C 1148.57 841.733 1140.65 844.047 1139.52 837.363 z" fill="rgb(255,255,255)" transform="translate(0,0)"/></svg>
