<svg xmlns="http://www.w3.org/2000/svg" viewBox="1503.54 802.06 283.53 283.53"><path d="M 1589.18 828.173 C 1609.21 827.44 1695.96 825.692 1710.91 830.095 C 1716.85 831.845 1724.6 835.337 1727.33 841.318 C 1729.52 846.107 1730.02 853.954 1730.31 859.23 C 1732.13 892.306 1730.54 926.325 1730.51 959.49 C 1730.49 984.757 1732.37 1011.74 1730.13 1036.85 C 1729.77 1040.77 1729.25 1043.83 1727.38 1047.3 C 1722.76 1055.93 1714.63 1059.24 1705.8 1061.97 L 1631.77 1061.9 C 1558.25 1061.78 1563.78 1060.11 1563.95 987.305 C 1564.05 942.847 1563.7 897.099 1564.15 852.537 C 1564.31 837.153 1576.22 831.682 1589.18 828.173 z" fill="rgb(22,40,26)" transform="translate(0,0)"/><path d="M 1581.72 859.728 C 1625.57 860.138 1669.58 859.248 1713.43 859.973 L 1713.4 966.378 C 1713.43 975.624 1714.73 1021.03 1711.64 1025.8 L 1631.09 1025.97 C 1620.48 1025.99 1591.43 1026.8 1582.43 1024.41 C 1580.49 1013.31 1581.11 993.577 1581.21 982.03 L 1581.46 926.047 C 1581.45 914.949 1580.37 868.133 1581.72 859.728 z" fill="rgb(255,255,255)" transform="translate(0,0)"/><path d="M 1593.47 917.742 C 1601.78 917.639 1623.04 918.337 1629.73 916.364 C 1629.96 915.668 1630.19 914.973 1630.41 914.278 C 1630.39 903.751 1643.07 904.16 1646.77 895.441 C 1649.46 889.094 1644.8 886.401 1641.09 881.908 L 1641.38 879.806 C 1646.05 876.272 1650.22 879.027 1655.13 875.973 C 1657.24 871.773 1657.9 868.535 1662.77 867.819 L 1665.96 870.568 C 1669.88 879.779 1676.28 878.42 1685.25 879.025 C 1680.67 884.449 1674.06 889.584 1675.5 895.089 C 1676.24 897.926 1676.38 900.145 1675.26 902.312 C 1672.22 901.955 1673.27 902.344 1670.63 900.908 C 1667.15 899.415 1663.07 897.257 1659.52 898.429 C 1640.17 904.821 1635.02 912.454 1644.85 931.177 C 1647.57 936.355 1651.33 944.944 1653.87 950.322 C 1668.64 950.053 1664.24 951.801 1678.16 956.18 C 1680.21 956.827 1690.27 956.485 1693.12 956.369 C 1693.24 965.217 1695.29 1003.67 1690.47 1009.32 L 1688 1008.27 C 1684.59 1002.8 1686.24 970.811 1686.31 962.525 C 1683.92 962.529 1673.85 962.53 1672.22 962.003 C 1660.74 958.275 1661.03 955.801 1648.48 956.446 C 1642.66 945.827 1637.86 933.631 1633.11 922.408 L 1600.75 923.841 C 1600.71 932.923 1602.98 969.67 1599 974.113 L 1595.61 973.817 C 1592.04 969.734 1593.52 926.243 1593.47 917.742 z" fill="rgb(22,40,26)" transform="translate(0,0)"/><path d="M 1661.76 873.562 C 1663.41 876.492 1664.44 880.482 1667.83 881.635 C 1670.31 882.478 1679.35 881.175 1671.8 885.98 C 1668.88 887.837 1668.61 888.936 1670.34 892.159 C 1671.34 893.864 1671 894.737 1670.3 896.724 C 1661.47 891.204 1663.47 891.562 1654.38 895.327 C 1653.28 895.784 1652.58 893.712 1653.32 892.783 C 1657.3 887.798 1648.08 884.073 1648.67 882.63 C 1656.71 878.254 1654.42 888.191 1661.76 873.562 z" fill="rgb(255,255,255)" transform="translate(0,0)"/><path d="M 1641.39 1030.61 C 1661.68 1028.92 1672.48 1043.17 1654.47 1054.36 C 1634.19 1057.56 1622.81 1042.72 1641.39 1030.61 z" fill="rgb(255,255,255)" transform="translate(0,0)"/><path d="M 1642.11 1033.91 C 1657.84 1033.02 1665.71 1042.43 1651.57 1051.76 C 1637.82 1051.84 1630.12 1044.28 1642.11 1033.91 z" fill="rgb(22,40,26)" transform="translate(0,0)"/><path d="M 1628.65 846.341 C 1640.1 845.137 1652.93 846.057 1664.53 845.78 C 1667.72 845.703 1667.52 847.231 1667.24 849.835 C 1661 849.918 1630.57 852.48 1629.01 847.438 L 1628.65 846.341 z" fill="rgb(255,255,255)" transform="translate(0,0)"/></svg>
