<svg xmlns="http://www.w3.org/2000/svg" viewBox="2005.52 794.92 284.33 284.33"><path d="M 2136.96 823.914 C 2187.69 818.619 2250.93 845.482 2251.01 904.524 C 2251.07 953.789 2195.94 1014.49 2161.53 1047.41 C 2159.07 1050.2 2155.73 1053.03 2152.91 1055.56 C 2118.68 1023.66 2063 960.642 2053.99 914.064 C 2044.29 863.945 2092.56 830.809 2136.96 823.914 z" fill="rgb(22,40,26)" transform="translate(0,0)"/><path d="M 2139.4 848.575 C 2159.65 847.061 2175.04 848.16 2193.27 858.484 C 2217.41 872.153 2230.38 902.213 2213.82 926.913 C 2202.13 944.336 2186.15 951.235 2166.47 955.597 C 2133.87 959.447 2093.22 948.523 2084.93 911.995 C 2082.28 900.138 2084.51 887.716 2091.1 877.513 C 2102.09 860.264 2120.28 852.599 2139.4 848.575 z" fill="rgb(255,255,255)" transform="translate(0,0)"/><path d="M 2148.73 873.246 C 2191.47 872.277 2205.75 917.461 2158.06 929.487 C 2107.43 930.233 2100.47 882.08 2148.73 873.246 z" fill="rgb(22,40,26)" transform="translate(0,0)"/><path d="M 2168.05 889.472 C 2169.09 889.776 2172.3 891.276 2170.46 892.79 C 2162.64 899.251 2154.25 906.658 2145.91 912.254 C 2144.83 912.978 2139.1 908.37 2138.23 907.753 C 2136.44 906.477 2133.29 904.209 2137.5 903.081 C 2140.07 902.388 2142.5 907.333 2144.48 907.354 C 2147.57 907.386 2151.63 902.459 2154.17 900.943 C 2158.92 897.503 2163.64 893.364 2168.05 889.472 z" fill="rgb(255,255,255)" transform="translate(0,0)"/></svg>
