<svg xmlns="http://www.w3.org/2000/svg" viewBox="-5.60 1210.37 296.50 296.50" style="color:#16281A"><mask id="ma16" maskUnits="userSpaceOnUse" x="-5.60" y="1210.37" width="296.50" height="296.50"><rect x="-5.60" y="1210.37" width="296.50" height="296.50" fill="black"/><path d="M 134.533 1242.42 C 197.346 1236.51 266.19 1289.77 235.535 1353.95 C 218.043 1390.57 175.053 1441.36 149.668 1474.46 C 147.282 1477.6 146.752 1478.72 143.278 1480.72 C 138.081 1476.07 125.201 1459.76 119.988 1453.11 C 98.4363 1425.18 74.5681 1398.82 57.2208 1367.93 C 19.1071 1300.06 65.9667 1250.46 134.533 1242.42 z" fill="rgb(222,222,222)"/><path d="M 131.732 1267.09 C 137.886 1266.65 142.777 1266.53 149.034 1266.79 C 203.31 1269.06 241.436 1330.08 183.502 1364.06 C 174.17 1369.53 165.218 1371.57 154.314 1373.58 C 134.058 1375.33 116.505 1372.78 98.6778 1362.17 C 75.3212 1348.37 64.5119 1319.57 80.9548 1296.02 C 93.3666 1278.23 111.346 1270.95 131.732 1267.09 z" fill="rgb(0,0,0)"/><path d="M 142.001 1283.06 C 145.354 1286.02 152.626 1303.06 155.348 1308.16 L 187.766 1309.55 C 177.933 1316.76 172.382 1320.86 161.996 1327.31 C 164.936 1336.42 167.96 1345.17 171.298 1354.16 C 161.455 1349.59 153.074 1344.84 143.557 1339.68 C 140.042 1339.63 118.444 1351.88 113.687 1354.28 C 116.934 1344.97 119.101 1337.05 122.691 1327.57 C 113.87 1321.41 105.372 1315.42 96.334 1309.57 L 129.641 1308.06 C 134.112 1298.9 137.186 1292.16 142.001 1283.06 z" fill="rgb(222,222,222)"/></mask><rect x="-5.60" y="1210.37" width="296.50" height="296.50" fill="currentColor" mask="url(#ma16)"/></svg>
