<svg xmlns="http://www.w3.org/2000/svg" viewBox="467.95 1197.25 332.38 332.38"><path d="M 583.772 1306.44 C 586.51 1300.63 592.914 1285.02 600.247 1283.6 C 620.234 1279.73 643.136 1282.72 663.317 1282.02 C 695.941 1280.88 691.99 1284.07 705.749 1308.31 C 718.848 1308.41 770.328 1302.99 771.073 1321.13 C 772.48 1355.46 771.526 1390.7 772.498 1425.19 C 772.637 1429.86 771.069 1439.19 767.237 1440.77 C 751.715 1447.15 710.987 1444.86 696.432 1444.85 L 595.2 1444.76 L 540.53 1444.76 C 532.142 1444.76 521.416 1445.32 513.254 1444.11 C 503.119 1442.61 499.481 1434.67 499.277 1425.34 C 498.653 1396.97 499.687 1368.52 499.187 1340.17 C 498.895 1323.65 495.651 1313.76 513.632 1307.03 C 519.62 1308.45 576.967 1308 583.772 1306.44 z" fill="rgb(22,40,26)" transform="translate(0,0)"/><path d="M 633.759 1316.56 C 724.044 1308.19 750.067 1413.16 655.02 1429.66 C 560.788 1437.54 539.124 1332.25 633.759 1316.56 z" fill="rgb(255,255,255)" transform="translate(0,0)"/><path d="M 638.249 1327.94 C 712.274 1324.04 724.123 1407.66 651.443 1418.22 C 633.929 1419.25 620.275 1417.44 605.461 1407.06 C 586.297 1393.63 580.203 1367.54 595.662 1348.72 C 606.893 1335.04 621.306 1330.07 638.249 1327.94 z" fill="rgb(22,40,26)" transform="translate(0,0)"/><path d="M 614.696 1339.16 C 623.065 1342.96 616.017 1343.87 616.966 1345.04 C 619.948 1349.62 629.245 1354.87 632.224 1359.12 C 638.361 1367.88 653.069 1369.66 648.491 1379.99 C 642.438 1378.28 640.781 1374.64 636.095 1370.33 C 627.989 1362.86 619.937 1355.31 612.725 1346.98 C 609.698 1343.48 609.553 1343.68 613.023 1340.68 L 614.696 1339.16 z" fill="rgb(255,255,255)" transform="translate(0,0)"/><path d="M 611.517 1401.23 C 612.311 1400.27 613.588 1399.85 614.797 1400.16 C 616.005 1400.46 616.928 1401.44 617.167 1402.67 C 617.405 1403.89 616.916 1405.14 615.911 1405.88 C 614.6 1406.84 612.777 1406.68 611.659 1405.5 C 610.542 1404.31 610.481 1402.48 611.517 1401.23 z" fill="rgb(255,255,255)" transform="translate(0,0)"/><path d="M 594.508 1369.94 C 595.732 1369.15 597.346 1369.32 598.379 1370.35 C 599.412 1371.38 599.584 1372.99 598.792 1374.22 C 598.107 1375.28 596.847 1375.82 595.608 1375.58 C 594.369 1375.34 593.399 1374.37 593.157 1373.13 C 592.916 1371.89 593.45 1370.63 594.508 1369.94 z" fill="rgb(201,203,201)" transform="translate(0,0)"/><path d="M 596.847 1380.76 C 598.349 1380.12 600.091 1380.82 600.727 1382.32 C 601.363 1383.83 600.65 1385.57 599.139 1386.19 C 597.643 1386.81 595.928 1386.11 595.298 1384.61 C 594.668 1383.12 595.36 1381.4 596.847 1380.76 z" fill="rgb(255,255,255)" transform="translate(0,0)"/><path d="M 622.71 1407.54 C 627.87 1407.05 629.6 1406.47 630.387 1411.94 C 626.083 1411.1 623.214 1411.91 622.71 1407.54 z" fill="rgb(255,255,255)" transform="translate(0,0)"/><path d="M 688.412 1380.79 C 689.45 1379.91 690.982 1379.93 691.988 1380.85 C 692.994 1381.77 693.16 1383.29 692.374 1384.41 C 691.771 1385.26 690.726 1385.69 689.695 1385.51 C 688.663 1385.33 687.829 1384.57 687.555 1383.56 C 687.28 1382.55 687.614 1381.47 688.412 1380.79 z" fill="rgb(255,255,255)" transform="translate(0,0)"/><path d="M 650.09 1333.23 C 651.398 1333.17 657.886 1331.88 655.694 1335.01 L 654.972 1336.1 C 651.504 1336.77 651.353 1336.51 650.09 1333.23 z" fill="rgb(255,255,255)" transform="translate(0,0)"/><path d="M 596.405 1359.6 C 597.21 1358.99 598.289 1358.9 599.19 1359.35 C 600.09 1359.8 600.657 1360.72 600.652 1361.73 C 600.648 1362.74 600.072 1363.66 599.167 1364.1 C 597.94 1364.7 596.457 1364.27 595.742 1363.11 C 595.027 1361.94 595.314 1360.42 596.405 1359.6 z" fill="rgb(255,255,255)" transform="translate(0,0)"/><path d="M 683.097 1390.95 C 684.062 1389.87 685.725 1389.77 686.813 1390.73 C 687.901 1391.69 688.004 1393.35 687.043 1394.44 C 686.08 1395.54 684.412 1395.64 683.321 1394.67 C 682.23 1393.71 682.13 1392.04 683.097 1390.95 z" fill="rgb(255,255,255)" transform="translate(0,0)"/><path d="M 640.334 1331.56 C 644.668 1333.85 644.368 1334.33 640.913 1337.85 C 636.348 1334.84 635.558 1334.66 640.334 1331.56 z" fill="rgb(255,255,255)" transform="translate(0,0)"/><path d="M 683.334 1347.83 L 684.634 1348.92 C 690.188 1353.52 688.376 1356.36 681.76 1352.62 C 682.307 1351.03 682.831 1349.43 683.334 1347.83 z" fill="rgb(255,255,255)" transform="translate(0,0)"/><path d="M 602.059 1349.46 C 603.169 1349.64 605.946 1349.73 606.734 1350.64 C 606.861 1351.63 606.255 1352.55 605.844 1353.42 L 605.166 1355.14 C 602.446 1354.49 600.043 1354.46 601.411 1351.13 L 602.059 1349.46 z" fill="rgb(255,255,255)" transform="translate(0,0)"/><path d="M 676.624 1398.87 C 677.912 1398.74 679.101 1399.57 679.413 1400.83 C 679.726 1402.08 679.068 1403.38 677.868 1403.87 C 676.924 1404.25 675.841 1404.05 675.099 1403.35 C 674.357 1402.65 674.091 1401.58 674.419 1400.62 C 674.747 1399.65 675.609 1398.97 676.624 1398.87 z" fill="rgb(201,203,201)" transform="translate(0,0)"/><path d="M 690.38 1370.83 C 691.102 1370.18 692.127 1370 693.03 1370.35 C 693.932 1370.71 694.558 1371.54 694.647 1372.5 C 694.737 1373.47 694.275 1374.4 693.454 1374.92 C 692.324 1375.62 690.84 1375.35 690.039 1374.28 C 689.238 1373.22 689.386 1371.72 690.38 1370.83 z" fill="rgb(255,255,255)" transform="translate(0,0)"/><path d="M 652.183 1410.64 C 654.412 1409.37 656.45 1408.08 656.892 1411.66 L 657.092 1412.96 C 654.645 1413.05 650.432 1414.31 651.563 1411.42 L 652.183 1410.64 z" fill="rgb(255,255,255)" transform="translate(0,0)"/><path d="M 623.337 1335.27 C 628.118 1335.07 630.663 1333.78 629.27 1339.11 C 626.482 1339.25 623.687 1340.3 623.462 1336.66 L 623.337 1335.27 z" fill="rgb(201,203,201)" transform="translate(0,0)"/><path d="M 638.559 1410.15 C 639.503 1409.14 641.084 1409.08 642.107 1410.01 C 643.13 1410.94 643.215 1412.52 642.297 1413.55 C 641.693 1414.23 640.769 1414.54 639.878 1414.35 C 638.988 1414.16 638.269 1413.5 637.995 1412.63 C 637.722 1411.77 637.937 1410.82 638.559 1410.15 z" fill="rgb(255,255,255)" transform="translate(0,0)"/><path d="M 690.134 1360.66 C 693.409 1359.38 693.185 1360.98 691.227 1363.07 C 688.166 1364.34 687.936 1362.78 690.134 1360.66 z" fill="rgb(255,255,255)" transform="translate(0,0)"/><path d="M 676.12 1346.57 C 673.487 1342.01 675.445 1341.29 679.653 1343.13 C 678.623 1345.56 678.613 1345.33 676.12 1346.57 z" fill="rgb(255,255,255)" transform="translate(0,0)"/><path d="M 665.125 1337.72 C 667.547 1336.56 668.445 1336.44 667.886 1339.45 C 665.748 1341.34 664.951 1339.95 665.125 1337.72 z" fill="rgb(255,255,255)" transform="translate(0,0)"/><path d="M 665.088 1404.63 C 666.26 1405.12 667.933 1405.53 668.46 1406.83 C 667.978 1407.84 666.9 1407.47 665.861 1407.65 C 665.255 1407.94 663.728 1409.14 663.067 1408.31 C 662.911 1407.4 663.648 1406.53 664.168 1405.87 L 665.088 1404.63 z" fill="rgb(255,255,255)" transform="translate(0,0)"/><path d="M 739.034 1319.9 C 744.105 1319.8 755.453 1318.61 756.549 1325.49 C 758.476 1337.59 759.775 1340 748.904 1343.11 C 735.945 1343.41 726.442 1344.82 731.022 1324.09 C 731.507 1321.9 737.189 1320.47 739.034 1319.9 z" fill="rgb(255,255,255)" transform="translate(0,0)"/><path d="M 519.738 1295.85 C 526.723 1295.61 552.919 1295.02 560.67 1296.54 C 561.419 1296.69 561.579 1302.03 561.471 1302.09 C 561.463 1302.09 561.608 1304.91 561.609 1304.92 C 548.866 1303.12 534.638 1305.76 521.918 1304.09 C 520.876 1303.95 519.921 1296.7 519.738 1295.85 z" fill="rgb(22,40,26)" transform="translate(0,0)"/></svg>
