<svg xmlns="http://www.w3.org/2000/svg" viewBox="972.01 1179.16 352.52 352.52" style="color:#16281A"><mask id="ma18" maskUnits="userSpaceOnUse" x="972.01" y="1179.16" width="352.52" height="352.52"><rect x="972.01" y="1179.16" width="352.52" height="352.52" fill="black"/><path d="M 1001.39 1263.29 L 1294.65 1263.21 C 1294.33 1324.26 1295.16 1386.38 1294.4 1447.28 L 1001.64 1447.63 L 1001.39 1263.29 z" fill="rgb(222,222,222)"/><path d="M 1019.86 1277.59 C 1105.13 1276.94 1190.4 1277.01 1275.66 1277.82 L 1275.95 1367.28 C 1275.57 1389.22 1275.53 1411.16 1275.82 1433.09 L 1020.27 1433.11 C 1020.17 1397.85 1018.4 1346.58 1020.35 1312.15 C 1020.06 1300.63 1019.89 1289.11 1019.86 1277.59 z" fill="rgb(0,0,0)"/><path d="M 1196.72 1308.87 C 1221.33 1330.64 1246.85 1352.46 1270.9 1374.73 C 1271.81 1391.61 1271.2 1412.15 1271.11 1429.33 L 1024.35 1429.06 C 1024.33 1423.79 1024 1395.81 1024.93 1392.83 C 1040.77 1380.82 1056.79 1369.05 1072.98 1357.52 C 1081.81 1365.37 1091.78 1373.5 1100.83 1381.2 C 1130.67 1361.04 1166.22 1331.07 1196.72 1308.87 z" fill="rgb(222,222,222)"/><path d="M 1194.37 1323.63 C 1197.85 1326.15 1215.16 1355.08 1218.06 1360.23 L 1198.9 1350.62 C 1197 1358.16 1194.54 1364.88 1192.62 1372.14 C 1189.21 1368.34 1187.76 1356.75 1186.49 1351.36 C 1180.18 1354.17 1173.85 1356.9 1167.48 1359.57 C 1172.73 1351.32 1187.83 1331.33 1194.37 1323.63 z" fill="rgb(0,0,0)"/></mask><rect x="972.01" y="1179.16" width="352.52" height="352.52" fill="currentColor" mask="url(#ma18)"/></svg>
