<svg xmlns="http://www.w3.org/2000/svg" viewBox="1493.55 1210.63 314.50 314.50"><path d="M 1588.4 1328.27 L 1713.94 1328.21 C 1712.41 1334.4 1712.95 1362.51 1712.97 1370.53 L 1713.27 1453.27 L 1588.22 1453.4 C 1588.71 1411.78 1587.71 1370.12 1588.4 1328.27 z" fill="rgb(22,40,26)" transform="translate(0,0)"/><path d="M 1635.67 1261.27 C 1638.88 1257.28 1658.48 1258.92 1664.36 1259.3 C 1666.07 1260.89 1665.71 1260.11 1666.11 1261.22 C 1675.19 1285.55 1708.6 1286.6 1713.9 1325.1 C 1699.25 1324.65 1593.23 1326.63 1588.85 1323.5 L 1587.85 1317.36 C 1596.36 1288.97 1626.48 1281.46 1635.67 1261.27 z" fill="rgb(22,40,26)" transform="translate(0,0)"/><path d="M 1587.65 1463.73 C 1587.95 1461.53 1588.31 1459.69 1588.75 1457.51 C 1593.36 1455.63 1700.87 1456.7 1713.64 1456.82 C 1711.24 1498.92 1651.39 1486.56 1622.83 1487.52 C 1606.67 1488.07 1593.28 1478.56 1587.65 1463.73 z" fill="rgb(22,40,26)" transform="translate(0,0)"/><path d="M 1629.63 1246.6 C 1643.72 1247.23 1658.7 1245.64 1672.34 1247.37 C 1673.17 1247.48 1673.2 1254.52 1672.32 1254.64 C 1658.96 1256.42 1642.89 1255.22 1629.13 1255.4 C 1629.17 1251.63 1628.95 1250.25 1629.63 1246.6 z" fill="rgb(22,40,26)" transform="translate(0,0)"/><path d="M 1628.61 1243.43 C 1628.64 1243.17 1629.06 1238.16 1629.73 1238.1 C 1643.85 1236.84 1659.02 1237.53 1673.38 1237.21 C 1673.33 1237.6 1672.81 1242.98 1672.14 1243.03 C 1658.49 1244.14 1642.28 1243.07 1628.61 1243.43 z" fill="rgb(22,40,26)" transform="translate(0,0)"/></svg>
