<svg xmlns="http://www.w3.org/2000/svg" viewBox="1976.18 1163.18 357.62 357.62" style="color:#16281A"><mask id="ma20" maskUnits="userSpaceOnUse" x="1976.18" y="1163.18" width="357.62" height="357.62"><rect x="1976.18" y="1163.18" width="357.62" height="357.62" fill="black"/><path d="M 2083.32 1348.41 C 2090.74 1278.52 2213.41 1268.9 2236.46 1344.84 C 2266.58 1342.02 2294.37 1348.04 2304 1380.91 L 2304 1388.79 C 2291.54 1430.55 2254.63 1426.47 2220.11 1426.49 L 2157.22 1426.44 L 2094.01 1426.39 C 2082.83 1426.37 2066.85 1426.81 2056.25 1425.39 C 2043.93 1423.68 2032.81 1417.08 2025.39 1407.08 C 2005.98 1380.34 2030.05 1352.64 2057.04 1347.57 C 2067.91 1345.53 2072.92 1346.43 2083.32 1348.41 z" fill="rgb(222,222,222)"/><path d="M 2101.24 1276.06 C 2119.88 1274.87 2127.32 1277.18 2143.28 1286.91 C 2117.15 1293.58 2098.87 1301.3 2083.48 1324.59 C 2081.64 1327.85 2079.87 1331.1 2079.06 1334.81 L 2077.27 1342.97 C 2062.73 1329.26 2053.69 1315.39 2066.32 1295.83 C 2074.98 1282.43 2086.21 1278.79 2101.24 1276.06 z" fill="rgb(222,222,222)"/><path d="M 2152.77 1265.27 C 2159.98 1269.41 2151.15 1274.17 2146.09 1279.5 C 2136.93 1276.66 2148.08 1270.14 2152.77 1265.27 z" fill="rgb(222,222,222)"/><path d="M 2041.8 1280.05 C 2047.37 1280.49 2059.42 1284.2 2059.89 1290.53 C 2054.24 1289.94 2042.4 1286.44 2041.8 1280.05 z" fill="rgb(222,222,222)"/><path d="M 2031.94 1312.19 C 2038.62 1311.99 2050.99 1308.98 2052.15 1315.78 C 2045.61 1316.14 2032.96 1319.39 2031.94 1312.19 z" fill="rgb(222,222,222)"/><path d="M 2072.54 1259.66 C 2079.67 1260.64 2083.23 1267.37 2083.39 1274.11 C 2076.82 1272.81 2072.91 1265.81 2072.54 1259.66 z" fill="rgb(222,222,222)"/><path d="M 2113.16 1253.43 C 2120.99 1254.93 2117.68 1259.87 2116.46 1267.62 C 2108.46 1269.43 2112.44 1259.44 2113.16 1253.43 z" fill="rgb(222,222,222)"/><path d="M 2057.4 1336.29 C 2063.64 1342.77 2052.91 1342.72 2046.65 1344.37 C 2040.35 1342.61 2055.01 1337.42 2057.4 1336.29 z" fill="rgb(222,222,222)"/></mask><rect x="1976.18" y="1163.18" width="357.62" height="357.62" fill="currentColor" mask="url(#ma20)"/></svg>
