<svg xmlns="http://www.w3.org/2000/svg" viewBox="-27.75 1618.44 333.02 333.02" style="color:#16281A"><mask id="ma21" maskUnits="userSpaceOnUse" x="-27.75" y="1618.44" width="333.02" height="333.02"><rect x="-27.75" y="1618.44" width="333.02" height="333.02" fill="black"/><path d="M 232.641 1768.32 C 246.192 1742.97 262.466 1705.18 275.899 1682.52 C 277.516 1748.66 276.682 1820.83 276.354 1887.37 L 0 1887.28 L 0 1885.08 C 9.6892 1874.39 18.1089 1863.46 27.4613 1852.88 L 37.2647 1859.56 C 45.2295 1852.58 54.2342 1844.31 62.4791 1837.86 C 74.8051 1838.48 88.0915 1839.39 100.36 1839.5 C 115.737 1821.48 130.95 1803.31 145.998 1785.02 C 155.525 1792.05 164.376 1799.83 173.378 1807.53 C 185.19 1790.45 196.476 1772.33 208.6 1755.7 C 216.302 1759.78 224.864 1764.57 232.641 1768.32 z" fill="rgb(222,222,222)"/><path d="M 224.956 1693.28 C 227.025 1692.77 225.86 1692.83 228.451 1693.49 C 230.154 1697.81 230.812 1720.02 231.097 1725.64 C 226.392 1722.08 221.723 1718.91 216.863 1715.58 C 201.936 1733.85 185.91 1751.55 170.714 1770.2 C 161.941 1765.52 151.152 1758.52 142.513 1753.21 C 131.157 1760.7 21.3495 1836.21 16.8628 1836.64 C 14.7455 1833.62 14.1783 1833.3 13.484 1829.65 C 24.3101 1820.41 55.0379 1800.57 68.0615 1791.9 C 92.5901 1775.57 118.005 1757.22 142.564 1741.51 C 151.363 1746.67 159.273 1751.91 167.76 1757.52 L 208.028 1709.89 L 192.4 1702.09 L 224.956 1693.28 z" fill="rgb(222,222,222)"/></mask><rect x="-27.75" y="1618.44" width="333.02" height="333.02" fill="currentColor" mask="url(#ma21)"/></svg>
