<svg xmlns="http://www.w3.org/2000/svg" viewBox="457.65 1586.25 388.64 388.64" style="color:#16281A"><mask id="ma22" maskUnits="userSpaceOnUse" x="457.65" y="1586.25" width="388.64" height="388.64"><rect x="457.65" y="1586.25" width="388.64" height="388.64" fill="black"/><path d="M 680.702 1682.88 L 682.246 1684.95 C 667.304 1689.95 611.019 1698.15 607.101 1711.09 C 609.443 1718.8 620.253 1722.16 627.587 1724.39 C 652.28 1732.36 740.151 1744.35 756.942 1762.11 C 813.898 1822.37 574.567 1816.11 666.889 1885.44 L 512.061 1885.5 C 507.1 1880.25 503.048 1875.07 501.675 1867.78 C 490.035 1806 682.049 1802.93 697.289 1773.72 C 698.772 1770.88 698.892 1768.57 697.814 1765.56 C 692.201 1749.89 628.605 1737.29 611.785 1730.5 C 603.949 1727.34 596.151 1724.44 592.641 1716.14 C 591.76 1695.02 661.659 1688.87 679.161 1683.38 L 680.702 1682.88 z" fill="rgb(222,222,222)"/><path d="M 688.2 1675.64 C 688.204 1681.49 687.23 1681.65 682.246 1684.95 L 680.702 1682.88 C 683.988 1681.03 683.96 1680.95 686.585 1678.44 L 688.2 1675.64 z" fill="rgb(170,170,170)"/></mask><rect x="457.65" y="1586.25" width="388.64" height="388.64" fill="currentColor" mask="url(#ma22)"/></svg>
