<svg xmlns="http://www.w3.org/2000/svg" viewBox="1478.56 1616.19 346.51 346.51"><path d="M 1771.89 1754.08 C 1765.92 1755.18 1744.45 1761.89 1738.19 1764 C 1714.54 1771.98 1677.86 1778.88 1662.72 1800.42 C 1651.79 1816.17 1642.38 1832.11 1626.89 1844.1 C 1588.63 1873.69 1507.44 1851.5 1516.55 1794.07 C 1518.88 1779.38 1528.48 1766.32 1541.06 1758.26 C 1574.21 1737.01 1616.45 1728.22 1654.49 1719.68 C 1658.28 1718.86 1676.53 1722.12 1688.87 1719.47 C 1697.99 1717.52 1741.4 1711.47 1746.65 1712.35 C 1748.72 1717.71 1767.71 1748.08 1771.89 1754.08 z" fill="rgb(22,40,26)" transform="translate(0,0)"/><path d="M 1580.23 1762.15 C 1644.79 1760.42 1656.87 1831.09 1590.46 1841.63 C 1523.26 1842.29 1513.74 1772.19 1580.23 1762.15 z" fill="rgb(255,255,255)" transform="translate(0,0)"/><path d="M 1579.39 1765.45 C 1639.11 1763.16 1650.93 1826.57 1591.72 1838.32 C 1528.03 1839.3 1519.15 1775.86 1579.39 1765.45 z" fill="rgb(22,40,26)" transform="translate(0,0)"/><path d="M 1576.33 1798.07 C 1582.71 1797.17 1595.23 1795.05 1590.99 1805.56 C 1584.56 1805.83 1571.36 1807.95 1576.33 1798.07 z" fill="rgb(255,255,255)" transform="translate(0,0)"/><path d="M 1582.76 1801.16 C 1583.04 1801.06 1584.11 1800.53 1584.68 1800.61 C 1584.86 1800.63 1584.96 1800.68 1585.06 1800.83 C 1585.32 1801.22 1584.86 1802.12 1584.78 1802.35 C 1584.4 1802.44 1581.79 1803.45 1581.56 1802.62 C 1581.76 1801.97 1582.24 1801.7 1582.76 1801.16 z" fill="rgb(22,40,26)" transform="translate(0,0)"/><path d="M 1559.33 1797.94 C 1560.43 1797.88 1567.57 1797.08 1568.17 1798.51 C 1567.74 1800.03 1565.37 1800.64 1566.91 1802.34 C 1567.83 1803.35 1567.65 1804.05 1567.62 1805.39 C 1561.99 1805.95 1556.74 1805.78 1559.33 1797.94 z" fill="rgb(255,255,255)" transform="translate(0,0)"/><path d="M 1600.88 1797.92 C 1611.1 1797.43 1607.82 1796.46 1609.78 1805.52 C 1608.73 1805.59 1607.68 1805.65 1606.63 1805.71 C 1602.06 1808.7 1599.95 1801.24 1600.88 1797.92 z" fill="rgb(255,255,255)" transform="translate(0,0)"/><path d="M 1723.96 1730.31 C 1728.74 1731.17 1728.04 1735.12 1730.58 1738.87 C 1736.12 1747.03 1724.7 1748.27 1719.3 1749.46 C 1712.83 1749.25 1711.14 1740.03 1708.73 1734.49 C 1713.82 1732.91 1718.8 1731.64 1723.96 1730.31 z" fill="rgb(255,255,255)" transform="translate(0,0)"/><path d="M 1749.39 1710.91 C 1772.36 1705.2 1786.03 1730.52 1796.2 1747.09 C 1789.59 1748.93 1783.14 1750.51 1776.56 1752.55 C 1772.96 1750.22 1752.74 1716.5 1749.39 1710.91 z" fill="rgb(22,40,26)" transform="translate(0,0)"/></svg>
