<svg xmlns="http://www.w3.org/2000/svg" viewBox="502.39 2044.78 277.66 277.66" style="color:#16281A"><mask id="ma27" maskUnits="userSpaceOnUse" x="502.39" y="2044.78" width="277.66" height="277.66"><rect x="502.39" y="2044.78" width="277.66" height="277.66" fill="black"/><path d="M 639.852 2095.43 C 645.391 2099.94 668.913 2143.99 674.908 2154.06 C 700.421 2156.44 731.186 2161.48 756.912 2165.07 C 736.529 2179.44 716.278 2194 696.162 2208.74 L 709.575 2271.78 C 686.843 2261.04 663.95 2250.64 640.903 2240.6 C 624.136 2249.54 589.371 2264.01 571.407 2271.7 C 575.854 2250.9 581.979 2228.47 585.734 2208.12 C 565.542 2193.95 545.474 2179.61 525.531 2165.09 C 552.477 2161.49 579.403 2157.73 606.308 2153.82 C 617.309 2137.06 629.464 2113.47 639.852 2095.43 z" fill="rgb(222,222,222)"/></mask><rect x="502.39" y="2044.78" width="277.66" height="277.66" fill="currentColor" mask="url(#ma27)"/></svg>
