<svg xmlns="http://www.w3.org/2000/svg" viewBox="991.18 2027.73 303.48 303.48"><path d="M 1144.44 2061.1 C 1147.76 2061.69 1167.2 2072.46 1172.5 2074.84 C 1206.49 2090.1 1230.47 2093.01 1266.71 2094.6 C 1267.09 2122.98 1269.37 2156.25 1261.09 2182.98 C 1244.03 2238.1 1193.43 2272.23 1145.11 2297.84 C 1113.96 2281.44 1087.85 2266.15 1063.1 2240.88 C 1016.47 2193.27 1021.34 2154.91 1021.87 2094.18 C 1078.63 2091.49 1094.16 2086.39 1144.44 2061.1 z" fill="rgb(22,40,26)" transform="translate(0,0)"/><path d="M 1206.35 2129.81 C 1230.17 2129.1 1227.18 2147.81 1208.26 2159.23 C 1185.44 2173.02 1141.37 2219.77 1118.02 2227.44 C 1107.13 2225.65 1092.53 2211.24 1083.47 2203.51 C 1079.82 2200.6 1068.44 2192.43 1066.64 2186.9 C 1062.68 2174.72 1081.83 2169.37 1090.93 2175.71 C 1099.05 2181.36 1109.63 2190.4 1118.43 2197.63 C 1138.04 2183.21 1157.08 2166.42 1176.46 2151.63 C 1184.68 2145.34 1197.31 2133.71 1206.35 2129.81 z" fill="rgb(255,255,255)" transform="translate(0,0)"/></svg>
