<svg xmlns="http://www.w3.org/2000/svg" viewBox="1442.46 2000.97 387.31 387.31" style="color:#16281A"><mask id="ma29" maskUnits="userSpaceOnUse" x="1442.46" y="2000.97" width="387.31" height="387.31"><rect x="1442.46" y="2000.97" width="387.31" height="387.31" fill="black"/><path d="M 1643.47 2084.95 C 1657.25 2083.06 1663.01 2084.78 1671.01 2096.26 C 1711.88 2154.96 1753.22 2213.34 1794.08 2272.05 C 1795.54 2274.15 1796.8 2276.6 1797.08 2279.18 C 1797.5 2283.31 1796.08 2287.43 1793.18 2290.41 C 1783.1 2300.67 1752.64 2297.74 1738.16 2297.71 L 1659.94 2297.53 L 1575.23 2297.63 C 1542.28 2297.71 1474.74 2306.2 1522.21 2251.93 C 1545.05 2225.83 1623.64 2095.48 1643.47 2084.95 z" fill="rgb(222,222,222)"/><path d="M 1639.57 2139.04 C 1644.67 2138.81 1649.77 2138.7 1654.87 2138.71 C 1658.15 2138.73 1671.43 2139.81 1671.73 2143.79 C 1672.92 2159.7 1672.06 2222.27 1661.57 2231.18 C 1655.86 2232.52 1651.09 2233.25 1645.33 2231.8 C 1642.62 2231.12 1639.16 2229.68 1637.78 2227.06 C 1635.13 2222.04 1628.2 2151.51 1630.34 2146.05 C 1631.83 2142.25 1636.06 2140.46 1639.57 2139.04 z" fill="rgb(0,0,0)"/><path d="M 1646.25 2243.24 C 1672.24 2240.49 1681.21 2264.65 1656.85 2274.03 L 1656.34 2274.06 C 1630.6 2275.44 1622.31 2252.94 1646.25 2243.24 z" fill="rgb(0,0,0)"/></mask><rect x="1442.46" y="2000.97" width="387.31" height="387.31" fill="currentColor" mask="url(#ma29)"/></svg>
