<svg xmlns="http://www.w3.org/2000/svg" viewBox="87.57 105.63 224.38 224.38" style="color:#16281A"><mask id="mb01" maskUnits="userSpaceOnUse" x="87.57" y="105.63" width="224.38" height="224.38"><rect x="87.57" y="105.63" width="224.38" height="224.38" fill="black"/><path d="M 196.093 163.991 C 198.669 166.358 201.161 169.374 203.661 171.883 C 224.363 192.66 244.56 214.435 265.886 234.543 C 265.631 253.235 267.21 274.724 265.207 293.117 C 264.333 301.133 259.957 304.753 253.813 308.867 C 241.453 309.018 229.093 309.104 216.732 309.128 C 216.783 297.981 218.172 264.951 214.579 256.148 C 210.27 252.046 202.583 253.076 196.249 253.062 C 190.192 252.922 181.038 251.734 176.733 255.589 C 173.523 263.341 174.876 298.672 174.945 308.906 L 148.987 309.309 C 137.389 309.389 127.276 306.007 126.267 292.263 C 124.865 273.146 125.76 252.813 125.902 233.505 C 147.982 212.278 175.669 185.806 196.093 163.991 z" fill="rgb(222,222,222)"/><path d="M 193.268 126.997 C 197.857 126.758 200.752 126.261 204.341 129.561 C 212.657 137.209 220.422 145.593 228.374 153.633 C 240.691 166.087 252.925 178.623 265.074 191.242 C 272.692 199.135 293.253 214.909 283.082 226.582 C 279.116 231.135 270.152 231.325 265.803 227.281 C 242.483 205.597 221.466 181.219 198.639 159.07 L 196.072 158.038 C 186.891 161.504 141.963 211.547 130.366 221.969 C 126.553 225.396 120.965 229.704 115.547 229.064 C 112.789 228.738 110.058 226.392 108.588 224.145 C 106.971 221.674 106.266 218.286 106.989 215.395 C 109.047 207.171 182.364 133.588 193.268 126.997 z" fill="rgb(222,222,222)"/></mask><rect x="87.57" y="105.63" width="224.38" height="224.38" fill="currentColor" mask="url(#mb01)"/></svg>
