<svg xmlns="http://www.w3.org/2000/svg" viewBox="359.19 96.26 279.77 279.77" style="color:#16281A"><mask id="mb02" maskUnits="userSpaceOnUse" x="359.19" y="96.26" width="279.77" height="279.77"><rect x="359.19" y="96.26" width="279.77" height="279.77" fill="black"/><path d="M 488.782 239.404 C 521.268 236.35 549.521 241.405 558.034 278.745 C 559.865 286.777 561.675 298.538 556.984 305.814 C 551.374 309.092 516.949 307.634 507.5 307.621 C 496.736 307.661 443.881 309.82 437.67 305.583 C 435.235 303.923 434.407 300.255 434.197 297.523 C 433.189 284.39 440.171 267.83 448.467 257.901 C 459.159 245.105 472.715 240.858 488.782 239.404 z" fill="rgb(222,222,222)"/><path d="M 487.235 163.217 C 495.257 162.545 497.91 162.476 505.45 165.194 C 529.969 174.033 532.155 211.861 512.789 226.716 C 509.718 229.072 506.448 229.935 502.908 231.312 C 456.151 237.738 450.609 177.305 487.235 163.217 z" fill="rgb(222,222,222)"/><path d="M 555.397 175.082 C 594.773 173.365 601.39 224.721 567.69 236.746 C 524.558 240.029 523.839 185.313 555.397 175.082 z" fill="rgb(222,222,222)"/><path d="M 549.57 245.292 C 558.537 245.172 567.212 245.63 576.005 246.792 C 598.577 249.773 612.996 269.789 614.681 291.503 C 615.178 297.914 615.644 299.091 611.738 303.847 C 602.599 305.392 577.854 304.811 567.831 304.656 C 566.796 283.485 565.107 264.142 549.061 248.425 C 547.457 246.854 548.152 246.412 549.57 245.292 z" fill="rgb(222,222,222)"/><path d="M 428.223 245.231 C 435.334 244.491 445.346 244.843 452.662 244.947 C 432.196 265.345 427.457 276.223 427.354 305.023 C 421.301 304.955 415.247 304.933 409.193 304.957 C 403.359 304.974 392.549 305.86 386.993 303.932 C 385.62 303.455 383.728 300.127 383.665 298.507 C 382.504 268.656 399.612 250.403 428.223 245.231 z" fill="rgb(222,222,222)"/><path d="M 430.148 177.158 C 440.524 176.346 448.147 176.642 454.817 186.01 L 456.962 189.07 C 456.628 206.848 455.835 201.316 459.933 218.483 C 454.03 229.116 450.877 232.907 438.526 235.717 C 405.729 235.779 397.958 189.906 430.148 177.158 z" fill="rgb(222,222,222)"/></mask><rect x="359.19" y="96.26" width="279.77" height="279.77" fill="currentColor" mask="url(#mb02)"/></svg>
