<svg xmlns="http://www.w3.org/2000/svg" viewBox="689.92 110.30 218.04 218.04" style="color:#16281A"><mask id="mb03" maskUnits="userSpaceOnUse" x="689.92" y="110.30" width="218.04" height="218.04"><rect x="689.92" y="110.30" width="218.04" height="218.04" fill="black"/><path d="M 792.788 129.107 C 809.809 128.472 812.662 135.62 813.198 151.333 C 820.469 150.999 841.483 148.133 837.906 163.378 C 835.359 174.236 820.985 167.041 814.445 170.491 C 813.27 173.505 813.735 178.574 813.806 182.007 C 822.505 181.746 836.103 180.391 839.762 190.842 C 836.974 202.197 822.907 200.631 813.911 200.276 C 814.015 236.431 815.678 273.724 816.215 310.089 L 802.75 310.173 L 778.122 310.154 C 779.615 273.804 779.868 236.733 781.109 200.224 C 770.598 200.426 760.286 202.875 756.404 190.599 C 758.583 181.627 772.726 181.779 780.302 181.433 C 781.069 180.099 781.76 174.878 781.28 173.467 C 778.282 164.648 757.243 176.779 757.647 161.01 C 757.973 148.299 773.431 150.927 781.866 151.129 L 782.038 139.002 C 785.701 133.646 787.508 132.244 792.788 129.107 z" fill="rgb(222,222,222)"/></mask><rect x="689.92" y="110.30" width="218.04" height="218.04" fill="currentColor" mask="url(#mb03)"/></svg>
