<svg xmlns="http://www.w3.org/2000/svg" viewBox="989.08 109.13 222.86 222.86"><path d="M 1068.42 181.465 C 1074.08 173.313 1062.26 143.034 1088.32 135.881 C 1118.12 127.703 1138.22 148.114 1130.83 179.619 L 1129.68 180.895 L 1128 179.941 C 1125.2 168.852 1128.46 147.011 1116.7 142.092 C 1083.46 128.198 1068.66 153.664 1074.62 181.957 C 1087.63 180.68 1112.61 181.373 1126.41 181.356 C 1126.21 186.895 1125.04 198.795 1128.67 202.695 C 1132.49 198.393 1131.39 187.559 1131.25 181.598 C 1140 181.472 1149.13 180.173 1156.17 186.438 C 1160.7 190.476 1171.83 284.489 1172.54 297.088 C 1172.79 301.481 1172.11 304.917 1168.92 308.172 C 1166.25 310.897 1162.5 311.539 1158.86 311.914 C 1144.24 313.421 1128.42 312.039 1113.62 311.942 C 1092.3 311.803 1070.99 312.442 1049.68 312.413 C 1043.57 312.405 1035.74 312.145 1031.36 307.307 C 1028.78 304.455 1028.23 300.815 1028.39 297.106 C 1029.12 280.763 1032.63 263.747 1034.82 247.499 C 1037.21 229.684 1038.22 209.705 1043.09 192.449 C 1043.96 189.369 1044.77 187.296 1047.29 185.182 C 1053.32 180.114 1061.14 181.036 1068.42 181.465 z" fill="rgb(22,40,26)" transform="translate(0,0)"/><path d="M 1068.96 181.978 C 1070.68 182.022 1072.29 182.115 1074.01 182.216 C 1073.91 184.822 1074.16 202.586 1073.51 203.188 C 1066.55 209.638 1069.02 185.867 1068.96 181.978 z" fill="rgb(255,255,255)" transform="translate(0,0)"/></svg>
