<svg xmlns="http://www.w3.org/2000/svg" viewBox="1294.06 116.38 212.58 212.58" style="color:#16281A"><mask id="mb05" maskUnits="userSpaceOnUse" x="1294.06" y="116.38" width="212.58" height="212.58"><rect x="1294.06" y="116.38" width="212.58" height="212.58" fill="black"/><path d="M 1360.72 210.731 C 1367.81 219.007 1373.47 223.93 1385.7 222.422 C 1393.97 221.403 1397.87 216.859 1402.57 210.608 C 1416.05 228.536 1431.4 227.325 1445.73 211.605 C 1451.35 219.802 1454.71 221.662 1463.85 223.445 L 1463.76 281.365 C 1463.77 286.134 1464.15 306.549 1463.33 310.244 L 1461.22 311.161 L 1332.68 311.248 L 1332.58 223.121 C 1346.65 223.014 1351.76 222.156 1360.72 210.731 z" fill="rgb(222,222,222)"/><path d="M 1356.96 231.948 C 1361.99 232.17 1399.97 232.826 1400.21 235.418 C 1400.91 243.026 1403.01 296.078 1398.65 299.338 L 1397.75 300.027 C 1390.58 300.151 1350.63 303.739 1352.12 294.011 C 1354.57 278.078 1346.92 243.29 1356.96 231.948 z" fill="rgb(0,0,0)"/><path d="M 1339.77 135.998 C 1348.12 135.339 1357.56 135.75 1366.02 135.905 C 1362.39 157.619 1361.63 183.062 1356.59 204.554 C 1355.04 211.171 1351.84 213.287 1346.31 216.12 C 1328.94 220.928 1317.69 208.995 1322.51 194.206 C 1326.9 180.714 1333.16 146.844 1339.77 135.998 z" fill="rgb(222,222,222)"/><path d="M 1372.01 135.527 L 1399.69 135.68 C 1398.45 157.723 1400.81 184.212 1398.97 205.144 C 1395.96 209.909 1395.45 210.774 1391.12 214.572 C 1349.42 235.049 1369.19 153.545 1372.01 135.527 z" fill="rgb(222,222,222)"/><path d="M 1405.42 135.427 C 1414.02 135.196 1422.99 135.376 1431.62 135.422 C 1434.88 155.465 1440.62 184.621 1440.37 204.873 C 1440.34 207.299 1437.53 211.359 1436.05 213.514 C 1423.58 221.727 1407.34 217.5 1406.14 201.56 C 1404.52 180.01 1405.38 157.189 1405.42 135.427 z" fill="rgb(222,222,222)"/><path d="M 1437.44 135.433 C 1444.68 135.175 1456.19 134.096 1462.54 136.821 C 1467.47 143.152 1478.76 188.602 1481.7 199.347 C 1483.02 204.195 1479.87 208.745 1477.16 212.591 C 1465.66 220.449 1451.27 218.471 1448.02 203.698 C 1443.17 181.628 1440.71 157.938 1437.44 135.433 z" fill="rgb(222,222,222)"/></mask><rect x="1294.06" y="116.38" width="212.58" height="212.58" fill="currentColor" mask="url(#mb05)"/></svg>
