<svg xmlns="http://www.w3.org/2000/svg" viewBox="85.95 437.35 228.50 228.50"><path d="M 185.502 556.448 L 197.921 556.164 C 220.07 555.713 236.01 552.627 255.608 570.496 C 270.281 582.224 283.904 623 272.29 638.084 C 267.241 644.642 220.275 642.177 210.5 642.118 L 159.071 642.214 C 143.457 642.233 117.725 646.811 117.161 625.12 C 116.51 600.147 127.501 573.308 150.303 561.079 C 158.828 556.508 175.938 556.705 185.502 556.448 z" fill="rgb(22,40,26)" transform="translate(0,0)"/><path d="M 189.364 461.201 C 238.714 456.391 255.92 530.655 204.307 546.339 C 148.679 551.855 141.43 477.473 189.364 461.201 z" fill="rgb(22,40,26)" transform="translate(0,0)"/></svg>
