<svg xmlns="http://www.w3.org/2000/svg" viewBox="384.23 434.42 220.61 220.61" style="color:#16281A"><mask id="mb07" maskUnits="userSpaceOnUse" x="384.23" y="434.42" width="220.61" height="220.61"><rect x="384.23" y="434.42" width="220.61" height="220.61" fill="black"/><path d="M 489.648 453.331 C 509.047 452.808 509.019 455.977 513.007 474.171 C 518.795 475.839 523.592 477.274 529.23 479.362 C 532.856 476.978 538.389 472.971 542.49 471.933 C 552.502 469.399 560.396 480.216 561.989 488.804 C 563.62 497.595 559.929 501.963 555.225 508.539 C 557.809 514.231 559.693 518.172 561.433 524.152 C 572.354 526.573 582.332 528.135 585.03 541.288 C 586.052 546.12 585.029 551.159 582.203 555.21 C 576.836 562.766 570.482 562.943 561.982 564.392 C 560.155 569.327 557.791 574.782 555.788 579.71 C 558.023 583.176 561.781 588.85 562.465 592.929 C 564.165 603.061 557.947 614.438 547.337 616.258 C 539.22 617.65 534.55 613.354 528.497 608.784 L 512.872 615.874 C 511.55 625.017 510.998 633.74 501.018 636.648 C 479.19 636.456 479.25 635.62 474.693 614.289 L 460.121 608.466 C 451.294 613.908 444.036 618.96 433.686 611.949 C 429.707 609.281 426.946 605.147 426.004 600.45 C 424.321 591.622 428.106 587.155 432.788 580.251 L 426.169 564.136 C 415.703 562.646 406.067 559.292 404.721 546.648 C 403.007 530.551 412.7 525.319 426.856 523.586 L 432.969 507.519 C 427.053 498.344 423.094 489.617 430.412 479.401 C 433.08 475.65 437.157 473.144 441.709 472.457 C 450.385 471.154 454.238 475.163 460.955 480.134 L 474.99 473.09 C 478.283 462.967 478.207 455.961 489.648 453.331 z" fill="rgb(222,222,222)"/><path d="M 490.425 505.622 C 512.09 503.215 531.671 518.655 534.382 540.284 C 537.094 561.912 521.931 581.709 500.342 584.724 C 486.105 586.712 471.899 580.881 463.165 569.463 C 454.431 558.045 452.521 542.809 458.166 529.588 C 463.811 516.368 476.137 507.21 490.425 505.622 z" fill="rgb(0,0,0)"/></mask><rect x="384.23" y="434.42" width="220.61" height="220.61" fill="currentColor" mask="url(#mb07)"/></svg>
