<svg xmlns="http://www.w3.org/2000/svg" viewBox="703.02 451.30 189.92 189.92" style="color:#16281A"><mask id="mb08" maskUnits="userSpaceOnUse" x="703.02" y="451.30" width="189.92" height="189.92"><rect x="703.02" y="451.30" width="189.92" height="189.92" fill="black"/><path d="M 854.743 519.159 C 871.176 518.985 876.487 526.717 875.924 541.997 C 875.437 555.192 877.111 560.78 862.978 565.584 C 844.525 565.883 841.557 558.025 842.05 540.79 C 842.37 529.646 843.04 524.229 854.743 519.159 z" fill="rgb(222,222,222)"/><path d="M 794.092 519.058 C 811.181 519.153 815.412 526.83 814.819 542.244 C 814.294 555.867 815.289 558.732 802.252 565.554 C 784.665 565.498 780.431 559.302 780.964 543.087 C 781.397 529.904 779.922 524.655 794.092 519.058 z" fill="rgb(222,222,222)"/><path d="M 733.085 519.103 C 756.947 518.951 753.387 536.684 752.951 554.619 C 747.92 561.808 747.462 562.812 738.766 565.947 C 724.236 565.758 719.167 559.264 719.273 545.005 C 719.38 530.519 718.848 525.218 733.085 519.103 z" fill="rgb(222,222,222)"/><path d="M 793.284 571.127 C 795.038 571.318 800.965 571.411 800.918 572.978 C 800.549 585.493 802.684 614.325 800.15 625.204 C 793.947 624.904 793.089 624.182 793.15 617.009 C 793.281 601.737 792.903 586.387 793.284 571.127 z" fill="rgb(222,222,222)"/><path d="M 854.983 570.98 C 855.934 571.071 856.887 571.146 857.841 571.203 C 858.7 571.247 861.959 571.254 861.995 572.035 C 862.503 583.147 862.961 615.048 861.884 624.448 C 854.341 624.37 854.745 621.897 854.849 614.506 C 855.049 600.11 854.305 585.338 854.983 570.98 z" fill="rgb(222,222,222)"/><path d="M 732.878 571.685 C 734.417 571.834 739.405 571.923 739.518 572.904 C 740.601 582.369 740.649 617.24 739.784 624.513 C 731.549 625.014 732.799 622.772 732.755 614.316 C 732.681 600.115 732.81 585.889 732.878 571.685 z" fill="rgb(222,222,222)"/><path d="M 734.634 467.377 C 735.928 467.906 740.326 469.301 740.277 471.009 C 740.062 478.59 742.294 509.708 739.302 515.351 C 738.367 515.156 733.023 514.482 733.06 513.462 C 733.468 502.1 729.784 476.934 734.634 467.377 z" fill="rgb(222,222,222)"/><path d="M 794.359 468.428 C 804.901 468.67 801.233 474.48 801.372 484.316 C 801.508 493.929 801.506 504.541 801.039 514.102 C 800.169 514.05 793.316 514.257 793.37 512.799 C 793.774 501.991 791.259 477.862 794.359 468.428 z" fill="rgb(222,222,222)"/><path d="M 857.014 467.303 C 859.686 468.033 862.789 468.542 862.597 471.532 C 861.927 481.963 864.141 506.228 862.33 515.298 C 861.497 515.224 855.256 515.212 855.296 513.988 C 855.697 501.561 852.776 478.205 857.014 467.303 z" fill="rgb(222,222,222)"/></mask><rect x="703.02" y="451.30" width="189.92" height="189.92" fill="currentColor" mask="url(#mb08)"/></svg>
