<svg xmlns="http://www.w3.org/2000/svg" viewBox="991.79 440.30 204.28 204.28" style="color:#16281A"><mask id="mb09" maskUnits="userSpaceOnUse" x="991.79" y="440.30" width="204.28" height="204.28"><rect x="991.79" y="440.30" width="204.28" height="204.28" fill="black"/><path d="M 1069.7 461.875 C 1103.51 457.327 1134.61 481.026 1139.19 514.827 C 1143.77 548.629 1120.1 579.75 1086.3 584.364 C 1052.46 588.985 1021.28 565.276 1016.7 531.428 C 1012.11 497.58 1035.85 466.429 1069.7 461.875 z" fill="rgb(222,222,222)"/><path d="M 1074.05 478.35 C 1098.69 476.233 1120.42 494.389 1122.72 519.011 C 1125.02 543.633 1107.03 565.501 1082.42 567.987 C 1057.56 570.498 1035.41 552.272 1033.08 527.388 C 1030.75 502.504 1049.15 480.489 1074.05 478.35 z" fill="rgb(0,0,0)"/><path d="M 1069.71 487.904 C 1071.31 487.949 1074.65 487.51 1075.79 489.053 C 1076.02 491.262 1068.85 492.438 1066.6 493.329 C 1056.69 497.241 1052.43 504.451 1048.57 513.731 C 1047.79 521.429 1043.34 515.918 1048.23 506.555 C 1054.17 495.169 1058.15 492.38 1069.71 487.904 z" fill="rgb(222,222,222)"/><path d="M 1132.85 561.671 C 1143.49 569.531 1161.33 596.369 1172.47 606.057 C 1173.53 606.984 1175.75 611.342 1175.72 612.961 C 1175.48 623.972 1170 627.006 1159.97 627.558 C 1151.12 621.841 1123.49 589.708 1115.02 580.041 C 1124.06 572.569 1125.59 570.745 1132.85 561.671 z" fill="rgb(222,222,222)"/></mask><rect x="991.79" y="440.30" width="204.28" height="204.28" fill="currentColor" mask="url(#mb09)"/></svg>
