<svg xmlns="http://www.w3.org/2000/svg" viewBox="1285.86 433.15 226.69 226.69"><path d="M 1384.99 474.902 C 1378.08 454.387 1411.79 452.037 1407.24 474.936 C 1456.61 486.749 1442.1 530.785 1452.73 566.934 C 1456.77 580.678 1480.2 589.638 1465.74 604.324 C 1438.69 611.823 1372.19 602.173 1341.4 606.194 C 1335.53 606.961 1323.23 606.398 1321.31 598.615 C 1318.2 585.966 1329.02 581.209 1333.5 572.422 C 1353.71 532.798 1328.71 491.339 1384.99 474.902 z" fill="rgb(22,40,26)" transform="translate(0,0)"/><path d="M 1393.01 464.346 C 1400.16 465.16 1406.18 471.933 1400.98 473.907 C 1390.11 473.859 1386.14 475.932 1393.01 464.346 z" fill="rgb(255,255,255)" transform="translate(0,0)"/><path d="M 1373.74 612.438 C 1388.98 612.418 1404.21 612.506 1419.44 612.7 C 1417.15 621.546 1416.52 625.025 1411.84 633.146 C 1403.93 639.956 1393.41 640.943 1383.95 636.506 C 1378.02 633.724 1370.24 618.092 1373.74 612.438 z" fill="rgb(22,40,26)" transform="translate(0,0)"/></svg>
