<svg xmlns="http://www.w3.org/2000/svg" viewBox="399.17 783.88 188.31 188.31"><path d="M 570.867 806.906 L 571.784 808.376 C 558.759 834.458 544.459 860.328 530.62 886.045 C 519.29 907.1 507.228 931.696 495.082 951.983 C 493.494 946.746 491.375 940.976 489.581 935.747 L 470.143 880.489 C 504.433 858.812 537.116 828.28 570.867 806.906 z" fill="rgb(22,40,26)" transform="translate(0,0)"/><path d="M 562.469 804.08 L 564.374 804.108 C 562.975 807.18 475.834 869.884 465.585 877.509 C 456.248 871.58 446.865 865.724 437.435 859.945 C 429.816 855.588 422.302 851.343 414.863 846.676 C 463.887 831.868 513.093 817.668 562.469 804.08 z" fill="rgb(22,40,26)" transform="translate(0,0)"/></svg>
