<svg xmlns="http://www.w3.org/2000/svg" viewBox="693.20 774.66 216.14 216.14" style="color:#16281A"><mask id="mb13" maskUnits="userSpaceOnUse" x="693.20" y="774.66" width="216.14" height="216.14"><rect x="693.20" y="774.66" width="216.14" height="216.14" fill="black"/><path d="M 733.342 800.231 C 760.635 799.023 788.607 800.058 816.027 799.677 C 832.984 800.351 851.36 798.254 868.07 800.674 C 882.801 802.807 887.668 815.554 888.253 828.329 C 889.128 847.401 887.744 868.799 888.73 887.247 C 891.329 935.856 872.797 932.731 834.5 932.283 L 752.653 932.61 C 742.597 940.963 729.418 957.181 719.221 967.207 C 719.115 960.641 720.562 937.236 717.95 933.219 C 715.394 933.185 715.263 933.295 712.745 932.45 C 712.648 932.203 712.551 931.957 712.454 931.71 C 711.21 900.727 712.306 869.421 711.885 838.374 C 711.628 819.402 712.299 806.876 733.342 800.231 z" fill="rgb(222,222,222)"/><path d="M 742.851 874.107 L 818.31 873.999 C 825.942 873.992 849.675 873.475 856.063 874.755 C 858.263 877.298 857.578 876.886 858.142 880.861 C 829.179 881.331 800.043 880.67 771.061 881.047 C 762.555 881.158 752.725 881.522 744.421 880.54 C 742.223 878.171 742.979 878.41 742.851 874.107 z" fill="rgb(0,0,0)"/><path d="M 743.033 844.832 C 763.464 843.96 787.289 844.973 808.058 844.609 C 819.649 844.407 845.161 843.837 855.888 845.009 C 858.196 846.844 857.447 846.677 857.96 850.741 C 845.861 850.761 747.096 852.126 743.587 849.541 L 743.033 844.832 z" fill="rgb(0,0,0)"/></mask><rect x="693.20" y="774.66" width="216.14" height="216.14" fill="currentColor" mask="url(#mb13)"/></svg>
