<svg xmlns="http://www.w3.org/2000/svg" viewBox="974.20 758.20 232.16 232.16" style="color:#16281A"><mask id="mb14" maskUnits="userSpaceOnUse" x="974.20" y="758.20" width="232.16" height="232.16"><rect x="974.20" y="758.20" width="232.16" height="232.16" fill="black"/><path d="M 1133.42 797.297 C 1137 797.084 1139.87 796.953 1143.45 797.405 C 1155.94 798.894 1167.28 805.422 1174.83 815.476 C 1183.43 826.936 1187.01 841.387 1184.78 855.535 C 1180.33 885.537 1123.93 933.373 1099.25 951.601 C 1089.9 944.6 1080.55 936.436 1071.71 928.809 C 1070.68 927.894 1069.67 926.968 1068.66 926.031 C 1041.26 900.409 993.544 848.832 1029.23 811.67 C 1037.51 803.058 1048.87 798.099 1060.82 797.89 C 1077.66 797.59 1088.11 806.426 1099.43 817.328 C 1111.02 807.081 1118.55 801.474 1133.42 797.297 z" fill="rgb(222,222,222)"/></mask><rect x="974.20" y="758.20" width="232.16" height="232.16" fill="currentColor" mask="url(#mb14)"/></svg>
