<svg xmlns="http://www.w3.org/2000/svg" viewBox="1302.29 785.38 200.11 200.11" style="color:#16281A"><mask id="mb15" maskUnits="userSpaceOnUse" x="1302.29" y="785.38" width="200.11" height="200.11"><rect x="1302.29" y="785.38" width="200.11" height="200.11" fill="black"/><path d="M 1425.17 816.768 C 1437.41 819.347 1447.61 837.714 1457.96 845.384 C 1485.73 865.658 1454.76 875.877 1442.83 892.115 C 1429.08 910.828 1407.93 900.525 1422.68 883.711 L 1432.36 873.188 C 1421.02 872.818 1389.3 876.262 1381.55 869.203 C 1379.91 867.711 1379.11 865.973 1379.04 863.755 C 1378.94 861 1380.11 858.36 1382 856.393 C 1387.88 850.305 1426.9 852.927 1437.44 852.947 C 1427.38 844.005 1406.25 827.753 1425.17 816.768 z" fill="rgb(222,222,222)"/><path d="M 1361.45 873.86 C 1364.02 873.629 1368.06 873.97 1370.03 875.629 C 1381.51 885.282 1355.32 905.925 1348.42 913.242 C 1354.49 921.109 1393.53 953.22 1360.04 954.113 C 1348.87 945.115 1334.75 930.089 1325.56 918.924 C 1318.97 910.904 1330.51 903.12 1335.8 897.637 C 1343.94 889.189 1351.16 880.157 1361.45 873.86 z" fill="rgb(222,222,222)"/></mask><rect x="1302.29" y="785.38" width="200.11" height="200.11" fill="currentColor" mask="url(#mb15)"/></svg>
