<svg xmlns="http://www.w3.org/2000/svg" viewBox="400.32 1101.11 187.75 187.75" style="color:#16281A"><mask id="mb17" maskUnits="userSpaceOnUse" x="400.32" y="1101.11" width="187.75" height="187.75"><rect x="400.32" y="1101.11" width="187.75" height="187.75" fill="black"/><path d="M 521.807 1138.55 C 525.808 1139.74 545.358 1161.7 550.027 1166.53 C 522.543 1194.16 495.445 1222.18 468.743 1250.58 C 467.184 1250.28 444.968 1225.55 441.505 1222.25 C 467.16 1194.1 496.838 1166.98 521.807 1138.55 z" fill="rgb(222,222,222)"/><path d="M 438.195 1226.59 C 445.637 1232.75 458.55 1247.37 463.302 1255.83 C 456.66 1258.24 450.786 1260.36 444.219 1262.98 C 440.303 1264.76 436.125 1266.03 432.099 1267.5 C 428.071 1263.74 426.714 1262.19 423.28 1257.85 C 428.244 1246.74 433.004 1237.4 438.195 1226.59 z" fill="rgb(222,222,222)"/><path d="M 544.349 1119.08 C 570.458 1118.16 572.426 1150.52 563.212 1150.33 C 558.465 1145.96 551.381 1139.53 547.174 1134.79 C 537.193 1123.56 532.679 1125.91 544.349 1119.08 z" fill="rgb(222,222,222)"/><path d="M 532.774 1128.73 C 535.643 1130.28 556.175 1151.71 560.365 1155.72 C 558.177 1158.42 556.943 1159.85 554.543 1162.34 C 554.134 1161.96 553.719 1161.58 553.349 1161.16 C 550.147 1157.52 527.455 1137.39 527.385 1134.41 C 527.345 1132.68 531.622 1129.75 532.774 1128.73 z" fill="rgb(222,222,222)"/><path d="M 422.171 1263.88 C 426.924 1268.93 425.394 1268.45 419.619 1271.81 C 415.968 1271.25 420.86 1266.02 422.171 1263.88 z" fill="rgb(222,222,222)"/></mask><rect x="400.32" y="1101.11" width="187.75" height="187.75" fill="currentColor" mask="url(#mb17)"/></svg>
