<svg xmlns="http://www.w3.org/2000/svg" viewBox="696.52 1099.10 200.43 200.43"><path d="M 724.214 1186.4 C 728.571 1186.06 732.976 1186.09 737.347 1186.07 C 777.14 1185.86 816.878 1185.87 856.678 1185.94 C 867.631 1185.97 877.247 1185.84 875.501 1200.19 C 874.831 1205.7 874.328 1208.15 870.019 1211.89 C 823.619 1213.11 775.792 1211.07 729.283 1211.65 C 714.951 1211.83 716.135 1192.6 724.214 1186.4 z" fill="rgb(22,40,26)" transform="translate(0,0)"/><path d="M 726.152 1232.28 C 772.677 1231.54 822.805 1231.62 869.436 1233.03 C 874.481 1233.18 880.241 1251.33 868.189 1257.88 C 832.293 1258.5 763.657 1258.27 724.732 1256.84 C 719.786 1256.66 713.218 1237.22 726.152 1232.28 z" fill="rgb(22,40,26)" transform="translate(0,0)"/><path d="M 724.491 1142.14 C 768.253 1140.12 814.292 1143.12 858.323 1141.71 C 861.829 1142.03 870.341 1141.26 872.594 1144.69 C 877.237 1151.75 875.075 1162.08 868.934 1167.09 C 824.827 1169.38 778.615 1166.38 734.35 1167.66 C 714.886 1168.22 714.557 1150.41 724.491 1142.14 z" fill="rgb(22,40,26)" transform="translate(0,0)"/></svg>
