<svg xmlns="http://www.w3.org/2000/svg" viewBox="1031.31 1120.24 153.48 153.48" style="color:#16281A"><mask id="mb19" maskUnits="userSpaceOnUse" x="1031.31" y="1120.24" width="153.48" height="153.48"><rect x="1031.31" y="1120.24" width="153.48" height="153.48" fill="black"/><path d="M 1104.84 1133.03 C 1110.91 1133.13 1121.24 1135.75 1120.85 1143.3 C 1120.19 1156.28 1104.13 1167.89 1095.77 1177.02 C 1106.43 1177.25 1157.63 1174.41 1163.63 1179.7 C 1166.78 1182.47 1169.88 1187.66 1169.71 1191.96 C 1169.61 1194.5 1168.4 1196.67 1166.55 1198.36 C 1156.04 1207.98 1108.48 1203.65 1092.76 1203.42 C 1097.54 1208.69 1103.23 1214.31 1108.23 1219.48 C 1110.51 1221.81 1113.2 1224.41 1115.2 1226.86 C 1128.03 1242.3 1112.97 1260.93 1096.34 1245.66 C 1086.26 1236.41 1077.08 1225.56 1067.26 1215.95 C 1062.27 1211.05 1046.21 1196.55 1048.69 1189.48 C 1051.61 1181.16 1064.02 1172.25 1070.13 1165.94 C 1079.08 1157.76 1094.36 1137.58 1104.84 1133.03 z" fill="rgb(222,222,222)"/></mask><rect x="1031.31" y="1120.24" width="153.48" height="153.48" fill="currentColor" mask="url(#mb19)"/></svg>
