<svg xmlns="http://www.w3.org/2000/svg" viewBox="1319.39 1125.38 145.43 145.43"><path d="M 1389.38 1228.78 C 1397.12 1226.81 1404.98 1231.5 1406.92 1239.24 C 1408.87 1246.98 1404.16 1254.83 1396.42 1256.76 C 1388.7 1258.69 1380.88 1254 1378.94 1246.28 C 1377 1238.57 1381.67 1230.73 1389.38 1228.78 z" fill="rgb(22,40,26)" transform="translate(0,0)"/><path d="M 1388.93 1138.08 C 1409.03 1137.5 1413.14 1157.09 1396.76 1167.7 C 1378.48 1168.32 1371.07 1147.83 1388.93 1138.08 z" fill="rgb(22,40,26)" transform="translate(0,0)"/><path d="M 1388.31 1184.02 C 1395.77 1181.53 1403.85 1185.54 1406.38 1193 C 1408.91 1200.45 1404.94 1208.55 1397.5 1211.11 C 1390 1213.7 1381.84 1209.69 1379.29 1202.19 C 1376.74 1194.68 1380.79 1186.53 1388.31 1184.02 z" fill="rgb(22,40,26)" transform="translate(0,0)"/></svg>
