<svg xmlns="http://www.w3.org/2000/svg" viewBox="100.98 1419.02 212.31 212.31"><path d="M 197.072 1442.9 C 222.174 1442.27 214.07 1491.43 214.012 1510.94 C 223.773 1510.86 268.39 1508.38 273.334 1515.22 C 295.6 1546.06 230.207 1538.22 213.644 1538.13 C 213.633 1551.36 214.341 1564.68 214.22 1577.89 C 214.098 1591.27 216.17 1602.36 201.714 1608.07 C 198.271 1607.29 195.102 1606.58 192.487 1604.05 C 184.361 1596.19 187.896 1551.56 187.925 1537.92 L 131.859 1537.89 C 124.101 1532.39 118.676 1523.04 125.944 1516.56 C 136.217 1507.39 175.788 1511.39 187.837 1511.61 C 188.077 1493.77 186.758 1474.38 188.184 1456.7 C 188.759 1449.58 191.736 1446.75 197.072 1442.9 z" fill="rgb(22,40,26)" transform="translate(0,0)"/></svg>
