<svg xmlns="http://www.w3.org/2000/svg" viewBox="391.06 1425.98 202.13 202.13"><path d="M 426.565 1468.2 C 438.045 1467.49 458.369 1468.36 470.381 1468.52 C 493.414 1468.78 516.449 1468.9 539.483 1468.88 C 544.584 1468.91 556.502 1467.88 559.656 1472.52 C 563.612 1478.33 558.655 1483.77 554.382 1487.77 C 549.956 1523.26 547.469 1562.19 543.762 1598.22 C 542.742 1601.41 541.336 1604.56 538.679 1606.74 C 536.155 1608.81 533.06 1609.68 529.881 1610.14 C 523.015 1611.14 514.977 1609.91 507.968 1609.94 C 491.325 1610.02 474.028 1611.26 457.449 1610.06 C 453.184 1609.75 447.789 1609.16 445.132 1605.4 C 435.919 1592.34 433.75 1492.4 429.052 1487 C 427.24 1484.92 423.877 1484.05 422.048 1481.58 C 420.908 1480.03 420.64 1477.68 420.938 1475.83 C 421.52 1472.22 423.733 1470.22 426.565 1468.2 z" fill="rgb(22,40,26)" transform="translate(0,0)"/><path d="M 523.305 1494.34 C 525.588 1494.67 526.08 1494.89 528.209 1495.61 C 530.041 1500.02 523.488 1578.94 521.209 1585.9 C 518.725 1585.09 518.858 1585.07 516.785 1583.43 C 515.925 1577.23 521.577 1502.26 523.305 1494.34 z" fill="rgb(255,255,255)" transform="translate(0,0)"/><path d="M 456.143 1494.59 C 457.91 1494.82 459.643 1495.12 461.401 1495.41 C 463.971 1498.98 468.633 1575.39 468.425 1585.1 C 465.538 1584.79 465.238 1584.97 462.727 1583.4 C 461.516 1578.29 460.344 1558.41 460.016 1551.93 C 459.095 1533.75 456.224 1512.45 456.143 1494.59 z" fill="rgb(255,255,255)" transform="translate(0,0)"/><path d="M 491.545 1494.3 C 493.888 1494.95 493.761 1494.83 495.328 1496.68 C 496.147 1506.39 496.098 1580.58 493.912 1585.64 L 489.613 1583.52 C 489.483 1582.6 489.377 1581.67 489.293 1580.75 C 487.989 1566.69 489.456 1514.89 489.554 1496.64 C 490.218 1495.86 490.881 1495.08 491.545 1494.3 z" fill="rgb(255,255,255)" transform="translate(0,0)"/><path d="M 472.117 1447.36 C 483.54 1447.18 517.257 1442.82 518.872 1456.48 C 519.627 1462.87 518.23 1462.4 513.134 1462.57 C 498.133 1462.56 482.962 1462.58 467.951 1462.64 C 467.29 1462.64 465.783 1462.55 465.369 1461.89 C 464.422 1460.4 464.811 1455.54 465.319 1454.15 C 466.784 1450.14 468.514 1449.08 472.117 1447.36 z" fill="rgb(22,40,26)" transform="translate(0,0)"/></svg>
