<svg xmlns="http://www.w3.org/2000/svg" viewBox="695.38 1425.21 205.79 205.79"><path d="M 727.646 1478.28 C 770.826 1476.6 822.852 1477.85 866.633 1478.14 C 884.016 1487 880.114 1504.01 879.869 1521.02 C 866.767 1520.78 840.426 1516.9 835.973 1533.26 C 826.851 1566.76 859.465 1561.52 879.908 1561.6 L 880.081 1580.13 C 880.168 1586.22 879.982 1592.6 879.898 1598.72 C 877.459 1602.72 874.522 1606.62 870.362 1608.94 C 864.641 1612.13 750.038 1610.84 737.241 1610.11 C 732.238 1609.82 726.996 1609.1 722.22 1607.53 C 718.998 1606.47 716.564 1603.09 715.296 1600.06 C 712.535 1593.45 712.527 1495.76 715.739 1488.21 C 718.062 1482.74 722.534 1480.51 727.646 1478.28 z" fill="rgb(22,40,26)" transform="translate(0,0)"/><path d="M 762.454 1470.41 C 775.604 1466.38 846.745 1444.07 855.067 1448.49 C 858.595 1450.37 860.609 1454.1 861.659 1457.81 C 862.943 1462.35 863.165 1467.89 863.37 1472.61 C 858.859 1473.57 763.724 1473.61 757.801 1472.29 C 759.042 1470.67 759.872 1471.01 762.454 1470.41 z" fill="rgb(22,40,26)" transform="translate(0,0)"/><path d="M 863.37 1472.61 C 858.859 1473.57 763.724 1473.61 757.801 1472.29 C 759.042 1470.67 759.872 1471.01 762.454 1470.41 L 762.989 1471.62 C 768.244 1472.55 780.748 1472.13 786.677 1472.09 L 836.765 1472.01 C 842.567 1472.01 858.08 1471.78 863.37 1472.61 z" fill="rgb(134,133,130)" transform="translate(0,0)"/><path d="M 850.423 1527.23 C 860.231 1526.85 870.132 1526.95 879.958 1526.92 C 879.978 1531.79 880.451 1549.03 879.506 1554.2 C 879.301 1555.31 873.267 1555.05 871.712 1555.07 C 866.886 1555.03 854.99 1555.62 851.002 1554.64 C 835.782 1550.87 838.372 1533.76 850.423 1527.23 z" fill="rgb(22,40,26)" transform="translate(0,0)"/></svg>
