<svg xmlns="http://www.w3.org/2000/svg" viewBox="1001.25 1431.11 199.38 199.38"><path d="M 1019.22 1499.38 C 1018.62 1489.83 1018.58 1477.9 1031.4 1476.9 C 1036.41 1476.51 1041.01 1476.14 1046.16 1476.13 C 1086.17 1476.07 1126.16 1476.31 1166.17 1476.25 C 1173.94 1476.23 1181.84 1478.3 1182.84 1487.32 C 1184.01 1515.13 1182.76 1543.29 1183.22 1571.16 C 1183.35 1579.21 1176.58 1585.09 1168.84 1584.99 C 1150.07 1585 1131.19 1584.86 1112.4 1584.9 L 1061.33 1584.99 C 1050.81 1585.02 1039.94 1585.52 1029.52 1584.15 C 1024.76 1583.52 1021.43 1579.64 1019.92 1575.29 C 1017.86 1567.75 1019.08 1510.26 1019.22 1499.38 z" fill="rgb(22,40,26)" transform="translate(0,0)"/><path d="M 1022.33 1509.72 C 1036.81 1508.99 1175.62 1508.53 1178.85 1510.67 C 1180.64 1513.87 1180.42 1512.55 1180.39 1516.04 C 1176.22 1521.51 1164.4 1520.44 1158 1520.15 C 1113.54 1518.14 1067.11 1522.02 1022.84 1519.94 C 1023.34 1515.43 1023.04 1514.1 1022.33 1509.72 z" fill="rgb(255,255,255)" transform="translate(0,0)"/><path d="M 1142.31 1539.06 C 1150.67 1536.05 1159.89 1540.37 1162.94 1548.71 C 1165.98 1557.06 1161.71 1566.3 1153.38 1569.39 C 1144.99 1572.49 1135.68 1568.19 1132.61 1559.79 C 1129.54 1551.38 1133.89 1542.09 1142.31 1539.06 z" fill="rgb(255,255,255)" transform="translate(0,0)"/></svg>
