<svg xmlns="http://www.w3.org/2000/svg" viewBox="1290.96 1426.01 208.27 208.27"><path d="M 1338.73 1444.49 C 1339.95 1444.47 1342.68 1444.94 1344.02 1445.13 C 1349.86 1448.83 1350.28 1458.38 1354.19 1466.6 L 1354.82 1467.9 C 1390.89 1467.93 1427.18 1467.73 1463.27 1467.91 C 1467.36 1467.93 1474.4 1468.83 1477.24 1471.99 C 1477.93 1479.93 1462.13 1526.74 1458.1 1534.94 C 1451.24 1536.57 1434.77 1538.1 1427.02 1538.98 L 1368.88 1545.47 C 1364.67 1550.59 1359.09 1555.63 1362.54 1562.41 C 1368.29 1566.86 1380.86 1565.38 1388.5 1565.21 L 1431.09 1565.1 C 1439.33 1565 1460.65 1561.1 1460.39 1572.89 C 1455.45 1578.01 1423.81 1576.08 1415.09 1575.78 C 1400.76 1575.28 1380.39 1577.79 1366.65 1575.45 C 1340.59 1571.01 1347.77 1551.44 1361.35 1537.51 C 1356.52 1516.21 1346.28 1475.08 1338.53 1455.28 C 1330.84 1455.3 1317.27 1456.64 1312.27 1450.02 L 1313.32 1448.17 C 1321.25 1443.37 1329.55 1444.42 1338.73 1444.49 z" fill="rgb(22,40,26)" transform="translate(0,0)"/><path d="M 1367.15 1581.1 C 1389.23 1580.03 1396.1 1605.73 1376.59 1615.38 C 1362.5 1616.93 1354.24 1609.52 1356.09 1594.49 C 1356.85 1588.28 1362.35 1584.49 1367.15 1581.1 z" fill="rgb(22,40,26)" transform="translate(0,0)"/><path d="M 1433.08 1582.83 C 1441.82 1580.5 1450.8 1585.71 1453.1 1594.47 C 1455.4 1603.22 1450.16 1612.17 1441.4 1614.45 C 1432.68 1616.72 1423.77 1611.5 1421.48 1602.79 C 1419.19 1594.08 1424.37 1585.15 1433.08 1582.83 z" fill="rgb(22,40,26)" transform="translate(0,0)"/></svg>
