<svg xmlns="http://www.w3.org/2000/svg" viewBox="93.69 1741.77 212.09 212.09"><path d="M 121.91 1814.98 C 125.452 1815.95 161.389 1815.62 167.569 1815.62 L 275.734 1815.76 L 275.929 1879.73 C 275.942 1894.1 278.603 1916.29 269.601 1927.33 C 263.595 1931.72 258.659 1932.87 251.217 1932.74 C 222.063 1932.2 192.872 1932.18 163.728 1932.72 C 149.617 1932.82 125.655 1936.18 122.635 1916.65 C 120.864 1905.21 121.756 1889.52 121.82 1877.87 L 121.91 1814.98 z" fill="rgb(22,40,26)" transform="translate(0,0)"/><path d="M 152.929 1894.73 C 160.335 1894.56 167.743 1894.54 175.15 1894.67 L 175.119 1910.05 L 152.859 1910.06 L 152.929 1894.73 z" fill="rgb(255,255,255)" transform="translate(0,0)"/><path d="M 152.934 1867.81 C 160.274 1867.75 167.616 1867.75 174.957 1867.81 L 174.958 1883.14 L 152.908 1883.12 L 152.934 1867.81 z" fill="rgb(255,255,255)" transform="translate(0,0)"/><path d="M 226.797 1839.49 C 232.905 1839.43 239.014 1839.49 245.119 1839.65 C 245.224 1844.22 247.479 1854.9 242.25 1855.1 L 223.305 1855.11 C 223.28 1849.75 220.843 1839.81 226.797 1839.49 z" fill="rgb(255,255,255)" transform="translate(0,0)"/><path d="M 223.263 1867.78 C 230.644 1867.71 238.025 1867.72 245.405 1867.81 C 245.401 1872.93 245.405 1877.82 245.201 1882.94 L 223.267 1883.01 C 223.211 1877.94 223.21 1872.86 223.263 1867.78 z" fill="rgb(255,255,255)" transform="translate(0,0)"/><path d="M 153.294 1839.78 C 160.459 1839.57 167.627 1839.52 174.794 1839.64 C 174.831 1844.83 174.841 1850.03 174.826 1855.22 L 153.142 1855.19 C 153.112 1850.05 153.163 1844.91 153.294 1839.78 z" fill="rgb(255,255,255)" transform="translate(0,0)"/><path d="M 187.768 1895.02 L 209.761 1895.03 L 209.743 1909.84 C 202.409 1909.92 195.075 1909.95 187.74 1909.92 C 187.7 1904.95 187.709 1899.98 187.768 1895.02 z" fill="rgb(255,255,255)" transform="translate(0,0)"/><path d="M 223.159 1894.82 C 230.443 1894.66 237.729 1894.65 245.013 1894.8 L 244.998 1909.95 L 223.146 1909.91 C 223.112 1904.88 223.117 1899.85 223.159 1894.82 z" fill="rgb(255,255,255)" transform="translate(0,0)"/><path d="M 188.153 1839.85 C 195.125 1839.67 202.099 1839.59 209.074 1839.63 L 209.134 1855.11 L 188.124 1855.1 L 188.153 1839.85 z" fill="rgb(255,255,255)" transform="translate(0,0)"/><path d="M 188.106 1867.95 C 195.301 1867.84 202.498 1867.82 209.694 1867.87 L 209.623 1882.91 C 202.648 1883.11 195.136 1882.96 188.101 1882.96 L 188.106 1867.95 z" fill="rgb(255,255,255)" transform="translate(0,0)"/><path d="M 231.11 1775.06 C 230.748 1767.99 229.585 1763.7 236.201 1759.44 C 244.178 1759.96 242.886 1769.46 242.679 1774.99 L 261.69 1775.14 C 278.583 1783.48 276.259 1794.26 275.54 1810.18 L 261.25 1810.27 L 121.77 1810.55 C 121.315 1784.66 121.793 1774.55 151.424 1774.99 C 151.226 1770.45 151.224 1765.72 151.158 1761.17 C 154.803 1761.03 157.845 1760.47 160.975 1762.08 C 163.191 1765.2 162.271 1770.78 162.113 1775.02 L 231.11 1775.06 z" fill="rgb(22,40,26)" transform="translate(0,0)"/></svg>
