<svg xmlns="http://www.w3.org/2000/svg" viewBox="388.56 1755.56 195.88 195.88" style="color:#16281A"><mask id="mb27" maskUnits="userSpaceOnUse" x="388.56" y="1755.56" width="195.88" height="195.88"><rect x="388.56" y="1755.56" width="195.88" height="195.88" fill="black"/><path d="M 406.562 1807.16 C 411.034 1798.09 414.672 1793.61 425.481 1793.36 C 457.047 1792.64 488.694 1793.09 520.275 1792.97 C 532.909 1792.92 547.737 1791.85 559.55 1796.14 C 568.121 1807.31 564.504 1836.41 564.963 1848.81 C 565.628 1866.81 564.518 1877.67 564.522 1893.93 C 564.525 1906.23 557.176 1915.15 544.683 1914.7 C 503.82 1913.25 462.496 1914.72 421.581 1914.23 C 412.807 1914.12 410.805 1911.03 406.709 1904.12 C 404.887 1896.18 405.142 1816.25 406.562 1807.16 z" fill="rgb(222,222,222)"/><path d="M 407.74 1837.13 L 408.318 1834.15 L 410.079 1833.13 C 429.356 1833.1 554.364 1831.11 562.772 1834.13 L 561.412 1837.45 C 553.78 1838.54 522.525 1837.71 513.049 1837.68 L 407.74 1837.13 z" fill="rgb(0,0,0)"/><path d="M 406.709 1904.12 C 404.887 1896.18 405.142 1816.25 406.562 1807.16 C 406.882 1815.62 407.018 1824.09 406.971 1832.56 C 409.882 1832.3 420.852 1831.92 423.365 1832.14 C 438.686 1833.53 557.355 1829.76 562.326 1833.33 L 562.772 1834.13 C 554.364 1831.11 429.356 1833.1 410.079 1833.13 L 408.318 1834.15 L 407.74 1837.13 C 405.633 1842.9 407.457 1894.08 406.709 1904.12 z" fill="rgb(122,122,122)"/><path d="M 530.184 1865.95 C 553.256 1864.78 556.489 1893.19 535.997 1899.97 C 513.149 1898.99 511.056 1876.53 530.184 1865.95 z" fill="rgb(0,0,0)"/><path d="M 429.073 1803.74 C 433.539 1802.73 438.029 1805.33 439.374 1809.71 C 440.72 1814.08 438.466 1818.76 434.204 1820.43 C 431.144 1821.63 427.668 1821.02 425.204 1818.84 C 422.74 1816.67 421.703 1813.29 422.519 1810.11 C 423.335 1806.92 425.866 1804.46 429.073 1803.74 z" fill="rgb(0,0,0)"/><path d="M 449.478 1803.63 C 453.897 1802.23 458.637 1804.55 460.243 1808.9 C 461.849 1813.25 459.753 1818.09 455.483 1819.89 C 452.54 1821.14 449.15 1820.67 446.661 1818.66 C 444.172 1816.66 442.986 1813.45 443.575 1810.3 C 444.164 1807.16 446.432 1804.6 449.478 1803.63 z" fill="rgb(0,0,0)"/></mask><rect x="388.56" y="1755.56" width="195.88" height="195.88" fill="currentColor" mask="url(#mb27)"/></svg>
