<svg xmlns="http://www.w3.org/2000/svg" viewBox="696.58 1742.57 200.97 200.97" style="color:#16281A"><mask id="mb28" maskUnits="userSpaceOnUse" x="696.58" y="1742.57" width="200.97" height="200.97"><rect x="696.58" y="1742.57" width="200.97" height="200.97" fill="black"/><path d="M 786.829 1772.41 C 814.122 1769.79 849.332 1780.66 869.402 1800.07 C 880.807 1806.88 868.5 1825.38 860.684 1820.59 C 841.746 1809 829.631 1801.02 806.974 1797.05 C 785.952 1795.88 766.114 1798.59 747.924 1810.19 C 741.991 1813.8 736.921 1818.63 730.074 1820.41 C 720.479 1822.91 713.328 1808.84 720.068 1802.19 C 738.652 1783.84 760.99 1774.83 786.829 1772.41 z" fill="rgb(222,222,222)"/><path d="M 791.625 1819.41 C 808.309 1818.73 829.302 1824.09 841.963 1835.4 C 846.301 1839.28 852.627 1850.66 845.863 1854.7 C 835.156 1861.1 823.973 1851.55 814.552 1847.37 C 810.779 1845.69 806.556 1844.79 802.654 1843.86 C 788.134 1843.21 778.036 1843.92 766.005 1853.2 C 749.944 1865.59 737.954 1849.26 746.971 1837.99 C 755.951 1826.78 777.035 1820.5 791.625 1819.41 z" fill="rgb(222,222,222)"/><path d="M 790.472 1864.84 C 803.954 1861.68 817.423 1870.13 820.455 1883.64 C 823.487 1897.15 814.919 1910.54 801.381 1913.45 C 788.017 1916.32 774.835 1907.89 771.842 1894.55 C 768.849 1881.21 777.162 1867.95 790.472 1864.84 z" fill="rgb(222,222,222)"/></mask><rect x="696.58" y="1742.57" width="200.97" height="200.97" fill="currentColor" mask="url(#mb28)"/></svg>
