<svg xmlns="http://www.w3.org/2000/svg" viewBox="991.52 1756.93 193.90 193.90" style="color:#16281A"><mask id="mb29" maskUnits="userSpaceOnUse" x="991.52" y="1756.93" width="193.90" height="193.90"><rect x="991.52" y="1756.93" width="193.90" height="193.90" fill="black"/><path d="M 1138.7 1773.52 L 1151.9 1773.29 C 1160.37 1777.71 1162.54 1780.51 1166.87 1788.61 C 1166.7 1802.27 1165.16 1833.19 1163.46 1845.88 C 1145.84 1867.25 1119.88 1888.08 1100.88 1908.9 C 1083.74 1927.7 1076.89 1934.67 1058.58 1914.25 C 1046.59 1901.8 1033.26 1888.91 1022.66 1875.27 C 1010.06 1859.09 1024.9 1847.46 1036.01 1836.63 C 1050.5 1822.51 1065.48 1807.66 1079.82 1793.31 C 1086.24 1786.91 1093.63 1778.85 1101.19 1773.98 C 1110.79 1773.09 1128.82 1773.55 1138.7 1773.52 z" fill="rgb(222,222,222)"/><path d="M 1136.32 1792.71 C 1141.46 1792.65 1145.75 1796.63 1146.06 1801.77 C 1146.37 1806.9 1142.6 1811.38 1137.49 1811.94 C 1133.95 1812.33 1130.49 1810.74 1128.48 1807.8 C 1126.47 1804.87 1126.24 1801.06 1127.88 1797.91 C 1129.51 1794.75 1132.76 1792.75 1136.32 1792.71 z" fill="rgb(0,0,0)"/></mask><rect x="991.52" y="1756.93" width="193.90" height="193.90" fill="currentColor" mask="url(#mb29)"/></svg>
