<svg xmlns="http://www.w3.org/2000/svg" viewBox="1283.42 1735.47 222.04 222.04"><path d="M 1398.78 1842.88 L 1462.15 1842.99 C 1461.99 1862.3 1462.47 1881.67 1462.32 1900.96 C 1462.25 1910.42 1463.88 1925.86 1459.01 1933.67 C 1450.61 1939 1411.32 1936.78 1398.88 1936.66 L 1398.78 1842.88 z" fill="rgb(22,40,26)" transform="translate(0,0)"/><path d="M 1329.77 1842.84 L 1393.18 1842.93 L 1393.13 1936.7 C 1383.97 1936.43 1341.31 1938.48 1334.71 1933.82 C 1328.22 1929.24 1329.69 1904.41 1329.7 1894.74 L 1329.77 1842.84 z" fill="rgb(22,40,26)" transform="translate(0,0)"/><path d="M 1395.93 1792.36 C 1399.78 1788.03 1404.37 1782.99 1407.94 1778.55 C 1424.73 1757.65 1432.38 1753.97 1445.88 1779.92 C 1446.11 1788.55 1439.64 1792.42 1433.09 1796.59 C 1411.54 1797.62 1383.96 1797 1362.06 1796.76 C 1343.21 1786.27 1347.03 1772.81 1361.98 1760.92 C 1375.74 1760.99 1380.04 1775.1 1388.57 1783.88 C 1391.05 1786.44 1393.53 1789.66 1395.93 1792.36 z" fill="rgb(22,40,26)" transform="translate(0,0)"/><path d="M 1398.75 1805.92 C 1420.38 1806.11 1443.75 1805.05 1465.02 1807.2 C 1473.28 1808.04 1471.22 1829.49 1468.31 1835.75 C 1463.04 1838.93 1409.08 1837.66 1398.74 1837.45 L 1398.75 1805.92 z" fill="rgb(22,40,26)" transform="translate(0,0)"/><path d="M 1328.51 1806.21 C 1348.85 1805.26 1372.52 1805.97 1393.2 1805.89 C 1393.21 1811.35 1393.67 1830.7 1392.75 1836.61 C 1392.67 1837.13 1390.8 1837.32 1390.01 1837.31 L 1387.25 1837.3 C 1367.6 1837.29 1346.46 1837.5 1326.95 1836.89 C 1320.86 1836.7 1315.6 1813.94 1328.51 1806.21 z" fill="rgb(22,40,26)" transform="translate(0,0)"/></svg>
