<svg xmlns="http://www.w3.org/2000/svg" viewBox="49.87 39.48 245.15 245.15" style="color:#16281A"><mask id="mc01" maskUnits="userSpaceOnUse" x="49.87" y="39.48" width="245.15" height="245.15"><rect x="49.87" y="39.48" width="245.15" height="245.15" fill="black"/><path d="M 137.345 139.346 C 143.48 139.431 152.624 140.527 156.716 145.288 C 170.537 161.366 151.883 177.955 145.874 192.494 C 144.36 196.157 144.664 202.717 144.722 206.555 C 135.507 206.984 132.446 207.267 123.442 208.507 C 119.42 209.36 120.176 209.397 116.67 210.749 C 114.87 209.949 103.322 182.44 102.403 178.837 C 96.7311 156.618 118.253 142.379 137.345 139.346 z" fill="rgb(222,222,222)"/><path d="M 191.841 159.455 C 191.701 154.784 192.746 149.621 190.936 146.009 C 186.132 136.429 166.626 110.101 179.906 100.472 C 210.298 78.4349 254.658 116.847 226.148 151.006 C 225.294 152.029 221.797 161.003 220.838 162.966 L 218.821 162.685 C 209.895 161.809 200.775 160.49 191.841 159.455 z" fill="rgb(222,222,222)"/><path d="M 189.176 165.478 C 198.079 167.185 207.362 169.252 216.272 170.596 C 216.847 171.138 217.417 171.686 217.982 172.239 C 214.234 185.806 206.486 226.58 185.427 216.187 C 164.351 205.785 183.217 177.319 189.176 165.478 z" fill="rgb(222,222,222)"/><path d="M 144.625 213.456 C 146.456 213.149 148.028 212.894 149.262 214.792 C 156.678 226.202 168.175 251.924 151.815 261.711 C 148.567 263.626 144.699 264.199 141.035 263.307 C 140.2 263.083 139.364 262.86 138.529 262.636 C 124.041 251.658 122.636 233.928 118.831 216.439 C 127.82 215.351 135.555 214.252 144.625 213.456 z" fill="rgb(222,222,222)"/><path d="M 198.61 83.5147 C 178.419 108.182 167.862 59.9069 192.439 66.0607 C 195.947 66.9392 197.72 73.0424 198.965 76.1896 C 198.868 78.6323 198.75 81.074 198.61 83.5147 z" fill="rgb(222,222,222)"/><path d="M 143.887 110.972 L 146.116 110.899 C 160.346 110.511 162.228 127.078 152.828 136.05 C 135.78 135.67 135.066 121.998 143.887 110.972 z" fill="rgb(222,222,222)"/><path d="M 201.898 76.8744 C 203.931 74.0451 207.599 72.9154 210.872 74.1108 C 214.144 75.3062 216.22 78.5342 215.951 82.0077 C 215.682 85.4812 213.132 88.3505 209.715 89.027 C 206.297 89.7035 202.847 88.0217 201.275 84.9127 C 199.967 82.3268 200.207 79.2278 201.898 76.8744 z" fill="rgb(222,222,222)"/><path d="M 125.168 118.58 C 135.914 118.914 138.814 127 132.076 134.918 C 120.163 135.62 118.786 126.898 125.168 118.58 z" fill="rgb(222,222,222)"/><path d="M 108.045 132.045 C 120.919 115.519 126.183 145.802 111.043 140.389 C 110.004 137.453 108.995 135.095 108.045 132.045 z" fill="rgb(222,222,222)"/><path d="M 219.969 80.3716 C 230.626 82.5531 228.363 87.9853 224.652 96.2473 C 214.95 91.632 214.396 90.2816 219.969 80.3716 z" fill="rgb(222,222,222)"/><path d="M 105.984 136.086 C 108.436 139.517 108.598 139.847 109.953 143.723 C 108.253 145.389 106.515 147.016 104.742 148.602 C 102.352 147.246 101.95 146.735 99.3445 145.873 C 100.003 140.236 100.017 138.23 105.984 136.086 z" fill="rgb(222,222,222)"/><path d="M 233.602 102.637 C 222.786 97.2957 228.92 86.2709 238.297 95.2783 C 236.462 99.6187 236.477 98.9606 233.602 102.637 z" fill="rgb(222,222,222)"/><path d="M 97.4265 146.637 L 101.875 151.034 C 96.3963 160.012 90.2274 151.531 97.4265 146.637 z" fill="rgb(222,222,222)"/><path d="M 235.834 105.092 C 235.676 103.941 236.087 102.784 236.935 101.99 C 237.783 101.196 238.964 100.863 240.102 101.097 C 241.887 101.463 243.113 103.111 242.951 104.926 C 242.788 106.741 241.288 108.144 239.466 108.187 C 237.644 108.229 236.081 106.897 235.834 105.092 z" fill="rgb(222,222,222)"/></mask><rect x="49.87" y="39.48" width="245.15" height="245.15" fill="currentColor" mask="url(#mc01)"/></svg>
