<svg xmlns="http://www.w3.org/2000/svg" viewBox="365.67 72.85 240.63 240.63"><path d="M 480.034 128.049 C 488.444 128.763 492.587 129.21 500.82 131.109 C 506.826 144.211 511.696 157.702 518.069 171.047 C 525.621 174.238 539.572 175.892 543.496 181.93 C 543.29 185.408 543.854 183.837 541.446 186.686 C 535.783 189.556 522.869 182.59 513.654 181.443 L 512.479 181.307 C 509.816 175.711 505.466 165.84 502.225 160.966 C 501.03 168.642 500.67 180.675 500.206 188.782 C 501.213 190.502 502.193 192.237 503.146 193.987 C 507.26 201.543 513.838 213.307 517.739 222.261 C 520.579 228.25 531.568 266.784 528.777 271.116 C 514.404 293.424 506.005 235.682 504.621 229.58 L 485.37 209.711 C 479.026 210.162 450.59 264.294 445.238 271.262 C 439.3 278.579 428.109 270.036 431.935 263.364 C 456.452 220.609 470.621 198.062 474.309 147.859 C 470.208 151.5 465.251 155.4 460.969 158.933 C 460.154 168.993 461.762 180.03 460.279 188.998 C 457.824 192.162 459.189 191.225 455.353 192.559 L 453.416 191.248 C 449.941 184.48 451.102 164.426 450.934 155.114 C 458.464 147.171 471.881 134.985 480.034 128.049 z" fill="rgb(22,40,26)" transform="translate(0,0)"/><path d="M 494.101 93.1336 C 514.708 92.9017 516.955 115.092 501.006 125.369 C 482.399 124.605 477.251 103.304 494.101 93.1336 z" fill="rgb(22,40,26)" transform="translate(0,0)"/></svg>
