<svg xmlns="http://www.w3.org/2000/svg" viewBox="674.90 69.17 224.62 224.62"><path d="M 792.375 116.413 C 803.037 115.018 812.473 121.159 822.869 125.567 L 836.779 156.66 C 843.125 150.946 852.268 138.135 859.88 137.856 C 862.691 139.751 861.735 138.499 862.785 141.788 C 861.985 147.967 840.32 164.644 834.368 169.863 C 831.024 162.561 824.084 150.801 820.02 143.412 L 806.053 179.526 C 813.794 189.277 828.068 202.803 837.118 212.693 L 844.447 256.582 C 852.955 257.164 858.808 257.348 867.368 257.265 C 858.621 264.806 850.923 269.223 841.093 275.076 C 834.957 258.472 828.879 236.311 822.936 218.65 L 814.427 212.156 L 791.534 196.632 C 785.441 205.856 779.639 215.268 774.134 224.854 C 759.403 223.632 744.662 222.543 729.911 221.588 C 721.823 228.028 714.149 236.487 707.052 244.05 C 708.466 233.372 712.099 221.216 714.936 210.658 L 765.953 211.214 C 770.531 200.24 773.84 191.795 776.787 180.206 C 781.252 162.643 788.202 145.038 794.516 127.989 L 768.978 127.876 C 765.787 136.819 761.524 160.69 753.312 164.598 C 744.156 159.23 759.872 128.006 762.926 118.245 C 772.271 117.984 782.939 117.045 792.375 116.413 z" fill="rgb(22,40,26)" transform="translate(0,0)"/><path d="M 822.002 87.8918 C 841.494 89.0744 842.803 108.55 828.056 119.078 C 807.459 119.621 806.69 96.3459 822.002 87.8918 z" fill="rgb(22,40,26)" transform="translate(0,0)"/></svg>
