<svg xmlns="http://www.w3.org/2000/svg" viewBox="1006.38 82.99 200.23 200.23"><path d="M 1090.48 99.6743 C 1130.87 116.44 1135.92 148.218 1134.22 187.601 C 1145.49 175.264 1147.32 166.262 1147.08 149.769 C 1160.37 166.06 1166.3 184.104 1165.54 205.091 C 1164.36 237.525 1150.68 255.693 1119.98 263.913 C 1144.06 241.142 1125.16 226.033 1114.38 203.453 C 1111.1 196.589 1110.11 190.754 1109.01 183.251 L 1109.13 181.23 L 1108.08 180.576 C 1102.84 183.426 1096.18 190.325 1092.57 195.115 C 1074.07 219.656 1070.79 246.359 1095.62 266.534 C 1073.68 258.875 1060.3 249.018 1052.8 226.005 C 1046.7 207.124 1049.17 186.519 1059.55 169.614 C 1067.11 157.38 1072.86 152.346 1079.81 138.537 C 1081.44 147.494 1082.46 161.985 1083.68 171.749 C 1102.42 146.29 1104.88 127.787 1090.48 99.6743 z" fill="rgb(22,40,26)" transform="translate(0,0)"/></svg>
