<svg xmlns="http://www.w3.org/2000/svg" viewBox="1322.20 73.73 208.70 208.70" style="color:#16281A"><mask id="mc05" maskUnits="userSpaceOnUse" x="1322.20" y="73.73" width="208.70" height="208.70"><rect x="1322.20" y="73.73" width="208.70" height="208.70" fill="black"/><path d="M 1407.52 112.186 C 1413.27 111.598 1419.07 111.633 1424.81 112.289 C 1442.56 114.383 1455.43 120.479 1466.41 134.472 C 1460.25 139.201 1457.34 142.121 1451.87 147.728 C 1443.69 141.538 1438.43 137.406 1428.35 134.522 C 1416.32 131.199 1403.45 132.833 1392.63 139.058 C 1381.29 145.612 1373.07 156.977 1369.76 169.591 C 1366.06 183.538 1368.23 198.392 1375.76 210.698 C 1382.47 221.749 1393.37 229.603 1405.97 232.463 C 1419.03 235.46 1432.74 233.096 1444.04 225.9 C 1469.64 209.5 1474.16 178.921 1458.14 153.926 L 1472.42 139.209 C 1478.31 148.839 1482.62 155.856 1485.34 167.092 C 1489.67 185.542 1486.63 204.954 1476.85 221.191 C 1456.53 254.273 1413.45 265.04 1380.61 243.973 C 1364.46 233.472 1353.16 216.954 1349.24 198.087 C 1340.38 156.913 1366.77 120.392 1407.52 112.186 z" fill="rgb(222,222,222)"/><path d="M 1415.57 137.396 C 1429.98 137.7 1438 141.186 1448.64 150.926 L 1432.26 165.864 C 1422.02 158.076 1408.78 156.429 1400.15 167.717 C 1395.83 173.287 1394.02 180.401 1395.15 187.359 C 1400.41 218.119 1449.31 212.408 1438.16 170.467 L 1455.27 156.523 L 1459.23 164.657 C 1460.92 169.101 1461.67 171.771 1462.37 176.505 C 1464.26 188.792 1461.08 201.321 1453.55 211.216 C 1446.29 220.93 1435.39 227.283 1423.36 228.823 C 1411.23 230.39 1398.98 226.977 1389.41 219.362 C 1358.74 194.482 1370.53 141.435 1415.57 137.396 z" fill="rgb(222,222,222)"/><path d="M 1473.07 114.575 C 1481.01 106.597 1489.11 98.7768 1497.36 91.1206 L 1496.89 112.51 L 1512.72 115.562 C 1506.32 122.032 1499.59 129.087 1493.09 135.377 C 1485.37 135.917 1481.42 135.534 1473.63 134.826 C 1468.12 140.418 1461.42 147.651 1455.29 152.287 L 1444.24 162.073 L 1442.81 163.279 C 1438.11 166.741 1434.97 168.705 1431.41 173.351 C 1429.26 175.375 1427.94 176.386 1425.57 178.154 C 1425.73 176.503 1429.17 172.73 1430.48 171.054 C 1437.84 163.892 1445.44 156.981 1453.28 150.333 C 1455.45 146.897 1468.32 134.74 1472.71 129.606 L 1473.07 114.575 z" fill="rgb(222,222,222)"/><path d="M 1433.65 174.956 C 1438.92 181.64 1433.81 195.038 1426.76 199.446 C 1422.78 201.89 1417.96 202.549 1413.47 201.263 C 1404.02 198.557 1396.12 188.246 1399.41 178.25 C 1401.1 173.26 1404.72 169.154 1409.46 166.852 C 1416.87 163.326 1420.79 165.332 1427.87 167.451 L 1428.7 167.695 C 1428.22 168.475 1420.95 179.424 1421.08 179.081 C 1418.05 187.339 1433.07 175.309 1433.65 174.956 z" fill="rgb(222,222,222)"/></mask><rect x="1322.20" y="73.73" width="208.70" height="208.70" fill="currentColor" mask="url(#mc05)"/></svg>
