<svg xmlns="http://www.w3.org/2000/svg" viewBox="77.20 424.29 181.90 181.90"><path d="M 125.829 453.317 C 140.638 440.749 157.265 439.868 175.362 439.445 C 197.676 443.761 215.4 453.22 228.343 472.572 C 239.537 489.239 243.56 509.707 239.508 529.371 C 235.486 548.924 223.854 566.075 207.175 577.045 C 190.542 587.571 170.396 591.026 151.206 586.641 C 132.728 582.405 116.767 570.838 106.987 554.598 C 96.107 537.008 92.7395 515.788 97.6393 495.693 C 100.957 482.262 113.181 459.957 125.829 453.317 z" fill="rgb(22,40,26)" transform="translate(0,0)"/><path d="M 168.678 457.475 L 169.067 458.891 C 177.815 460.804 183.856 462.112 191.965 466.186 C 230.223 485.407 231.505 539.393 194.805 561.34 C 182.54 568.539 167.914 570.561 154.156 566.96 C 126.819 559.685 108.842 527.334 116.733 500.319 C 121.061 485.502 128.387 477.361 139.642 467.493 L 139.439 464.978 C 143.238 464.064 142.917 462.676 146.209 461.631 C 153.324 459.372 161.225 457.544 168.678 457.475 z" fill="rgb(255,255,255)" transform="translate(0,0)"/><path d="M 168.678 457.475 L 169.067 458.891 C 160.114 459.503 146.705 461.869 139.642 467.493 L 139.439 464.978 C 143.238 464.064 142.917 462.676 146.209 461.631 C 153.324 459.372 161.225 457.544 168.678 457.475 z" fill="rgb(111,115,116)" transform="translate(0,0)"/><path d="M 125.829 453.317 C 140.638 440.749 157.265 439.868 175.362 439.445 C 173.051 440.087 170.942 441.526 169.284 441.744 C 165.893 447.391 165.466 451.552 168.678 457.475 C 161.225 457.544 153.324 459.372 146.209 461.631 C 142.917 462.676 143.238 464.064 139.439 464.978 L 139.196 463.696 C 137.839 456.192 136.289 455.372 129.029 453.387 C 127.917 453.432 126.895 453.569 125.829 453.317 z" fill="rgb(255,255,255)" transform="translate(0,0)"/><path d="M 125.829 453.317 C 140.638 440.749 157.265 439.868 175.362 439.445 C 173.051 440.087 170.942 441.526 169.284 441.744 C 159.044 437.918 137.96 448.339 129.029 453.387 C 127.917 453.432 126.895 453.569 125.829 453.317 z" fill="rgb(111,115,116)" transform="translate(0,0)"/></svg>
