<svg xmlns="http://www.w3.org/2000/svg" viewBox="703.35 414.29 193.23 193.23" style="color:#16281A"><mask id="mc08" maskUnits="userSpaceOnUse" x="703.35" y="414.29" width="193.23" height="193.23"><rect x="703.35" y="414.29" width="193.23" height="193.23" fill="black"/><path d="M 830.213 430.396 C 836.642 431.018 841.17 431.016 847.661 430.954 C 839.759 455.031 831.641 479.037 823.31 502.969 C 820.488 511.095 815.878 526.108 812.787 533.206 C 805.547 529.7 793.753 528.898 786.615 532.952 C 782.287 527.113 756.152 443.485 752.261 431.273 L 767.389 431.075 C 778.023 465.065 790.792 494.611 799.078 530.075 C 801.5 520.157 804.313 510.338 807.509 500.642 C 811.17 489.542 830.453 437.631 830.213 430.396 z" fill="rgb(222,222,222)"/><path d="M 787.247 535.705 C 794.95 532.278 803.763 532.368 811.395 535.951 C 823.758 541.756 830.406 555.392 827.364 568.707 C 824.322 582.022 812.413 591.418 798.755 591.279 C 785.098 591.14 773.383 581.503 770.613 568.128 C 767.844 554.754 774.768 541.257 787.247 535.705 z" fill="rgb(222,222,222)"/><path d="M 795.37 543.183 C 817.89 542.175 828.078 569.564 802.693 581.577 C 779.026 583.461 771.526 554.735 795.37 543.183 z" fill="rgb(43,43,43)"/><path d="M 797.422 544.967 C 817.368 546.919 822.908 570.129 801.821 579.425 C 777.519 576.941 777.425 552.726 797.422 544.967 z" fill="rgb(222,222,222)"/><path d="M 828.696 431.014 C 818.473 459.336 809.432 488.219 799.203 516.309 C 790.247 487.635 780.113 459.524 771.112 430.873 C 788.776 431.459 811.001 431.61 828.696 431.014 z" fill="rgb(222,222,222)"/></mask><rect x="703.35" y="414.29" width="193.23" height="193.23" fill="currentColor" mask="url(#mc08)"/></svg>
