<svg xmlns="http://www.w3.org/2000/svg" viewBox="1012.64 415.68 194.74 194.74"><path d="M 1110.11 438.806 C 1116.15 437.254 1121.61 434.513 1127.28 431.912 C 1130.74 437.953 1133.51 442.584 1137.44 448.314 C 1142.84 449.647 1149.35 450.108 1154.97 450.672 C 1155.21 456.755 1154.89 464.209 1154.8 470.395 C 1158.3 474.702 1163.25 479.965 1167.02 484.245 C 1162.91 489.776 1159.58 494.684 1155.81 500.46 L 1155.97 501.123 C 1157.8 508.943 1158.09 509.999 1158.21 518.143 C 1153.78 519.715 1148.54 521.114 1145 523.986 C 1129.59 535.165 1138.38 546.589 1112.17 535.356 C 1106.09 537.341 1092.73 542.774 1087.67 540.832 C 1086.47 537.166 1084.22 532.305 1082.7 528.513 C 1069.66 511.114 1059.95 531.231 1064.8 498.845 C 1054.41 485.357 1053 485.642 1063.82 472.74 C 1068.17 467.553 1066.79 457.894 1066.24 451.183 C 1072.02 450.337 1077.79 449.387 1083.54 448.335 C 1086.64 443.896 1090.36 437.369 1093.26 432.619 C 1099.3 435.133 1103.88 436.809 1110.11 438.806 z" fill="rgb(22,40,26)" transform="translate(0,0)"/><path d="M 1102.38 449.82 C 1115.95 446.76 1130.12 451.239 1139.46 461.543 C 1148.81 471.847 1151.89 486.383 1147.53 499.592 C 1143.16 512.802 1132.03 522.641 1118.38 525.348 C 1097.66 529.459 1077.48 516.15 1073.1 495.483 C 1068.72 474.816 1081.77 454.467 1102.38 449.82 z" fill="rgb(255,255,255)" transform="translate(0,0)"/><path d="M 1104.76 453.101 C 1123.89 449.763 1142.08 462.627 1145.3 481.773 C 1148.53 500.919 1135.56 519.032 1116.39 522.142 C 1097.39 525.226 1079.46 512.385 1076.26 493.401 C 1073.06 474.416 1085.8 456.412 1104.76 453.101 z" fill="rgb(22,40,26)" transform="translate(0,0)"/><path d="M 1114.86 540.016 C 1142.89 545.834 1129.27 542.872 1145.72 525.086 C 1146.93 528.631 1147.4 530.898 1148.17 534.489 C 1151.8 551.377 1156.37 567.769 1161.02 584.377 C 1153.62 579.099 1146.49 574.784 1138.98 569.388 C 1135.47 579.043 1132.05 585.598 1126.68 594.195 C 1122.87 576.534 1119.29 557.451 1114.86 540.016 z" fill="rgb(22,40,26)" transform="translate(0,0)"/><path d="M 1082.7 528.513 C 1084.22 532.305 1086.47 537.166 1087.67 540.832 L 1086.75 542.581 C 1091.85 547.338 1102.37 539.954 1112 539.885 C 1109.44 558.549 1104.77 575.487 1101.3 593.806 C 1097.14 584.849 1092.5 578.706 1089.17 569.09 C 1081.42 574.366 1075.2 578.221 1067.14 583.069 C 1070.29 569.173 1074.73 555.795 1077.62 541.838 C 1078.44 537.864 1079.13 533.873 1080.25 529.975 C 1081.58 529.394 1081.49 529.403 1082.7 528.513 z" fill="rgb(22,40,26)" transform="translate(0,0)"/><path d="M 1082.7 528.513 C 1084.22 532.305 1086.47 537.166 1087.67 540.832 L 1086.75 542.581 C 1084.59 538.296 1082.97 533.627 1080.25 529.975 C 1081.58 529.394 1081.49 529.403 1082.7 528.513 z" fill="rgb(111,115,116)" transform="translate(0,0)"/></svg>
