<svg xmlns="http://www.w3.org/2000/svg" viewBox="72.02 745.98 204.52 204.52" style="color:#16281A"><mask id="mc11" maskUnits="userSpaceOnUse" x="72.02" y="745.98" width="204.52" height="204.52"><rect x="72.02" y="745.98" width="204.52" height="204.52" fill="black"/><path d="M 98.9511 829.623 C 131.211 859.815 142.533 886.399 165.569 829.003 C 167.198 824.944 169.428 819.478 172.464 816.328 L 174.118 816.255 C 182.114 825.247 189.888 862.254 204.423 863.873 C 214.956 865.046 239.257 836.216 247.545 829.578 C 240.817 851.152 234.159 874.812 227.179 896.017 L 231.048 899.763 C 229.88 902.697 230.827 901.659 228.414 903.222 C 216.523 903.26 117.429 904.283 114.995 902.484 C 115.137 899.537 114.604 900.707 116.062 898.65 L 118.65 896.127 C 114.039 884.134 102.105 842.635 98.9511 829.623 z" fill="rgb(222,222,222)"/><path d="M 118.65 896.127 L 194.328 895.897 C 199.554 895.882 223.087 895.431 227.179 896.017 L 231.048 899.763 C 229.88 902.697 230.827 901.659 228.414 903.222 C 216.523 903.26 117.429 904.283 114.995 902.484 C 115.137 899.537 114.604 900.707 116.062 898.65 L 118.65 896.127 z" fill="rgb(222,222,222)"/><path d="M 118.65 896.127 L 194.328 895.897 C 199.554 895.882 223.087 895.431 227.179 896.017 L 231.048 899.763 C 225.302 898.223 198.438 898.779 191.04 898.796 C 166.048 898.999 141.054 898.951 116.062 898.65 L 118.65 896.127 z" fill="rgb(43,43,43)"/><path d="M 172.108 792.829 C 176.775 792.19 181.123 795.321 181.997 799.949 C 182.872 804.577 179.965 809.079 175.386 810.186 C 172.212 810.953 168.873 809.909 166.701 807.469 C 164.53 805.029 163.881 801.591 165.013 798.527 C 166.144 795.463 168.872 793.272 172.108 792.829 z" fill="rgb(222,222,222)"/><path d="M 93.1566 815.669 C 96.3685 814.286 100.098 815.716 101.561 818.892 C 103.025 822.068 101.689 825.832 98.5504 827.375 C 96.449 828.408 93.9528 828.22 92.0296 826.884 C 90.1064 825.548 89.0588 823.275 89.2929 820.945 C 89.527 818.615 91.0061 816.596 93.1566 815.669 z" fill="rgb(222,222,222)"/><path d="M 249.042 814.31 C 259.489 817.669 257.708 822.552 251.692 829.165 C 240.773 828.181 243.208 820.392 249.042 814.31 z" fill="rgb(222,222,222)"/></mask><rect x="72.02" y="745.98" width="204.52" height="204.52" fill="currentColor" mask="url(#mc11)"/></svg>
