<svg xmlns="http://www.w3.org/2000/svg" viewBox="401.75 769.12 162.02 162.02"><path d="M 481.21 838.696 C 486.671 840.24 537.938 894.958 545.568 902.768 C 541.493 908.04 536.351 912.906 531.617 917.642 C 516.895 901.637 499.12 884.531 483.662 869.069 L 482.018 868.073 C 479.813 869.652 471.825 878.776 469.312 881.313 C 457.666 893.073 445.807 904.343 434.848 916.755 C 430.063 912.523 424.614 906.962 419.944 902.449 C 440.6 881.425 461.023 860.172 481.21 838.696 z" fill="rgb(22,40,26)" transform="translate(0,0)"/><path d="M 481.732 782.625 C 485.201 783.352 537.818 838.554 545.311 846.086 C 540.543 851.698 537.142 855.617 531.228 859.987 C 515.13 844.878 499.656 827.455 483.286 811.786 L 482.715 811.58 C 478.977 812.788 441.601 853.654 434.802 860.147 C 429.841 855.837 425.045 850.664 420.449 845.915 C 441.33 825.55 460.803 803.404 481.732 782.625 z" fill="rgb(22,40,26)" transform="translate(0,0)"/></svg>
