<svg xmlns="http://www.w3.org/2000/svg" viewBox="717.26 766.26 158.80 158.80" style="color:#16281A"><mask id="mc13" maskUnits="userSpaceOnUse" x="717.26" y="766.26" width="158.80" height="158.80"><rect x="717.26" y="766.26" width="158.80" height="158.80" fill="black"/><path d="M 794.91 785.977 L 797.173 784.237 C 798.819 800.274 801.434 812.748 805.007 828.506 C 813.436 822.728 820.196 817.501 828.215 811.142 L 833.384 807.325 L 834.188 807.595 C 832.849 809.769 831.955 811.33 830.293 813.314 C 825.258 820.472 818.223 831.223 814.65 839.216 C 827.419 843.072 841.888 845.154 855.111 846.825 L 854.977 849.089 C 842.986 850.644 827.691 854.282 815.487 856.755 C 819.805 866.52 832.102 882.812 838.757 892.232 C 828.552 883.592 815.861 874.844 804.847 867.292 C 802.202 882 799.669 897.253 796.554 911.828 C 792.471 897.849 791.472 881.763 787.351 866.906 C 776.301 874.024 764.154 883.958 753.92 892.206 C 762.564 880.937 770.593 869.21 777.974 857.077 C 768.926 853.757 747.904 850.09 738.02 849.074 L 737.804 846.723 C 750.635 845.397 765.457 841.759 778.191 838.963 C 770.995 827.322 763.57 815.825 755.92 804.477 C 765.262 812.547 777.358 821.471 787.255 829.16 C 790.658 814.93 793.214 800.51 794.91 785.977 z" fill="rgb(222,222,222)"/><path d="M 738.02 849.074 C 736.297 848.998 732.186 849.176 730.98 847.627 L 731.015 847.511 C 731.882 846.843 736.599 846.8 737.804 846.723 L 738.02 849.074 z" fill="rgb(141,141,141)"/><path d="M 855.111 846.825 C 857.263 846.937 860.557 846.666 861.892 847.771 L 862.099 847.334 L 862.334 847.498 L 862.247 847.606 L 862.206 847.57 C 859.93 848.552 857.423 848.804 854.977 849.089 L 855.111 846.825 z" fill="rgb(141,141,141)"/><path d="M 794.91 785.977 C 795.085 784.695 795.548 780.385 796.48 779.495 C 797.18 780.306 797.115 783.179 797.173 784.237 L 794.91 785.977 z" fill="rgb(141,141,141)"/></mask><rect x="717.26" y="766.26" width="158.80" height="158.80" fill="currentColor" mask="url(#mc13)"/></svg>
