<svg xmlns="http://www.w3.org/2000/svg" viewBox="1008.44 762.31 196.12 196.12" style="color:#16281A"><mask id="mc14" maskUnits="userSpaceOnUse" x="1008.44" y="762.31" width="196.12" height="196.12"><rect x="1008.44" y="762.31" width="196.12" height="196.12" fill="black"/><path d="M 1094.1 860.616 C 1097.46 846.392 1104.03 797.446 1107.75 788.54 L 1108.89 788.233 C 1112.03 798.43 1111.16 879.831 1111.86 897.378 C 1111.99 899.787 1111.59 902.358 1112.85 903.669 C 1114.11 900.878 1114.71 899.449 1115.62 896.535 C 1118.89 883.848 1124.69 872.937 1127.41 859.942 C 1141.7 859.949 1174.66 859.17 1187.71 860.808 L 1188.21 861.688 C 1181.4 866.24 1142.49 864.808 1131.72 864.93 C 1122.4 887.255 1116.9 910.832 1108.16 932.506 C 1106.42 922.124 1106.92 891.249 1106.86 879.481 C 1105.73 869.479 1107.52 837.008 1104.42 832.089 C 1102.37 843.032 1100 858.233 1097.36 868.717 C 1096.22 872.539 1096.02 873.383 1094.12 876.818 C 1092.37 875.107 1092.75 873.346 1092.31 870.258 C 1090.03 866.547 1086 847.388 1084.15 841.699 L 1078.12 867.437 C 1065.12 867.263 1036.37 867.847 1025.65 866.541 L 1024.78 864.353 L 1025.79 862.586 C 1031.01 861.241 1066.8 862.223 1074.4 862.188 C 1077.52 850.121 1080.87 836.003 1084.82 824.383 C 1088.78 835.924 1091.47 848.65 1094.1 860.616 z" fill="rgb(222,222,222)"/><path d="M 1104.42 832.089 C 1104.97 826.497 1105.6 823.527 1106.77 818.104 C 1107.17 835.299 1107.78 862.436 1106.86 879.481 C 1105.73 869.479 1107.52 837.008 1104.42 832.089 z" fill="rgb(99,99,99)"/></mask><rect x="1008.44" y="762.31" width="196.12" height="196.12" fill="currentColor" mask="url(#mc14)"/></svg>
