<svg xmlns="http://www.w3.org/2000/svg" viewBox="1334.30 750.55 181.44 181.44"><path d="M 1351.01 886.468 C 1349.86 878.396 1349.42 870.406 1350.33 862.273 C 1352.52 842.33 1362.6 824.093 1378.32 811.625 C 1394.08 799.169 1414.23 793.651 1434.14 796.334 C 1453.76 799.042 1471.49 809.478 1483.37 825.321 C 1498.02 844.86 1500.62 865.526 1497.44 888.879 C 1490.38 886.737 1483.46 885.163 1477.73 880.433 L 1478.24 878.949 C 1482.34 877.742 1484.73 878.612 1488.96 879.413 C 1489.28 871.397 1489.05 865.841 1488.6 857.924 C 1483.04 858.954 1480.17 860.34 1475.61 857.432 L 1475.88 855.734 C 1479.01 852.941 1482.27 853.002 1486.56 852.377 C 1483.16 843.762 1478.8 836.335 1474.01 828.502 L 1471.93 831.479 C 1469.97 834.346 1468.35 837.119 1464.53 835.594 L 1464.55 833.035 C 1466.58 829.066 1468.7 827.884 1472.21 825.124 C 1464.34 818.177 1459.28 815.179 1449.8 810.716 C 1446.61 817.89 1446.14 818.812 1441.31 825.151 C 1441.64 819.45 1443.16 813.526 1444.41 807.922 C 1439.05 806.52 1425.82 802.428 1421.33 805.585 L 1420.82 809.248 C 1421.09 812.952 1421.46 814.31 1419.51 816.863 L 1417.89 816.121 C 1415.99 812.888 1416.72 810.565 1417.13 806.723 C 1412.34 802.61 1398.49 809.079 1393.42 811.661 C 1394.67 815.138 1396.39 818.233 1395.42 821.548 L 1393.95 822.035 C 1390.63 820.06 1389.83 817.493 1388 813.977 C 1382.29 818.254 1375.19 823.371 1371.21 829.376 C 1375.22 831.995 1376.03 831.641 1377.98 835.574 L 1377.36 837.293 C 1374.16 837.827 1374.31 837.841 1370.99 835.414 C 1370.12 834.761 1369.25 834.098 1368.38 833.425 C 1363.94 838.592 1361.08 846.9 1358.66 853.335 C 1361.86 854.066 1367.29 854.749 1369.2 856.994 L 1368.61 858.761 C 1364.09 860.013 1362.28 858.151 1359.47 858.839 C 1354.12 860.144 1354.85 873.857 1356.21 877.841 C 1357.59 881.864 1362.96 876.911 1367.15 879.425 L 1366.77 881.87 C 1363.13 884.154 1355.53 885.45 1351.01 886.468 z" fill="rgb(22,40,26)" transform="translate(0,0)"/><path d="M 1455.39 830.962 C 1456.01 835.007 1434.91 868.659 1433.53 876.344 C 1432.05 884.59 1423.2 884.229 1417.15 881.085 C 1408.87 868.131 1419.86 866.391 1427.54 859.091 C 1437.01 850.091 1446.06 840.149 1455.39 830.962 z" fill="rgb(22,40,26)" transform="translate(0,0)"/></svg>
