<svg xmlns="http://www.w3.org/2000/svg" viewBox="65.16 1089.31 211.06 211.06" style="color:#16281A"><mask id="mc16" maskUnits="userSpaceOnUse" x="65.16" y="1089.31" width="211.06" height="211.06"><rect x="65.16" y="1089.31" width="211.06" height="211.06" fill="black"/><path d="M 220.969 1156.95 C 246.441 1182.79 247.664 1223.91 223.772 1251.22 C 199.879 1278.53 158.965 1282.78 129.966 1260.97 C 100.968 1239.16 93.7063 1198.67 113.318 1168.14 C 132.93 1137.61 172.773 1127.38 204.666 1144.69 C 210.676 1147.95 216.17 1152.08 220.969 1156.95 z" fill="rgb(222,222,222)"/><path d="M 161.777 1147.88 C 193.627 1142.48 223.815 1163.95 229.171 1195.81 C 234.526 1227.67 213.018 1257.83 181.154 1263.14 C 149.349 1268.44 119.258 1246.98 113.913 1215.19 C 108.567 1183.39 129.986 1153.27 161.777 1147.88 z" fill="rgb(0,0,0)"/><path d="M 132.574 1164.95 C 145.712 1153.26 152.994 1150.97 170.056 1148.52 C 169.9 1152.74 169.227 1157.82 170.763 1161.52 L 172.658 1161.65 C 175.675 1157.02 170.043 1152.84 175.362 1149.21 C 185.7 1148.06 202.043 1158.94 209.876 1165.11 C 206.176 1167.73 203.614 1169.19 200.904 1172.86 L 201.346 1173.91 C 205.716 1172.53 208.009 1169.95 211.483 1166.89 C 215.946 1171.57 217.07 1173.09 220.574 1178.54 C 212.138 1183.47 203.672 1188.35 195.177 1193.17 C 186.062 1197.25 181.259 1201.32 172.516 1198.68 C 168.753 1199.88 170.281 1198.83 167.845 1202.07 C 167.17 1205.46 167.157 1205.57 168.472 1208.84 C 171.469 1211.59 169.752 1210.84 173.806 1211.16 C 178.258 1209.23 178.813 1207.01 181.164 1202.48 C 186.346 1199.9 191.71 1197.12 196.957 1194.74 C 205.442 1189.95 213.212 1185.66 221.294 1180.19 C 223.937 1186.87 227.764 1193.77 225.711 1200.49 C 219.987 1206.07 216.88 1200.96 215.187 1205.07 C 219.359 1208.08 226.245 1202.85 226.938 1208.68 C 228.232 1219.58 220.414 1234.57 213.321 1242.36 C 212.255 1243.41 211.206 1244.48 210.173 1245.56 C 198.032 1257.27 188.999 1259.81 172.815 1262.39 C 172.814 1259.21 173.219 1252.14 171.308 1250.02 C 169.62 1253.66 170.013 1258.04 169.96 1262.2 C 153.325 1259.83 145.821 1256.55 133.034 1245.9 C 136.813 1242.35 139.003 1239.92 142.39 1236 C 140.605 1235.95 133.816 1240.7 131.75 1242 C 121.991 1240.39 116.631 1214.99 115.71 1206.88 C 118.942 1206.78 125.334 1206.98 127.355 1204.56 C 123.777 1203.15 119.596 1203.91 115.606 1204.2 C 117.618 1187.96 121.132 1178.89 131.549 1166.33 C 134.612 1169.29 135.646 1170.47 139.471 1172.51 L 140.582 1172.1 C 138.684 1168.52 135.998 1167.26 132.574 1164.95 z" fill="rgb(222,222,222)"/><path d="M 209.072 1243.09 C 206.713 1242 198.57 1238.59 201.053 1235.63 C 204.51 1235.33 206.915 1238.7 210.279 1241.48 L 209.072 1243.09 z" fill="rgb(0,0,0)"/><path d="M 210.279 1241.48 L 213.321 1242.36 C 212.255 1243.41 211.206 1244.48 210.173 1245.56 L 209.072 1243.09 L 210.279 1241.48 z" fill="rgb(169,169,169)"/><path d="M 152.268 1106.95 C 165.526 1107 178.784 1106.99 192.041 1106.9 L 191.75 1120.15 C 187.716 1120.2 184.571 1120.27 180.515 1119.84 L 180.139 1121.49 C 179.808 1125.68 179.324 1129.62 178.93 1133.78 C 174.48 1134.2 169.155 1133.53 164.208 1133.49 C 164.31 1115.14 167.355 1122.16 152.724 1119.28 C 150.176 1116.54 151.814 1110.85 152.268 1106.95 z" fill="rgb(222,222,222)"/><path d="M 152.724 1119.28 C 160.324 1118.91 173.103 1118.98 180.515 1119.84 L 180.139 1121.49 C 179.808 1125.68 179.324 1129.62 178.93 1133.78 C 174.48 1134.2 169.155 1133.53 164.208 1133.49 C 164.31 1115.14 167.355 1122.16 152.724 1119.28 z" fill="rgb(222,222,222)"/><path d="M 152.724 1119.28 C 160.324 1118.91 173.103 1118.98 180.515 1119.84 L 180.139 1121.49 C 174.887 1121.49 170.441 1121.38 165.216 1121.15 C 165.172 1124.99 165.152 1128.83 165.157 1132.67 C 172.077 1132.77 172.101 1132.88 178.93 1133.78 C 174.48 1134.2 169.155 1133.53 164.208 1133.49 C 164.31 1115.14 167.355 1122.16 152.724 1119.28 z" fill="rgb(141,141,141)"/><path d="M 206.98 1142.93 C 209.117 1139.76 210.123 1137.41 211.751 1134.01 C 213.432 1130.52 210.365 1131.62 209.104 1130.41 C 208.651 1128.65 212.711 1123.5 214.428 1124.92 C 221.041 1130.4 227.555 1135.32 234.59 1140.24 C 233.444 1142.39 231.751 1146.46 229.737 1147.63 C 228.261 1148.49 227.424 1145.42 226.078 1145.01 C 224.784 1145.46 223.077 1149.02 221.661 1150.85 L 220.952 1151.78 C 216.587 1148.96 210.756 1146.26 206.98 1142.93 z" fill="rgb(222,222,222)"/><path d="M 139.011 1132.75 C 149.432 1133.65 138.423 1140.05 135.441 1142.64 C 128.807 1136.87 126.879 1139.93 139.011 1132.75 z" fill="rgb(222,222,222)"/></mask><rect x="65.16" y="1089.31" width="211.06" height="211.06" fill="currentColor" mask="url(#mc16)"/></svg>
