<svg xmlns="http://www.w3.org/2000/svg" viewBox="385.83 1099.71 198.69 198.69"><path d="M 481.479 1125.42 C 535.665 1127.03 567.969 1175.24 555.598 1226.86 C 551.02 1245.97 540.884 1257.65 528.394 1272.08 C 512.182 1272.46 495.966 1272.66 479.75 1272.69 C 464.029 1272.5 448.307 1272.42 432.585 1272.43 C 416.45 1254.52 405.05 1234.88 404.152 1210.4 C 402.392 1162.38 434.258 1127.96 481.479 1125.42 z" fill="rgb(22,40,26)" transform="translate(0,0)"/><path d="M 477.083 1209.93 C 479.6 1204.91 480.167 1197.91 487.915 1201.37 C 488.809 1201.77 490.205 1202.95 491.367 1202.56 C 498.552 1199.58 505.944 1196.11 513.065 1193.03 C 503.418 1200.31 496.295 1204.26 490.073 1215.19 C 488.29 1218.33 481.783 1216.22 478.018 1213.84 C 471.676 1216.58 462.057 1221.3 455.505 1224.32 C 459.454 1221.38 472.993 1211.97 477.083 1209.93 z" fill="rgb(255,255,255)" transform="translate(0,0)"/><path d="M 526.45 1239.5 C 527.73 1238.15 528.511 1237.25 530.509 1237.36 C 532.226 1237.43 533.828 1238.24 534.91 1239.58 C 536.92 1242.07 536.525 1247.78 533.593 1249.51 C 531.67 1250.64 528.79 1250.56 526.639 1250.71 C 526.441 1246.75 526.515 1243.42 526.45 1239.5 z" fill="rgb(255,255,255)" transform="translate(0,0)"/><path d="M 530.82 1245.47 C 531.289 1245.19 532.059 1244.47 532.509 1244.95 C 532.371 1245.6 531.932 1245.91 531.465 1246.43 C 530.889 1246.73 530.201 1247.29 529.506 1247.14 C 529.464 1247.08 529.423 1247.02 529.382 1246.95 C 529.527 1246.26 530.298 1245.87 530.82 1245.47 z" fill="rgb(22,40,26)" transform="translate(0,0)"/><path d="M 434.09 1239.62 C 438.677 1230.8 446.793 1243.32 442.53 1248.56 C 440.125 1251.52 437.074 1250.88 434.476 1248.62 C 434.502 1245.19 434.38 1243.03 434.09 1239.62 z" fill="rgb(255,255,255)" transform="translate(0,0)"/><path d="M 431.617 1169.36 C 441.025 1170.13 440.258 1175.2 436.909 1182.81 C 427.521 1180.97 427.612 1179.4 431.617 1169.36 z" fill="rgb(255,255,255)" transform="translate(0,0)"/><path d="M 433.569 1171.46 C 436.981 1174.53 436.309 1175.95 435.042 1180.31 C 432.379 1177.12 433.091 1175.59 433.569 1171.46 z" fill="rgb(22,40,26)" transform="translate(0,0)"/><path d="M 534.602 1169.84 C 542.325 1167.14 545.935 1171.57 539.643 1175.64 C 538.64 1176.29 538.08 1176.47 538.082 1177.71 C 539.325 1178.92 541.084 1177.92 542.087 1179.66 C 542.79 1180.89 540.406 1182.19 539.958 1182.1 C 538.124 1181.74 536.259 1180.31 534.187 1179.63 C 533.757 1177.44 535.906 1176.2 536.98 1174.4 C 537.096 1174.2 539.373 1172.11 538.547 1171.67 C 537.573 1171.83 537.019 1172.86 535.989 1173 C 534.859 1172.44 534.848 1170.94 534.602 1169.84 z" fill="rgb(210,213,215)" transform="translate(0,0)"/><path d="M 532.403 1181.37 C 529.381 1183.06 523.296 1182.58 524.92 1179.74 C 526.143 1179.4 527.787 1180.12 528.543 1179.42 C 529.235 1178.78 527.591 1175.12 528.836 1173.84 C 529.276 1173.38 529.36 1172.53 529.138 1171.93 C 527.59 1170.7 525.448 1172.24 523.831 1171.24 L 523.781 1170.63 C 525.585 1167.47 530.185 1168.87 532.94 1169.66 C 531.514 1175.81 531.469 1175.16 532.403 1181.37 z" fill="rgb(255,255,255)" transform="translate(0,0)"/><path d="M 523.598 1250.25 C 522.279 1250.22 517.073 1250.56 516.537 1249.29 C 515.501 1246.66 521.708 1244.22 521.869 1241.83 C 522.094 1238.48 516.848 1242.11 515.804 1239.8 C 517.775 1236.16 522.888 1237.42 525.719 1239.43 L 524.645 1241.78 C 522.117 1247.35 518.7 1244.98 523.598 1250.25 z" fill="rgb(210,213,215)" transform="translate(0,0)"/><path d="M 448.034 1141.81 C 452.177 1143.66 456.912 1151.92 456.08 1156.29 C 451.759 1155.01 446.305 1146.8 448.034 1141.81 z" fill="rgb(255,255,255)" transform="translate(0,0)"/><path d="M 534.483 1207.35 C 537.733 1206.79 548.73 1204.82 550.264 1208.78 L 550.728 1209.89 C 543.707 1210.75 538.384 1213.13 534.483 1207.35 z" fill="rgb(255,255,255)" transform="translate(0,0)"/><path d="M 516.385 1143.94 C 522.473 1148.16 518.781 1148.46 514.765 1154.42 L 512.963 1157.14 C 507.408 1155.64 514.327 1148.47 516.385 1143.94 z" fill="rgb(255,255,255)" transform="translate(0,0)"/><path d="M 482.717 1134.26 C 488.005 1137.28 485.696 1144.89 484.758 1150.6 C 480.025 1148.31 481.896 1138.78 482.717 1134.26 z" fill="rgb(255,255,255)" transform="translate(0,0)"/><path d="M 421.594 1207.35 C 423.399 1207.1 428.056 1206.22 429.15 1208.19 C 428.683 1211.08 422.525 1210.41 420.246 1210.58 C 409.899 1211.75 409.095 1208.56 421.594 1207.35 z" fill="rgb(255,255,255)" transform="translate(0,0)"/><path d="M 420.063 1169 C 424.072 1169.69 428.209 1169.99 429.146 1174.7 L 429.567 1176.92 C 425.049 1174.19 420.444 1173.74 420.063 1169 z" fill="rgb(255,255,255)" transform="translate(0,0)"/><path d="M 430.723 1241.04 C 431.231 1243.97 431.351 1245.98 431.604 1248.91 C 422.769 1249.95 427.169 1244.25 430.723 1241.04 z" fill="rgb(255,255,255)" transform="translate(0,0)"/><path d="M 417.556 1225.56 C 418.453 1224.84 419.748 1224.91 420.555 1225.73 C 421.362 1226.55 421.419 1227.85 420.688 1228.73 C 420.143 1229.39 419.27 1229.69 418.437 1229.49 C 417.605 1229.29 416.958 1228.63 416.771 1227.8 C 416.584 1226.96 416.889 1226.09 417.556 1225.56 z" fill="rgb(255,255,255)" transform="translate(0,0)"/><path d="M 465.785 1138.47 C 466.318 1138.36 466.783 1138.1 467.25 1138.33 C 467.417 1138.58 467.537 1143.05 467.636 1143.83 C 464.065 1143.11 464.365 1141.52 465.785 1138.47 z" fill="rgb(152,158,159)" transform="translate(0,0)"/><path d="M 500.138 1139.46 C 502.932 1138.83 502.385 1140 501.28 1142.35 C 497.791 1143.47 498.746 1141.53 500.138 1139.46 z" fill="rgb(210,213,215)" transform="translate(0,0)"/><path d="M 541.727 1225.96 C 544.706 1225.33 545.044 1226.45 546.326 1229 C 543.838 1228.32 539.679 1228.6 541.727 1225.96 z" fill="rgb(210,213,215)" transform="translate(0,0)"/><path d="M 414.319 1189.02 C 417.85 1189.86 418.489 1189.82 420.266 1193 C 416.353 1192.22 414.9 1192.95 414.319 1189.02 z" fill="rgb(210,213,215)" transform="translate(0,0)"/><path d="M 434.596 1155.26 C 436.326 1155.03 436.387 1155.58 435.837 1157.09 C 435.158 1157.24 433.81 1157.91 433.329 1157.14 C 433.44 1156.35 434.065 1155.86 434.596 1155.26 z" fill="rgb(255,255,255)" transform="translate(0,0)"/><path d="M 546.142 1191.33 C 546.559 1191.2 547.823 1190.58 548.395 1190.98 C 548.433 1191.53 547.384 1191.84 546.909 1192.15 C 546.16 1192.27 545.161 1192.69 544.516 1192.19 C 545.058 1191.9 545.6 1191.62 546.142 1191.33 z" fill="rgb(255,255,255)" transform="translate(0,0)"/><path d="M 529.993 1158.44 C 530.21 1158.56 530.426 1158.68 530.643 1158.8 C 530.56 1159.32 530.172 1159.57 529.731 1160.02 C 529.647 1159.88 529.563 1159.75 529.479 1159.61 C 529.554 1159.31 529.797 1158.77 529.993 1158.44 z" fill="rgb(210,213,215)" transform="translate(0,0)"/></svg>
