<svg xmlns="http://www.w3.org/2000/svg" viewBox="701.94 1101.83 190.09 190.09"><path d="M 774.613 1180.56 C 783.626 1163.24 796.531 1142.39 790.083 1122.21 C 789.587 1120.68 789.044 1119.17 788.454 1117.67 C 813.999 1139.4 824.025 1156.92 817.871 1191.34 C 816.951 1196.49 814.582 1201.89 815.17 1206.96 C 822.523 1209.62 832.721 1187.97 835.143 1182.99 C 845.648 1221.52 850.088 1254.55 809.799 1275.84 C 831.607 1248.13 818.055 1218.47 792.417 1198.97 C 790.691 1197.64 788.922 1196.38 787.111 1195.17 C 786.641 1223.24 761.825 1251.79 783.771 1274.62 C 784.244 1275.11 784.723 1275.6 785.208 1276.08 C 753.616 1266.07 743.874 1247.24 745.382 1214.94 C 745.98 1212.36 745.598 1211.97 747.194 1210.43 L 748.411 1213.09 C 752.365 1222.16 755.594 1223.52 763.954 1228.67 C 754.775 1202.47 754.111 1185.17 768.143 1159.79 L 774.613 1180.56 z" fill="rgb(22,40,26)" transform="translate(0,0)"/></svg>
