<svg xmlns="http://www.w3.org/2000/svg" viewBox="1015.43 1094.55 195.88 195.88" style="color:#16281A"><mask id="mc19" maskUnits="userSpaceOnUse" x="1015.43" y="1094.55" width="195.88" height="195.88"><rect x="1015.43" y="1094.55" width="195.88" height="195.88" fill="black"/><path d="M 1051.2 1110.94 L 1144.47 1110.87 C 1144.16 1141.85 1144.09 1143.75 1175.43 1143.01 C 1174.69 1184.75 1174.99 1231.83 1175.24 1273.83 C 1133.9 1274.1 1092.55 1274.07 1051.21 1273.74 L 1051.2 1110.94 z" fill="rgb(222,222,222)"/><path d="M 1084.65 1210.71 C 1086.28 1212.21 1087.92 1214.17 1090.06 1214.94 C 1092.16 1215.69 1093.8 1213.96 1095.6 1213.24 C 1097.76 1212.39 1100.37 1213.58 1100.61 1216.03 C 1100.85 1216.87 1100.95 1218.31 1101.52 1219.03 C 1103.62 1221.66 1107.42 1216.66 1109.53 1220.9 C 1110.2 1222.23 1108.49 1223.73 1108.39 1224.63 C 1108.12 1227.02 1112.42 1228.41 1113.47 1230.21 C 1114.78 1232.52 1111.89 1234.16 1111.87 1236.45 C 1111.77 1237.16 1111.68 1237.87 1111.58 1238.58 C 1110.85 1241.16 1113.6 1242.56 1113.89 1244.49 C 1114.46 1248.31 1110.22 1246.63 1108.73 1247.66 C 1107.13 1248.77 1108.35 1251.59 1108.01 1253.01 C 1107.25 1256.21 1103 1255.88 1100.83 1257.53 C 1099.04 1259.53 1100.55 1259.17 1097.83 1261.31 C 1091.15 1258.88 1091.84 1258.28 1085.51 1261.66 C 1084.93 1261.96 1083.18 1260.6 1082.86 1260.18 C 1079.57 1255.86 1076.7 1256.06 1072.43 1254.63 C 1072.07 1254.25 1072.23 1252.8 1072.31 1252.53 C 1074.07 1246.15 1069.5 1247.51 1066.98 1244.47 C 1065.82 1243.06 1070.64 1237.76 1068.92 1235.57 C 1068.53 1234.55 1067.21 1232.14 1067.25 1231.02 C 1067.45 1225.69 1066.37 1227.98 1071.04 1227.57 C 1076.17 1227.13 1066 1216.9 1080.01 1218.08 C 1081.88 1218.23 1083.8 1212.48 1084.65 1210.71 z" fill="rgb(0,0,0)"/><path d="M 1079.62 1222.6 C 1083.02 1220.66 1089.71 1217.18 1093.55 1218.53 C 1107.67 1228.16 1107.33 1223.68 1107.08 1243.89 C 1104.75 1246.63 1103.05 1248.42 1100.91 1251.4 L 1100.5 1251.96 L 1097.01 1253.31 C 1076.94 1261.15 1064.23 1237.84 1079.62 1222.6 z" fill="rgb(0,0,0)"/><path d="M 1093.55 1218.53 C 1107.67 1228.16 1107.33 1223.68 1107.08 1243.89 C 1104.75 1246.63 1103.05 1248.42 1100.91 1251.4 L 1100.5 1251.96 L 1097.01 1253.31 C 1076.94 1261.15 1064.23 1237.84 1079.62 1222.6 L 1081.26 1223.68 C 1073.38 1230.2 1072.57 1242.78 1080.25 1249.77 C 1090.13 1258.76 1108.73 1248.88 1104.92 1234.01 C 1102 1222.65 1102.3 1227.06 1093.58 1220.13 L 1092.72 1219.44 L 1093.55 1218.53 z" fill="rgb(222,222,222)"/><path d="M 1079.62 1222.6 C 1083.02 1220.66 1089.71 1217.18 1093.55 1218.53 L 1092.72 1219.44 C 1086.33 1220.78 1086.84 1223.42 1081.26 1223.68 L 1079.62 1222.6 z" fill="rgb(99,99,99)"/><path d="M 1091.3 1242.6 C 1088.31 1242.04 1085.87 1240.87 1085.01 1237.51 C 1084.15 1234.15 1082.67 1230.69 1082.59 1227.25 C 1082.25 1226.68 1083.79 1223.63 1084.62 1224.47 C 1087.5 1227.34 1085.6 1236.94 1091.04 1236.27 L 1091.82 1237.44 C 1091.63 1238.51 1091.68 1238.58 1091.72 1239.71 L 1091.3 1242.6 z" fill="rgb(222,222,222)"/><path d="M 1091.04 1236.27 C 1092.25 1234.55 1096.85 1227.23 1098.3 1226.96 C 1098.6 1227.29 1098.59 1227.39 1098.6 1227.88 L 1098.52 1227.44 L 1098.38 1228.59 L 1097.4 1228.24 L 1097.87 1229.55 L 1095.49 1232.91 C 1094.14 1234.81 1093.42 1235.8 1091.82 1237.44 L 1091.04 1236.27 z" fill="rgb(169,169,169)"/><path d="M 1091.72 1239.71 C 1093.06 1240.41 1096.85 1242.07 1097.38 1243.26 C 1097.17 1244.15 1092.05 1242.74 1091.3 1242.6 L 1091.72 1239.71 z" fill="rgb(169,169,169)"/><path d="M 1112.91 1177.5 C 1121.51 1177.38 1145.64 1176.44 1153.18 1177.72 L 1154.08 1179.76 L 1153.28 1180.86 C 1147.1 1181.85 1121.19 1181.23 1113.5 1181.19 C 1104.9 1181.08 1079.16 1182.24 1072.54 1180.33 L 1072.38 1178.45 C 1074.37 1177.05 1107.73 1177.52 1112.91 1177.5 z" fill="rgb(0,0,0)"/><path d="M 1070.84 1192.46 C 1078.09 1191.35 1148.4 1191.27 1153.48 1192.72 L 1154.79 1195.23 C 1151.08 1195.8 1146.64 1195.84 1142.88 1195.78 C 1119.68 1195.45 1096.28 1196.18 1073.15 1194.72 C 1073.15 1194.72 1071.05 1192.66 1070.84 1192.46 z" fill="rgb(0,0,0)"/><path d="M 1071.71 1130.23 C 1087.35 1128.68 1106.11 1130.34 1121.91 1130.26 C 1122.73 1130.26 1123.24 1133.28 1123.33 1133.68 C 1112.01 1134.11 1085.74 1133.93 1073.3 1133.64 C 1072.55 1133.62 1071.93 1131 1071.71 1130.23 z" fill="rgb(0,0,0)"/><path d="M 1071.19 1144.41 C 1074.93 1143.78 1086.34 1143.21 1090 1143.83 C 1096.12 1144.88 1119.98 1141.5 1122.19 1146.13 L 1122.76 1147.27 C 1118.48 1147.72 1114.43 1147.69 1110.12 1147.68 C 1097.96 1147.65 1085.76 1147.64 1073.61 1147.61 C 1072.89 1147.6 1072.11 1146.04 1071.88 1145.62 L 1071.19 1144.41 z" fill="rgb(0,0,0)"/><path d="M 1109.71 1162.47 C 1114.65 1161.92 1126.09 1161.34 1131.23 1162.02 C 1138.62 1162.98 1152.05 1158.7 1154.52 1165.17 C 1141.68 1166.62 1125.64 1164.51 1112.54 1165.19 C 1111.9 1165.22 1111.02 1164.09 1110.68 1163.64 L 1109.71 1162.47 z" fill="rgb(0,0,0)"/><path d="M 1121.76 1252.44 C 1131.51 1251.66 1141.3 1251.91 1151.07 1251.82 C 1154.19 1251.8 1154.18 1252.61 1153.95 1255.39 C 1149.34 1255.34 1120.28 1257.53 1121.76 1252.44 z" fill="rgb(0,0,0)"/><path d="M 1070.97 1162.44 C 1076.48 1161.66 1093.19 1160.09 1096.7 1164.59 C 1091 1165.69 1074.65 1167.3 1070.97 1162.44 z" fill="rgb(0,0,0)"/><path d="M 1148.35 1113.53 C 1151.76 1115.4 1171.93 1136.13 1175.53 1139.95 C 1170.9 1139.96 1166.28 1140.02 1161.65 1140.13 C 1144.03 1140.53 1147.81 1127.37 1148.35 1113.53 z" fill="rgb(222,222,222)"/></mask><rect x="1015.43" y="1094.55" width="195.88" height="195.88" fill="currentColor" mask="url(#mc19)"/></svg>
