<svg xmlns="http://www.w3.org/2000/svg" viewBox="70.27 1431.80 209.56 209.56"><path d="M 87.7296 1597.06 C 114.73 1559.69 145.391 1555.45 186.343 1571.36 C 206.963 1579.37 229.948 1586.81 250.97 1594.17 L 258.484 1596.16 C 259.85 1595.98 261.116 1595.85 262.251 1596.79 L 262.367 1597.32 C 260.214 1598.8 250.536 1597.51 247.504 1597.18 L 242.612 1597 C 228.42 1598.41 200.885 1597.54 185.806 1597.47 L 87.7296 1597.06 z" fill="rgb(22,40,26)" transform="translate(0,0)"/><path d="M 258.484 1596.16 C 259.85 1595.98 261.116 1595.85 262.251 1596.79 L 262.367 1597.32 C 260.214 1598.8 250.536 1597.51 247.504 1597.18 C 252.125 1596.94 253.913 1597.06 258.484 1596.16 z" fill="rgb(152,158,159)" transform="translate(0,0)"/><path d="M 169.021 1512.25 C 169.699 1512.2 170.378 1512.15 171.057 1512.11 C 191.565 1511.07 208.262 1526.78 210.115 1547 C 210.37 1549.78 209.249 1573.31 201.632 1568.5 C 200.493 1567.78 203.523 1562.62 204.05 1560.03 C 207.228 1544.4 202.542 1532.01 189.368 1522.65 C 173.966 1514.35 168.08 1516.25 153.789 1524.43 C 138.453 1533.21 141.839 1556.03 138.412 1558.38 L 137.588 1558.11 C 135.522 1555.71 135.508 1551.98 135.757 1548.96 C 137.528 1527.45 148.439 1516.01 169.021 1512.25 z" fill="rgb(22,40,26)" transform="translate(0,0)"/><path d="M 176.319 1474.36 C 177.989 1474.52 178.004 1475.09 178.926 1476.43 C 179.352 1485.08 180.481 1493.52 181.718 1502.06 C 181.986 1503.91 172.228 1502.59 171.153 1502.5 C 172.886 1493.34 174.52 1483.29 176.319 1474.36 z" fill="rgb(22,40,26)" transform="translate(0,0)"/><path d="M 96.7565 1550.02 C 104.078 1548.62 118.643 1544.75 126.313 1545.4 C 126.982 1545.45 128.003 1554.3 124.646 1553.49 C 118.496 1553.1 111.367 1551.89 105.327 1551.96 C 103.999 1552.02 91.3449 1552.85 92.3662 1550.17 C 94.4072 1549.5 94.5475 1549.72 96.7565 1550.02 z" fill="rgb(22,40,26)" transform="translate(0,0)"/><path d="M 105.327 1551.96 C 103.999 1552.02 91.3449 1552.85 92.3662 1550.17 C 94.4072 1549.5 94.5475 1549.72 96.7565 1550.02 C 99.6485 1550.66 102.451 1551.25 105.327 1551.96 z" fill="rgb(210,213,215)" transform="translate(0,0)"/><path d="M 239.645 1557.16 C 235.979 1557.22 222.928 1558.68 219.322 1557.37 C 218.513 1557.07 218.666 1550.26 219.375 1550.26 C 225.565 1550.26 235.118 1552.47 241.33 1554.06 C 243.739 1554.62 245.351 1554.83 247.783 1555.16 L 247.025 1557.15 C 244.359 1557.08 242.324 1557.08 239.645 1557.16 z" fill="rgb(22,40,26)" transform="translate(0,0)"/><path d="M 102.839 1520.96 C 110.56 1521 116.576 1523.3 124.023 1524.8 C 132.747 1526.56 131.285 1526.15 128.531 1533.66 C 127.309 1534.7 127.449 1534.5 125.778 1533.39 C 118.519 1528.56 110.46 1525.25 102.839 1520.96 z" fill="rgb(22,40,26)" transform="translate(0,0)"/><path d="M 146.81 1477.69 C 148.939 1479.65 161.219 1501.33 160.795 1504.02 C 151.595 1506.42 153.178 1506.41 151.242 1496.48 C 150.004 1490.16 148.525 1483.9 146.81 1477.69 z" fill="rgb(22,40,26)" transform="translate(0,0)"/><path d="M 121.786 1496.48 C 125.283 1497.77 141.589 1509.87 143.073 1511.54 C 142.985 1512.47 141.547 1514.82 141.105 1515.75 C 140.127 1516.41 138.535 1517.82 137.425 1517.97 C 136.925 1517.65 123.674 1498.95 121.786 1496.48 z" fill="rgb(22,40,26)" transform="translate(0,0)"/><path d="M 200.753 1489.31 C 201.491 1487.69 202.282 1486.09 203.126 1484.52 L 204.187 1484.42 L 203.448 1484.02 L 204.178 1483.44 L 204.194 1483.38 C 205.569 1483.48 202.65 1491.78 202.339 1493.06 C 201.837 1494.66 197.56 1508.81 197.477 1508.93 C 195.872 1509.51 190.614 1506.8 189.988 1505.38 C 189.954 1505.74 199.745 1491.09 200.753 1489.31 z" fill="rgb(22,40,26)" transform="translate(0,0)"/><path d="M 237.373 1529.47 C 234.94 1530.6 218.633 1540 218.709 1540.02 C 217.775 1538.97 217.876 1537.08 217.364 1535.9 C 215.453 1531.49 219.217 1531.11 223.507 1530.15 L 235.672 1527.34 L 237.373 1529.47 z" fill="rgb(22,40,26)" transform="translate(0,0)"/><path d="M 224.854 1502.06 C 225.425 1502.58 225.269 1502.38 225.458 1502.7 C 225.45 1503.52 212.507 1520.7 210.14 1520.86 C 209.053 1519.53 206.533 1516.96 206.276 1515.47 C 206.469 1515.02 222.839 1503.53 224.854 1502.06 z" fill="rgb(22,40,26)" transform="translate(0,0)"/><path d="M 176.319 1474.36 C 177.66 1460.74 179.129 1468.69 178.926 1476.43 C 178.004 1475.09 177.989 1474.52 176.319 1474.36 z" fill="rgb(85,87,87)" transform="translate(0,0)"/><path d="M 235.672 1527.34 C 236.891 1527.09 239.951 1526.19 241.087 1526.54 L 241.215 1526.67 C 241.075 1527.57 238.124 1529.01 237.373 1529.47 L 235.672 1527.34 z" fill="rgb(85,87,87)" transform="translate(0,0)"/><path d="M 247.783 1555.16 C 249.107 1555.26 251.281 1555.26 252.229 1556.3 L 252.23 1556.44 C 251.509 1557.07 247.994 1557.08 247.025 1557.15 L 247.783 1555.16 z" fill="rgb(111,115,116)" transform="translate(0,0)"/></svg>
