<svg xmlns="http://www.w3.org/2000/svg" viewBox="1017.13 1439.51 198.25 198.25"><path d="M 1056.29 1511.56 C 1060.17 1500.8 1069.32 1500.15 1075.43 1509.78 C 1076.27 1516.68 1074.95 1527.83 1076.42 1532.89 C 1077.21 1537.57 1077.21 1543.12 1076.8 1547.85 C 1075.35 1551.63 1076.89 1563.91 1075.65 1570.55 C 1069.22 1580.21 1062.41 1581.22 1056.34 1570.21 C 1055.36 1570.53 1054.8 1570.97 1053.91 1571.51 C 1046.19 1574.06 1044.82 1570.28 1043.3 1563.21 C 1044.6 1553.72 1043.25 1530.69 1042.98 1520.03 C 1043.58 1512.67 1047.08 1504.7 1054.58 1512.1 C 1055.5 1512 1055.57 1512.08 1056.29 1511.56 z" fill="rgb(22,40,26)" transform="translate(0,0)"/><path d="M 1042.98 1520.03 C 1043.58 1512.67 1047.08 1504.7 1054.58 1512.1 C 1055.5 1512 1055.57 1512.08 1056.29 1511.56 C 1057.22 1515.72 1057.47 1565.49 1056.34 1570.21 C 1055.36 1570.53 1054.8 1570.97 1053.91 1571.51 C 1046.19 1574.06 1044.82 1570.28 1043.3 1563.21 C 1044.6 1553.72 1043.25 1530.69 1042.98 1520.03 z" fill="rgb(22,40,26)" transform="translate(0,0)"/><path d="M 1054.58 1512.1 C 1055.5 1512 1055.57 1512.08 1056.29 1511.56 C 1057.22 1515.72 1057.47 1565.49 1056.34 1570.21 C 1055.36 1570.53 1054.8 1570.97 1053.91 1571.51 C 1054.5 1555.68 1052.8 1525.92 1054.58 1512.1 z" fill="rgb(210,213,215)" transform="translate(0,0)"/><path d="M 1075.43 1509.78 C 1076.27 1516.68 1074.95 1527.83 1076.42 1532.89 C 1077.21 1537.57 1077.21 1543.12 1076.8 1547.85 C 1075.35 1551.63 1076.89 1563.91 1075.65 1570.55 C 1074.7 1562.88 1074.63 1517.49 1075.43 1509.78 z" fill="rgb(210,213,215)" transform="translate(0,0)"/><path d="M 1155.48 1516.25 C 1158.27 1496.05 1172.93 1505.28 1173.28 1507.93 C 1175.78 1527.01 1173.52 1550.82 1174.35 1570.02 C 1174.73 1578.82 1160.31 1581.1 1157.33 1572.92 C 1155.49 1567.88 1156.43 1554.68 1156 1549.23 C 1156.1 1544.54 1156.36 1520.21 1155.48 1516.25 z" fill="rgb(22,40,26)" transform="translate(0,0)"/><path d="M 1153.26 1532.43 C 1154.34 1536.41 1153.99 1543.74 1153.78 1548.04 C 1129.89 1547.13 1101.12 1547.88 1076.8 1547.85 C 1077.21 1543.12 1077.21 1537.57 1076.42 1532.89 C 1098.33 1533.05 1132.03 1533.79 1153.26 1532.43 z" fill="rgb(22,40,26)" transform="translate(0,0)"/><path d="M 1178.01 1508.79 C 1179.49 1508.95 1186.77 1509.31 1186.74 1511.59 C 1186.62 1520.69 1188.9 1565.89 1185.87 1571.43 L 1185.15 1572.83 C 1183.2 1572.83 1178.01 1572.85 1177.86 1571.47 C 1176.84 1561.61 1177.12 1516.14 1178.01 1508.79 z" fill="rgb(22,40,26)" transform="translate(0,0)"/><path d="M 1034.08 1557.3 C 1034.01 1553.16 1033.65 1530.87 1034.58 1526.32 C 1034.74 1525.55 1039.9 1525.58 1041.48 1525.5 C 1040.83 1530.29 1041.4 1554.17 1040.69 1555.75 C 1039.95 1556.29 1035.23 1557.04 1034.08 1557.3 z" fill="rgb(22,40,26)" transform="translate(0,0)"/><path d="M 1190.12 1525.32 C 1198.86 1527.04 1196.82 1525.81 1196.96 1535.87 C 1197.06 1542.77 1196.9 1549.82 1196.71 1556.72 C 1195.7 1556.56 1190.78 1556.18 1190.69 1555.13 C 1189.89 1546.13 1190.1 1534.2 1190.12 1525.32 z" fill="rgb(22,40,26)" transform="translate(0,0)"/></svg>
