<svg xmlns="http://www.w3.org/2000/svg" viewBox="1330.74 1449.51 189.29 189.29"><path d="M 1388.52 1598.9 C 1389.66 1578.33 1388.1 1557.16 1388.79 1536.58 C 1389.58 1513.14 1382.43 1494.19 1413.32 1492.99 C 1407.72 1498.6 1399.18 1504.92 1397.73 1512.11 C 1402.78 1519.51 1408.21 1526.58 1413.57 1533.75 C 1414.07 1534.42 1419.56 1535.4 1420.56 1535.56 C 1422.19 1540.54 1422.85 1544.18 1426.79 1547.41 C 1430.14 1548.57 1437.46 1548.31 1438.26 1549.38 C 1447.75 1561.96 1455.4 1558.84 1466.18 1547.68 C 1472.96 1540.67 1480.8 1530.24 1487.72 1521.46 C 1500.09 1537.11 1492.1 1541.01 1484.39 1555.6 C 1468.82 1585.05 1452.04 1623.02 1412.46 1599.04 L 1388.52 1598.9 z" fill="rgb(22,40,26)" transform="translate(0,0)"/><path d="M 1361.47 1505.42 C 1370.32 1505.12 1376.24 1505.09 1385.15 1505.57 C 1385.53 1528.4 1386.85 1573.79 1384 1597.55 C 1383.68 1600.22 1378.91 1602.38 1376.42 1603.45 C 1353.14 1605.87 1351.66 1604.69 1352.2 1580.34 C 1352.72 1557.27 1350.68 1533.01 1353.48 1510.26 C 1353.78 1507.87 1359.62 1505.95 1361.47 1505.42 z" fill="rgb(22,40,26)" transform="translate(0,0)"/><path d="M 1466.29 1489.27 C 1474.3 1493.3 1476.88 1496.01 1473.86 1505.08 C 1467.53 1507.2 1445.11 1542.54 1435.23 1545.54 C 1430.43 1547 1423.43 1540.81 1424.21 1537.99 C 1426.22 1530.69 1439.97 1517.6 1445.03 1510.99 C 1446.82 1508.63 1448.67 1506.32 1450.57 1504.05 C 1455.39 1498.32 1459.34 1491.54 1466.29 1489.27 z" fill="rgb(22,40,26)" transform="translate(0,0)"/><path d="M 1446.33 1479.11 C 1454.7 1471.12 1462.1 1474.91 1462.84 1486.26 C 1450.89 1493.5 1421.89 1548.8 1411.1 1526.86 C 1407.87 1520.29 1443.16 1486.92 1446.33 1479.11 z" fill="rgb(22,40,26)" transform="translate(0,0)"/><path d="M 1476.19 1505.61 C 1483.92 1508.45 1488.63 1511.14 1486.2 1520.11 C 1476.66 1529.28 1458.24 1562.34 1443.75 1552.26 C 1437.83 1548.13 1446.55 1540.33 1449.26 1537.23 C 1458.24 1526.96 1466.55 1515.24 1476.19 1505.61 z" fill="rgb(22,40,26)" transform="translate(0,0)"/><path d="M 1414.88 1494.3 C 1420.55 1488.31 1433.64 1465.28 1442.61 1474.79 L 1444.54 1476.86 C 1434.09 1490.57 1419.74 1506.15 1408.62 1519.2 C 1407.94 1520 1399.76 1515.43 1401.04 1512.01 C 1403.41 1505.66 1409.97 1500.91 1414.2 1495.2 L 1414.88 1494.3 z" fill="rgb(22,40,26)" transform="translate(0,0)"/></svg>
