<svg xmlns="http://www.w3.org/2000/svg" viewBox="79.26 1772.45 190.10 190.10"><path d="M 181.668 1796.03 C 206.757 1801.29 191.657 1840.57 186.155 1855.26 C 200.569 1855.19 253.513 1849 237.83 1873.57 C 231.05 1884.19 247.719 1883.08 231.45 1899.62 C 234.412 1907.53 236.808 1910.46 229.446 1917.24 C 216.704 1928.98 236.393 1938.08 209.25 1938.49 C 193.732 1938.22 175.775 1938.92 160.516 1937.91 C 149.578 1937.19 145.912 1933.26 132.124 1933.03 C 131.92 1913.85 131.962 1894.67 132.25 1875.49 C 145.075 1859.14 159.232 1846.37 170.492 1829.89 C 177.613 1819.46 173.478 1802.01 181.668 1796.03 z" fill="rgb(22,40,26)" transform="translate(0,0)"/><path d="M 95.2474 1871.03 C 106.1 1870.88 116.954 1870.83 127.807 1870.88 C 127.909 1893.49 127.89 1916.1 127.752 1938.71 C 116.869 1938.91 105.984 1938.97 95.1002 1938.92 L 95.2474 1871.03 z" fill="rgb(22,40,26)" transform="translate(0,0)"/></svg>
