<svg xmlns="http://www.w3.org/2000/svg" viewBox="380.00 1778.73 194.77 194.77" style="color:#16281A"><mask id="mc27" maskUnits="userSpaceOnUse" x="380.00" y="1778.73" width="194.77" height="194.77"><rect x="380.00" y="1778.73" width="194.77" height="194.77" fill="black"/><path d="M 453.439 1830.98 L 504.541 1830.94 L 484.871 1892.31 L 477.916 1914.44 C 470.663 1898.75 457.383 1849.05 453.439 1830.98 z" fill="rgb(222,222,222)"/><path d="M 405.912 1830.15 C 420.604 1830.65 435.304 1830.88 450.005 1830.84 C 456.194 1855.43 464.113 1881.51 471.372 1905.92 C 472.634 1910.05 474.158 1913.74 473.898 1917.98 C 472.387 1914.95 469.66 1910.99 467.772 1908.06 C 464.63 1904.83 461.016 1899.44 458.236 1895.75 C 441.409 1873.41 422.958 1852.31 405.912 1830.15 z" fill="rgb(222,222,222)"/><path d="M 508.017 1830.95 C 516.049 1830.82 541.707 1830.06 548.841 1831.32 C 539.164 1845.14 525.402 1861.31 514.695 1874.72 C 504.437 1887.56 492.34 1903.82 481.485 1915.78 C 481.532 1908.25 504.241 1842.6 508.017 1830.95 z" fill="rgb(222,222,222)"/><path d="M 479.405 1921.97 C 486.041 1922.16 492.689 1922.08 499.34 1922.19 C 500.215 1933.68 500.017 1945.68 500.077 1957.24 C 484.73 1956.9 467.874 1957.27 452.746 1956.5 L 452.786 1922.44 C 457.874 1922.18 462.587 1922.16 467.682 1922.14 C 471.583 1922.12 475.51 1922.14 479.405 1921.97 z" fill="rgb(222,222,222)"/><path d="M 477.742 1798.77 C 486.314 1807.71 494.535 1818.02 502.528 1827.49 C 494.493 1827.79 486.787 1827.8 478.75 1827.82 C 470.466 1827.81 462.476 1827.92 454.164 1827.72 L 477.742 1798.77 z" fill="rgb(222,222,222)"/><path d="M 438.273 1795.48 C 440.991 1804.51 446.085 1818.89 449.516 1827.7 C 443.308 1827.87 412.672 1828.44 408.241 1826.67 C 418.401 1816.65 428.086 1805.62 438.273 1795.48 z" fill="rgb(222,222,222)"/><path d="M 519.68 1796 C 528.578 1804.76 540.116 1818.1 548.866 1827.62 C 538.967 1828.19 517.851 1826.89 509.678 1827.76 C 509.898 1823.22 517.73 1801.23 519.68 1796 z" fill="rgb(222,222,222)"/><path d="M 480.037 1795.05 C 483.408 1795.17 486.501 1795.38 489.87 1795.13 C 497.424 1796.15 508.837 1795.68 516.823 1795.73 C 513.006 1805.74 510.313 1815.71 506.143 1825.82 C 499.791 1819.2 484.991 1802.17 480.037 1795.05 z" fill="rgb(222,222,222)"/><path d="M 476.443 1794.96 C 471.868 1802.26 457.917 1817.29 451.378 1824.38 C 447.802 1815.02 444.75 1804.55 441.184 1795.61 C 454.442 1795.66 463.094 1795.97 476.443 1794.96 z" fill="rgb(222,222,222)"/></mask><rect x="380.00" y="1778.73" width="194.77" height="194.77" fill="currentColor" mask="url(#mc27)"/></svg>
