<svg xmlns="http://www.w3.org/2000/svg" viewBox="695.40 1772.94 208.98 208.98" style="color:#16281A"><mask id="mc28" maskUnits="userSpaceOnUse" x="695.40" y="1772.94" width="208.98" height="208.98"><rect x="695.40" y="1772.94" width="208.98" height="208.98" fill="black"/><path d="M 731.608 1823.94 C 731.822 1816.87 731.933 1813.71 737.688 1808.37 C 755.436 1793.06 785.452 1790.36 808.052 1790.96 C 826.893 1791.47 854.641 1796.12 868.523 1810.15 C 873.131 1814.81 872.998 1818.79 871.45 1824.66 C 863.051 1834.74 852.3 1840.27 839.713 1843.4 C 805.122 1851.99 757.776 1851.05 731.608 1823.94 z" fill="rgb(222,222,222)"/><path d="M 727.861 1883.89 C 755.939 1915.66 847.734 1918.71 871.299 1883.96 C 871.835 1892.85 872.795 1901.12 869.955 1909.66 C 857.346 1925.64 839.133 1931.02 819.414 1933.22 C 788.214 1936.7 756.365 1933.66 731.008 1913.66 C 726.07 1907.35 727.701 1892.31 727.861 1883.89 z" fill="rgb(222,222,222)"/><path d="M 729.045 1854.84 C 752.886 1886.6 834.129 1886.54 864.156 1864.05 C 866.29 1862.45 869.264 1859.76 871.224 1857.93 C 871.916 1866.42 871.661 1871.6 871.261 1880.01 C 846.336 1914.67 754.274 1914.22 729.52 1881.07 C 728.578 1874.53 729.008 1861.87 729.045 1854.84 z" fill="rgb(222,222,222)"/><path d="M 730.87 1827.23 C 758.319 1857.76 828.502 1856.86 862.166 1837.11 C 865.118 1835.38 869.575 1829.72 872.36 1829.84 L 873.038 1830.72 C 872.82 1838.93 873.709 1848.66 869.791 1855.64 L 869.13 1856.29 C 839.217 1885.39 760.892 1884.01 731.82 1853.51 C 730.89 1848.84 731.048 1833.08 730.87 1827.23 z" fill="rgb(222,222,222)"/><path d="M 730.109 1917.13 C 731.068 1917.43 731.134 1917.34 731.878 1917.98 C 762.936 1944.79 844.605 1945.48 871.086 1912.37 C 871.32 1920.03 871.674 1926.53 870.835 1934.2 C 845.967 1964.51 768.44 1964.26 737.364 1942.04 C 728.655 1935.81 729.991 1926.41 730.109 1917.13 z" fill="rgb(222,222,222)"/></mask><rect x="695.40" y="1772.94" width="208.98" height="208.98" fill="currentColor" mask="url(#mc28)"/></svg>
