<svg xmlns="http://www.w3.org/2000/svg" viewBox="1014.23 1781.35 183.13 183.13" style="color:#16281A"><mask id="mc29" maskUnits="userSpaceOnUse" x="1014.23" y="1781.35" width="183.13" height="183.13"><rect x="1014.23" y="1781.35" width="183.13" height="183.13" fill="black"/><path d="M 1130.46 1798.14 C 1134.88 1797.96 1139.1 1799.29 1143.67 1798.9 C 1170.34 1796.61 1170.78 1810.36 1172.8 1831.3 C 1175.66 1860.87 1160.82 1876.06 1132.35 1863.6 C 1130.75 1866.53 1129.75 1869.21 1127.03 1870.96 C 1123.92 1870.01 1123.5 1868.43 1121.15 1865.5 C 1112.84 1876.09 1095.67 1893.47 1085.9 1904.52 C 1089.91 1907.78 1093.98 1910.97 1098.11 1914.08 C 1095.97 1916.92 1093.34 1919.55 1090.9 1922.15 C 1086.92 1918.51 1086.33 1916.8 1081 1917.57 L 1080 1919.61 C 1081.04 1923.88 1081.98 1923.84 1085.19 1927.33 C 1084.09 1929.78 1080.32 1933.45 1078.32 1935.65 L 1072.74 1930.46 C 1069.85 1929.59 1069.98 1929.68 1067.23 1930.44 L 1066.42 1932.49 C 1067.33 1936.71 1068.3 1938.02 1070.36 1941.74 L 1065.24 1949.22 C 1054.32 1933.46 1049.47 1946.34 1042.83 1929.12 C 1047.59 1921.44 1052.71 1917.11 1061.13 1907.5 C 1074.94 1891.75 1095.78 1871.42 1109.15 1854.64 C 1110.15 1853.38 1108.27 1849.65 1113.82 1842.75 C 1103.55 1823.94 1108.4 1804.62 1130.46 1798.14 z" fill="rgb(222,222,222)"/><path d="M 1149.16 1808.95 C 1166.18 1808.81 1167.21 1826.03 1156.39 1834.3 C 1144.91 1833.61 1141.21 1830.58 1142.22 1817.48 C 1142.56 1813.04 1145.82 1811.3 1149.16 1808.95 z" fill="rgb(0,0,0)"/><path d="M 1063.47 1888.66 C 1064.89 1889.71 1067.42 1891.76 1067.71 1893.57 C 1066.75 1895.44 1043.3 1920.44 1039.86 1924.39 C 1039.45 1924.45 1038.81 1924.6 1038.41 1924.48 C 1038.25 1924.41 1038.1 1924.34 1037.94 1924.28 C 1037.63 1924.14 1037.32 1924.01 1037.01 1923.88 C 1036.25 1923.93 1035.94 1920 1035.93 1920.02 C 1042.23 1909.1 1054.92 1898.27 1063.47 1888.66 z" fill="rgb(222,222,222)"/></mask><rect x="1014.23" y="1781.35" width="183.13" height="183.13" fill="currentColor" mask="url(#mc29)"/></svg>
