<svg xmlns="http://www.w3.org/2000/svg" viewBox="1313.62 1759.11 219.25 219.25"><path d="M 1367.31 1779.09 C 1380.49 1778.8 1476.86 1777.38 1481.33 1780.7 C 1483.61 1782.39 1484.92 1785.24 1485.1 1788.04 C 1485.22 1790.03 1484.65 1791.93 1483.31 1793.4 C 1479.66 1797.37 1472.61 1796.49 1467.66 1796.6 C 1466.64 1810.56 1467.26 1826.96 1467.52 1841.13 C 1457.87 1849.75 1447.12 1859.81 1436.82 1867.36 C 1446.82 1876.31 1457.78 1885.73 1467 1895.37 L 1467 1940.85 C 1473.12 1940.74 1478.3 1940.04 1482.83 1944.89 C 1487.48 1949.85 1482.92 1955.04 1478.97 1958.07 C 1465.1 1958.66 1374.63 1960.09 1367.54 1957.15 C 1364.5 1955.89 1363.59 1954.35 1362.34 1951.47 C 1363.29 1940.31 1373.23 1940.26 1381.65 1940.24 L 1381.03 1895.36 C 1391.02 1884.52 1398.65 1877.45 1409.92 1868.09 C 1401.52 1859.46 1386.93 1849.35 1380.92 1839.49 L 1380.93 1796.31 C 1374.77 1796.5 1368.45 1797.32 1363.69 1792.69 C 1359.02 1788.14 1363.52 1782.1 1367.31 1779.09 z" fill="rgb(22,40,26)" transform="translate(0,0)"/><path d="M 1385.66 1796.27 C 1409.68 1795.59 1438.94 1796.12 1462.98 1796.46 C 1462.63 1810.53 1462.86 1825.08 1462.66 1839.27 C 1452.34 1847.69 1438.86 1859.24 1429.82 1868.89 C 1439.79 1875.9 1453.95 1889.52 1462.76 1898.24 C 1462.41 1912.06 1462.81 1926.6 1462.98 1940.47 C 1439.83 1941.39 1408.85 1940.78 1385.58 1940.51 C 1384.77 1926.46 1385.02 1911.8 1385.11 1897.69 C 1395.59 1886.59 1407.18 1877.34 1416.84 1866.9 C 1405.42 1857.55 1395.98 1849.13 1385.84 1838.36 L 1385.66 1796.27 z" fill="rgb(255,255,255)" transform="translate(0,0)"/><path d="M 1391.17 1811.13 C 1412.71 1811.05 1435.13 1810.81 1456.61 1811.18 C 1455.14 1834.64 1451.73 1842.56 1432.25 1857.56 C 1429.78 1859.46 1427.15 1860.33 1424.88 1862.49 L 1423.45 1862.05 C 1413.14 1857.45 1397.58 1843.99 1393.67 1833.1 C 1390.9 1825.38 1391.16 1819.09 1391.17 1811.13 z" fill="rgb(22,40,26)" transform="translate(0,0)"/><path d="M 1425.01 1866.84 C 1426.33 1875.5 1425.23 1893.44 1426.72 1898.16 L 1427.24 1898.21 C 1446.06 1899.81 1454.49 1917.06 1457.67 1933.3 C 1435.22 1933.19 1412.11 1933.44 1389.76 1933.09 C 1392.39 1916.8 1403.53 1897.72 1422.11 1898.32 C 1423.53 1893.57 1422.94 1875.41 1422.97 1869.4 L 1425.01 1866.84 z" fill="rgb(22,40,26)" transform="translate(0,0)"/><path d="M 1423.45 1862.05 L 1424.88 1862.49 L 1425.01 1866.84 L 1422.97 1869.4 C 1423.18 1866.96 1423.34 1864.51 1423.45 1862.05 z" fill="rgb(85,87,87)" transform="translate(0,0)"/></svg>
