<svg xmlns="http://www.w3.org/2000/svg" viewBox="-13.93 1.44 236.53 236.53"><path d="M 70.9367 32.0613 C 93.159 42.7487 115.268 53.6705 137.259 64.8251 C 136.424 111.494 137.179 160.531 137.433 207.348 C 123.16 199.034 86.3792 181.617 71.0712 174.586 L 70.9367 32.0613 z" fill="rgb(22,40,26)" transform="translate(0,0)"/><path d="M 201.689 33.0661 C 202.893 34.2563 202.416 160.666 202.49 174.707 L 142.812 206.164 L 141.331 205.371 C 140.519 200.589 140.954 169.275 140.956 162.925 L 141.018 64.8978 C 153.425 56.7453 187.49 39.8728 201.689 33.0661 z" fill="rgb(22,40,26)" transform="translate(0,0)"/><path d="M 64.902 32.8695 L 66.1642 33.128 C 67.3603 35.4707 66.8608 163.338 66.8779 174.344 L 8.12591 205.101 L 7.29769 204.314 C 5.78169 198.831 6.2896 166.25 6.29545 158.616 L 6.17572 64.385 C 22.0843 54.7195 47.8228 42.0802 64.902 32.8695 z" fill="rgb(22,40,26)" transform="translate(0,0)"/></svg>
