<svg xmlns="http://www.w3.org/2000/svg" viewBox="326.86 -3.88 245.68 245.68"><path d="M 447.995 19.8015 C 454.165 19.9839 540.215 70.316 551.668 77.4452 C 519.542 97.8473 484.454 115.915 451.466 136.933 C 447.602 136.485 358.453 83.69 347.919 77.4481 C 381.088 57.9054 414.448 38.689 447.995 19.8015 z" fill="rgb(22,40,26)" transform="translate(0,0)"/><path d="M 520.737 140.15 C 531.361 146.904 540.725 152.299 551.755 158.407 L 521.98 175.881 C 511.664 181.498 499.616 189.05 489.285 194.969 C 479.554 200.543 458.651 211.186 450.993 218.125 C 438.786 212.104 421.161 201.385 409.209 194.501 L 347.333 158.917 C 358.498 153.111 366.871 147.771 377.426 140.919 C 380.769 140.987 441.883 176.91 450.56 181.912 L 520.737 140.15 z" fill="rgb(22,40,26)" transform="translate(0,0)"/><path d="M 377.955 100.119 C 381.967 102.038 385.796 104.302 389.62 106.568 C 409.653 118.435 430.293 129.311 450.131 141.503 C 474.057 128.603 496.048 113.305 521.301 100.767 C 531.494 105.924 542.103 112.297 552.069 118.05 C 541.777 123.872 531.607 129.909 521.567 136.156 C 501.134 146.085 470.664 165.175 450.414 176.961 C 418.988 160.89 378.737 135.66 347.876 117.45 C 357.252 112.868 368.931 105.534 377.955 100.119 z" fill="rgb(22,40,26)" transform="translate(0,0)"/></svg>
