<svg xmlns="http://www.w3.org/2000/svg" viewBox="660.82 -20.83 270.22 270.22" style="color:#16281A"><mask id="md03" maskUnits="userSpaceOnUse" x="660.82" y="-20.83" width="270.22" height="270.22"><rect x="660.82" y="-20.83" width="270.22" height="270.22" fill="black"/><path d="M 799.043 102.478 C 810.482 99.9503 816.454 98.8801 825.014 90.6867 C 828.041 100.405 831.222 110.074 834.555 119.691 L 835.667 123.433 C 846.304 155.229 857.885 187.435 868.903 219.171 L 799.316 219.046 L 799.288 217.741 C 799.174 210.674 798.245 151.247 800.027 149.875 C 802.015 148.346 804.162 149.402 806.491 147.008 C 806.789 143.234 807.321 144.778 805.448 142.053 C 803.169 141.848 801.354 141.973 799.548 140.667 C 798.373 133.324 798.979 110.581 799.043 102.478 z" fill="rgb(222,222,222)"/><path d="M 833.06 126.045 C 832.421 129.84 829.119 132.607 825.271 132.571 C 821.424 132.535 818.173 129.707 817.606 125.901 C 817.039 122.095 819.323 118.442 822.993 117.286 C 826.663 116.129 830.629 117.813 832.346 121.257 C 833.084 122.737 833.334 124.414 833.06 126.045 z" fill="rgb(0,0,0)"/><path d="M 834.555 119.691 L 835.667 123.433 L 833.06 126.045 C 833.334 124.414 833.084 122.737 832.346 121.257 L 834.555 119.691 z" fill="rgb(180,180,180)"/><path d="M 830.315 170.605 C 832.993 169.659 835.943 170.977 837.027 173.602 C 838.112 176.227 836.951 179.242 834.386 180.462 C 832.603 181.311 830.497 181.106 828.911 179.93 C 827.325 178.754 826.517 176.798 826.811 174.845 C 827.105 172.893 828.453 171.262 830.315 170.605 z" fill="rgb(0,0,0)"/><path d="M 766.151 92.0179 C 775.427 98.2795 780.015 99.6439 790.904 102.695 C 790.921 129.573 791.597 157.257 791.778 184.137 C 792.067 226.879 767.228 219.833 735.131 219.296 L 722.95 218.972 C 726.873 204.071 735.369 181.985 741.033 167.106 C 742.582 161.873 751.633 166.105 755.408 163.916 C 768.763 156.171 762.751 143.862 751.539 138.65 L 750.473 138.16 C 750.984 131.965 763.347 98.806 766.151 92.0179 z" fill="rgb(222,222,222)"/><path d="M 779.041 136.55 C 780.46 135.617 782.279 135.546 783.765 136.367 C 785.252 137.188 786.161 138.765 786.127 140.462 C 786.093 142.16 785.121 143.699 783.603 144.46 C 781.438 145.544 778.803 144.753 777.593 142.655 C 776.383 140.558 777.018 137.881 779.041 136.55 z" fill="rgb(0,0,0)"/><path d="M 770.765 164.523 C 771.984 163.768 773.519 163.743 774.762 164.458 C 776.006 165.173 776.756 166.512 776.717 167.946 C 776.677 169.38 775.855 170.676 774.574 171.322 C 772.71 172.262 770.436 171.567 769.415 169.746 C 768.394 167.924 768.989 165.622 770.765 164.523 z" fill="rgb(0,0,0)"/><path d="M 754.044 31.9796 C 755.268 29.8784 756.515 27.7908 757.785 25.7169 C 760.515 21.2721 765.184 13.0393 770.318 11.8242 C 774.917 18.1893 784.966 30.71 786.025 37.9828 L 784.893 41.7515 C 792.424 33.9347 800.337 34.1424 807.161 42.689 L 805.92 38.4757 C 807.184 31.3638 818.765 18.094 823.608 12.0442 C 829.648 16.551 834.414 24.3641 837.927 30.9778 C 834.264 33.6544 812.385 44.2123 807.929 43.6284 C 809.168 50.2021 809.342 51.7673 805.937 57.8795 C 794.927 69.1043 780.047 59.2261 784.024 42.6174 C 779.947 43.1595 758.957 34.2075 754.044 31.9796 z" fill="rgb(222,222,222)"/><path d="M 797.107 43.8452 C 804.264 48.4304 803.549 50.9404 796.957 56.3888 C 794.018 54.8923 787.868 52.2232 790.196 46.4989 C 790.843 44.9085 794.916 44.6439 797.107 43.8452 z" fill="rgb(0,0,0)"/><path d="M 806.718 59.2969 C 807.517 58.5091 810.443 54.6268 811.098 54.7765 C 819.358 56.6613 830.423 62.661 837.971 65.8968 C 837.357 71.3413 828.045 87.1011 822.34 86.7141 C 816.983 78.5562 811.367 70.4826 805.88 62.4432 C 805.336 61.6467 806.362 60.009 806.718 59.2969 z" fill="rgb(222,222,222)"/><path d="M 753.88 34.6339 C 758.292 37.9955 778.475 42.9252 780.64 47.6868 C 784.625 56.4512 761.036 58.3281 753.454 63.7582 C 749.724 56.5841 749.901 41.6265 753.88 34.6339 z" fill="rgb(222,222,222)"/><path d="M 769.562 88.3457 C 771.761 85.01 790.666 56.3316 794.459 66.0538 C 795.187 67.9194 794.814 93.3203 794.612 97.2526 C 783.617 96.7055 778.635 94.3261 769.562 88.3457 z" fill="rgb(222,222,222)"/><path d="M 838.907 64.2594 C 824.035 54.2408 791.195 52.6452 826.805 39.211 C 830.905 37.6643 834.703 34.9671 838.774 33.6775 C 841.05 43.804 842.534 54.2383 838.907 64.2594 z" fill="rgb(222,222,222)"/><path d="M 797.965 97.8359 C 797.223 95.8157 793.434 59.2191 802.872 64.3337 C 807.886 67.0505 816.897 82.3412 821.25 88.4084 C 816.984 93.0216 804.17 96.4892 797.965 97.8359 z" fill="rgb(222,222,222)"/><path d="M 781.846 55.5754 C 783.673 57.7133 785.417 59.9548 787.283 62.1438 C 780.436 70.4272 774.075 77.9026 767.72 86.6995 C 760.026 78.9961 758.383 74.8836 753.547 65.8885 C 762.706 62.9186 772.455 58.8089 781.846 55.5754 z" fill="rgb(222,222,222)"/><path d="M 796.739 2.69614 C 805.283 2.99148 814.439 4.43344 821.148 10.3023 C 820.502 11.2657 819.847 12.2232 819.184 13.1746 C 796.349 45.9034 798.585 40.0699 796.739 2.69614 z" fill="rgb(222,222,222)"/><path d="M 771.907 10.7471 C 776.224 5.02892 787.884 3.27452 794.523 1.69343 C 794.492 11.7252 796.508 22.1433 795.466 31.9587 C 795.413 32.4499 789.481 34.9269 788.528 33.571 C 783.071 25.8016 777.956 18.1642 771.907 10.7471 z" fill="rgb(222,222,222)"/></mask><rect x="660.82" y="-20.83" width="270.22" height="270.22" fill="currentColor" mask="url(#md03)"/></svg>
