<svg xmlns="http://www.w3.org/2000/svg" viewBox="1001.79 -22.78 273.38 273.38" style="color:#16281A"><mask id="md04" maskUnits="userSpaceOnUse" x="1001.79" y="-22.78" width="273.38" height="273.38"><rect x="1001.79" y="-22.78" width="273.38" height="273.38" fill="black"/><path d="M 1135.42 0 L 1140.16 0 C 1143.55 9.48791 1149.14 18.2211 1152.75 27.5944 C 1153.19 29.1935 1151.36 28.6739 1150.59 28.6423 C 1144.13 28.3773 1144.3 25.0159 1141.93 19.9012 C 1140.41 16.6166 1139.09 13.752 1137.65 10.6845 C 1136.01 14.1732 1131.23 26.9855 1128.6 28.4677 C 1115.29 35.9782 1133.19 4.60236 1135.42 0 z" fill="rgb(222,222,222)"/><path d="M 1128.12 34.2646 C 1180.14 28.5423 1226.93 66.1517 1232.52 118.191 C 1238.11 170.229 1200.38 216.918 1148.33 222.376 C 1096.46 227.815 1049.98 190.251 1044.41 138.399 C 1038.84 86.5462 1076.28 39.9664 1128.12 34.2646 z" fill="rgb(222,222,222)"/><path d="M 1129.42 63.5889 C 1165.04 58.5616 1198.03 83.2628 1203.24 118.861 C 1208.45 154.458 1183.91 187.572 1148.34 192.957 C 1112.52 198.38 1079.11 173.631 1073.87 137.78 C 1068.63 101.929 1093.54 68.6519 1129.42 63.5889 z" fill="rgb(0,0,0)"/><path d="M 1176.04 85.074 L 1176.53 85.5995 C 1176.31 90.8373 1156.52 134.838 1152.98 142.626 C 1135.01 151.657 1116.75 160.099 1098.23 167.938 L 1097.26 166.5 C 1098.48 162.44 1106.88 147.829 1109.58 142.805 C 1115.05 132.54 1120.29 122.153 1125.3 111.652 C 1136.67 104.909 1164.13 90.6505 1176.04 85.074 z" fill="rgb(222,222,222)"/><path d="M 1134.74 124.537 C 1137.99 126.525 1145.03 136.118 1147.5 139.365 C 1137 144.843 1126.53 149.41 1115.61 155.255 C 1111.99 157.033 1108.75 158.39 1105.11 160.047 L 1134.74 124.537 z" fill="rgb(0,0,0)"/><path d="M 1134.6 204.942 C 1143.01 205.182 1147.25 206.253 1141.57 215.095 C 1133.06 214.795 1128.93 213.565 1134.6 204.942 z" fill="rgb(0,0,0)"/><path d="M 1213.7 122.654 C 1222.69 122.885 1223.29 127.258 1219.09 135.251 C 1217.7 134.873 1215.18 134.355 1213.99 133.716 C 1212.78 133.08 1211.89 131.972 1211.52 130.655 C 1210.59 127.368 1212.08 125.398 1213.7 122.654 z" fill="rgb(0,0,0)"/><path d="M 1136.73 40.434 C 1142.03 42.3431 1147.28 46.2548 1141.77 51.4589 C 1132.84 50.5359 1128.74 48.8018 1136.73 40.434 z" fill="rgb(0,0,0)"/><path d="M 1059.14 121.426 L 1061.06 122.4 C 1067.53 125.705 1066.67 128.895 1063.22 134.164 C 1054.05 132.288 1054.85 128.949 1059.14 121.426 z" fill="rgb(0,0,0)"/></mask><rect x="1001.79" y="-22.78" width="273.38" height="273.38" fill="currentColor" mask="url(#md04)"/></svg>
