<svg xmlns="http://www.w3.org/2000/svg" viewBox="1361.64 -19.66 259.32 259.32" style="color:#16281A"><mask id="md05" maskUnits="userSpaceOnUse" x="1361.64" y="-19.66" width="259.32" height="259.32"><rect x="1361.64" y="-19.66" width="259.32" height="259.32" fill="black"/><path d="M 1584.74 1.95742 C 1585.77 2.15872 1585.14 1.94603 1586.42 3.01167 C 1585.29 10.2797 1582.67 15.7449 1580.96 22.5741 C 1577.43 36.605 1573.77 50.5864 1570.13 64.5879 L 1535.57 199.716 C 1524.03 179.32 1512.84 159.98 1502.48 138.892 C 1496.11 145.176 1485.96 157.967 1479.77 165.144 L 1433.78 218.048 C 1427.9 212.124 1421.03 206.046 1414.85 200.351 L 1399.35 186.137 C 1421.1 161.416 1442.39 136.289 1463.2 110.769 C 1440.69 101.481 1418.65 90.9543 1396.19 81.3018 C 1411.99 73.9264 1431.67 66.1537 1447.91 59.2202 L 1584.74 1.95742 z" fill="rgb(222,222,222)"/></mask><rect x="1361.64" y="-19.66" width="259.32" height="259.32" fill="currentColor" mask="url(#md05)"/></svg>
