<svg xmlns="http://www.w3.org/2000/svg" viewBox="-17.00 358.51 249.22 249.22" style="color:#16281A"><mask id="md06" maskUnits="userSpaceOnUse" x="-17.00" y="358.51" width="249.22" height="249.22"><rect x="-17.00" y="358.51" width="249.22" height="249.22" fill="black"/><path d="M 103.547 379.361 C 106.396 379.499 108.331 379.28 110.737 380.757 C 111.754 387.667 111.169 405.6 111.087 413.451 C 147.895 416.346 170.679 444.091 173.613 479.755 L 178.593 479.612 C 186.146 479.41 198.592 478.233 204.175 483.525 C 199.012 489.394 180.971 487.914 173.445 487.775 C 171.707 525.128 147.244 546.944 111.969 553.129 C 111.957 563.509 112.267 576.887 111.441 586.966 C 108.822 586.71 107.616 586.832 105.414 585.366 C 102.57 579.59 103.866 561.423 103.838 553.636 C 66.1504 546.271 46.016 525.847 40.7428 487.556 C 34.933 487.679 13.3581 489.338 11.0431 483.351 C 15.8604 478.371 34.4929 479.615 41.351 479.688 C 43.789 440.697 66.6233 420.3 103.348 412.594 C 103.825 402.238 103.535 389.866 103.547 379.361 z" fill="rgb(222,222,222)"/><path d="M 80.7962 481.461 C 83.0138 473.197 84.0332 466.372 92.0034 461.17 C 95.4414 458.926 100.885 456.117 105.109 456.837 C 105.661 461.611 105.89 465.303 106.122 470.087 C 98.0128 473.222 93.1707 479.68 96.5933 488.629 C 98.809 494.423 101.86 494.002 106.371 496.704 C 106.127 501.325 105.928 505.948 105.773 510.574 C 103.523 509.996 101.266 509.447 99.003 508.927 C 87.963 506.33 83.7924 496.674 80.969 486.909 C 87.2179 484.823 89.4009 482.713 80.7962 481.461 z" fill="rgb(0,0,0)"/><path d="M 110.099 455.896 C 123.769 459.068 131.231 466.873 133.562 480.633 C 132.052 480.828 129.525 480.701 128.53 482.111 C 128.146 482.661 128.051 483.362 128.275 483.994 C 128.982 486.026 132.034 486.007 133.801 486.331 C 131.443 496.557 122.849 509.835 112.349 510.078 C 109.469 510.145 105.259 496.76 114.634 493.39 C 121.906 490.776 122.35 471.898 108.423 470.899 C 109.201 465.762 109.432 461.037 110.099 455.896 z" fill="rgb(0,0,0)"/></mask><rect x="-17.00" y="358.51" width="249.22" height="249.22" fill="currentColor" mask="url(#md06)"/></svg>
