<svg xmlns="http://www.w3.org/2000/svg" viewBox="322.53 364.14 250.06 250.06" style="color:#16281A"><mask id="md07" maskUnits="userSpaceOnUse" x="322.53" y="364.14" width="250.06" height="250.06"><rect x="322.53" y="364.14" width="250.06" height="250.06" fill="black"/><path d="M 509.362 389.119 C 530.237 387.285 551.751 401.365 545.619 424.421 C 539.838 446.161 524.832 467.9 516.778 489.805 C 507.204 489.927 489.284 492.313 479.279 493.323 C 460.091 495.076 440.916 496.975 421.757 499.021 C 418.076 499.267 413.798 499.708 412.552 495.558 C 418.794 491.319 499.225 485.659 513.424 483.939 C 510.504 477.424 507.534 470.214 504.311 463.907 C 491.895 439.613 468.75 402.86 509.362 389.119 z" fill="rgb(222,222,222)"/><path d="M 513.261 398.771 C 524.913 397.26 535.622 405.376 537.318 417.002 C 539.013 428.629 531.068 439.465 519.469 441.344 C 511.802 442.587 504.06 439.599 499.214 433.529 C 494.368 427.458 493.171 419.247 496.081 412.045 C 498.992 404.844 505.558 399.77 513.261 398.771 z" fill="rgb(0,0,0)"/><path d="M 512.509 404.645 C 520.938 402.716 529.334 407.988 531.258 416.418 C 533.182 424.848 527.906 433.241 519.475 435.16 C 511.05 437.078 502.665 431.807 500.742 423.383 C 498.82 414.96 504.087 406.572 512.509 404.645 z" fill="rgb(222,222,222)"/><path d="M 386.418 491.261 C 398.86 490.785 411.778 494.698 416.945 507.244 C 424.456 525.483 414.983 540.411 407.149 556.522 C 401.867 567.383 396.072 578.447 391.425 589.712 L 390.031 591.068 C 387.356 588.467 380.358 570.996 377.557 566.14 C 363.378 541.56 343.364 501.258 386.418 491.261 z" fill="rgb(222,222,222)"/><path d="M 387.177 500.961 C 399.045 499.578 409.8 508.045 411.241 519.906 C 412.683 531.767 404.27 542.563 392.416 544.064 C 380.479 545.575 369.59 537.089 368.138 525.145 C 366.687 513.2 375.226 502.354 387.177 500.961 z" fill="rgb(0,0,0)"/><path d="M 385.423 507.635 C 393.605 505.094 402.31 509.604 404.953 517.754 C 407.596 525.905 403.194 534.665 395.077 537.409 C 389.736 539.214 383.837 538.007 379.634 534.25 C 375.431 530.492 373.574 524.764 374.772 519.256 C 375.97 513.747 380.039 509.308 385.423 507.635 z" fill="rgb(222,222,222)"/></mask><rect x="322.53" y="364.14" width="250.06" height="250.06" fill="currentColor" mask="url(#md07)"/></svg>
