<svg xmlns="http://www.w3.org/2000/svg" viewBox="664.76 343.67 281.64 281.64" style="color:#16281A"><mask id="md08" maskUnits="userSpaceOnUse" x="664.76" y="343.67" width="281.64" height="281.64"><rect x="664.76" y="343.67" width="281.64" height="281.64" fill="black"/><path d="M 761.696 388.009 L 869.099 388.023 C 861.006 398.996 852.172 410.202 843.865 421.078 L 858.759 439.486 L 869.283 453.07 L 761.498 452.747 C 762.081 431.543 761.744 409.305 761.696 388.009 z" fill="rgb(222,222,222)"/><path d="M 747.281 367.797 C 750.737 367.735 755.076 367.143 757.834 368.869 C 759.417 380.09 758.619 422.532 758.659 436.568 L 758.885 584.045 C 754.803 584.118 752.615 584.317 748.567 583.32 C 746.238 579.611 747.348 387.669 747.281 367.797 z" fill="rgb(222,222,222)"/><path d="M 741.963 587.049 C 749.316 586.927 756.669 586.852 764.023 586.823 C 764.074 591.829 764.079 596.834 764.038 601.84 L 741.868 601.825 C 741.869 596.9 741.901 591.974 741.963 587.049 z" fill="rgb(222,222,222)"/></mask><rect x="664.76" y="343.67" width="281.64" height="281.64" fill="currentColor" mask="url(#md08)"/></svg>
