<svg xmlns="http://www.w3.org/2000/svg" viewBox="1017.09 378.43 243.54 243.54" style="color:#16281A"><mask id="md09" maskUnits="userSpaceOnUse" x="1017.09" y="378.43" width="243.54" height="243.54"><rect x="1017.09" y="378.43" width="243.54" height="243.54" fill="black"/><path d="M 1112.43 417.768 C 1128.07 447.714 1139.36 488.595 1155.82 520.034 L 1113.5 520.032 L 1068.84 519.919 C 1083.72 486.056 1097.37 451.607 1112.43 417.768 z" fill="rgb(222,222,222)"/><path d="M 1037.79 577.409 C 1056.06 577.005 1233.87 576.466 1239.83 578.926 L 1240.33 580.519 L 1238.8 581.593 C 1219.77 580.868 1041.15 582.625 1037.38 580.382 L 1037.79 577.409 z" fill="rgb(222,222,222)"/><path d="M 1044.69 565.279 C 1063.9 564.784 1228.65 563.587 1232.44 566.227 L 1232.74 569.113 C 1171.72 568.372 1110.11 569.428 1049.06 569.283 C 1047.07 569.278 1046.05 569.173 1044.5 567.936 L 1044.69 565.279 z" fill="rgb(222,222,222)"/><path d="M 1050.78 553.026 C 1083.08 551.402 1122.88 553.881 1155.97 552.828 C 1166.29 552.5 1216.01 552.348 1223.68 553.589 C 1225.71 555.329 1225.16 554.255 1225.4 556.905 L 1102.55 556.802 C 1095.88 556.819 1054.09 557.601 1050.33 556.361 L 1050.78 553.026 z" fill="rgb(222,222,222)"/><path d="M 1096.96 527.5 L 1118.44 527.335 C 1130.17 527.29 1205.73 525.824 1209.46 529.527 C 1205.04 533.641 1183.29 531.795 1176.04 531.687 L 1099.05 531.695 C 1091.12 531.715 1070.66 532.407 1064.08 531.797 L 1063.17 530.655 L 1064.67 528.405 C 1070.71 526.878 1089.76 527.469 1096.96 527.5 z" fill="rgb(222,222,222)"/><path d="M 1057.75 540.194 C 1075.22 539.802 1212.97 538.944 1215.54 540.757 C 1216.82 541.651 1216.47 542.452 1216.63 543.898 L 1108.01 543.934 C 1101.22 543.931 1060.64 544.896 1057.49 542.958 L 1057.75 540.194 z" fill="rgb(222,222,222)"/><path d="M 1177.49 516.723 C 1182.77 514.2 1190.54 509.942 1195.92 507.073 C 1198.68 511.547 1200.95 515.605 1203.51 520.177 C 1196.08 520.165 1183.54 519.68 1176.65 520.682 C 1176.15 520.59 1172.47 520.285 1172.46 519.47 C 1173.21 518.462 1176.25 517.297 1177.49 516.723 z" fill="rgb(222,222,222)"/></mask><rect x="1017.09" y="378.43" width="243.54" height="243.54" fill="currentColor" mask="url(#md09)"/></svg>
