<svg xmlns="http://www.w3.org/2000/svg" viewBox="1369.64 377.61 228.93 228.93"><path d="M 1477.27 440.081 C 1505.59 436.467 1531.49 456.504 1535.1 484.831 C 1538.71 513.159 1518.67 539.048 1490.34 542.653 C 1462.02 546.257 1436.13 526.222 1432.53 497.9 C 1428.92 469.579 1448.95 443.694 1477.27 440.081 z" fill="rgb(22,40,26)" transform="translate(0,0)"/><path d="M 1549.08 483.993 C 1552.52 484.89 1575.18 489.8 1576.11 491.498 C 1575.48 492.531 1569.26 494.142 1567.72 494.64 C 1563.19 495.583 1553.5 498.409 1548.58 499.785 C 1548.87 494.377 1548.93 489.38 1549.08 483.993 z" fill="rgb(22,40,26)" transform="translate(0,0)"/><path d="M 1444.82 545.787 C 1449.39 548.547 1452.98 550.699 1457.62 553.377 L 1458.48 553.879 L 1444.42 567.98 C 1442 570.567 1439.63 573.207 1437.33 575.896 C 1439.57 564.943 1442.11 556.514 1444.82 545.787 z" fill="rgb(22,40,26)" transform="translate(0,0)"/><path d="M 1559.79 444.168 C 1560.71 444.138 1561.76 443.936 1562.5 444.499 C 1561.13 446.526 1544.1 464.293 1542.9 464.411 C 1540.37 459.736 1538.44 455.528 1536.3 450.709 C 1544.85 448.651 1551.57 446.347 1559.79 444.168 z" fill="rgb(22,40,26)" transform="translate(0,0)"/><path d="M 1528.76 408.845 C 1529.08 412.161 1523.89 432.093 1522.79 437.182 C 1519.73 435.494 1516.79 433.708 1513.8 431.904 C 1512.87 431.349 1510.13 430.199 1509.93 428.912 C 1509.84 428.331 1526.62 411.045 1528.76 408.845 z" fill="rgb(22,40,26)" transform="translate(0,0)"/><path d="M 1438 409.56 C 1440.67 411.36 1445.45 415.983 1447.3 418.547 C 1454.57 428.586 1460.97 426.384 1450.49 433.502 C 1449.15 434.321 1447.85 435.192 1446.58 436.115 C 1445.82 436.656 1445.06 437.198 1444.3 437.739 L 1438 409.56 z" fill="rgb(22,40,26)" transform="translate(0,0)"/><path d="M 1475.39 558.571 L 1490.62 558.252 C 1488.89 565.62 1486.19 574.884 1485.47 582.251 C 1483.13 587.465 1482.82 582.352 1481.24 578.885 C 1479.6 572.342 1477.28 565.12 1475.39 558.571 z" fill="rgb(22,40,26)" transform="translate(0,0)"/><path d="M 1415.74 484.079 C 1419.78 484.712 1418.13 494.817 1418.19 499.048 C 1412.83 497.373 1405.59 495.573 1400.06 494.433 C 1398.88 494.07 1392.53 492.273 1392.1 491.475 C 1392.31 491.305 1413.56 484.721 1415.74 484.079 z" fill="rgb(22,40,26)" transform="translate(0,0)"/><path d="M 1423.98 520.86 C 1425.94 522.188 1429.22 528.18 1431.79 531.487 L 1432.24 532.072 C 1425.13 534.113 1418.05 536.171 1410.83 537.817 C 1409.61 538.069 1405.7 539.448 1404.92 538.351 C 1405.45 535.884 1421.26 522.937 1423.98 520.86 z" fill="rgb(22,40,26)" transform="translate(0,0)"/><path d="M 1403.32 443.764 C 1407.82 444.282 1426.28 449.75 1431.94 451.293 C 1430.34 453.501 1428.56 455.753 1427.18 458.08 C 1426.61 459.001 1424.44 463.184 1423.44 463.365 C 1423.27 463.27 1404.54 445.067 1403.32 443.764 z" fill="rgb(22,40,26)" transform="translate(0,0)"/><path d="M 1509.47 555.004 L 1521.92 545.916 C 1523.36 550.971 1524.51 555.109 1525.7 560.25 C 1526.85 565.2 1528.23 570.081 1529.52 574.993 C 1525.62 571.199 1522.03 567.414 1518.2 563.606 C 1515.22 560.807 1512.31 557.939 1509.47 555.004 z" fill="rgb(22,40,26)" transform="translate(0,0)"/><path d="M 1542.55 519.391 C 1544.72 520.591 1562.44 537.431 1561.9 538.754 C 1560.8 539.253 1559.99 538.798 1558.73 538.476 C 1551.24 536.182 1543.68 534.103 1536.06 532.242 C 1538.53 527.808 1540.38 523.994 1542.55 519.391 z" fill="rgb(22,40,26)" transform="translate(0,0)"/><path d="M 1483.22 396.687 C 1485.81 403.507 1486.8 410.263 1488.29 417.363 C 1490.12 426.114 1489.45 424.561 1482.03 425.567 C 1481.63 425.485 1476.34 424.821 1476.61 423.598 C 1478.53 415.013 1480.38 405.021 1483.22 396.687 z" fill="rgb(22,40,26)" transform="translate(0,0)"/></svg>
