<svg xmlns="http://www.w3.org/2000/svg" viewBox="-21.81 694.25 261.72 261.72"><path d="M 59.667 772.555 C 75.3647 727.867 123.221 727.441 143.854 768.66 C 167.317 767.001 165.102 774.018 174.498 789.382 C 175.308 790.706 187.251 791.223 189.149 792.103 C 213.066 802.762 218.103 832.776 200.034 851.375 C 196.73 854.775 192.418 857.822 187.737 858.81 C 171.965 861.213 154.306 860.366 138.382 860.356 L 55.0943 860.249 C 22.4383 860.075 9.45838 855.968 0 822.869 L 0 810.542 C 7.89475 781.608 29.0217 764.451 59.667 772.555 z" fill="rgb(22,40,26)" transform="translate(0,0)"/><path d="M 177.548 878.457 C 187.341 880.869 182.291 886.13 177.683 893.386 C 171.655 902.88 166.166 912.97 160.117 922.325 C 152.132 919.99 154.769 916.715 158.546 910.256 C 164.76 899.626 170.9 888.81 177.548 878.457 z" fill="rgb(22,40,26)" transform="translate(0,0)"/><path d="M 142.111 878.516 C 143.25 878.851 148.321 880.901 147.382 882.604 C 141.269 893.697 131.275 912.865 123.593 922.285 C 122.728 921.89 118.378 919.972 119.093 918.408 C 124.76 906.007 134.232 889.655 142.111 878.516 z" fill="rgb(22,40,26)" transform="translate(0,0)"/><path d="M 69.7321 878.34 C 76.0054 881.309 75.0602 882.756 71.5013 888.745 C 64.8482 899.94 58.1363 911.692 51.3841 922.773 C 50.2141 922.258 46.5534 920.559 47.026 918.981 C 50.6091 907.025 63.2786 888.725 69.7321 878.34 z" fill="rgb(22,40,26)" transform="translate(0,0)"/><path d="M 106.482 878.448 C 107.283 878.749 110.984 880.247 110.296 881.561 C 105.079 891.518 94.2815 914.877 87.4685 922.577 C 86.5326 921.948 82.5842 919.766 83.1147 918.44 C 87.8335 906.638 98.9917 888.081 106.482 878.448 z" fill="rgb(22,40,26)" transform="translate(0,0)"/></svg>
