<svg xmlns="http://www.w3.org/2000/svg" viewBox="335.17 729.51 231.48 231.48"><path d="M 448.57 748.954 C 451.337 749.074 453.351 748.8 455.525 750.39 C 456.56 757.634 456.033 776.72 455.995 784.886 C 461.044 779.283 473.153 763.599 478.983 762.422 C 481.352 763.493 481.314 764.011 482.576 766.304 C 481.193 772.146 461.286 793.741 456.097 799.712 C 456.038 812.796 456.228 826.027 456.315 839.123 C 467.547 831.794 478.869 824.604 490.278 817.552 C 492.841 809.394 499.743 785.049 504.121 779.531 C 507.822 780.333 506.194 779.549 509.131 782.096 C 511.306 788.685 504.97 802.095 502.37 809.986 C 508.715 806.086 524.951 795.621 531.027 793.478 C 533.334 794.573 534.909 797.936 536.336 800.265 L 506.026 818.598 C 513.832 820.643 529.962 821.935 534.087 828.532 C 534.158 832.274 534.687 830.718 533.133 833.573 C 525.545 834.902 504.801 828.645 494.106 827.3 C 483.189 832.953 472.439 840.104 462.047 846.762 C 472.86 853.856 483.087 859.961 494.251 866.516 C 505.124 865.454 524.233 860.235 532.316 860.138 C 534.019 862.087 534.158 864.032 534.743 866.593 C 530.738 870.686 513.009 872.94 506.656 874.085 C 515.534 880.286 526.797 886.269 536.357 892.561 L 531.734 900.682 L 502.512 882.535 C 505.125 891.525 512.406 903.425 510.903 911.409 C 508.34 914.045 509.573 913.266 505.492 913.906 C 501.832 911.023 493.245 883.637 491.111 877.367 C 480.289 869.908 467.673 862.243 456.492 855.122 C 455.94 867.954 456.047 881.745 455.93 894.66 C 464.467 902.138 476.844 916.961 484.707 925.949 C 482.298 928.356 481.646 929.554 478.488 930.017 C 470.908 927.232 462.17 914.181 456.187 907.09 C 456.152 918.508 456.251 930.181 455.727 941.563 C 452.698 941.437 449.271 941.698 447.341 939.898 C 446.249 931.79 446.823 915.137 446.912 906.287 C 441.699 912.853 430.262 928.736 422.353 930.272 L 421.281 929.08 C 421.802 919.246 439.341 901.249 446.645 894.542 L 446.869 855.518 L 413.462 875.764 C 410.871 882.564 401.912 911.517 397.735 913.91 C 394.173 913.594 395.488 914.351 393.34 912.236 C 391.686 904.939 397.877 890.283 400.478 882.663 C 390.987 887.906 381.106 895.809 370.792 898.93 L 368.505 897.446 C 365.451 888.996 389.245 878.4 395.931 874.586 C 387.265 872.3 374.67 871.45 368.674 866.886 C 367.597 863.542 368.475 863.009 369.634 859.162 C 380.862 860.955 395.62 865.002 407.727 867.331 C 419.77 859.758 429.245 854.026 441.877 847.488 C 430.48 840.471 419.003 833.584 407.449 826.828 C 397.053 829.44 383.761 833.349 373.126 834.271 C 370.856 834.467 371.157 834.047 369.554 832.41 C 368.693 828.528 368.426 830.276 370.013 826.942 C 375.913 822.034 389.553 821.014 397.558 819.796 C 389.17 815.473 370.55 805.654 366.878 797.267 L 368.15 795.349 C 377.6 795.331 391.325 805.478 399.516 810.74 C 398.303 806.781 391.95 783.471 393.061 780.731 C 396.571 779.687 396.722 779.673 400.342 779.927 C 402.436 783.504 410.089 810.802 413.232 819.136 C 425.394 824.925 435.475 831.231 446.94 838.263 L 446.965 798.682 C 437.044 788.679 428.833 776.987 417.827 766.372 L 425.07 760.845 L 447.03 782.806 C 446.971 776.003 445.883 753.162 448.57 748.954 z" fill="rgb(22,40,26)" transform="translate(0,0)"/></svg>
