<svg xmlns="http://www.w3.org/2000/svg" viewBox="689.30 737.22 219.66 219.66" style="color:#16281A"><mask id="md13" maskUnits="userSpaceOnUse" x="689.30" y="737.22" width="219.66" height="219.66"><rect x="689.30" y="737.22" width="219.66" height="219.66" fill="black"/><path d="M 709.656 839.43 L 844.278 839.509 C 850.632 839.519 884.86 838.848 889 840.012 C 890.657 842.813 890.126 841.962 889.662 845.965 C 869.654 845.94 713.495 846.667 708.588 844.119 C 707.927 841.051 707.797 842.594 709.656 839.43 z" fill="rgb(222,222,222)"/><path d="M 810.514 775.266 C 822.427 776.656 832.283 783.584 834.604 796.002 C 835.965 803.172 834.239 810.583 829.85 816.413 C 817.409 832.892 795.431 824.619 808.504 819.05 C 813.431 816.951 815.005 822.106 824.487 812.144 C 827.985 805.486 828.689 799.481 825.453 792.56 C 817.955 776.527 796.349 781.029 793.362 797.589 C 793.34 797.711 792.574 801.731 791.856 801.642 C 784.712 800.747 786.125 790.955 789.738 786.833 C 794.599 780.369 800.032 776.995 806.491 775.912 L 810.514 775.266 z" fill="rgb(222,222,222)"/><path d="M 805.129 858.82 C 822.028 859.936 834.332 871.262 831.665 887.997 C 827.961 911.247 801.095 918.84 787.451 897.479 C 786.654 894.735 785.476 891.842 785.494 888.984 C 785.102 886.985 789.435 886.41 790.01 886.965 C 794.724 891.511 794.427 900.112 803.016 901.878 C 812.286 903.783 822.783 899.127 824.375 889.007 C 825.231 883.56 824.34 877.877 821.131 873.441 C 814 861.388 800.774 872.474 805.129 858.82 z" fill="rgb(222,222,222)"/><path d="M 708.529 859.077 L 758.539 858.963 C 766.678 858.945 779.962 858.499 787.368 859.449 C 789.28 862.354 788.741 861.225 788.352 865.47 C 783.967 865.896 762.335 865.564 757.094 865.444 C 743.76 865.139 723.29 866.249 710.758 864.839 C 708.352 862.74 709.121 863.222 708.529 859.077 z" fill="rgb(222,222,222)"/><path d="M 707.603 817.006 C 731.255 815.693 757.576 817.189 781.356 817.284 C 782.172 817.288 783.017 821.962 783.155 822.527 C 769.236 826.465 726.582 821.372 710.192 822.701 C 709.077 822.792 707.845 817.751 707.603 817.006 z" fill="rgb(222,222,222)"/><path d="M 708.221 795.305 C 716.414 794.521 762.895 794.357 773.697 795.222 C 774.03 795.248 774.433 796.796 774.496 797.49 L 774.746 800.486 C 755.58 802.767 729.485 800.118 709.938 800.526 C 708.834 800.549 708.328 795.938 708.221 795.305 z" fill="rgb(222,222,222)"/></mask><rect x="689.30" y="737.22" width="219.66" height="219.66" fill="currentColor" mask="url(#md13)"/></svg>
