<svg xmlns="http://www.w3.org/2000/svg" viewBox="1036.11 732.51 227.18 227.18" style="color:#16281A"><mask id="md14" maskUnits="userSpaceOnUse" x="1036.11" y="732.51" width="227.18" height="227.18"><rect x="1036.11" y="732.51" width="227.18" height="227.18" fill="black"/><path d="M 1137.14 752.182 C 1167.72 751.445 1160.61 786.769 1160.42 808.094 L 1160.17 874.133 C 1186.45 894.783 1177.97 932.169 1144.95 940.062 C 1103.4 940.762 1092.22 894.015 1120.16 874.225 C 1120.09 857.2 1117.36 773.972 1122.27 763.525 C 1125.26 757.181 1131.02 754.613 1137.14 752.182 z" fill="rgb(222,222,222)"/><path d="M 1135.98 759.98 C 1136.73 759.938 1137.47 759.909 1138.22 759.891 C 1146.82 759.717 1152.25 763.126 1152.85 772.058 C 1153.7 784.849 1153.28 797.946 1153.23 810.767 L 1153.19 879.032 C 1154.23 879.573 1155.26 880.149 1156.26 880.762 C 1177.13 893.682 1170.36 927.251 1143.46 932.746 C 1110.28 933.597 1101.84 892 1127.74 879.818 L 1127.52 812.38 C 1127.38 798.909 1126.41 781.406 1128.14 768.057 C 1128.64 764.263 1132.8 762.014 1135.98 759.98 z" fill="rgb(0,0,0)"/><path d="M 1135.59 772.404 L 1146.88 772.515 C 1147.2 809.35 1147.3 846.186 1147.19 883.022 C 1166.94 893.258 1165.65 917.513 1144.59 925.153 C 1134.8 925.179 1127.42 923.63 1122.35 913.985 C 1119.56 908.621 1119.13 902.342 1121.14 896.644 C 1123.75 889.42 1127.6 886.544 1133.99 883.489 C 1133.95 869.593 1132.01 777.176 1135.59 772.404 z" fill="rgb(222,222,222)"/><path d="M 1169.83 812.195 C 1175.65 812.096 1206.93 809.27 1206.28 816.4 L 1206.06 818.81 C 1202.03 818.904 1175.26 819.705 1170.51 817.719 C 1170.07 817.535 1169.86 815.776 1169.86 815.03 L 1169.83 812.195 z" fill="rgb(222,222,222)"/><path d="M 1170.78 768.171 C 1181.54 768.009 1192.3 768.003 1203.06 767.686 C 1207.19 767.564 1206.05 771.721 1205.68 774.42 C 1204.27 774.518 1202.87 774.6 1201.46 774.667 C 1192.07 775.053 1181.89 774.548 1172.44 774.561 C 1169.89 774.565 1170.75 769.739 1170.78 768.171 z" fill="rgb(222,222,222)"/><path d="M 1170.53 834.191 C 1181.53 834.215 1192.6 834.033 1203.58 834.352 C 1207.16 834.456 1206.04 838.494 1205.72 840.661 C 1195.82 841.189 1181.53 841.483 1171.77 839.548 C 1170.77 839.35 1170.62 834.971 1170.53 834.191 z" fill="rgb(222,222,222)"/><path d="M 1169.89 789.899 C 1180.46 789.893 1194.57 789.369 1205.17 790.475 C 1206.37 790.601 1206.59 795.035 1206.71 795.997 C 1196.22 796.167 1181.57 796.398 1171.01 795.485 C 1170.1 795.406 1170.03 791.203 1169.98 790.698 L 1169.89 789.899 z" fill="rgb(222,222,222)"/></mask><rect x="1036.11" y="732.51" width="227.18" height="227.18" fill="currentColor" mask="url(#md14)"/></svg>
