<svg xmlns="http://www.w3.org/2000/svg" viewBox="1351.75 727.87 259.99 259.99"><path d="M 1447.02 851.229 C 1461.38 849.966 1471.13 853.41 1480.56 864.76 C 1496.03 883.375 1506.65 879.469 1526.28 872.383 C 1539.67 874.981 1578.76 897.512 1590.08 906.099 L 1523.5 906.259 C 1473.93 906.111 1422.83 907.025 1373.42 906.033 C 1390.49 889.654 1425.27 856.381 1447.02 851.229 z" fill="rgb(22,40,26)" transform="translate(0,0)"/><path d="M 1481.77 822.15 C 1489.64 822.178 1497.22 823.137 1500.47 831.622 C 1501.01 833.049 1501.49 834.989 1500.79 836.446 C 1500.08 836.905 1499.37 835.984 1499.15 835.402 C 1496.64 828.572 1493.67 827.298 1487.56 824.628 C 1474.3 825.9 1476.12 827.922 1469.55 837.507 L 1469.48 837.503 C 1464.98 831.716 1477.69 824.029 1481.77 822.15 z" fill="rgb(22,40,26)" transform="translate(0,0)"/><path d="M 1483.66 799.535 C 1484.29 799.625 1484.91 799.715 1485.54 799.805 C 1486.23 799.941 1486.81 800.41 1487.08 801.058 C 1488.16 803.539 1487.2 811.526 1485.49 814.984 C 1481.33 811.023 1483.39 805.361 1483.66 799.535 z" fill="rgb(68,79,69)" transform="translate(0,0)"/><path d="M 1445.75 833.43 C 1451.06 832.74 1459.61 831.96 1464.3 834.829 C 1459.39 836.711 1449.52 837.997 1445.75 833.43 z" fill="rgb(22,40,26)" transform="translate(0,0)"/><path d="M 1508.25 833.38 C 1512.54 832.837 1521.77 830.843 1523.27 835.632 C 1519.36 836.091 1509.21 838.113 1508.25 833.38 z" fill="rgb(22,40,26)" transform="translate(0,0)"/><path d="M 1461.46 808.714 C 1465.91 811.278 1469.45 816.19 1471.18 820.97 C 1465.94 818.471 1460.56 815.03 1461.46 808.714 z" fill="rgb(22,40,26)" transform="translate(0,0)"/><path d="M 1507.83 809.652 C 1511.72 813.208 1504.26 818.833 1501.23 822.119 C 1498.56 818.162 1505.1 812.555 1507.83 809.652 z" fill="rgb(22,40,26)" transform="translate(0,0)"/></svg>
