<svg xmlns="http://www.w3.org/2000/svg" viewBox="-35.44 1071.68 283.39 283.39" style="color:#16281A"><mask id="md16" maskUnits="userSpaceOnUse" x="-35.44" y="1071.68" width="283.39" height="283.39"><rect x="-35.44" y="1071.68" width="283.39" height="283.39" fill="black"/><path d="M 31.5956 1153.19 C 41.1697 1154.58 51.635 1153.39 61.3354 1153.59 C 70.5019 1153.77 86.0571 1151.91 86.2592 1165.16 L 87.9335 1166.87 C 92.6675 1166.77 93.2747 1167.48 97.0465 1165.26 L 97.2669 1164.56 C 98.0459 1162.17 98.1288 1161.74 99.5581 1159.55 C 103.725 1157.7 107.25 1157.1 111.688 1158.35 C 114.54 1160.66 114.806 1161.58 116.686 1164.86 C 119.324 1166.61 123.625 1167.9 126.539 1166.3 C 128.305 1162.94 131.832 1155.63 135.582 1155.05 C 149.645 1152.87 167.944 1154.3 182.444 1153.88 C 186.77 1175.32 190.982 1196.78 195.078 1218.27 C 196.945 1227.99 199.732 1239.79 200.947 1249.29 C 190.666 1239.15 183.009 1236.09 168.699 1235.43 C 153.82 1234.74 143.229 1245.81 136.19 1247 C 135.557 1244.32 135.042 1242.32 134.206 1239.7 C 130.828 1238.94 121.662 1236.59 118.922 1237.37 C 109.195 1251.51 89.9133 1231.7 79.7331 1241.46 C 79.2848 1245.4 79.7745 1248.71 77.8806 1251.31 C 56.7062 1230.4 34.219 1230.59 11.4999 1249.03 C 15.3364 1223.5 25.9345 1179.35 31.5956 1153.19 z" fill="rgb(222,222,222)"/><path d="M 91.2516 1187.79 C 92.5625 1187.89 97.6349 1187.92 97.9155 1188.38 C 99.5608 1191.07 99.4076 1210.08 97.7739 1212.48 C 97.1756 1212.46 89.3215 1212.54 89.3877 1211.57 C 89.9132 1203.86 90.0627 1195.46 91.2516 1187.79 z" fill="rgb(0,0,0)"/><path d="M 94.1856 1190.71 C 97.4171 1194.26 96.2978 1206 94.8289 1210.32 C 91.8974 1206.44 92.9334 1195.17 94.1856 1190.71 z" fill="rgb(222,222,222)"/><path d="M 114.728 1188.12 C 116.274 1188.33 121.348 1188.64 121.79 1189.41 C 123.597 1192.56 123.989 1207.96 124.535 1212.11 C 122.62 1212.13 115.508 1212.59 114.32 1211.53 C 113.878 1206.64 114.686 1193.78 114.728 1188.12 z" fill="rgb(0,0,0)"/><path d="M 118.079 1192.62 C 121.159 1195.67 120.281 1206.02 119.589 1210.12 C 115.829 1205.53 117.463 1198.42 118.079 1192.62 z" fill="rgb(222,222,222)"/><path d="M 161.097 1240.25 C 185.178 1235.95 208.172 1252.03 212.401 1276.12 C 216.629 1300.21 200.484 1323.16 176.377 1327.32 C 152.371 1331.46 129.541 1315.4 125.33 1291.4 C 121.119 1267.41 137.115 1244.53 161.097 1240.25 z" fill="rgb(222,222,222)"/><path d="M 163.067 1251.26 C 181.039 1248.07 198.184 1260.08 201.321 1278.06 C 204.457 1296.04 192.391 1313.15 174.4 1316.23 C 156.488 1319.3 139.469 1307.3 136.347 1289.4 C 133.224 1271.49 145.174 1254.44 163.067 1251.26 z" fill="rgb(0,0,0)"/><path d="M 13.5935 1251.39 C 32.1134 1235.06 58.7502 1234.4 75.9784 1252.94 C 89.1091 1270.28 92.8412 1292.76 79.0035 1311 C 71.7227 1320.41 61.0001 1326.54 49.1969 1328.05 C 38.0095 1329.52 26.7029 1326.39 17.8608 1319.38 C -4.11282 1301.91 -3.86406 1272.07 13.5935 1251.39 z" fill="rgb(222,222,222)"/><path d="M 40.6094 1250.93 C 58.8982 1248.9 75.3408 1262.16 77.2382 1280.46 C 79.1356 1298.76 65.7616 1315.11 47.4451 1316.87 C 29.3165 1318.62 13.1748 1305.41 11.2968 1287.3 C 9.41888 1269.18 22.5081 1252.94 40.6094 1250.93 z" fill="rgb(0,0,0)"/><path d="M 55.6072 1136.27 C 55.647 1133.61 54.74 1126.74 56.3363 1124.59 C 57.3905 1123.16 88.0707 1124.17 91.9543 1124.22 C 91.955 1132.58 92.1372 1142.1 91.834 1150.38 C 91.893 1154.36 93.0836 1159.32 90.049 1161.94 C 89.3829 1160.49 89.0607 1159.85 88.5834 1158.32 C 78.87 1146.95 70.2777 1150.87 55.6304 1150.91 C 55.6134 1146.07 55.7284 1141.09 55.6072 1136.27 z" fill="rgb(222,222,222)"/><path d="M 123.091 1123.92 C 134.22 1124.38 147.64 1124.03 158.934 1124.01 C 158.876 1128.72 158.834 1132.82 159.014 1137.55 C 158.621 1141.35 158.776 1146.75 158.717 1150.74 C 135.503 1150.9 136.46 1145.87 122.973 1164.28 L 123.091 1123.92 z" fill="rgb(222,222,222)"/><path d="M 54.9571 1103.21 C 63.4753 1103.08 72.7364 1103.05 80.8833 1103.07 C 94.262 1103.1 96.5833 1101.52 95.9127 1116 C 95.79 1118.65 96.9477 1120.1 94.0405 1121.07 C 80.7743 1121.19 65.419 1121.4 52.2678 1120.92 C 51.8797 1113.62 50.5957 1108.56 54.9571 1103.21 z" fill="rgb(222,222,222)"/><path d="M 120.837 1121.16 C 117.473 1117.71 119.654 1113.83 119.029 1109.51 C 117.85 1101.36 128.108 1102.58 133.851 1103.1 C 151.802 1104.74 168.799 1095.3 161.477 1120.9 C 148.078 1121.33 134.302 1120.89 120.837 1121.16 z" fill="rgb(222,222,222)"/></mask><rect x="-35.44" y="1071.68" width="283.39" height="283.39" fill="currentColor" mask="url(#md16)"/></svg>
