<svg xmlns="http://www.w3.org/2000/svg" viewBox="314.91 1071.38 279.12 279.12"><path d="M 385.902 1095.21 C 431.614 1094.8 477.328 1094.64 523.042 1094.72 C 516.804 1104.54 505.581 1117.51 501.092 1126.71 C 493.801 1141.65 486.557 1158.33 479.859 1173.6 C 478.012 1177.81 474.026 1191.18 472.253 1193.03 C 468.64 1191.87 441.076 1192.64 434.903 1192.6 C 433.375 1183.79 428.729 1174.29 425.519 1166.02 C 414.162 1136.79 405.557 1119.99 385.902 1095.21 z" fill="rgb(22,40,26)" transform="translate(0,0)"/><path d="M 396.239 1100.05 C 434.596 1100.73 474.336 1100.25 512.751 1100.12 C 510.169 1103.5 507.551 1107.24 505.029 1110.71 L 499.792 1118.94 C 469.335 1119.06 438.877 1118.96 408.421 1118.62 C 405.216 1112.95 399.967 1105.6 396.239 1100.05 z" fill="rgb(255,255,255)" transform="translate(0,0)"/><path d="M 434.328 1219.89 C 447.523 1219.74 460.968 1219.89 474.184 1219.91 C 474.806 1249.35 476.119 1286.86 474.706 1316.67 C 474.626 1318.36 472.105 1321.28 470.915 1322.64 C 463.096 1325.87 441.454 1327.24 436.324 1320.51 C 431.757 1314.51 433.644 1285.72 433.75 1277.91 L 434.328 1219.89 z" fill="rgb(22,40,26)" transform="translate(0,0)"/><path d="M 434.344 1194.02 C 440.015 1195.52 467.057 1195.41 473.098 1194.61 C 480.531 1196.05 477.924 1195.84 478.394 1204.5 C 478.621 1208.69 478.528 1212.82 478.785 1217.04 C 462.527 1216.83 446.267 1216.83 430.009 1217.05 C 430.03 1211.6 427.818 1194.47 433.125 1194.12 L 434.344 1194.02 z" fill="rgb(22,40,26)" transform="translate(0,0)"/></svg>
