<svg xmlns="http://www.w3.org/2000/svg" viewBox="661.90 1070.12 267.64 267.64"><path d="M 871.447 1095.84 L 872.786 1092.42 C 883.054 1094.32 883.837 1119.6 881.878 1128.09 C 873.592 1164.03 843.819 1190.69 827.074 1221.11 C 829.523 1224.68 829.566 1223.61 829.628 1227.26 C 827.658 1229.91 827.094 1230.63 824.706 1232.88 C 815.224 1224.3 809.243 1216 798.306 1228.14 L 797.856 1228.64 C 792.466 1223.61 788.183 1218.89 782.48 1213.99 C 786.946 1206.72 814.167 1166.84 820.044 1163.8 C 842.555 1150.8 864.282 1121.09 871.447 1095.84 z" fill="rgb(22,40,26)" transform="translate(0,0)"/><path d="M 767.839 1223.42 C 767.555 1222.5 767.355 1221.01 767.182 1220.02 C 770.385 1214.14 775.105 1213.54 780.965 1215.44 C 784.235 1221.31 792.886 1228.31 798.729 1231.74 C 798.253 1235.54 795.664 1236.65 792.285 1238.23 C 787.19 1234.1 775.781 1222.37 770.604 1221.23 L 768.925 1222.77 C 777.05 1227.48 782.512 1234.41 790.19 1239.94 C 788.871 1243.86 783.248 1247.66 779.867 1250.43 L 781.8 1260.9 C 774.413 1273.01 757.401 1292.39 747.9 1303.93 C 741.829 1311.3 737.521 1304.53 729.712 1304.53 C 724.723 1308.73 727.258 1314.11 721.339 1315.45 C 715.363 1313.24 712.058 1308.46 707.604 1303.63 C 716.56 1293.39 714.389 1292.33 720.15 1281.64 C 723.22 1275.94 733.51 1266.17 738.264 1260.43 C 747.792 1248.94 748.031 1240.02 763.354 1236.69 C 764.652 1231.6 765.328 1228.05 767.839 1223.42 z" fill="rgb(22,40,26)" transform="translate(0,0)"/><path d="M 868.333 1097.49 C 858.717 1124.17 848.339 1136.41 827.01 1154.75 C 826.405 1155.64 826.525 1155.51 825.691 1156.17 C 823.997 1157.68 823.079 1158.84 820.84 1159.36 C 825.226 1149.73 826.286 1146.71 829.335 1137.28 C 844.384 1126.41 846.375 1125.13 853.23 1108.32 C 857.786 1105.07 864.439 1100.92 868.333 1097.49 z" fill="rgb(22,40,26)" transform="translate(0,0)"/></svg>
