<svg xmlns="http://www.w3.org/2000/svg" viewBox="1003.82 1066.00 281.47 281.47" style="color:#16281A"><mask id="md19" maskUnits="userSpaceOnUse" x="1003.82" y="1066.00" width="281.47" height="281.47"><rect x="1003.82" y="1066.00" width="281.47" height="281.47" fill="black"/><path d="M 1127.87 1229.25 C 1131.36 1229.43 1131.81 1229.37 1135.06 1230.49 C 1135.3 1239 1109.13 1290.39 1125.93 1298.52 C 1159.97 1314.99 1145.25 1258.14 1142.23 1244.12 C 1138.84 1254.62 1135.01 1265.54 1133.48 1276.45 C 1131.49 1290.64 1136.33 1286.95 1141.74 1293.99 L 1141 1296 C 1139.29 1297.54 1138.3 1298.49 1135.9 1298.55 C 1123.71 1298.86 1125.78 1282.76 1126.02 1275.19 C 1127.49 1265.91 1134.29 1232.8 1143.59 1230.42 C 1152.45 1234.59 1165.82 1297.38 1143.89 1308.56 C 1138.91 1311.13 1133.06 1311.43 1127.84 1309.39 C 1098.95 1298.23 1120.31 1248.01 1127.87 1229.25 z" fill="rgb(222,222,222)"/><path d="M 1115.55 1229.05 C 1118.47 1229.2 1121.56 1228.93 1123.73 1230.68 C 1123.29 1233.83 1120.41 1241.29 1118.4 1245.16 C 1107.8 1265.54 1099.96 1314.87 1135.67 1314.81 C 1162.57 1314.76 1162.91 1277.86 1157.87 1259.01 C 1156.39 1253.46 1151.85 1235.42 1151.65 1229.6 L 1153.36 1228.43 C 1158.88 1229.1 1159.02 1229.21 1160.89 1234.02 C 1167.29 1260.06 1178.85 1307.33 1146.48 1320.79 C 1138.79 1324.02 1130.11 1323.96 1122.47 1320.61 C 1087.87 1305.11 1104.11 1254.61 1115.55 1229.05 z" fill="rgb(222,222,222)"/><path d="M 1140.45 1125.33 L 1139.39 1124.88 C 1133.23 1122.27 1129.2 1122.74 1123.07 1125.21 C 1118.19 1127.18 1115.03 1131.28 1113.32 1136.16 C 1104.68 1160.71 1127.17 1194.7 1124.31 1199.87 C 1122.82 1200.18 1120.01 1201 1118.76 1199.42 C 1105.02 1182.09 1095.17 1140.97 1112.54 1122.82 C 1124.96 1109.85 1140.84 1113.12 1150.11 1127.86 C 1150.32 1130.34 1150.24 1132.41 1151.1 1134.67 C 1153.09 1131.56 1154.98 1128.83 1159.51 1130.47 C 1160.57 1133.91 1157.14 1143.57 1155.12 1145.94 C 1147.37 1155.09 1140.24 1197.03 1134.43 1201.36 C 1131.44 1201.92 1132.92 1202.06 1129.9 1200.45 C 1129.16 1197.49 1129.17 1197.5 1129.25 1194.45 C 1132.76 1179.71 1142.9 1151.71 1149.24 1138.19 L 1147.55 1132.07 C 1145.6 1129.85 1142.69 1127.36 1140.45 1125.33 z" fill="rgb(222,222,222)"/><path d="M 1113.95 1205.28 C 1125.06 1204.79 1152.82 1204.53 1164.55 1205.92 C 1169 1206.44 1172.87 1220.74 1163.77 1225.33 C 1150.16 1226.65 1127.65 1224.78 1113.45 1224.04 C 1108.61 1223.78 1106.1 1209.75 1113.95 1205.28 z" fill="rgb(222,222,222)"/><path d="M 1175.73 1090.21 C 1180.78 1089.95 1184.29 1089.46 1189 1091.89 C 1193.04 1093.97 1196.82 1098.08 1198.2 1102.5 C 1201.25 1112.25 1194.72 1123.25 1190.45 1131.71 C 1190.01 1132.57 1188.03 1136.18 1186.87 1136.44 C 1186.42 1136.54 1185.41 1136.11 1185.1 1135.74 C 1183.95 1134.36 1182.19 1133.66 1180.6 1132.98 C 1180.57 1132.93 1179.38 1132.63 1179.39 1132.32 C 1179.45 1128.82 1182.81 1124.16 1184.69 1120.88 C 1187 1116.83 1188.65 1113.69 1190.52 1109.28 C 1190 1103.72 1189.44 1100.76 1182.98 1099.26 C 1172.22 1096.77 1169.69 1110.94 1166.51 1118.04 C 1165.33 1120.65 1165.26 1123.44 1163.07 1125.16 C 1161.5 1126.38 1156.48 1123.81 1156.32 1122.83 C 1155.79 1119.39 1158.17 1114.61 1159.09 1111.31 C 1162.81 1101.19 1165.54 1095 1175.73 1090.21 z" fill="rgb(222,222,222)"/><path d="M 1127.49 1192.32 C 1122.1 1175.36 1105.42 1145.23 1122.57 1130.12 C 1126.58 1126.59 1132.41 1125.99 1137.56 1126.77 L 1139.11 1126.97 C 1143.26 1131.47 1143.18 1132.44 1145.95 1137.95 C 1144.48 1142.28 1142.95 1146.34 1141.54 1150.72 L 1138.71 1148.53 C 1138.3 1140.78 1131.71 1128.17 1125.78 1138.02 C 1119.36 1154.83 1124.88 1161.46 1131.57 1178.01 C 1130 1182.75 1129.17 1188.11 1127.49 1192.32 z" fill="rgb(222,222,222)"/><path d="M 1165.98 1131.41 C 1168.69 1131.87 1174.95 1132.3 1173.04 1135.95 C 1161.92 1157.15 1153.51 1177.06 1149.3 1200.77 C 1137.83 1203.92 1142.09 1194.54 1144.38 1186.2 C 1148.86 1169.94 1156.94 1145.72 1165.98 1131.41 z" fill="rgb(222,222,222)"/><path d="M 1178.24 1136.38 C 1186.52 1140.29 1185.3 1140.77 1180.81 1148.58 C 1170.37 1166.74 1165.9 1182.01 1160.67 1202.02 C 1159.97 1201.97 1154.43 1201.76 1154.46 1200.62 C 1155.09 1181.08 1167.94 1152.56 1178.24 1136.38 z" fill="rgb(222,222,222)"/><path d="M 1125.78 1138.02 C 1139.14 1138.87 1137.58 1160.76 1135.4 1169.92 C 1129.99 1175.56 1125.98 1140.9 1125.78 1138.02 z" fill="rgb(222,222,222)"/><path d="M 1138.71 1148.53 L 1141.54 1150.72 C 1139.31 1158.76 1139.03 1152.25 1138.71 1148.53 z" fill="rgb(180,180,180)"/></mask><rect x="1003.82" y="1066.00" width="281.47" height="281.47" fill="currentColor" mask="url(#md19)"/></svg>
