<svg xmlns="http://www.w3.org/2000/svg" viewBox="1331.78 1064.05 287.57 287.57" style="color:#16281A"><mask id="md20" maskUnits="userSpaceOnUse" x="1331.78" y="1064.05" width="287.57" height="287.57"><rect x="1331.78" y="1064.05" width="287.57" height="287.57" fill="black"/><path d="M 1554.7 1250.16 C 1558.48 1266.35 1560.72 1282.55 1551.42 1297.65 C 1545.25 1307.72 1535.34 1314.95 1523.87 1317.75 C 1481.59 1327.65 1460.38 1274.88 1443.08 1245.59 C 1420.62 1207.57 1390.4 1168.82 1418.72 1125.6 C 1430.46 1107.95 1448.68 1095.65 1469.44 1091.35 C 1486.36 1088.01 1506.53 1092.29 1517.1 1106.96 L 1516.9 1108.52 C 1501.55 1106.07 1500.46 1120.76 1492.91 1118.09 C 1467.12 1108.97 1436.38 1130.05 1431.82 1157.37 C 1430.75 1163.73 1431.26 1170.26 1433.3 1176.38 C 1443.98 1208.4 1475.94 1248.46 1491.77 1279.53 C 1497.63 1291.03 1516.48 1298.31 1526.66 1288.35 C 1538.02 1279.03 1535.74 1267.67 1532.33 1255.28 C 1535.14 1254.3 1537.72 1255.63 1541.09 1256.52 C 1545.93 1254.38 1549.56 1252.06 1554.7 1250.16 z" fill="rgb(222,222,222)"/><path d="M 1497.69 1121.38 C 1500.88 1118.17 1503.32 1114.14 1507.89 1115.91 L 1509.95 1120.76 L 1511.82 1121.34 C 1513.12 1116.34 1511.91 1115.48 1514.76 1112.49 C 1520.62 1111.93 1523.8 1116.97 1525 1121.97 C 1534.73 1162.43 1546.5 1203.48 1554.84 1244.18 C 1552.53 1247.05 1551.74 1247.66 1548.82 1249.94 C 1544.11 1249.88 1544.55 1248.11 1542.81 1243.67 L 1541.25 1242.83 L 1539.2 1244.53 C 1539.51 1246.44 1539.8 1247.83 1540.25 1249.72 C 1536.95 1252.75 1534.4 1251.08 1530.15 1250.92 C 1526.87 1243.99 1521.03 1217.31 1518.93 1208.58 C 1512.05 1179.47 1504.97 1150.4 1497.69 1121.38 z" fill="rgb(222,222,222)"/></mask><rect x="1331.78" y="1064.05" width="287.57" height="287.57" fill="currentColor" mask="url(#md20)"/></svg>
