<svg xmlns="http://www.w3.org/2000/svg" viewBox="-19.83 1447.11 262.58 262.58"><path d="M 134.828 1507.61 C 137.224 1508.76 138.883 1508.91 140.721 1510.84 C 134.303 1526.61 128.085 1546.4 122.595 1562.73 L 98.6721 1633.06 C 96.9365 1638.19 86.3441 1667.31 86.0051 1670.49 C 88.3253 1674.83 92.7356 1672.61 92.3132 1676.12 C 89.215 1678.66 87.8945 1677.56 83.8833 1676.95 C 80.2473 1680.04 81.8153 1684.69 77.9179 1687.81 L 75.5539 1687.01 C 74.0028 1683.02 76.202 1679.69 78.0148 1675.38 C 74.4497 1673.39 72.6311 1673.15 70.8366 1669.98 L 71.6161 1668.01 C 73.9036 1667.2 75.4057 1667.92 77.795 1668.56 C 78.4373 1668.21 79.0796 1667.85 79.7218 1667.5 C 87.741 1645.9 103.573 1599.81 109.848 1579.85 L 112.8 1570.94 C 120.648 1550.54 126.365 1527.75 134.828 1507.61 z" fill="rgb(22,40,26)" transform="translate(0,0)"/><path d="M 117.192 1586.68 C 120.963 1592.46 140.887 1657.64 144.699 1668.8 L 146.173 1668.3 C 149.827 1667.09 150.509 1667.01 153.463 1668.54 L 153.565 1670.39 C 150.6 1673.75 150.52 1673.05 146.073 1674.67 C 147.469 1678.95 149.276 1683.26 148.872 1687.7 L 146.248 1687.02 C 142.527 1683.53 144.077 1683.32 141.675 1677.97 C 138.192 1676.28 137.937 1678.19 132.586 1677.92 C 131.418 1675.27 131.446 1676.54 132.144 1674.01 C 134.798 1672.78 135.799 1672.59 137.513 1670.19 C 137.97 1666.75 116.761 1605.76 114.073 1597.41 L 117.192 1586.68 z" fill="rgb(22,40,26)" transform="translate(0,0)"/><path d="M 142.398 1469.14 C 149.132 1471.42 151.251 1472.29 157.586 1475.04 C 154.727 1482.8 151.595 1492.44 148.236 1499.96 C 143.62 1497.78 139.596 1496.34 134.986 1494.31 C 136.922 1487.23 139.729 1475.59 142.398 1469.14 z" fill="rgb(22,40,26)" transform="translate(0,0)"/><path d="M 68.8821 1474.13 C 74.8554 1472.21 77.4904 1471.56 83.5663 1468.99 C 85.3621 1474.76 90.9635 1491.36 91.5837 1495.72 C 84.4036 1496.99 81.9812 1499.13 77.4554 1500 C 75.3619 1492.19 71.7542 1481.75 68.8821 1474.13 z" fill="rgb(22,40,26)" transform="translate(0,0)"/><path d="M 91.1684 1507.79 C 94.8004 1514.69 107.562 1557.23 110.537 1567.15 C 109.709 1572.15 110.036 1573.08 107.412 1577.34 C 100.694 1555.61 93.9788 1532.35 86.2044 1511.01 C 87.9686 1509.21 88.9469 1508.93 91.1684 1507.79 z" fill="rgb(22,40,26)" transform="translate(0,0)"/><path d="M 134.282 1506.06 C 131.853 1504.85 125.003 1502.42 123.063 1500.43 C 122.343 1499.69 124.166 1495.4 125.241 1495.59 C 131.71 1496.76 138.68 1498.82 144.864 1501.17 C 148.424 1502.52 153.351 1503.22 155.928 1505.96 C 157.039 1507.15 155.189 1511.61 153.941 1511.75 C 151.118 1512.07 144.977 1509.66 142.278 1508.69 C 141.65 1509.92 141.681 1509.88 140.721 1510.84 C 138.883 1508.91 137.224 1508.76 134.828 1507.61 L 134.282 1506.06 z" fill="rgb(22,40,26)" transform="translate(0,0)"/><path d="M 134.282 1506.06 L 137.563 1506.84 C 139.542 1507.33 140.508 1507.88 142.278 1508.69 C 141.65 1509.92 141.681 1509.88 140.721 1510.84 C 138.883 1508.91 137.224 1508.76 134.828 1507.61 L 134.282 1506.06 z" fill="rgb(197,198,192)" transform="translate(0,0)"/><path d="M 94.9595 1497.19 C 96.4916 1496.73 104.946 1493.47 102.324 1501.31 C 101.889 1502.61 93.3797 1505.27 91.1322 1506.31 L 91.1684 1507.79 C 88.9469 1508.93 87.9686 1509.21 86.2044 1511.01 C 85.4026 1509.74 85.4152 1509.68 84.9708 1508.23 C 82.63 1509.06 73.8084 1513.05 72.5836 1512.1 C 65.34 1506.52 76.8361 1503.31 77.7438 1502.87 L 78.3861 1502.55 C 84.4979 1500.63 88.2411 1498.95 94.9595 1497.19 z" fill="rgb(22,40,26)" transform="translate(0,0)"/><path d="M 91.1322 1506.31 L 91.1684 1507.79 C 88.9469 1508.93 87.9686 1509.21 86.2044 1511.01 C 85.4026 1509.74 85.4152 1509.68 84.9708 1508.23 C 87.2488 1507.47 88.7469 1506.97 91.1322 1506.31 z" fill="rgb(197,198,192)" transform="translate(0,0)"/></svg>
