<svg xmlns="http://www.w3.org/2000/svg" viewBox="325.64 1437.65 261.31 261.31" style="color:#16281A"><mask id="md22" maskUnits="userSpaceOnUse" x="325.64" y="1437.65" width="261.31" height="261.31"><rect x="325.64" y="1437.65" width="261.31" height="261.31" fill="black"/><path d="M 448.096 1460.81 C 477.782 1459.43 458.478 1507.93 467.308 1517.4 L 469.756 1517.46 C 476.516 1508.99 465.261 1472.75 484.699 1470.98 C 488.913 1470.6 493.088 1472.05 496.148 1474.98 C 500.85 1479.55 499.843 1485.55 499.569 1491.52 C 498.55 1513.75 496.732 1535.88 496.908 1558.15 C 501.359 1550.98 525.992 1502.45 541.454 1531.28 C 545.409 1538.66 537.053 1555.21 533.539 1563.31 C 523.336 1586.84 506.851 1607.16 494.11 1629.42 L 494.087 1642.22 L 452.5 1642.13 L 399.495 1642.15 C 391.35 1603.49 385.022 1564.5 375.835 1526.02 C 373.664 1516.93 367.177 1494.56 382.136 1492.15 C 403.437 1488.72 397.877 1524.57 406.866 1531.03 C 417.895 1526.06 387.951 1472.46 415.007 1469.87 C 438.936 1467.59 427.897 1511.66 436.97 1519.05 L 439.148 1517.87 C 445.332 1508.63 432.836 1478.69 440.524 1467.01 C 442.368 1464.21 445.372 1462.53 448.096 1460.81 z" fill="rgb(222,222,222)"/><path d="M 399.664 1646.95 L 493.759 1646.86 C 494.625 1657.66 494.97 1666.36 495.086 1677.19 C 463.194 1676.83 431.004 1677.08 399.089 1677.11 L 399.664 1646.95 z" fill="rgb(222,222,222)"/></mask><rect x="325.64" y="1437.65" width="261.31" height="261.31" fill="currentColor" mask="url(#md22)"/></svg>
