<svg xmlns="http://www.w3.org/2000/svg" viewBox="684.06 1460.66 249.72 249.72" style="color:#16281A"><mask id="md23" maskUnits="userSpaceOnUse" x="684.06" y="1460.66" width="249.72" height="249.72"><rect x="684.06" y="1460.66" width="249.72" height="249.72" fill="black"/><path d="M 791.339 1492 C 813.861 1491.17 804.116 1498.58 821.041 1499.9 C 874.798 1504.11 882.343 1546.17 882.841 1591.58 C 857.573 1587.26 831.725 1580.47 806.232 1577.18 C 788.84 1575.36 734.93 1587.16 715.975 1591.72 C 715.388 1555.24 723.882 1510.18 765.499 1501.89 C 771.491 1500.7 782.651 1500.62 787.731 1497.97 C 788.988 1494.87 789.216 1494.65 791.339 1492 z" fill="rgb(222,222,222)"/><path d="M 790.777 1580.35 C 811.704 1576.53 858.381 1592.78 882.66 1594.08 C 912.973 1679.86 846.09 1619.67 812.256 1615.17 L 811.057 1615.01 C 772.298 1609.41 732.641 1644.04 716.581 1639.16 C 713.862 1638.34 711.904 1636.69 710.584 1634.18 C 704.874 1623.31 712.823 1605.21 716.394 1594.58 C 741.335 1589.91 765.39 1584.44 790.777 1580.35 z" fill="rgb(222,222,222)"/></mask><rect x="684.06" y="1460.66" width="249.72" height="249.72" fill="currentColor" mask="url(#md23)"/></svg>
