<svg xmlns="http://www.w3.org/2000/svg" viewBox="1016.65 1458.25 245.64 245.64" style="color:#16281A"><mask id="md24" maskUnits="userSpaceOnUse" x="1016.65" y="1458.25" width="245.64" height="245.64"><rect x="1016.65" y="1458.25" width="245.64" height="245.64" fill="black"/><path d="M 1074.74 1549.43 C 1099.31 1547.94 1118 1555.08 1141.52 1557.73 C 1147.92 1558.45 1165.64 1553.19 1173.43 1551.67 C 1197.99 1546.89 1216.98 1549.44 1241.01 1553.74 C 1241.43 1559.37 1241.58 1565.42 1241.82 1571.09 C 1233.41 1582.75 1237.51 1599.8 1225.14 1608.73 C 1216.11 1615.25 1188.74 1614.55 1177.85 1612.49 C 1160.34 1604.67 1160.42 1586.76 1149.26 1574.02 C 1147.37 1571.87 1145.4 1571.04 1142.58 1570.9 C 1130.54 1570.28 1125.7 1597.71 1114.56 1606.83 C 1104.3 1615.22 1090.35 1614.24 1078 1613.14 C 1037.12 1609.5 1055.21 1587.62 1041.85 1572.11 C 1041.62 1571.85 1041.38 1571.59 1041.15 1571.33 C 1041.08 1565.84 1041.67 1559.77 1042.09 1554.24 C 1053.17 1551.18 1063.4 1550.27 1074.74 1549.43 z" fill="rgb(222,222,222)"/></mask><rect x="1016.65" y="1458.25" width="245.64" height="245.64" fill="currentColor" mask="url(#md24)"/></svg>
