<svg xmlns="http://www.w3.org/2000/svg" viewBox="1348.40 1448.44 265.25 265.25"><path d="M 1414.54 1516.48 C 1461.5 1515.11 1510.21 1515.52 1557.04 1517.43 C 1573.21 1518.09 1589.08 1532.67 1589.44 1548.88 C 1590.11 1579.63 1591.54 1612.58 1588.57 1643.14 C 1587.06 1658.7 1570.31 1668.8 1556.16 1670.66 C 1529.49 1671.47 1493.37 1670.53 1469.59 1671 C 1396.9 1672.5 1375.73 1676.94 1381.16 1594.85 C 1383.03 1566.56 1370.5 1521.98 1414.54 1516.48 z" fill="rgb(22,40,26)" transform="translate(0,0)"/><path d="M 1466.77 1545.88 L 1501.31 1545.87 C 1501.67 1554.81 1501.51 1565.01 1501.56 1574.05 L 1527.85 1574.06 L 1527.92 1610.6 L 1501.47 1610.96 L 1501.61 1638.8 L 1466.4 1639.02 L 1466.22 1610.67 C 1458.19 1610.39 1449.16 1610.54 1441.04 1610.51 L 1440.95 1573.96 L 1466.68 1573.93 L 1466.77 1545.88 z" fill="rgb(255,255,255)" transform="translate(0,0)"/><path d="M 1470.97 1550.97 L 1497.02 1551.06 L 1497.07 1579.05 L 1522.98 1579.01 L 1522.91 1606.16 L 1497.21 1606.2 C 1497.22 1615.68 1497.16 1625.16 1497.04 1634.64 L 1470.91 1634.67 L 1470.78 1606.25 L 1445.18 1606.2 L 1445.12 1578.93 L 1471.05 1578.81 L 1470.97 1550.97 z" fill="rgb(22,40,26)" transform="translate(0,0)"/><path d="M 1452.2 1486.2 C 1454.4 1486.03 1456.6 1485.9 1458.8 1485.82 C 1476.81 1485.21 1497.35 1485.19 1515.28 1486.34 C 1529.36 1487.25 1531.67 1501.68 1531.67 1512.57 L 1517.25 1512.47 L 1516.84 1501.25 C 1496.87 1500.28 1471.75 1500.92 1451.58 1501.01 C 1451.09 1504.85 1451.08 1508.88 1448.84 1511.79 C 1445.29 1513.77 1440.37 1512.89 1436.02 1512.66 C 1435.67 1497.11 1437.56 1491.92 1452.2 1486.2 z" fill="rgb(22,40,26)" transform="translate(0,0)"/></svg>
