<svg xmlns="http://www.w3.org/2000/svg" viewBox="-34.60 1776.18 296.53 296.53" style="color:#16281A"><mask id="md26" maskUnits="userSpaceOnUse" x="-34.60" y="1776.18" width="296.53" height="296.53"><rect x="-34.60" y="1776.18" width="296.53" height="296.53" fill="black"/><path d="M 102.896 1893.1 C 129.81 1892.94 152.436 1888 151.849 1923.34 C 151.336 1954.22 152.512 1985.83 151.979 2016.77 C 151.853 2029.92 152.948 2038.22 142.727 2048 L 84.3388 2048 C 74.9943 2039.17 75.1606 2035.33 75.1495 2022.7 C 75.1132 1981.65 74.3861 1940.51 75.2424 1899.48 C 75.3137 1896.06 76.6747 1895.1 78.7514 1892.93 L 102.896 1893.1 z" fill="rgb(222,222,222)"/><path d="M 109.506 1909.33 C 123.43 1908.6 145.691 1903.67 141.61 1923.25 C 134.661 1924.62 117.481 1924.07 109.366 1923.97 C 109.259 1918.89 109.232 1914.42 109.506 1909.33 z" fill="rgb(0,0,0)"/><path d="M 91.3246 1908.68 C 96.4145 1908.14 100.992 1911.8 101.576 1916.89 C 102.16 1921.97 98.5311 1926.57 93.4499 1927.2 C 88.3154 1927.82 83.6523 1924.15 83.0624 1919.01 C 82.4724 1913.87 86.1814 1909.24 91.3246 1908.68 z" fill="rgb(0,0,0)"/><path d="M 90.5739 1912.71 C 93.4783 1911.81 96.5641 1913.42 97.4764 1916.32 C 98.3886 1919.22 96.784 1922.32 93.887 1923.24 C 90.9732 1924.17 87.8589 1922.55 86.9413 1919.64 C 86.0238 1916.72 87.6525 1913.61 90.5739 1912.71 z" fill="rgb(222,222,222)"/><path d="M 83.2406 1976.49 C 94.6731 1974.24 125.615 1976.05 138.983 1975.76 C 140.104 1975.73 140.965 1977.35 141.594 1978.23 C 127.492 1981.13 101.736 1977.48 86.5551 1978.78 C 85.8158 1978.84 83.7202 1976.88 83.2406 1976.49 z" fill="rgb(0,0,0)"/><path d="M 84.6013 1962.44 C 86.5646 1962.35 88.5294 1962.29 90.4946 1962.27 C 97.5166 1962.23 132.339 1961.63 140.935 1962.97 C 141.56 1963.07 141.054 1964.72 140.733 1965.66 C 122.504 1965.61 104.228 1965.55 86.0232 1965.35 C 85.2933 1965.34 84.9621 1963.94 84.8547 1963.47 L 84.6013 1962.44 z" fill="rgb(0,0,0)"/><path d="M 85.0494 1949.38 C 93.9924 1948.37 129.669 1948.77 140.747 1949.3 C 141.239 1949.33 141.691 1951.29 141.792 1951.64 C 132.788 1952.77 97.4049 1952.18 86.1208 1951.77 C 85.5502 1951.75 85.1705 1949.85 85.0494 1949.38 z" fill="rgb(0,0,0)"/><path d="M 83.7968 1989.48 C 99.9074 1986.83 122.686 1989.98 139.49 1988.78 C 140.14 1988.73 140.847 1989.85 141.158 1990.32 L 142.01 1991.53 C 126.793 1993.09 103.787 1991.14 87.977 1991.95 C 85.7486 1992.06 85.3562 1991.11 83.7968 1989.48 z" fill="rgb(0,0,0)"/><path d="M 89.7709 2017.52 C 92.5416 2016.62 95.5291 2018.08 96.522 2020.82 C 97.5149 2023.56 96.1551 2026.59 93.4491 2027.67 C 91.6186 2028.4 89.5348 2028.08 88.0128 2026.83 C 86.4907 2025.57 85.7722 2023.59 86.1383 2021.65 C 86.5043 2019.72 87.8967 2018.13 89.7709 2017.52 z" fill="rgb(0,0,0)"/><path d="M 117.561 2016.36 C 126.421 2017.65 126.387 2019.74 124.691 2028.79 C 115.501 2027.3 115.346 2025.34 117.561 2016.36 z" fill="rgb(0,0,0)"/><path d="M 133.733 2017.78 C 136.359 2016.91 139.199 2018.27 140.177 2020.86 C 141.156 2023.44 139.927 2026.34 137.389 2027.43 C 135.643 2028.18 133.625 2027.92 132.136 2026.73 C 130.646 2025.55 129.925 2023.65 130.259 2021.78 C 130.593 2019.91 131.927 2018.37 133.733 2017.78 z" fill="rgb(0,0,0)"/><path d="M 104.871 2017.8 C 107.502 2016.88 110.388 2018.24 111.341 2020.87 C 112.295 2023.49 110.962 2026.39 108.351 2027.37 C 106.637 2028.02 104.708 2027.69 103.3 2026.52 C 101.893 2025.34 101.224 2023.51 101.549 2021.7 C 101.873 2019.9 103.142 2018.41 104.871 2017.8 z" fill="rgb(0,0,0)"/><path d="M 133.309 2003.35 C 134.949 2002.68 136.826 2002.94 138.213 2004.05 C 139.601 2005.15 140.281 2006.92 139.992 2008.67 C 139.702 2010.42 138.488 2011.88 136.819 2012.48 C 134.319 2013.37 131.56 2012.11 130.606 2009.63 C 129.652 2007.15 130.852 2004.36 133.309 2003.35 z" fill="rgb(0,0,0)"/><path d="M 91.0108 2003.4 C 93.4941 2003.11 95.7759 2004.8 96.239 2007.25 C 96.7021 2009.71 95.1892 2012.11 92.7726 2012.74 C 91.0466 2013.2 89.2104 2012.65 88.0146 2011.33 C 86.8188 2010 86.4638 2008.12 87.0949 2006.45 C 87.7259 2004.78 89.2371 2003.6 91.0108 2003.4 z" fill="rgb(0,0,0)"/><path d="M 118.962 2003.47 C 121.213 2002.43 123.884 2003.31 125.07 2005.49 C 126.256 2007.67 125.551 2010.39 123.457 2011.72 C 121.973 2012.66 120.087 2012.7 118.567 2011.82 C 117.046 2010.93 116.144 2009.28 116.227 2007.52 C 116.31 2005.76 117.365 2004.2 118.962 2003.47 z" fill="rgb(0,0,0)"/><path d="M 103.434 2004.6 C 104.64 2003.46 106.374 2003.06 107.957 2003.57 C 109.539 2004.08 110.717 2005.41 111.029 2007.05 C 111.341 2008.68 110.738 2010.35 109.455 2011.41 C 107.565 2012.97 104.78 2012.75 103.157 2010.91 C 101.535 2009.08 101.657 2006.29 103.434 2004.6 z" fill="rgb(0,0,0)"/><path d="M 80.2854 1823.28 C 80.0752 1816.65 78.8702 1807.57 82.4354 1802.28 C 85.5082 1800.89 84.1489 1801.08 87.9623 1802.28 C 90.1272 1804.24 90.8764 1805.73 90.84 1808.82 C 90.6224 1827.28 92.2618 1851.97 90.682 1869.83 C 88.213 1871.52 86.1118 1871.13 82.7691 1871.38 L 83.7094 1873.57 C 87.6098 1874.85 92.3801 1874.41 96.6068 1874.36 L 100.43 1874.41 C 103.658 1878.84 102.211 1884.83 101.698 1890.57 C 94.6183 1889.89 87.2038 1890.21 80.0681 1890.33 C 79.7381 1886.39 79.9507 1879.25 79.9525 1875.06 L 80.2854 1823.28 z" fill="rgb(222,222,222)"/></mask><rect x="-34.60" y="1776.18" width="296.53" height="296.53" fill="currentColor" mask="url(#md26)"/></svg>
