<svg xmlns="http://www.w3.org/2000/svg" viewBox="320.65 1806.08 263.92 263.92"><path d="M 449.099 2048 C 426.784 2041.31 413.462 2025.28 420.94 2001.5 C 423.635 1992.92 429.934 1986.77 437.817 1982.85 C 445.777 1978.81 455.045 1978.2 463.461 1981.18 C 482.509 1987.99 490.949 2009.21 482.777 2027.42 C 478.673 2036.4 471.063 2043.3 461.726 2046.51 C 460.064 2047.09 458.599 2047.51 456.91 2048 L 449.099 2048 z" fill="rgb(22,40,26)" transform="translate(0,0)"/><path d="M 446.626 1987.87 C 455.976 1985.65 465.795 1988.63 472.335 1995.67 C 478.875 2002.71 481.126 2012.72 478.228 2021.88 C 475.331 2031.04 467.733 2037.94 458.335 2039.94 C 444.035 2042.98 429.948 2033.96 426.741 2019.69 C 423.533 2005.43 432.4 1991.24 446.626 1987.87 z" fill="rgb(255,255,255)" transform="translate(0,0)"/><path d="M 471.659 2013.82 L 471.201 2012.87 C 462.954 1995.39 442.826 1991.94 434.801 2012.49 C 434.12 2014.23 434.25 2019.16 433.291 2019.99 C 426.657 2017.16 434.435 1995.75 445.495 1992.89 C 460.467 1989.02 468.841 1993.96 473.119 2008.48 L 473.87 2011.05 C 473.122 2012.02 472.431 2012.88 471.659 2013.82 z" fill="rgb(22,40,26)" transform="translate(0,0)"/><path d="M 473.87 2011.05 C 474.097 2012.93 474.387 2020.53 473.412 2022.08 C 473.393 2021.99 473.374 2021.89 473.355 2021.79 C 473.02 2021.11 472.684 2020.43 472.349 2019.75 L 472.509 2020.53 C 472.446 2020.22 472.382 2019.91 472.319 2019.6 C 471.982 2017.69 471.762 2015.76 471.659 2013.82 C 472.431 2012.88 473.122 2012.02 473.87 2011.05 z" fill="rgb(118,123,117)" transform="translate(0,0)"/><path d="M 388.513 2016.62 C 388.047 2003.06 385.739 1976.4 394.08 1965.29 C 396.945 1960.21 408.797 1961.51 411.835 1959.54 C 432.215 1946.31 472.311 1942.74 491.527 1959.96 C 506.084 1960.72 510.595 1961.11 514.653 1976.37 C 515.214 1984.91 514.622 2010.4 515.652 2015.21 C 510.933 2026.92 497.612 2027.88 486.515 2029.68 C 488.761 2020.92 490.276 2012.91 488.364 2003.87 C 486.348 1994.37 480.522 1986.11 472.248 1981.03 C 464.017 1975.82 454.033 1974.15 444.556 1976.4 C 434.609 1978.72 426.027 1984.97 420.77 1993.73 C 413.869 2005.43 415.242 2016.53 418.502 2028.92 C 415.789 2028.78 413.08 2028.55 410.381 2028.23 C 398.901 2026.8 395.435 2025.47 388.513 2016.62 z" fill="rgb(22,40,26)" transform="translate(0,0)"/><path d="M 371.717 1975.92 C 372.231 1933.38 374.196 1888.47 406.06 1856.15 C 433.741 1828.07 472.631 1828.93 499.682 1857.02 C 524.794 1883.1 533.623 1927.89 532.841 1963.22 C 532.762 1967.35 532.541 1971.47 532.179 1975.59 C 534.723 1979.76 535.826 1982.01 535.863 1986.94 C 535.922 1995.04 538.687 2009.64 531.117 2015.28 C 529.873 2016.21 521.486 2016.09 519.605 2016.09 C 516.848 2011.95 517.891 1983.89 517.679 1976.02 C 520.789 1974.98 521.461 1976.01 524.795 1973.93 C 526.486 1971.65 527.906 1968.91 527.808 1965.95 C 526.527 1929.95 522.723 1889.26 496.932 1861.73 C 471.852 1834.97 434.758 1833.81 409.085 1860.35 C 381.757 1888.59 377.602 1931.18 376.812 1968.59 C 376.73 1972.44 376.583 1973.3 379.18 1975.74 C 381.855 1975.73 383.818 1975.33 385.873 1976.88 C 385.704 1989.07 385.879 2001.53 385.089 2013.65 C 384.886 2016.77 375.964 2016.56 373.296 2015.61 C 371.292 2013.85 369.272 2011.68 369.117 2008.93 C 368.64 2000.52 366.526 1982.72 371.717 1975.92 z" fill="rgb(22,40,26)" transform="translate(0,0)"/></svg>
