<svg xmlns="http://www.w3.org/2000/svg" viewBox="676.72 1808.53 246.14 246.14" style="color:#16281A"><mask id="md28" maskUnits="userSpaceOnUse" x="676.72" y="1808.53" width="246.14" height="246.14"><rect x="676.72" y="1808.53" width="246.14" height="246.14" fill="black"/><path d="M 799.128 1829.04 C 809.482 1836.04 816.493 1843.25 820.988 1855.04 C 831.03 1881.38 812.831 1898.38 810.16 1917.68 C 807.534 1936.67 812.408 1974.06 807.909 1993.86 C 805.725 2003.47 792.488 2012.62 786.471 2025.6 L 785.897 2026.85 C 785.062 2029.77 784.475 2031.37 783.292 2034.16 L 782.231 2034.02 C 777.715 2017.21 784.716 2014.3 787.407 2000.02 C 788.862 1987.81 788.36 1975.31 788.405 1963.01 C 787.364 1950.95 789.729 1932.54 787.805 1920.86 C 784.278 1899.45 768.553 1890.03 774.545 1864.92 C 778.815 1847.03 783.992 1839.59 799.128 1829.04 z" fill="rgb(222,222,222)"/><path d="M 791.431 1849.09 C 790.745 1852.3 784.448 1877.85 794.769 1879.64 C 795.331 1879.73 799.388 1871.53 800.339 1869.81 C 807.137 1879.94 806.576 1883.86 811.4 1870.92 C 811.714 1869.89 812.021 1867.74 813.345 1867.51 C 814.367 1868.16 814.359 1870.73 814.511 1871.74 C 814.026 1877.84 816.072 1880.78 813.307 1886.34 C 808.194 1896.64 806.713 1903.22 807.69 1914.5 C 802.406 1914.46 797.122 1914.36 791.841 1914.18 C 782.092 1885.05 771.637 1879.09 791.431 1849.09 z" fill="rgb(0,0,0)"/></mask><rect x="676.72" y="1808.53" width="246.14" height="246.14" fill="currentColor" mask="url(#md28)"/></svg>
