<svg xmlns="http://www.w3.org/2000/svg" viewBox="1012.64 1809.18 246.12 246.12" style="color:#16281A"><mask id="md29" maskUnits="userSpaceOnUse" x="1012.64" y="1809.18" width="246.12" height="246.12"><rect x="1012.64" y="1809.18" width="246.12" height="246.12" fill="black"/><path d="M 1134.38 1955.22 L 1143.4 1944.77 C 1147.67 1952.65 1154.15 1961.75 1159.37 1969.21 C 1164.98 1963.15 1170.69 1957.17 1176.49 1951.28 C 1193.94 1971.73 1221.91 2007.46 1238.25 2029.75 L 1033.15 2029.39 C 1042.14 2014.35 1052.38 1998.83 1061.83 1984 C 1067.97 1974.35 1078.32 1957 1085.34 1948.76 C 1086.97 1952.99 1086.48 1953.54 1090.87 1954.66 C 1095.29 1953.77 1101.05 1948.44 1104.99 1945.42 C 1107.31 1948.24 1109.68 1951.03 1112.07 1953.79 L 1120.34 1945.34 C 1125.18 1948.53 1129.69 1951.82 1134.38 1955.22 z" fill="rgb(222,222,222)"/><path d="M 1086.51 1947.4 C 1088.71 1940.4 1110.91 1908.57 1115.98 1901.93 C 1120.28 1909.41 1140.43 1939.35 1141.47 1943.21 C 1138.68 1945.66 1136.41 1947.84 1133.5 1950.26 C 1128.91 1947.21 1124.97 1944.33 1120.22 1941.44 C 1117.54 1944.1 1115.06 1946.74 1112.43 1949.41 C 1109.78 1945.69 1108.74 1944.23 1105.77 1940.74 C 1101.32 1943.71 1095.84 1948.48 1091.06 1950.38 C 1090.74 1950.5 1087.58 1947.96 1086.51 1947.4 z" fill="rgb(222,222,222)"/><path d="M 1177.9 1862.73 C 1186.76 1860.47 1195.82 1865.64 1198.38 1874.42 C 1200.95 1883.2 1196.1 1892.43 1187.41 1895.29 C 1181.52 1897.24 1175.04 1895.81 1170.51 1891.58 C 1165.97 1887.34 1164.11 1880.97 1165.65 1874.96 C 1167.19 1868.95 1171.89 1864.26 1177.9 1862.73 z" fill="rgb(222,222,222)"/><path d="M 1178.43 1865.68 C 1185.69 1863.84 1193.12 1868.04 1195.26 1875.22 C 1197.4 1882.4 1193.51 1889.99 1186.42 1892.43 C 1181.57 1894.09 1176.2 1892.97 1172.43 1889.5 C 1168.65 1886.03 1167.08 1880.77 1168.33 1875.8 C 1169.59 1870.83 1173.47 1866.95 1178.43 1865.68 z" fill="rgb(0,0,0)"/><path d="M 1205.24 1875.43 C 1209.55 1874.54 1222.3 1873.02 1225.33 1876.81 C 1221.8 1877.84 1208.59 1879.32 1206.11 1876.4 L 1205.24 1875.43 z" fill="rgb(222,222,222)"/><path d="M 1208.83 1845.59 C 1213 1848.49 1204.15 1855.87 1201.33 1859.4 C 1196.1 1855.82 1205.12 1849.61 1208.83 1845.59 z" fill="rgb(222,222,222)"/><path d="M 1153.16 1845.74 L 1154.3 1846.37 C 1159.54 1849.29 1163.46 1855.12 1165.08 1860.93 C 1160.91 1857.76 1153.41 1851.19 1153.16 1845.74 z" fill="rgb(222,222,222)"/><path d="M 1181.2 1834.74 C 1184.56 1838 1183.12 1848.49 1182.53 1852.93 C 1178.52 1849.17 1179.58 1839.42 1181.2 1834.74 z" fill="rgb(222,222,222)"/><path d="M 1137.97 1875.46 C 1144.09 1874.2 1152.66 1873.51 1158.36 1876.53 C 1152.46 1877.65 1143.29 1878.58 1137.97 1875.46 z" fill="rgb(222,222,222)"/></mask><rect x="1012.64" y="1809.18" width="246.12" height="246.12" fill="currentColor" mask="url(#md29)"/></svg>
