<svg xmlns="http://www.w3.org/2000/svg" viewBox="1356.43 1814.86 253.21 253.21"><path d="M 1525.37 1848.19 C 1534.66 1853.69 1553.31 1868.33 1562.67 1875.31 C 1556.39 1880.02 1531.29 1900.13 1525.6 1901.24 L 1524.62 1897.11 C 1522.5 1895.59 1457.23 1896.36 1450.25 1896.35 L 1403.7 1896.16 C 1403.48 1882.53 1403.86 1867.84 1403.96 1854.13 C 1436.91 1853.92 1488.51 1854.35 1522.81 1853.19 C 1523.87 1853.16 1524.77 1849.73 1525.37 1848.19 z" fill="rgb(22,40,26)" transform="translate(0,0)"/><path d="M 1526.21 1923.81 C 1530.16 1925.21 1556.48 1943.89 1562.98 1948.06 C 1557.7 1952.14 1528.33 1973.97 1524.35 1973.39 L 1523.69 1970.01 C 1520.77 1968.26 1453.81 1969.03 1444.5 1969.03 L 1403.09 1969.01 C 1403.74 1955.23 1403.63 1940.73 1403.74 1926.89 C 1442.79 1925.59 1482.35 1927.04 1521.41 1926.63 C 1524.54 1926.59 1524.43 1926.06 1526.21 1923.81 z" fill="rgb(22,40,26)" transform="translate(0,0)"/><path d="M 1472.78 1972.79 L 1488.86 1972.77 C 1489.23 1997.08 1488.7 2022.45 1488.55 2046.83 C 1483.25 2046.92 1478.18 2046.82 1472.81 2046.97 C 1472.81 2022.35 1472.54 1997.34 1472.78 1972.79 z" fill="rgb(22,40,26)" transform="translate(0,0)"/><path d="M 1472.33 1900.05 L 1488.69 1900 C 1488.76 1907.4 1488.71 1914.81 1488.52 1922.21 C 1483.2 1922.38 1477.87 1922.42 1472.54 1922.34 C 1472.4 1914.91 1472.33 1907.48 1472.33 1900.05 z" fill="rgb(22,40,26)" transform="translate(0,0)"/><path d="M 1472.65 1836.04 C 1478.02 1835.97 1483.39 1835.96 1488.76 1836 C 1488.81 1840.58 1488.76 1845.16 1488.6 1849.74 C 1483.33 1850.02 1477.95 1849.94 1472.67 1849.94 C 1472.56 1845.3 1472.55 1840.67 1472.65 1836.04 z" fill="rgb(22,40,26)" transform="translate(0,0)"/></svg>
