<svg xmlns="http://www.w3.org/2000/svg" viewBox="-16.80 796.08 312.74 312.74"><path d="M 113.306 902.431 C 104.132 886.447 55.6228 853.002 55.6144 841.226 C 57.235 837.519 55.948 838.85 59.6271 837.116 C 78.9739 838.325 105.819 878.392 128.928 881.126 C 144.012 882.911 155.029 882.148 169.511 876.961 C 184.208 871.697 215.541 831.39 229.443 837.379 C 236.915 851.077 184.712 885.075 173.917 901.434 C 173.655 916.655 174.34 1014.26 170.58 1021.06 L 167.197 1023.38 C 163.871 1023.16 160.663 1022.65 157.426 1022.74 L 156.015 1024.86 C 146.847 1024.63 136.116 1024.34 127.083 1024.97 L 126.925 1023.03 C 124.69 1022.91 123.79 1022.85 121.524 1023.02 L 116.267 1021.28 C 114.44 1011.03 114.653 987.779 114.53 976.665 C 114.408 951.916 114 927.17 113.306 902.431 z" fill="rgb(22,40,26)" transform="translate(0,0)"/><path d="M 126.925 1023.03 C 136.422 1017.6 134.018 1008.41 136.063 997.869 C 138.66 984.486 140.323 971.273 143.953 958.026 L 149.516 987.749 C 151.316 996.866 152.634 1016.15 157.426 1022.74 L 156.015 1024.86 C 146.847 1024.63 136.116 1024.34 127.083 1024.97 L 126.925 1023.03 z" fill="rgb(255,255,255)" transform="translate(0,0)"/><path d="M 157.426 1022.74 C 160.663 1022.65 163.871 1023.16 167.197 1023.38 C 167.075 1024.47 167.23 1024.53 167.612 1025.74 C 208.363 1031.15 235.221 1041.48 266.762 1068.18 L 269.877 1070.36 L 269.326 1071.64 C 261.658 1072.63 246.39 1072.09 238.154 1072.03 L 184.161 1071.85 C 136.369 1071.81 77.576 1073.5 30.6862 1071.72 L 9.2615 1071.92 C 39.0815 1047.39 77.5977 1026.95 117.002 1025.98 L 118.351 1025.57 C 119.252 1025.27 121.372 1024.93 121.978 1024.26 C 122.036 1023.7 121.899 1023.71 121.524 1023.02 C 123.79 1022.85 124.69 1022.91 126.925 1023.03 L 127.083 1024.97 C 136.116 1024.34 146.847 1024.63 156.015 1024.86 L 157.426 1022.74 z" fill="rgb(22,40,26)" transform="translate(0,0)"/><path d="M 157.426 1022.74 C 160.663 1022.65 163.871 1023.16 167.197 1023.38 C 167.075 1024.47 167.23 1024.53 167.612 1025.74 C 163.314 1025.86 160.279 1025.29 156.015 1024.86 L 157.426 1022.74 z" fill="rgb(201,203,201)" transform="translate(0,0)"/><path d="M 121.524 1023.02 C 123.79 1022.85 124.69 1022.91 126.925 1023.03 L 127.083 1024.97 C 122.372 1025.78 121.713 1026 117.002 1025.98 L 118.351 1025.57 C 119.252 1025.27 121.372 1024.93 121.978 1024.26 C 122.036 1023.7 121.899 1023.71 121.524 1023.02 z" fill="rgb(127,131,129)" transform="translate(0,0)"/><path d="M 137.421 842.879 C 148.267 842.136 159.56 843.428 163.899 855.168 C 165.175 858.621 164.996 862.444 163.403 865.763 C 160.567 871.553 156.119 873.451 150.286 875.693 C 121.275 877.446 110.43 854.728 137.421 842.879 z" fill="rgb(22,40,26)" transform="translate(0,0)"/></svg>
