<svg xmlns="http://www.w3.org/2000/svg" viewBox="1961.92 1583.70 386.36 386.36"><path d="M 2134.92 1666.54 C 2172.22 1661.52 2216.49 1674.06 2246.22 1696.33 C 2316.09 1748.66 2299.13 1836.72 2223.77 1873.19 C 2203.58 1882.96 2191.25 1885.63 2168.92 1888.66 C 2127.42 1892.24 2089.21 1884.64 2055.12 1859.6 C 2008.99 1825.72 1994.12 1765.31 2031.31 1718.72 C 2057.65 1685.72 2093.6 1671.3 2134.92 1666.54 z" fill="rgb(22,40,26)" transform="translate(0,0)"/><path d="M 2126.96 1702.25 C 2188.21 1697.82 2181.95 1696.29 2181.68 1752.57 C 2195.1 1752.62 2232.99 1750.86 2242.68 1754.64 C 2246.65 1758.95 2246.37 1793.13 2243.32 1797.84 C 2235.36 1801.49 2192.91 1800.07 2182 1800.07 C 2181.66 1811.46 2183.46 1841.6 2179.25 1849.08 C 2172.99 1850.08 2132.97 1851.99 2128.04 1847.69 C 2121.32 1841.81 2123.96 1810.61 2124.01 1800.05 C 2115.59 1799.96 2069.31 1801.92 2062.39 1797.19 C 2060.07 1795.61 2059.34 1759.52 2063.03 1754.86 C 2072.79 1751.1 2111.29 1752.69 2124.05 1752.8 C 2123.91 1742.04 2121.77 1709.28 2126.96 1702.25 z" fill="rgb(255,255,255)" transform="translate(0,0)"/></svg>
