<svg xmlns="http://www.w3.org/2000/svg" viewBox="2.23 2039.18 292.34 292.34"><path d="M 27.9608 2302.85 C 31.7359 2249.86 64.7463 2226.37 114.218 2218.3 C 129.765 2224.75 143.491 2228.74 159.82 2223.26 C 164.814 2221.58 174.319 2219.58 179.274 2219.72 C 212.261 2220.65 243.167 2243.27 255.401 2273.77 C 260.299 2285.99 260.429 2290.43 262.334 2303 C 254.48 2303.06 240.417 2302.74 233.176 2304 L 231.466 2304 L 226.173 2304 L 64.1469 2304 L 59.6347 2304 L 51.8967 2304 C 43.7985 2302.9 36.1213 2302.97 27.9608 2302.85 z" fill="rgb(22,40,26)" transform="translate(0,0)"/><path d="M 226.173 2304 C 226.174 2303.62 224.53 2275.18 230.017 2284.09 C 230.752 2285.28 230.3 2299.8 231.466 2304 L 226.173 2304 z" fill="rgb(255,255,255)" transform="translate(0,0)"/><path d="M 59.6347 2304 C 59.6472 2303.07 59.1384 2274.96 63.7673 2283.2 C 64.3252 2284.19 64.1414 2301.05 64.1469 2304 L 59.6347 2304 z" fill="rgb(255,255,255)" transform="translate(0,0)"/><path d="M 87.8065 2115.72 C 108.309 2083.68 111.111 2066.7 144.744 2081.24 C 150.4 2083.69 167.946 2068.61 178.667 2079.69 C 188.806 2086.84 198.457 2105.05 205.034 2116.11 C 207.158 2116.61 209.289 2117.09 211.425 2117.54 L 212.6 2117.83 C 227.408 2121.37 253.85 2122.27 264.997 2131.19 C 270.206 2144.58 214.059 2148.66 204.9 2149.64 L 202.398 2152.34 C 202.866 2157.16 203.49 2165.55 202.492 2170.12 C 191.906 2218.67 117.805 2224.42 93.9693 2183.5 C 88.5891 2174.26 87.2194 2163 89.6864 2152.87 L 90.5895 2151.91 L 90.1927 2149.93 C 79.2136 2148.51 26.6776 2145.29 26.5916 2132.39 C 34.3696 2122.77 72.9606 2118.58 85.8436 2118.59 L 87.8065 2115.72 z" fill="rgb(22,40,26)" transform="translate(0,0)"/><path d="M 89.6864 2152.87 C 115.23 2155.4 178.244 2157.76 202.398 2152.34 C 202.866 2157.16 203.49 2165.55 202.492 2170.12 C 191.906 2218.67 117.805 2224.42 93.9693 2183.5 C 88.5891 2174.26 87.2194 2163 89.6864 2152.87 z" fill="rgb(22,40,26)" transform="translate(0,0)"/><path d="M 87.8065 2115.72 C 108.309 2083.68 111.111 2066.7 144.744 2081.24 C 150.4 2083.69 167.946 2068.61 178.667 2079.69 C 188.806 2086.84 198.457 2105.05 205.034 2116.11 C 183.62 2123.21 108.894 2124.81 87.8065 2115.72 z" fill="rgb(22,40,26)" transform="translate(0,0)"/><path d="M 85.8436 2118.59 L 87.8065 2115.72 C 108.894 2124.81 183.62 2123.21 205.034 2116.11 C 207.158 2116.61 209.289 2117.09 211.425 2117.54 C 181.855 2124.1 112.387 2130.44 85.8436 2118.59 z" fill="rgb(201,203,201)" transform="translate(0,0)"/><path d="M 90.1927 2149.93 C 133.214 2153.29 161.443 2153.55 204.9 2149.64 L 202.398 2152.34 C 178.244 2157.76 115.23 2155.4 89.6864 2152.87 L 90.5895 2151.91 L 90.1927 2149.93 z" fill="rgb(201,203,201)" transform="translate(0,0)"/></svg>
