<svg xmlns="http://www.w3.org/2000/svg" viewBox="964.68 1595.98 360.15 360.15"><path d="M 1126.79 1668.76 C 1167.18 1665.1 1204.8 1672.66 1237.86 1697.27 C 1282.02 1730.15 1294.82 1789.46 1259.93 1834.14 C 1235.89 1864.94 1200.83 1878.94 1162.76 1883.71 C 1122.09 1887 1086.03 1879.49 1052.35 1855.17 C 1007.47 1822.76 994.697 1763.99 1029.7 1719.09 C 1053.66 1688.36 1088.52 1673.49 1126.79 1668.76 z" fill="rgb(22,40,26)" transform="translate(0,0)"/><path d="M 1140.12 1765.76 C 1140.09 1747.96 1139.27 1729.96 1139.82 1712.27 C 1139.87 1710.7 1143.41 1710.62 1143.46 1711.31 C 1144.94 1728.72 1144.28 1747.74 1144.46 1765.45 C 1151.2 1768.96 1155.59 1769.06 1155.26 1777.32 C 1160.38 1785.22 1205.23 1792 1205.42 1798.01 C 1205.19 1798.39 1204.99 1799.02 1204.38 1798.86 C 1187.3 1794.27 1170.26 1787.45 1152.97 1782.89 C 1137.15 1791.06 1120.54 1778.55 1140.12 1765.76 z" fill="rgb(255,255,255)" transform="translate(0,0)"/><path d="M 1246.9 1770.8 C 1260.76 1770.88 1262.13 1767.2 1263 1779.64 C 1257.97 1779.63 1246.79 1782.11 1246.85 1775.89 L 1246.9 1770.8 z" fill="rgb(255,255,255)" transform="translate(0,0)"/><path d="M 1027.32 1770.7 C 1033.57 1770.77 1041.84 1768.12 1042.06 1775.18 L 1042.2 1779.84 C 1028.19 1779.76 1027.4 1783.23 1027.32 1770.7 z" fill="rgb(255,255,255)" transform="translate(0,0)"/><path d="M 1239.29 1816.67 C 1250.42 1821.93 1253.08 1820.25 1244.39 1829.73 C 1232.36 1824.91 1232.35 1825.34 1239.29 1816.67 z" fill="rgb(255,255,255)" transform="translate(0,0)"/><path d="M 1045.99 1722.89 C 1058.05 1727.55 1057.27 1727.59 1051.31 1735.85 C 1037.98 1731.99 1039.6 1732.09 1045.99 1722.89 z" fill="rgb(255,255,255)" transform="translate(0,0)"/><path d="M 1139.6 1680.91 C 1151.82 1681.15 1149.74 1680.23 1149.59 1693.31 C 1137.31 1693.13 1139.58 1693.82 1139.6 1680.91 z" fill="rgb(255,255,255)" transform="translate(0,0)"/><path d="M 1199.32 1848.44 C 1205.91 1852.9 1208.05 1856.72 1200.3 1859.81 L 1197.33 1860.96 C 1184.66 1854.28 1192.44 1851.63 1199.32 1848.44 z" fill="rgb(255,255,255)" transform="translate(0,0)"/><path d="M 1242.92 1723.58 C 1244.74 1724.15 1250.31 1728.76 1249.46 1730.59 C 1248.66 1732.33 1242.51 1734.56 1240.4 1735.6 C 1238.05 1734.99 1238.26 1733.98 1236.64 1732.35 C 1231.2 1726.89 1237.49 1726.2 1242.92 1723.58 z" fill="rgb(255,255,255)" transform="translate(0,0)"/><path d="M 1090.97 1848.98 C 1103.37 1851.65 1100.51 1852.62 1094.54 1861.23 C 1080.52 1858.7 1085.02 1856.78 1090.97 1848.98 z" fill="rgb(255,255,255)" transform="translate(0,0)"/><path d="M 1139.78 1859.55 C 1151.77 1859.94 1149.52 1859.25 1149.52 1871.83 C 1137.26 1871.84 1139.58 1872.69 1139.78 1859.55 z" fill="rgb(255,255,255)" transform="translate(0,0)"/><path d="M 1050.71 1816.86 C 1059.97 1824.47 1054.83 1825.6 1047.23 1829.64 C 1037.76 1820.95 1039.21 1822.09 1050.71 1816.86 z" fill="rgb(255,255,255)" transform="translate(0,0)"/><path d="M 1196.53 1691.44 C 1208.64 1693.74 1206.32 1696.3 1200.2 1703.61 C 1197.66 1704.03 1192.11 1701.44 1191.52 1699.27 C 1191.03 1697.47 1195.31 1693.03 1196.53 1691.44 z" fill="rgb(255,255,255)" transform="translate(0,0)"/><path d="M 1091.51 1691.62 C 1095.64 1691.88 1096.59 1694.59 1098.96 1697.78 C 1101.1 1700.66 1094.66 1702.75 1092.91 1703.66 C 1089.37 1703.05 1090.14 1702.81 1087.57 1700.09 C 1082.17 1694.39 1085.62 1694.8 1091.51 1691.62 z" fill="rgb(255,255,255)" transform="translate(0,0)"/></svg>
